<?xml version="1.0" encoding="utf-8"?>
<svg version="1.1" id="config" xmlns="http://www.w3.org/2000/svg" xmlns:xlink="http://www.w3.org/1999/xlink" x="0px" y="0px" fill="#787878" viewBox="0 0 89.5378 92" enable-background="new 0 0 89.5378 92" xml:space="preserve">
	<path d="M85.9134,55.4767L55.4702,85.9198c-0.214,0.2031-0.4689,0.2453-0.5915,0.2453c-0.1336,0-0.3884-0.0423-0.6011-0.2453
	l-2.3429-2.3538c-0.3244-0.3189-0.3244-0.8668,0-1.1967l30.4322-30.4336c0.3244-0.3244,0.8778-0.3244,1.209,0l2.3416,2.3429
	C86.2377,54.5989,86.2377,55.1468,85.9134,55.4767z M51.3704,66.8124c-0.4103,0.4089-0.8464,0.7551-1.3098,1.0849L22.1989,40.0316
	c0.3203-0.4689,0.6774-0.9105,1.0863-1.3098L37.629,24.3684l28.0893,28.1002L51.3704,66.8124z M44.3471,69.5806l-10.7756-0.368
	c-0.6229-0.0313-1.213-0.2876-1.6669-0.7237l-1.2348-1.2348l9.3009-3.3924c0.2562-0.09,0.458-0.2549,0.6242-0.4416l5.9671,5.9575
	C45.8436,69.5329,45.1035,69.6011,44.3471,69.5806z M28.2791,64.858l-3.0449-3.0558l3.6786-10.0791l9.4562,9.4562L28.2791,64.858z
	 M21.6033,58.1767c-0.4471-0.443-0.7033-1.0331-0.7237-1.656l-0.368-10.7865c-0.0313-0.7455,0.0532-1.4911,0.1922-2.2203
	l5.9684,5.9684c-0.1867,0.1758-0.3462,0.3775-0.443,0.6338l-3.3911,9.29L21.6033,58.1767z M26.8098,23.2549l9.9673-9.9769
	l1.7569,1.7569l-9.9783,9.9674L26.8098,23.2549z M7.1586,37.6096c-0.3189,0.3244-0.8668,0.3244-1.198,0l-2.3375-2.3429
	c-0.3244-0.3244-0.3244-0.8791,0-1.198L34.0662,3.6309c0.214-0.2126,0.458-0.2453,0.5915-0.2453
	c0.1336,0,0.3884,0.0327,0.6011,0.2453l2.3429,2.3429c0.3244,0.3244,0.3244,0.8777,0,1.198L7.1586,37.6096z M44.268,17.724
	c3.7536-3.7536,8.742-5.8144,14.0453-5.8144c5.3019,0,10.2904,2.0663,14.044,5.8144c3.7536,3.7536,5.8253,8.742,5.8253,14.0549
	c0,5.3033-2.0771,10.2917-5.8253,14.0453l-4.153,4.1529L40.1151,21.8878L44.268,17.724z M76.2554,52.7671l-9.9673,9.966
	l-1.7569-1.7569l9.9769-9.966L76.2554,52.7671z M88.3026,51.888l-2.3416-2.3525c-1.656-1.6451-4.3342-1.6451-5.9902,0
	l-1.0754,1.0863l-3.2207-3.222c3.8763-4.3015,6.0216-9.7902,6.0216-15.6209c0-6.2546-2.4329-12.1222-6.8475-16.5409
	c-4.4133-4.4146-10.2904-6.8475-16.5409-6.8475c-5.8253,0-11.3249,2.1358-15.6209,6.0216l-3.77-3.7686l1.0754-1.0863
	c1.656-1.6451,1.656-4.3342,0-5.9793l-2.3429-2.3429C36.8562,0.4416,35.7917,0,34.6578,0c-1.1231,0-2.1876,0.4416-2.9863,1.2348
	L1.2338,31.678c-1.6451,1.6451-1.6451,4.3342,0,5.9793l2.3416,2.3429c0.8314,0.83,1.9122,1.2348,2.9985,1.2348
	c1.0849,0,2.1657-0.4103,2.9863-1.2348l14.6096-14.6096l3.7318,3.7318l-7.1024,7.1024c-2.5337,2.5351-3.924,6.0543-3.7904,9.6321
	l0.3666,10.7865c0.0532,1.5224,0.676,2.9549,1.7473,4.0248l10.3122,10.3122c1.0754,1.0754,2.5024,1.6982,4.0248,1.746
	l10.7865,0.368c0.1445,0.0109,0.2876,0.0109,0.4416,0.0109c3.4238,0,6.7562-1.3684,9.1905-3.8013l7.1024-7.1024l3.1675,3.1675
	L49.544,79.9787c-1.656,1.656-1.656,4.3329,0,5.978l2.3429,2.3538c0.7987,0.7987,1.8577,1.2348,2.9972,1.2348
	c1.1231,0,2.1876-0.4416,2.9862-1.2348l30.4431-30.4431C89.9477,56.2222,89.9477,53.5331,88.3026,51.888z"/>
	<path d="M7.6697,75.9688L18.095,65.5449c0.7605-0.7619,0.7605-2.0022,0-2.7641c-0.7619-0.7605-2.0022-0.7605-2.7641,0
	L4.907,73.2061c-0.7619,0.7619-0.7619,2.0022,0,2.7627c0.383,0.3844,0.8832,0.5752,1.3793,0.5752
	C6.7865,76.544,7.2867,76.3532,7.6697,75.9688z"/>
	<path d="M1.7926,91.4248C2.1756,91.8078,2.6758,92,3.176,92c0.5016,0,1.0018-0.1922,1.3793-0.5752l19.5394-19.5394
	c0.7619-0.7605,0.7619-2.0022,0-2.7627c-0.7619-0.7619-2.0022-0.7619-2.7627,0L1.7926,88.6676
	C1.0307,89.4281,1.0307,90.6643,1.7926,91.4248z"/>
	<path d="M28.6144,73.8562l-6.9893,6.9893c-0.7619,0.7619-0.7619,2.0022,0,2.7641c0.383,0.383,0.8832,0.5752,1.378,0.5752
	c0.5002,0,1.0018-0.1922,1.3793-0.5752l6.9906-6.9906c0.7605-0.7619,0.7605-2.0022,0-2.7627
	C30.6166,73.0943,29.3763,73.0943,28.6144,73.8562z"/>
	<path d="M57.0131,22.324c1.4802-1.4856,3.4292-2.2257,5.3783-2.2257c1.9477,0,3.8967,0.7401,5.3769,2.2257
	c2.9658,2.9658,2.9658,7.7893,0,10.7551c-2.9658,2.9644-7.7893,2.9644-10.7551,0C54.0486,30.1133,54.0486,25.2898,57.0131,22.324z
	 M62.3913,38.8226c2.8486,0,5.7013-1.0849,7.8684-3.252l0,0c4.3397-4.3397,4.3397-11.3998,0-15.7381
	c-4.3383-4.3397-11.3985-4.3397-15.7381,0c-4.3383,4.3383-4.3383,11.3985,0,15.7381
	C56.6941,37.7377,59.5427,38.8226,62.3913,38.8226z"/>
	<path d="M64.9196,31.9874c0.4212,0,0.8409-0.1499,1.1762-0.4525c2.2107-1.9858,2.6523-5.5963,0.9854-8.0551
	c-0.5479-0.8041-1.6396-1.0181-2.4438-0.4689c-0.8041,0.5479-1.0168,1.6396-0.4689,2.4438
	c0.6924,1.0168,0.4961,2.6292-0.4198,3.4551c-0.7237,0.6501-0.7823,1.7623-0.1336,2.486
	C63.956,31.7897,64.4358,31.9874,64.9196,31.9874z"/>
</svg>
