<?xml version="1.0" encoding="utf-8"?>
<svg version="1.1" id="Calque_1" xmlns="http://www.w3.org/2000/svg" xmlns:xlink="http://www.w3.org/1999/xlink" x="0px" y="0px"
	 viewBox="0 0 755 318.5" style="enable-background:new 0 0 755 318.5;" xml:space="preserve">
<style type="text/css">
	.st0{fill:#FFFFFF;}
</style>
<g>
	<path class="st0" d="M131.8,25c-10.7-9-26.3-13.5-46.3-13.5H48.8c-5.3,0-9.9,3.7-11,8.9L0.2,197.6c-0.7,3.3,0.1,6.8,2.3,9.4
		c2.1,2.6,5.3,4.2,8.7,4.2h12.5c5.3,0,9.9-3.7,11-8.9l14-67.8h22l23,69.1c1.5,4.6,5.8,7.7,10.6,7.7h13.5c3.6,0,7.1-1.8,9.2-4.8
		c2.1-3,2.6-6.8,1.4-10.2c-1.5-4.1-8.9-26-22.8-66.8c11.3-3.9,20.7-10.3,28.1-19c10.1-11.8,15.2-26.6,15.2-44
		C148.9,48.3,143.1,34.4,131.8,25z M84.6,45c25.2,0,28.7,10.2,28.7,21.3c0,11.8-3.1,20.2-9.4,25.7c-6.7,5.8-17.1,8.8-31,8.8H56.1
		L68,45H84.6z"/>
	<path class="st0" d="M217.5,148.7c18-1.4,32.4-5.1,43.6-11.3c16.8-9.4,25.8-24.1,26.2-42.7c0.2-11.6-3.8-21.5-11.5-28.7
		c-7.5-6.9-17.3-10.6-29.4-10.8c-14.6-0.3-28.3,4.3-40.5,13.6c-11.7,8.9-21,20.9-27.7,35.9c-6.6,14.6-10.1,30.2-10.3,46.3
		c-0.3,18.6,4.3,33.6,13.8,44.7c9.8,11.5,23.6,17.5,40.8,17.8c14.5,0.3,28.4-2.7,41.4-8.8c3.9-1.8,6.4-5.7,6.4-9.9l0.2-11.4
		c0.1-3.9-1.9-7.6-5.2-9.6c-3.3-2.1-7.4-2.3-10.9-0.6c-10.1,4.9-19.7,7.3-28.5,7.1c-7.9-0.1-13.5-2.4-17.2-6.9
		c-4.1-4.9-6-12.8-5.9-23.3c0-0.3,0-0.5,0-0.7C208,149.2,212.9,149,217.5,148.7 M244.1,85.9c4.3,0,6,1.5,7,2.6
		c1.1,1.3,2.2,3.2,2.2,7.2c0,8.8-3.3,14.6-11,19.2c-8.2,4.9-20.3,7.9-36.2,8.7c3.6-9.4,8.2-17.4,13.6-23.9
		C227.6,90.4,235.6,85.8,244.1,85.9z"/>
	<path class="st0" d="M312.5,203c12.3,7,26.6,10.6,42.5,10.6c16.9,0,30.8-4.4,41.1-13c11-9.1,16.5-21.4,16.5-36.5
		c0-6.6-1.3-12.6-3.9-17.9c-2.5-5.1-6.3-9.8-11.3-14.1c-4.5-3.8-11.5-8.3-21.4-13.8c0,0-0.1,0-0.1-0.1c-5.5-3-9.8-5.7-12.7-8.1
		c-3.1-2.5-4.2-4.2-4.5-4.8c-0.2-0.4-0.8-1.9-0.8-5.5c0-3.4,1.2-5.6,4-7.8c3.6-2.8,8.9-4.2,15.8-4.2c8.6,0,17.8,2.3,27.2,6.7
		c2.8,1.3,6,1.4,8.9,0.3c2.9-1.1,5.2-3.4,6.3-6.3l4.2-10.7c2.1-5.4-0.2-11.5-5.3-14.1c-5.5-2.8-12.1-5-19.8-6.6
		c-7.5-1.6-14.7-2.4-21.5-2.4c-15.6,0-28.6,4.2-38.6,12.5c-10.5,8.7-16,20.4-16,34c0,10.2,2.9,19,8.7,26.3
		c5.2,6.5,14.2,13.2,27.6,20.5c9.5,5.4,13,8,14.2,9.1c1.6,1.3,2.7,2.7,3.3,3.8c0.5,1,0.8,2.4,0.8,4.1c0,6.6-2.4,9.3-4.6,11
		c-3.8,3-10.1,4.6-18.6,4.6c-4.4,0-9.3-0.8-14.6-2.5c-5.5-1.7-10.8-4.2-16-7.4c-3.5-2.1-7.8-2.3-11.4-0.3c-3.6,2-5.8,5.7-5.8,9.8v13
		C306.9,197.3,309,201,312.5,203z"/>
	<path class="st0" d="M522.8,54.4c-15,0-28.7,4.4-40.7,13c-11.6,8.4-20.9,20.5-27.6,35.7c-6.5,14.9-9.8,31-9.8,47.9
		c0,19.2,4.8,34.5,14.3,45.4c9.9,11.4,24.2,17.1,42.3,17.1c15.4,0,29.3-4.4,41.3-13.1c11.7-8.5,20.9-20.7,27.5-36.5
		c6.3-15.2,9.5-31.7,9.5-49c0-18.2-5-33-14.9-43.9C554.8,60,540.6,54.4,522.8,54.4z M523.1,173.7c-6,4.7-12.7,7-20.4,7
		c-11.9,0-23-3.7-23-30.3c0-11.8,2.1-23,6.3-33.5c4-10,9.3-17.6,15.7-22.7c6-4.8,12.6-7.1,20.1-7.1c7.8,0,13.3,2,17,6.3
		c4,4.6,6.1,11.8,6.1,21.3c0,13.1-2.1,25.2-6.3,36C534.7,161,529.4,168.7,523.1,173.7z"/>
	<path class="st0" d="M669.2,0h-11.4c-5.3,0-9.9,3.7-11,8.9l-40.5,188.7c-0.7,3.3,0.1,6.8,2.2,9.4c2.1,2.6,5.3,4.2,8.7,4.2h11.4
		c5.3,0,9.9-3.7,11-8.9l40.5-188.7c0.7-3.3-0.1-6.8-2.2-9.4C675.8,1.6,672.6,0,669.2,0z"/>
	<path class="st0" d="M736.9,0c-6.8,0-12.7,3.2-16.6,9c-3,4.5-4.6,10.2-4.6,16.9c0,5.4,1.5,10,4.3,13.6c3.4,4.3,8.4,6.6,14.2,6.6
		c6.6,0,12.4-3.2,16.2-9c3-4.5,4.5-10.3,4.5-17.1C755,6.2,745.9,0,736.9,0z"/>
	<path class="st0" d="M733.4,56.9h-11.6c-5.3,0-9.9,3.7-11,8.9l-28,131.8c-0.7,3.3,0.1,6.8,2.3,9.4c2.1,2.6,5.3,4.2,8.7,4.2h11.9
		c5.3,0,9.9-3.7,11-8.9l27.8-131.8c0.7-3.3-0.1-6.8-2.3-9.4C739.9,58.4,736.7,56.9,733.4,56.9z"/>
	<path class="st0" d="M558.6,249.7c-3.1-2.7-7.5-3.4-11.3-1.9c-124,47.8-277.7,47.6-391.6-0.5c-3.1-1.3-6.6-1.2-9.6,0.4
		c-3,1.5-5.1,4.3-5.8,7.6l-2.7,12.6c-1.1,5.3,1.7,10.6,6.7,12.7c59.8,24.8,130.4,38,204.1,38c70.6,0,141.1-12.1,203.6-35.1
		c3.6-1.3,6.3-4.4,7.1-8.2l3.1-14.6C563.1,256.6,561.7,252.4,558.6,249.7z"/>
</g>
</svg>
