<svg viewBox="0 0 141 141" xmlns="http://www.w3.org/2000/svg">
  <g fill="currentColor">
    <path d="M103.531 12.983c0-5.537-4.488-10.025-10.025-10.025-5.536 0-10.024 4.488-10.024 10.025 0 5.536 4.488 10.024 10.024 10.024 5.537 0 10.025-4.488 10.025-10.024zm2.958 0c0 7.17-5.812 12.982-12.983 12.982-7.17 0-12.982-5.813-12.982-12.982C80.524 5.813 86.337 0 93.506 0c7.17 0 12.983 5.813 12.983 12.983zM57.517 12.983c0-5.537-4.488-10.025-10.025-10.025-5.536 0-10.024 4.488-10.024 10.025 0 5.536 4.488 10.024 10.024 10.024 5.537 0 10.025-4.488 10.025-10.024zm2.958 0c0 7.17-5.812 12.982-12.983 12.982-7.17 0-12.982-5.813-12.982-12.982C34.51 5.813 40.323 0 47.492 0c7.17 0 12.983 5.813 12.983 12.983zM7.231 48.972a7.231 7.231 0 0 1 0-14.462H133.77a7.231 7.231 0 0 1 0 14.462h-15.776v84.797a7.231 7.231 0 0 1-14.462 0V83.483h-8.545v50.286a7.231 7.231 0 0 1-14.461 0V48.972H60.476v84.797a7.231 7.231 0 0 1-14.462 0V83.483h-8.546v50.286a7.23 7.23 0 1 1-14.46 0V48.972H7.23zM133.77 37.468H7.231a4.273 4.273 0 1 0 0 8.546h17.255c.817 0 1.48.662 1.48 1.48v86.275a4.272 4.272 0 1 0 8.544 0V82.004c0-.817.662-1.48 1.48-1.48h11.503c.817 0 1.48.663 1.48 1.48v51.765a4.273 4.273 0 0 0 8.546 0l-.001-86.276c0-.817.662-1.479 1.479-1.479h23.007c.816 0 1.479.662 1.479 1.48v86.275a4.273 4.273 0 0 0 8.546 0V82.004c0-.817.662-1.48 1.478-1.48h11.503c.817 0 1.48.663 1.48 1.48v51.765a4.273 4.273 0 0 0 8.545 0V47.493c0-.817.662-1.479 1.48-1.479h17.254a4.273 4.273 0 0 0 0-8.546z"/>
  </g>
</svg>
