<svg viewBox="0 0 50 50" xmlns="http://www.w3.org/2000/svg">
  <g fill="currentColor">
    <path d="M14 8.834a4.833 4.833 0 1 1 9.668 0 4.833 4.833 0 0 1-9.668 0zm3 0a1.833 1.833 0 1 0 3.665 0 1.833 1.833 0 0 0-3.665 0zM27.333 8.834a4.834 4.834 0 1 1 9.667 0 4.834 4.834 0 0 1-9.667 0zm3 0A1.834 1.834 0 1 0 34 8.832a1.834 1.834 0 0 0-3.667.002zM8.833 25.666a4.834 4.834 0 0 1 0-9.667h33.334a4.834 4.834 0 0 1 0 9.667h-1.5V40.5a6.5 6.5 0 0 1-6.5 6.5 6.5 6.5 0 0 1-6.5-6.5V25.666h-4.334V40.5a6.5 6.5 0 1 1-13 0V25.666h-1.5zm33.334-3a1.833 1.833 0 1 0 0-3.667H8.833a1.834 1.834 0 0 0 0 3.668h3a1.5 1.5 0 0 1 1.5 1.5v16.332a3.5 3.5 0 1 0 7 0V24.166a1.5 1.5 0 0 1 1.5-1.5h7.334a1.5 1.5 0 0 1 1.5 1.5V40.5a3.5 3.5 0 1 0 7 0V24.166a1.5 1.5 0 0 1 1.5-1.5h3z"/>
  </g>
</svg>
