<?xml version="1.0" encoding="utf-8"?>
<svg version="1.1" xmlns="http://www.w3.org/2000/svg" xmlns:xlink="http://www.w3.org/1999/xlink" xmlns:a="http://ns.adobe.com/AdobeSVGViewerExtensions/3.0/" width="43px" height="83px" viewBox="0 0 43 83" style="enable-background:new 0 0 43 83;" xml:space="preserve">
<path fill="currentColor" d="M0.4,22.6c0.6,0.6,1.5,0.6,2.1,0L20,5.1v76.4c0,0.8,0.7,1.5,1.5,1.5s1.5-0.7,1.5-1.5V5.1l17.4,17.4
	c0.6,0.6,1.5,0.6,2.1,0c0.3-0.3,0.4-0.7,0.4-1.1s-0.1-0.8-0.4-1.1l-20-20C22.3,0.2,22,0,21.6,0c0,0-0.1,0-0.1,0c-0.1,0-0.1,0-0.2,0
	c-0.3,0-0.6,0.2-0.8,0.4c0,0-0.1,0-0.1,0.1l-20,20C-0.1,21-0.1,22,0.4,22.6z"/>
</svg>
