<svg fill="none" xmlns="http://www.w3.org/2000/svg" viewBox="0 0 26 22">
  <path fill-rule="evenodd" clip-rule="evenodd" d="M11.1 3.316a5.348 5.348 0 00-7.563 7.564l9.256 9.256a.388.388 0 00.55-.549L9.836 16.08a.75.75 0 011.06-1.06l3.507 3.506a.388.388 0 10.55-.549l-.015-.014-3.493-3.493a.75.75 0 011.061-1.06l3.493 3.492a.409.409 0 00.578-.578l-3.493-3.492a.75.75 0 111.06-1.061l3.493 3.493.015.014a.388.388 0 00.549-.55l-5.133-5.132-1.985 1.985a2.274 2.274 0 11-3.217-3.217l4.141-4.14-.907-.908zm1.968-.153l-.907-.907a6.848 6.848 0 10-9.685 9.684l9.257 9.257a1.888 1.888 0 003.205-1.075 1.88 1.88 0 001.075-.535 1.88 1.88 0 00.536-1.083 1.9 1.9 0 001.088-.541 1.9 1.9 0 00.541-1.088 1.88 1.88 0 001.084-.536l4.398-4.398a6.848 6.848 0 00-9.685-9.685l-.907.907zm6.44 10.808l3.091-3.091a5.348 5.348 0 10-7.563-7.564l-6.109 6.11a.775.775 0 001.095 1.095l2.456-2.456a.835.835 0 011.18 0m5.85 5.906a1.899 1.899 0 00-.246-.303l-2.924-2.923a5.532 5.532 0 004.102-1.622m-7.842.003z" fill="currentColor"/>
</svg>
