<svg fill="none" xmlns="http://www.w3.org/2000/svg" viewBox="0 0 85 72">
<path fill-rule="evenodd" clip-rule="evenodd" d="M36.677 7.782c-8.042-8.043-21.08-8.043-29.123 0-8.042 8.042-8.042 21.08 0 29.123l32.398 32.398a3.234 3.234 0 104.573-4.574L32.25 52.454a.75.75 0 011.061-1.06l12.275 12.274a3.234 3.234 0 104.574-4.573l-.05-.05L37.885 46.82a.75.75 0 011.06-1.06L51.17 57.983a3.305 3.305 0 004.674-4.674L43.62 41.085a.75.75 0 111.06-1.06l12.275 12.274a3.234 3.234 0 104.574-4.574l-19.29-19.29-8.274 8.273a6.086 6.086 0 11-8.607-8.607l15.82-15.819-4.5-4.5zm5.561 3.44l-4.5-4.501c-8.628-8.628-22.617-8.628-31.245 0s-8.628 22.617 0 31.245l32.398 32.397a4.734 4.734 0 007.973-4.355 4.73 4.73 0 004.356-1.279 4.73 4.73 0 001.272-4.385 4.801 4.801 0 004.413-1.3 4.802 4.802 0 001.3-4.412 4.73 4.73 0 004.385-1.272l15.394-15.394c8.628-8.628 8.628-22.617 0-31.245s-22.617-8.628-31.245 0l-4.5 4.5zm21.736 38.632l12.949-12.949c8.042-8.042 8.042-21.081 0-29.123-8.042-8.043-21.081-8.043-29.124 0l-21.38 21.38a4.586 4.586 0 006.485 6.486l8.594-8.594a1.047 1.047 0 011.48 0c6.265 6.255 16.415 6.252 22.676-.009l.201-.201a.75.75 0 011.061 1.06l-.201.202c-5.06 5.06-12.445 6.382-18.719 3.965L62.59 46.665a4.717 4.717 0 011.384 3.19z" fill="currentColor"/>
</svg>
