<?xml version="1.0" encoding="utf-8"?>
<svg version="1.1" id="Layer_2" xmlns="http://www.w3.org/2000/svg" xmlns:xlink="http://www.w3.org/1999/xlink" x="0px" y="0px"
	 viewBox="0 0 63 63" width="63px" height="63px" enable-background="new 0 0 63 63" xml:space="preserve">
<path fill="currentColor" d="M25.25,58C14.084,58,5,48.916,5,37.75c0-0.8281,0.6714-1.5,1.5-1.5S8,36.9219,8,37.75
	C8,47.2617,15.7383,55,25.25,55S42.5,47.2617,42.5,37.75V10.1211l-9.9395,9.9395c-0.5859,0.5859-1.5352,0.5859-2.1211,0
	c-0.5859-0.5854-0.5859-1.5356,0-2.1211L42.9316,5.4473c0.0283-0.0288,0.0576-0.0566,0.0889-0.083
	c0.2314-0.2002,0.5098-0.3179,0.7959-0.353c0.0947-0.0122,0.1885-0.0161,0.2842-0.0078c0.3496,0.0234,0.6924,0.1685,0.96,0.436
	l12.5,12.5C57.8535,18.2324,58,18.6162,58,19s-0.1465,0.7676-0.4395,1.0605c-0.5859,0.5859-1.5352,0.5859-2.1211,0L45.5,10.1211
	V37.75C45.5,48.916,36.416,58,25.25,58z"/>
</svg>
