<svg viewBox="0 0 143 143" xmlns="http://www.w3.org/2000/svg">
  <g fill="currentColor">
    <path d="M54 14.667h35a1.5 1.5 0 0 0 0-3H54a1.5 1.5 0 0 0 0 3zM42.333 11.667H13.166C5.896 11.667 0 17.562 0 24.834v105C0 137.104 5.895 143 13.166 143h99.167a1.5 1.5 0 0 0 0-3H13.166C7.552 140 3 135.448 3 129.834v-105c0-5.615 4.552-10.167 10.166-10.167h29.167a1.5 1.5 0 0 0 0-3zM100.667 14.667h29.167c5.614 0 10.166 4.552 10.166 10.167v87.5a1.5 1.5 0 0 0 3 0v-87.5c0-7.272-5.895-13.167-13.166-13.167h-29.167a1.5 1.5 0 0 0 0 3z"/>
    <path d="M43.833 19a4.333 4.333 0 1 0 8.667 0V7.334a4.334 4.334 0 0 0-8.667 0V19zm-3-11.666a7.333 7.333 0 1 1 14.667 0V19a7.334 7.334 0 0 1-14.667 0V7.334zM90.5 19a4.333 4.333 0 1 0 8.667 0V7.334a4.334 4.334 0 0 0-8.667 0V19zm-3-11.666a7.333 7.333 0 1 1 14.667 0V19A7.334 7.334 0 0 1 87.5 19V7.334zM137.879 113.833H124c-5.615 0-10.167 4.552-10.167 10.167v13.879l24.046-24.046zM110.833 141.5V124c0-7.272 5.895-13.167 13.167-13.167h17.5c1.337 0 2.006 1.616 1.06 2.56l-29.166 29.168c-.945.945-2.56.275-2.56-1.06zM1.5 49.667h140a1.5 1.5 0 0 0 0-3H1.5a1.5 1.5 0 0 0 0 3zM29.167 71.5a4.333 4.333 0 1 0-8.666 0 4.333 4.333 0 0 0 8.666 0zm3 0a7.333 7.333 0 0 1-7.333 7.333 7.333 7.333 0 1 1 7.333-7.333zM52.5 71.5a4.333 4.333 0 1 0-8.666 0 4.333 4.333 0 0 0 8.666 0zm3 0a7.333 7.333 0 0 1-7.333 7.333A7.333 7.333 0 1 1 55.5 71.5zM75.833 71.5a4.333 4.333 0 1 0-8.666 0 4.333 4.333 0 0 0 8.666 0zm3 0a7.333 7.333 0 0 1-7.333 7.333 7.333 7.333 0 1 1 7.333-7.333zM99.167 71.5a4.333 4.333 0 1 0-8.666 0 4.333 4.333 0 0 0 8.666 0zm3 0a7.333 7.333 0 0 1-7.333 7.333 7.333 7.333 0 1 1 7.333-7.333zM122.5 71.5a4.333 4.333 0 1 0-8.666 0 4.333 4.333 0 0 0 8.666 0zm3 0a7.333 7.333 0 0 1-7.333 7.333A7.333 7.333 0 1 1 125.5 71.5zM29.167 94.833a4.333 4.333 0 1 0-8.666 0 4.333 4.333 0 0 0 8.666 0zm3 0a7.333 7.333 0 0 1-7.333 7.333 7.333 7.333 0 1 1 7.333-7.333zM52.5 94.833a4.333 4.333 0 1 0-8.666 0 4.333 4.333 0 0 0 8.666 0zm3 0a7.333 7.333 0 0 1-7.333 7.333 7.333 7.333 0 1 1 7.333-7.333zM75.833 94.833a4.333 4.333 0 1 0-8.666 0 4.333 4.333 0 0 0 8.666 0zm3 0a7.333 7.333 0 0 1-7.333 7.333 7.333 7.333 0 1 1 7.333-7.333zM99.167 94.833a4.333 4.333 0 1 0-8.666 0 4.333 4.333 0 0 0 8.666 0zm3 0a7.333 7.333 0 0 1-7.333 7.333 7.333 7.333 0 1 1 7.333-7.333zM29.167 118.167a4.333 4.333 0 1 0-8.666 0 4.333 4.333 0 0 0 8.666 0zm3 0a7.333 7.333 0 0 1-7.333 7.333 7.333 7.333 0 1 1 7.333-7.333zM52.5 118.167a4.333 4.333 0 1 0-8.666 0 4.333 4.333 0 0 0 8.666 0zm3 0a7.333 7.333 0 0 1-7.333 7.333 7.333 7.333 0 1 1 7.333-7.333zM75.833 118.167a4.333 4.333 0 1 0-8.666 0 4.333 4.333 0 0 0 8.666 0zm3 0A7.333 7.333 0 0 1 71.5 125.5a7.333 7.333 0 1 1 7.333-7.333zM99.167 118.167a4.333 4.333 0 1 0-8.666 0 4.333 4.333 0 0 0 8.666 0zm3 0a7.333 7.333 0 0 1-7.333 7.333 7.333 7.333 0 1 1 7.333-7.333zM122.5 94.833a4.333 4.333 0 1 0-8.666 0 4.333 4.333 0 0 0 8.666 0zm3 0a7.333 7.333 0 0 1-7.333 7.333 7.333 7.333 0 1 1 7.333-7.333z"/>
  </g>
</svg>
