<?xml version="1.0" encoding="UTF-8"?>
<svg width="143px" height="143px" viewBox="0 0 143 143" version="1.1" xmlns="http://www.w3.org/2000/svg" xmlns:xlink="http://www.w3.org/1999/xlink">

      <g id="calendar-big" fill-rule="nonzero" fill="currentColor">
          <path d="M54,14.6667 L89,14.6667 C89.8284271,14.6667 90.5,13.9951271 90.5,13.1667 C90.5,12.3382729 89.8284271,11.6667 89,11.6667 L54,11.6667 C53.1715729,11.6667 52.5,12.3382729 52.5,13.1667 C52.5,13.9951271 53.1715729,14.6667 54,14.6667 Z" id="Stroke-1"></path>
          <path d="M42.3332,11.6667 L13.1662,11.6667 C5.89527288,11.6667 0.0002,17.5617729 0.0002,24.8337 L0.0002,129.8337 C0.0002,137.104802 5.89544738,142.9997 13.1662,142.9997 L112.3332,142.9997 C113.161627,142.9997 113.8332,142.328127 113.8332,141.4997 C113.8332,140.671273 113.161627,139.9997 112.3332,139.9997 L13.1662,139.9997 C7.55226187,139.9997 3.0002,135.447908 3.0002,129.8337 L3.0002,24.8337 C3.0002,19.2186271 7.55212712,14.6667 13.1662,14.6667 L42.3332,14.6667 C43.1616271,14.6667 43.8332,13.9951271 43.8332,13.1667 C43.8332,12.3382729 43.1616271,11.6667 42.3332,11.6667 Z" id="Stroke-2"></path>
          <path d="M100.6667,14.6667 L129.8337,14.6667 C135.447773,14.6667 139.9997,19.2186271 139.9997,24.8337 L139.9997,112.3337 C139.9997,113.162127 140.671273,113.8337 141.4997,113.8337 C142.328127,113.8337 142.9997,113.162127 142.9997,112.3337 L142.9997,24.8337 C142.9997,17.5617729 137.104627,11.6667 129.8337,11.6667 L100.6667,11.6667 C99.8382729,11.6667 99.1667,12.3382729 99.1667,13.1667 C99.1667,13.9951271 99.8382729,14.6667 100.6667,14.6667 Z" id="Stroke-4"></path>
          <path d="M43.8332,18.9997 C43.8332,21.3935432 45.7728974,23.3337 48.1662,23.3337 C50.5597729,23.3337 52.5002,21.3932729 52.5002,18.9997 L52.5002,7.3337 C52.5002,4.94012712 50.5597729,2.9997 48.1662,2.9997 C45.7728974,2.9997 43.8332,4.93985683 43.8332,7.3337 L43.8332,18.9997 Z M40.8332,7.3337 C40.8332,3.2831616 44.1158841,-0.0003 48.1662,-0.0003 C52.2166271,-0.0003 55.5002,3.28327288 55.5002,7.3337 L55.5002,18.9997 C55.5002,23.0501271 52.2166271,26.3337 48.1662,26.3337 C44.1158841,26.3337 40.8332,23.0502384 40.8332,18.9997 L40.8332,7.3337 Z" id="Stroke-6"></path>
          <path d="M90.5,18.9997 C90.5,21.3935432 92.4396974,23.3337 94.833,23.3337 C97.2265729,23.3337 99.167,21.3932729 99.167,18.9997 L99.167,7.3337 C99.167,4.94012712 97.2265729,2.9997 94.833,2.9997 C92.4396974,2.9997 90.5,4.93985683 90.5,7.3337 L90.5,18.9997 Z M87.5,7.3337 C87.5,3.2831616 90.7826841,-0.0003 94.833,-0.0003 C98.8834271,-0.0003 102.167,3.28327288 102.167,7.3337 L102.167,18.9997 C102.167,23.0501271 98.8834271,26.3337 94.833,26.3337 C90.7826841,26.3337 87.5,23.0502384 87.5,18.9997 L87.5,7.3337 Z" id="Stroke-8"></path>
          <path d="M137.87888,113.8331 L124.0002,113.8331 C118.384992,113.8331 113.8332,118.385162 113.8332,124.0001 L113.8332,137.87878 L137.87888,113.8331 Z M110.8332,141.5001 L110.8332,124.0001 C110.8332,116.728347 116.728098,110.8331 124.0002,110.8331 L141.5002,110.8331 C142.836557,110.8331 143.505807,112.448813 142.56086,113.39376 L113.39386,142.56076 C112.448913,143.505707 110.8332,142.836457 110.8332,141.5001 Z" id="Stroke-10"></path>
          <path d="M1.5,49.6667 L141.5,49.6667 C142.328427,49.6667 143,48.9951271 143,48.1667 C143,47.3382729 142.328427,46.6667 141.5,46.6667 L1.5,46.6667 C0.671572875,46.6667 0,47.3382729 0,48.1667 C0,48.9951271 0.671572875,49.6667 1.5,49.6667 Z" id="Stroke-12"></path>
          <path d="M29.1667,71.5 C29.1667,69.1068122 27.226658,67.167 24.8337,67.167 C22.4398568,67.167 20.4997,69.1066974 20.4997,71.5 C20.4997,73.8933026 22.4398568,75.833 24.8337,75.833 C27.226658,75.833 29.1667,73.8931878 29.1667,71.5 Z M32.1667,71.5 C32.1667,75.5501215 28.8834328,78.833 24.8337,78.833 C20.7831616,78.833 17.4997,75.5503159 17.4997,71.5 C17.4997,67.4496841 20.7831616,64.167 24.8337,64.167 C28.8834328,64.167 32.1667,67.4498785 32.1667,71.5 Z" id="Stroke-14"></path>
          <path d="M52.5,71.5 C52.5,69.1068122 50.559958,67.167 48.167,67.167 C45.7731568,67.167 43.833,69.1066974 43.833,71.5 C43.833,73.8933026 45.7731568,75.833 48.167,75.833 C50.559958,75.833 52.5,73.8931878 52.5,71.5 Z M55.5,71.5 C55.5,75.5501215 52.2167328,78.833 48.167,78.833 C44.1164616,78.833 40.833,75.5503159 40.833,71.5 C40.833,67.4496841 44.1164616,64.167 48.167,64.167 C52.2167328,64.167 55.5,67.4498785 55.5,71.5 Z" id="Stroke-16"></path>
          <path d="M75.8332,71.5 C75.8332,69.1068122 73.893158,67.167 71.5002,67.167 C69.1063568,67.167 67.1662,69.1066974 67.1662,71.5 C67.1662,73.8933026 69.1063568,75.833 71.5002,75.833 C73.893158,75.833 75.8332,73.8931878 75.8332,71.5 Z M78.8332,71.5 C78.8332,75.5501215 75.5499328,78.833 71.5002,78.833 C67.4496616,78.833 64.1662,75.5503159 64.1662,71.5 C64.1662,67.4496841 67.4496616,64.167 71.5002,64.167 C75.5499328,64.167 78.8332,67.4498785 78.8332,71.5 Z" id="Stroke-18"></path>
          <path d="M99.1667,71.5 C99.1667,69.1068122 97.226658,67.167 94.8337,67.167 C92.4398568,67.167 90.4997,69.1066974 90.4997,71.5 C90.4997,73.8933026 92.4398568,75.833 94.8337,75.833 C97.226658,75.833 99.1667,73.8931878 99.1667,71.5 Z M102.1667,71.5 C102.1667,75.5501215 98.8834328,78.833 94.8337,78.833 C90.7831616,78.833 87.4997,75.5503159 87.4997,71.5 C87.4997,67.4496841 90.7831616,64.167 94.8337,64.167 C98.8834328,64.167 102.1667,67.4498785 102.1667,71.5 Z" id="Stroke-20"></path>
          <path d="M122.5,71.5 C122.5,69.1068122 120.559958,67.167 118.167,67.167 C115.773157,67.167 113.833,69.1066974 113.833,71.5 C113.833,73.8933026 115.773157,75.833 118.167,75.833 C120.559958,75.833 122.5,73.8931878 122.5,71.5 Z M125.5,71.5 C125.5,75.5501215 122.216733,78.833 118.167,78.833 C114.116462,78.833 110.833,75.5503159 110.833,71.5 C110.833,67.4496841 114.116462,64.167 118.167,64.167 C122.216733,64.167 125.5,67.4498785 125.5,71.5 Z" id="Stroke-22"></path>
          <path d="M29.1667,94.8333 C29.1667,92.4401122 27.226658,90.5003 24.8337,90.5003 C22.4398568,90.5003 20.4997,92.4399974 20.4997,94.8333 C20.4997,97.2266026 22.4398568,99.1663 24.8337,99.1663 C27.226658,99.1663 29.1667,97.2264878 29.1667,94.8333 Z M32.1667,94.8333 C32.1667,98.8834215 28.8834328,102.1663 24.8337,102.1663 C20.7831616,102.1663 17.4997,98.8836159 17.4997,94.8333 C17.4997,90.7829841 20.7831616,87.5003 24.8337,87.5003 C28.8834328,87.5003 32.1667,90.7831785 32.1667,94.8333 Z" id="Stroke-24"></path>
          <path d="M52.5,94.8333 C52.5,92.4401122 50.559958,90.5003 48.167,90.5003 C45.7731568,90.5003 43.833,92.4399974 43.833,94.8333 C43.833,97.2266026 45.7731568,99.1663 48.167,99.1663 C50.559958,99.1663 52.5,97.2264878 52.5,94.8333 Z M55.5,94.8333 C55.5,98.8834215 52.2167328,102.1663 48.167,102.1663 C44.1164616,102.1663 40.833,98.8836159 40.833,94.8333 C40.833,90.7829841 44.1164616,87.5003 48.167,87.5003 C52.2167328,87.5003 55.5,90.7831785 55.5,94.8333 Z" id="Stroke-26"></path>
          <path d="M75.8332,94.8333 C75.8332,92.4401122 73.893158,90.5003 71.5002,90.5003 C69.1063568,90.5003 67.1662,92.4399974 67.1662,94.8333 C67.1662,97.2266026 69.1063568,99.1663 71.5002,99.1663 C73.893158,99.1663 75.8332,97.2264878 75.8332,94.8333 Z M78.8332,94.8333 C78.8332,98.8834215 75.5499328,102.1663 71.5002,102.1663 C67.4496616,102.1663 64.1662,98.8836159 64.1662,94.8333 C64.1662,90.7829841 67.4496616,87.5003 71.5002,87.5003 C75.5499328,87.5003 78.8332,90.7831785 78.8332,94.8333 Z" id="Stroke-28"></path>
          <path d="M99.1667,94.8333 C99.1667,92.4401122 97.226658,90.5003 94.8337,90.5003 C92.4398568,90.5003 90.4997,92.4399974 90.4997,94.8333 C90.4997,97.2266026 92.4398568,99.1663 94.8337,99.1663 C97.226658,99.1663 99.1667,97.2264878 99.1667,94.8333 Z M102.1667,94.8333 C102.1667,98.8834215 98.8834328,102.1663 94.8337,102.1663 C90.7831616,102.1663 87.4997,98.8836159 87.4997,94.8333 C87.4997,90.7829841 90.7831616,87.5003 94.8337,87.5003 C98.8834328,87.5003 102.1667,90.7831785 102.1667,94.8333 Z" id="Stroke-30"></path>
          <path d="M29.1667,118.1667 C29.1667,115.773512 27.226658,113.8337 24.8337,113.8337 C22.4398568,113.8337 20.4997,115.773397 20.4997,118.1667 C20.4997,120.560003 22.4398568,122.4997 24.8337,122.4997 C27.226658,122.4997 29.1667,120.559888 29.1667,118.1667 Z M32.1667,118.1667 C32.1667,122.216822 28.8834328,125.4997 24.8337,125.4997 C20.7831616,125.4997 17.4997,122.217016 17.4997,118.1667 C17.4997,114.116384 20.7831616,110.8337 24.8337,110.8337 C28.8834328,110.8337 32.1667,114.116578 32.1667,118.1667 Z" id="Stroke-32"></path>
          <path d="M52.5,118.1667 C52.5,115.773512 50.559958,113.8337 48.167,113.8337 C45.7731568,113.8337 43.833,115.773397 43.833,118.1667 C43.833,120.560003 45.7731568,122.4997 48.167,122.4997 C50.559958,122.4997 52.5,120.559888 52.5,118.1667 Z M55.5,118.1667 C55.5,122.216822 52.2167328,125.4997 48.167,125.4997 C44.1164616,125.4997 40.833,122.217016 40.833,118.1667 C40.833,114.116384 44.1164616,110.8337 48.167,110.8337 C52.2167328,110.8337 55.5,114.116578 55.5,118.1667 Z" id="Stroke-34"></path>
          <path d="M75.8332,118.1667 C75.8332,115.773512 73.893158,113.8337 71.5002,113.8337 C69.1063568,113.8337 67.1662,115.773397 67.1662,118.1667 C67.1662,120.560003 69.1063568,122.4997 71.5002,122.4997 C73.893158,122.4997 75.8332,120.559888 75.8332,118.1667 Z M78.8332,118.1667 C78.8332,122.216822 75.5499328,125.4997 71.5002,125.4997 C67.4496616,125.4997 64.1662,122.217016 64.1662,118.1667 C64.1662,114.116384 67.4496616,110.8337 71.5002,110.8337 C75.5499328,110.8337 78.8332,114.116578 78.8332,118.1667 Z" id="Stroke-36"></path>
          <path d="M99.1667,118.1667 C99.1667,115.773512 97.226658,113.8337 94.8337,113.8337 C92.4398568,113.8337 90.4997,115.773397 90.4997,118.1667 C90.4997,120.560003 92.4398568,122.4997 94.8337,122.4997 C97.226658,122.4997 99.1667,120.559888 99.1667,118.1667 Z M102.1667,118.1667 C102.1667,122.216822 98.8834328,125.4997 94.8337,125.4997 C90.7831616,125.4997 87.4997,122.217016 87.4997,118.1667 C87.4997,114.116384 90.7831616,110.8337 94.8337,110.8337 C98.8834328,110.8337 102.1667,114.116578 102.1667,118.1667 Z" id="Stroke-38"></path>
          <path d="M122.5,94.8333 C122.5,92.4401122 120.559958,90.5003 118.167,90.5003 C115.773157,90.5003 113.833,92.4399974 113.833,94.8333 C113.833,97.2266026 115.773157,99.1663 118.167,99.1663 C120.559958,99.1663 122.5,97.2264878 122.5,94.8333 Z M125.5,94.8333 C125.5,98.8834215 122.216733,102.1663 118.167,102.1663 C114.116462,102.1663 110.833,98.8836159 110.833,94.8333 C110.833,90.7829841 114.116462,87.5003 118.167,87.5003 C122.216733,87.5003 125.5,90.7831785 125.5,94.8333 Z" id="Stroke-40"></path>
      </g>

</svg>
