<?xml version="1.0" encoding="UTF-8"?>
<svg width="50px" height="50px" viewBox="0 0 50 50" version="1.1" xmlns="http://www.w3.org/2000/svg" xmlns:xlink="http://www.w3.org/1999/xlink">
    <!-- Generator: Sketch 42 (36781) - http://www.bohemiancoding.com/sketch -->
    <title>calendar</title>
    <desc>Created with Sketch.</desc>
    <defs></defs>
    <g id="calendar" transform="translate(4.000000, 4.000000)" fill-rule="nonzero" fill="currentColor">
        <path d="M39.9998,7.0001 L2.9998,7.0001 L2.9998,40.0001 L39.9998,40.0001 L39.9998,7.0001 Z M40.1668,43.0001 L2.8338,43.0001 C1.26870143,43.0001 -0.0002,41.7318557 -0.0002,40.1671 L-0.0002,6.8331 C-0.0002,5.2683443 1.26870143,4.0001 2.8338,4.0001 L40.1668,4.0001 C41.7312271,4.0001 42.9998,5.26867288 42.9998,6.8331 L42.9998,40.1671 C42.9998,41.7315271 41.7312271,43.0001 40.1668,43.0001 Z" id="Stroke-1"></path>
        <path d="M10.0081,1.5 L10.0081,5.5 C10.0081,6.32842712 10.6796729,7 11.5081,7 C12.3365271,7 13.0081,6.32842712 13.0081,5.5 L13.0081,1.5 C13.0081,0.671572875 12.3365271,0 11.5081,0 C10.6796729,0 10.0081,0.671572875 10.0081,1.5 Z" id="Stroke-3"></path>
        <path d="M30.0081,1.5 L30.0081,5.5 C30.0081,6.32842712 30.6796729,7 31.5081,7 C32.3365271,7 33.0081,6.32842712 33.0081,5.5 L33.0081,1.5 C33.0081,0.671572875 32.3365271,0 31.5081,0 C30.6796729,0 30.0081,0.671572875 30.0081,1.5 Z" id="Stroke-5"></path>
        <path d="M1.5,19.0001 L41.5,19.0001 C42.3284271,19.0001 43,18.3285271 43,17.5001 C43,16.6716729 42.3284271,16.0001 41.5,16.0001 L1.5,16.0001 C0.671572875,16.0001 0,16.6716729 0,17.5001 C0,18.3285271 0.671572875,19.0001 1.5,19.0001 Z" id="Stroke-7"></path>
        <path d="M1.5,27.0001 L41.5,27.0001 C42.3284271,27.0001 43,26.3285271 43,25.5001 C43,24.6716729 42.3284271,24.0001 41.5,24.0001 L1.5,24.0001 C0.671572875,24.0001 0,24.6716729 0,25.5001 C0,26.3285271 0.671572875,27.0001 1.5,27.0001 Z" id="Stroke-9"></path>
        <path d="M1.5,35.0001 L41.5,35.0001 C42.3284271,35.0001 43,34.3285271 43,33.5001 C43,32.6716729 42.3284271,32.0001 41.5,32.0001 L1.5,32.0001 C0.671572875,32.0001 0,32.6716729 0,33.5001 C0,34.3285271 0.671572875,35.0001 1.5,35.0001 Z" id="Stroke-11"></path>
    </g>
</svg>
