<svg viewBox="0 0 50 50" xmlns="http://www.w3.org/2000/svg">
  <g fill="currentColor" fill-rule="nonzero">
    <path d="M44 11H7v33h37V11zm.167 36H6.834A2.833 2.833 0 0 1 4 44.167V10.833A2.833 2.833 0 0 1 6.834 8h37.333A2.833 2.833 0 0 1 47 10.833v33.334A2.833 2.833 0 0 1 44.167 47z"/>
    <path d="M14.008 5.5v4a1.5 1.5 0 0 0 3 0v-4a1.5 1.5 0 0 0-3 0zM34.008 5.5v4a1.5 1.5 0 0 0 3 0v-4a1.5 1.5 0 0 0-3 0zM5.5 23h40a1.5 1.5 0 0 0 0-3h-40a1.5 1.5 0 0 0 0 3zM5.5 31h40a1.5 1.5 0 0 0 0-3h-40a1.5 1.5 0 0 0 0 3zM5.5 39h40a1.5 1.5 0 0 0 0-3h-40a1.5 1.5 0 0 0 0 3z"/>
  </g>
</svg>
