<!-- Generator: Adobe Illustrator 21.0.0, SVG Export Plug-In  -->
<svg version="1.1"
	 xmlns="http://www.w3.org/2000/svg" xmlns:xlink="http://www.w3.org/1999/xlink" xmlns:a="http://ns.adobe.com/AdobeSVGViewerExtensions/3.0/"
	 x="0px" y="0px" width="63px" height="63px" viewBox="-10 -10 83 83" style="enable-background:new 0 0 63 63;" xml:space="preserve">
<style type="text/css">
	.currentFill{fill:currentColor;}
</style>
<defs>
</defs>
<g>
	<path class="currentFill" d="M59.5,63h-56C1.6,63,0,61.4,0,59.5v-50C0,7.6,1.6,6,3.5,6h56C61.4,6,63,7.6,63,9.5v50C63,61.4,61.4,63,59.5,63
		z M3.5,9C3.2,9,3,9.2,3,9.5v50C3,59.8,3.2,60,3.5,60h56c0.3,0,0.5-0.2,0.5-0.5v-50C60,9.2,59.8,9,59.5,9H3.5z"/>
	<path class="currentFill" d="M16.5,9C15.7,9,15,8.3,15,7.5v-6C15,0.7,15.7,0,16.5,0S18,0.7,18,1.5v6C18,8.3,17.3,9,16.5,9z"/>
	<path class="currentFill" d="M46.5,9C45.7,9,45,8.3,45,7.5v-6C45,0.7,45.7,0,46.5,0S48,0.7,48,1.5v6C48,8.3,47.3,9,46.5,9z"/>
	<path class="currentFill" d="M61.5,27h-60C0.7,27,0,26.3,0,25.5S0.7,24,1.5,24h60c0.8,0,1.5,0.7,1.5,1.5S62.3,27,61.5,27z"/>
	<path class="currentFill" d="M61.5,39h-60C0.7,39,0,38.3,0,37.5S0.7,36,1.5,36h60c0.8,0,1.5,0.7,1.5,1.5S62.3,39,61.5,39z"/>
	<path class="currentFill" d="M61.5,51h-60C0.7,51,0,50.3,0,49.5S0.7,48,1.5,48h60c0.8,0,1.5,0.7,1.5,1.5S62.3,51,61.5,51z"/>
</g>
</svg>
