<svg xmlns="http://www.w3.org/2000/svg" viewBox="0 0 63 63">
  <path fill="currentColor" d="M57.081 59c-.125 0-.25-.013-.376-.037L31.5 53.924 6.295 58.963A1.917 1.917 0 0 1 4 57.08V8.988C4 6.238 6.582 4 9.756 4h43.488C56.418 4 59 6.238 59 8.988v48.093A1.919 1.919 0 0 1 57.081 59zM31.5 50.05c.126 0 .252.013.376.038l23.287 4.654V8.988c0-.543-.82-1.15-1.919-1.15H9.756c-1.098 0-1.919.607-1.919 1.15v45.754l23.287-4.654c.124-.025.25-.038.376-.038z"/>
  <path fill="currentColor" d="M25.762 39.28c-.51 0-.997-.202-1.357-.562l-7.274-7.274a1.918 1.918 0 1 1 2.713-2.713l5.918 5.918 17.395-17.394a1.918 1.918 0 1 1 2.713 2.713l-18.752 18.75c-.36.36-.847.563-1.356.563z"/>
</svg>
