<svg xmlns="http://www.w3.org/2000/svg" viewBox="0 0 63 63">
  <path fill="currentColor" d="M44.756 21.558H18.244a1.988 1.988 0 0 1-1.988-1.988v-7.954c0-1.098.89-1.988 1.988-1.988h4.871C24.015 5.832 27.433 3 31.5 3s7.485 2.832 8.385 6.628h4.87c1.098 0 1.99.89 1.99 1.988v7.954c0 1.098-.892 1.988-1.99 1.988zm-24.523-3.977h22.534v-3.976h-4.64a1.989 1.989 0 0 1-1.987-1.989c0-2.558-2.082-4.64-4.64-4.64s-4.64 2.082-4.64 4.64c0 1.099-.89 1.989-1.988 1.989h-4.64v3.976zM45.434 47.186H33.062a1.988 1.988 0 0 1 0-3.977h12.372a1.989 1.989 0 0 1 0 3.977zM19.807 50.074a1.982 1.982 0 0 1-1.406-.583l-2.241-2.24a1.988 1.988 0 1 1 2.812-2.812l.835.835 4.37-4.37a1.988 1.988 0 1 1 2.811 2.812l-5.776 5.775a1.982 1.982 0 0 1-1.405.583zM45.434 33.931H33.062a1.989 1.989 0 0 1 0-3.977h12.372a1.989 1.989 0 0 1 0 3.977zM19.807 36.818a1.982 1.982 0 0 1-1.406-.583l-2.241-2.24a1.988 1.988 0 1 1 2.812-2.812l.835.835 4.37-4.37a1.988 1.988 0 1 1 2.811 2.812l-5.776 5.776a1.983 1.983 0 0 1-1.405.582z"/>
  <path fill="currentColor" d="M49.174 60H13.825a6.414 6.414 0 0 1-6.406-6.407V20.012a6.414 6.414 0 0 1 6.406-6.407h4.42a1.988 1.988 0 1 1 0 3.976h-4.42c-1.34 0-2.43 1.09-2.43 2.43v33.582c0 1.34 1.09 2.43 2.43 2.43h35.349a2.433 2.433 0 0 0 2.431-2.43V20.012c0-1.34-1.09-2.43-2.431-2.43h-4.418a1.989 1.989 0 0 1 0-3.977h4.418a6.415 6.415 0 0 1 6.408 6.407v33.581A6.415 6.415 0 0 1 49.174 60z"/>
</svg>
