<?xml version="1.0" encoding="utf-8"?>
<svg version="1.1" id="Layer_2_1_" xmlns="http://www.w3.org/2000/svg" xmlns:xlink="http://www.w3.org/1999/xlink" x="0px" y="0px" width="63px" height="63px" viewBox="0 0 63 63" enable-background="new 0 0 63 63" xml:space="preserve">
  <path fill="currentColor" d="M57.0814,59c-0.1249,0-0.2511-0.0125-0.376-0.0375L31.5,53.9249L6.2946,58.9625
  C5.7294,59.0749,5.146,58.93,4.702,58.5653C4.2579,58.2006,4,57.656,4,57.0814V8.9882C4,6.2377,6.5819,4,9.7558,4h43.4884
  C56.4181,4,59,6.2377,59,8.9882v48.0931c0,0.5746-0.2573,1.1192-0.702,1.4839C57.952,58.8489,57.5211,59,57.0814,59z
  M31.5,50.0503c0.1262,0,0.2517,0.0125,0.376,0.0375l23.2868,4.6541V8.9882c0-0.5434-0.8207-1.151-1.9186-1.151H9.7558
  c-1.098,0-1.9186,0.6077-1.9186,1.151v45.7536l23.2868-4.6541C31.2483,50.0627,31.3738,50.0503,31.5,50.0503z"/>
  <path fill="currentColor" d="M25.7617,39.2806L25.7617,39.2806c-0.509,0-0.9968-0.2024-1.3565-0.5621l-7.2741-7.2747
  c-0.7495-0.7495-0.7495-1.9642,0-2.713c0.7495-0.7495,1.9636-0.7495,2.713,0l5.9176,5.9182l17.3948-17.3942
  c0.7495-0.7495,1.9636-0.7495,2.713,0c0.7495,0.7495,0.7495,1.9642,0,2.713L27.1182,38.7185
  C26.7584,39.0782,26.2707,39.2806,25.7617,39.2806z"/>
</svg>
