<?xml version="1.0" encoding="utf-8"?>
<svg version="1.1" id="Layer_4" xmlns="http://www.w3.org/2000/svg" xmlns:xlink="http://www.w3.org/1999/xlink" x="0px" y="0px"
	 viewBox="0 0 63 63" enable-background="new 0 0 63 63" width="63px" height="63px" xml:space="preserve">
	<path fill="currentColor" d="M44.7557,21.5581H18.2441c-1.0984,0-1.9884-0.89-1.9884-1.9884v-7.9535c0-1.0984,0.89-1.9884,1.9884-1.9884
		h4.8713C24.015,5.8324,27.4332,3,31.4999,3c4.0674,0,7.4849,2.8324,8.3846,6.6279h4.8713c1.0977,0,1.9884,0.89,1.9884,1.9884
		v7.9535C46.7441,20.6682,45.8535,21.5581,44.7557,21.5581z M20.2325,17.5814h22.5349v-3.9767h-4.6395
		c-1.0977,0-1.9884-0.89-1.9884-1.9884c0-2.558-2.0816-4.6395-4.6395-4.6395s-4.6395,2.0816-4.6395,4.6395
		c0,1.0984-0.89,1.9884-1.9884,1.9884h-4.6395V17.5814z"/>
	<path fill="currentColor" d="M45.4341,47.1856H33.0624c-1.0984,0-1.9884-0.8906-1.9884-1.9884s0.89-1.9884,1.9884-1.9884h12.3717
		c1.0977,0,1.9884,0.8906,1.9884,1.9884S46.5318,47.1856,45.4341,47.1856z"/>
	<path fill="currentColor" d="M19.8066,50.0737c-0.5087,0-1.0175-0.1942-1.4058-0.5825l-2.2408-2.2408
		c-0.7767-0.7767-0.7767-2.035,0-2.8117c0.7767-0.7767,2.035-0.7767,2.8117,0l0.835,0.835l4.3696-4.369
		c0.7767-0.7767,2.035-0.7767,2.8117,0c0.7767,0.7767,0.7767,2.035,0,2.8117l-5.7755,5.7748
		C20.8241,49.8795,20.3153,50.0737,19.8066,50.0737z"/>
	<path fill="currentColor" d="M45.4341,33.9311H33.0624c-1.0984,0-1.9884-0.8906-1.9884-1.989s0.89-1.9884,1.9884-1.9884h12.3717
		c1.0977,0,1.9884,0.89,1.9884,1.9884S46.5318,33.9311,45.4341,33.9311z"/>
	<path fill="currentColor" d="M19.8066,36.8179c-0.5087,0-1.0175-0.1942-1.4058-0.5825l-2.2408-2.2408
		c-0.7767-0.7767-0.7767-2.0356,0-2.8117c0.7767-0.7767,2.035-0.7767,2.8117,0l0.835,0.835l4.3696-4.3696
		c0.7767-0.7767,2.035-0.7767,2.8117,0c0.7767,0.7761,0.7767,2.0356,0,2.8117l-5.7755,5.7755
		C20.8241,36.6237,20.3153,36.8179,19.8066,36.8179z"/>
	<path fill="currentColor" d="M49.1739,60H13.8253c-3.5327,0-6.4065-2.8738-6.4065-6.4065V20.0118c0-3.5327,2.8738-6.4072,6.4065-6.4072
		h4.4188c1.0984,0,1.9884,0.89,1.9884,1.9884s-0.89,1.9884-1.9884,1.9884h-4.4188c-1.3398,0-2.4298,1.09-2.4298,2.4304v33.5816
		c0,1.3398,1.09,2.4298,2.4298,2.4298h35.3486c1.3411,0,2.4311-1.09,2.4311-2.4298V20.0118c0-1.3405-1.09-2.4304-2.4311-2.4304
		h-4.4182c-1.0977,0-1.9884-0.89-1.9884-1.9884s0.8906-1.9884,1.9884-1.9884h4.4182c3.5327,0,6.4078,2.8745,6.4078,6.4072v33.5816
		C55.5817,57.1262,52.7066,60,49.1739,60z"/>
</svg>
