<svg viewBox="0 0 22 22" fill="none" xmlns="http://www.w3.org/2000/svg"><path fill-rule="evenodd" clip-rule="evenodd" d="M17.495 4.455a9.209 9.209 0 00-13.04 0 9.209 9.209 0 000 13.04.75.75 0 11-1.06 1.06 10.709 10.709 0 010-15.16 10.709 10.709 0 0115.16 0 .75.75 0 01-1.06 1.06zM18.555 17.495a.75.75 0 010 1.06l-.002.002c-.115.116-.284.284-.593.439a.75.75 0 11-.67-1.342.562.562 0 00.104-.065c.026-.02.049-.042.1-.094a.75.75 0 011.061 0zM9.975 21.025a.75.75 0 01.75-.75h.5a.75.75 0 010 1.5h-.5a.75.75 0 01-.75-.75zM7.357 19.512l.005.002a1.779 1.779 0 01.183.07c.08.035.198.099.31.21a.75.75 0 01-.962 1.144l-.005-.002c-.002 0-.004 0-.007-.002-.033-.01-.104-.034-.176-.067a1.05 1.05 0 01-.31-.212.75.75 0 01.962-1.143zM15.796 19.79a.75.75 0 01-.336 1.006c-.147.074-.264.112-.344.14h-.004c-.07.024-.102.035-.152.06a.75.75 0 11-.67-1.342c.147-.074.264-.112.344-.14h.004c.07-.024.102-.035.152-.06a.75.75 0 011.006.336z" fill="currentColor"/><path fill-rule="evenodd" clip-rule="evenodd" d="M21.025.275a.75.75 0 01.75.75v6a.75.75 0 01-.75.75h-6a.75.75 0 010-1.5h5.25v-5.25a.75.75 0 01.75-.75zM11.025 4.475a.75.75 0 01.75.75v5.8a.75.75 0 01-1.5 0v-5.8a.75.75 0 01.75-.75z" fill="currentColor"/><path fill-rule="evenodd" clip-rule="evenodd" d="M10.495 10.495a.75.75 0 011.06 0l3 3a.75.75 0 01-1.06 1.06l-3-3a.75.75 0 010-1.06z" fill="currentColor"/></svg>
