<?xml version="1.0" encoding="UTF-8"?>
<svg width="50px" height="50px" viewBox="0 0 50 50" version="1.1" xmlns="http://www.w3.org/2000/svg" xmlns:xlink="http://www.w3.org/1999/xlink">
    <!-- Generator: Sketch 47.1 (45422) - http://www.bohemiancoding.com/sketch -->
    <title>communities-sm</title>
    <desc>Created with Sketch.</desc>
    <defs></defs>
    <g id="Page-1" stroke="none" stroke-width="1" fill="none" fill-rule="evenodd">
        <g id="export" transform="translate(-172.000000, -184.000000)"></g>
        <g transform="translate(2.000000, 5.000000)" stroke="#9013FE" stroke-width="3" stroke-linecap="round" stroke-linejoin="round">
            <path d="M23.2574,27.2451 L19.2434,40.5001" id="Stroke-1"></path>
            <path d="M23.9693,27.2451 L27.9833,40.5001" id="Stroke-3"></path>
            <path d="M24.5094,20.4653 C24.5094,20.9603 24.1084,21.3613 23.6134,21.3613 C23.1184,21.3613 22.7174,20.9603 22.7174,20.4653 C22.7174,19.9703 23.1184,19.5693 23.6134,19.5693 C24.1084,19.5693 24.5094,19.9703 24.5094,20.4653 Z" id="Stroke-5"></path>
            <path d="M31.0074,23.856 C29.1054,25.732 26.4964,26.896 23.6124,26.896 C20.7304,26.896 18.1214,25.732 16.2194,23.856" id="Stroke-7"></path>
            <path d="M14.3424,10.604 L4.8704,0.5" id="Stroke-9"></path>
            <path d="M13.9864,11.2202 L0.5004,8.0692" id="Stroke-11"></path>
            <path d="M19.5875,15.0781 C19.1595,14.8301 19.0125,14.2831 19.2595,13.8541 C19.5065,13.4251 20.0555,13.2791 20.4835,13.5261 C20.9125,13.7731 21.0595,14.3211 20.8115,14.7501 C20.5645,15.1791 20.0165,15.3251 19.5875,15.0781 Z" id="Stroke-13"></path>
            <path d="M13.4024,19.0103 C12.7284,16.4243 13.0254,13.5843 14.4664,11.0863 C15.9084,8.5903 18.2194,6.9123 20.7964,6.2033" id="Stroke-15"></path>
            <path d="M33.2193,11.2202 L46.7053,8.0692" id="Stroke-17"></path>
            <path d="M32.8634,10.604 L42.3354,0.5" id="Stroke-19"></path>
            <path d="M26.7218,13.5259 C27.1508,13.2789 27.6988,13.4249 27.9458,13.8539 C28.1938,14.2829 28.0468,14.8309 27.6178,15.0779 C27.1898,15.3249 26.6408,15.1789 26.3938,14.7499 C26.1468,14.3209 26.2938,13.7739 26.7218,13.5259 Z" id="Stroke-21"></path>
            <path d="M26.4093,6.2031 C28.9853,6.9121 31.2973,8.5901 32.7393,11.0871 C34.1803,13.5841 34.4773,16.4241 33.8033,19.0101" id="Stroke-23"></path>
        </g>
    </g>
</svg>