<svg xmlns="http://www.w3.org/2000/svg" viewBox="0 0 123 108.1">
  <style>
    .fillCurrent{fill:currentColor}
  </style>
  <path class="fillCurrent" d="M61.5 59.6c-3.3 0-6-2.7-6-6s2.7-6 6-6 6 2.7 6 6-2.7 6-6 6zm0-9c-1.6 0-3 1.3-3 3s1.3 3 3 3 3-1.3 3-3-1.4-3-3-3zM70.1 44.8c-2.1 0-4.1-1.1-5.2-3-1.7-2.9-.7-6.5 2.2-8.2 2.9-1.7 6.5-.7 8.2 2.2 1.7 2.9.7 6.5-2.2 8.2-1 .5-2 .8-3 .8zm-1.5-8.6c-1.4.8-1.9 2.7-1.1 4.1.8 1.4 2.7 1.9 4.1 1.1 1.4-.8 1.9-2.7 1.1-4.1-.9-1.4-2.7-1.9-4.1-1.1zM52.9 44.8c-1 0-2.1-.3-3-.8-2.9-1.7-3.8-5.3-2.2-8.2 1.7-2.9 5.3-3.8 8.2-2.2 1.4.8 2.4 2.1 2.8 3.6.4 1.5.2 3.2-.6 4.5-.8 1.4-2.1 2.4-3.6 2.8-.5.2-1 .3-1.6.3zm0-9c-1 0-2 .5-2.6 1.5-.8 1.4-.3 3.3 1.1 4.1.7.4 1.5.5 2.3.3.8-.2 1.4-.7 1.8-1.4.4-.7.5-1.5.3-2.3-.2-.8-.7-1.4-1.4-1.8-.4-.3-.9-.4-1.5-.4z"/>
  <path class="fillCurrent" d="M36.2 59c-.9 0-1.7-.2-2.5-.6-1.5-.7-2.6-1.9-3.1-3.4v-.1c-1.3-3.6-2-7.3-2-11.2V43L3 28.3C.1 26.6-.8 23 .8 20.1c1.7-2.9 5.3-3.8 8.2-2.2l14.3 8.2 3.9-6.7-14.3-8.2C10 9.5 9 5.9 10.7 3 12.4.1 16-.8 18.9.8l25.6 14.8c3.5-2.1 7.2-3.5 11.2-4.3h.1c1.6-.3 3.2.1 4.5 1 1.3.9 2.2 2.3 2.5 3.9.6 3.3-1.6 6.4-4.9 6.9h-.1c-10 1.8-17.2 10.5-17.2 20.6 0 2.4.4 4.8 1.2 7.1v.1c.5 1.5.5 3.1-.2 4.6-.7 1.5-1.9 2.6-3.4 3.1-.6.2-1.3.4-2 .4zm-2.8-4.9c.3.7.8 1.3 1.5 1.6.7.3 1.5.4 2.3.1.8-.3 1.4-.8 1.7-1.5.3-.7.4-1.5.1-2.2V52c-1-2.6-1.4-5.4-1.4-8.2 0-11.7 8.3-21.6 19.8-23.6h.1c1.6-.3 2.6-1.9 2.4-3.5-.1-.8-.6-1.5-1.2-1.9-.6-.4-1.4-.6-2.2-.5h-.1c-3.9.7-7.6 2.2-11 4.3-.5.3-1.1.3-1.6 0L17.4 3.4c-1.4-.8-3.3-.3-4.1 1.1-.8 1.4-.3 3.3 1.1 4.1l15.6 9c.3.2.6.5.7.9s0 .8-.1 1.1l-5.4 9.3c-.4.7-1.3 1-2 .5l-15.6-9c-1.4-.8-3.3-.3-4.1 1.1-.8 1.4-.3 3.3 1.1 4.1L31 40.8c.5.3.8.8.7 1.4v1.5c-.1 3.6.5 7 1.7 10.4z"/>
  <path class="fillCurrent" d="M71.4 108.1c-3.3 0-6-2.7-6-6V85.7h-7.8v16.5c0 3.3-2.7 6-6 6s-6-2.7-6-6V72.6c-3.5-1.9-6.6-4.4-9.1-7.5l-.2-.2c-2.1-2.5-1.8-6.3.7-8.4 1.2-1 2.8-1.5 4.4-1.4 1.4.1 2.7.7 3.7 1.8.1.1.2.1.2.2 4 4.9 9.9 7.6 16.2 7.6 6.2 0 12-2.7 16-7.5l.1-.1c2.1-2.4 5.8-2.7 8.3-.6 2.5 2.1 2.9 5.9.7 8.4-.1.1-.1.2-.2.2-2.6 3-5.7 5.5-9.1 7.4v29.6c.1 3.3-2.6 6-5.9 6zM56.1 82.7h10.8c.8 0 1.5.7 1.5 1.5v18c0 1.6 1.3 3 3 3 1.6 0 3-1.3 3-3V71.7c0-.6.3-1.1.8-1.3 3.5-1.8 6.7-4.3 9.2-7.4l.2-.2c.9-1.3.7-3-.5-4-1.3-1.1-3.2-.9-4.2.4l-.1.1c-4.6 5.4-11.2 8.4-18.2 8.4s-13.7-3.1-18.2-8.4l-.1-.1c-.5-.6-1.2-1-2-1.1-.8-.1-1.6.2-2.2.7-1.2 1-1.4 2.8-.5 4l.2.2c2.6 3.1 5.7 5.5 9.2 7.4.5.3.8.8.8 1.3v30.5c0 1.6 1.3 3 3 3 1.6 0 3-1.3 3-3v-18c-.2-.9.5-1.5 1.3-1.5z"/>
  <path class="fillCurrent" d="M86.8 59c-.7 0-1.4-.1-2-.4-3.1-1.1-4.7-4.6-3.6-7.7v-.1c.8-2.3 1.2-4.7 1.2-7.1 0-10.2-7.2-18.8-17.2-20.6h-.1c-3.3-.6-5.4-3.7-4.9-6.9.3-1.6 1.2-2.9 2.5-3.9 1.3-.9 2.9-1.3 4.5-1h.1c4 .7 7.7 2.1 11.2 4.3L104.1.8c2.9-1.7 6.5-.7 8.2 2.2 1.7 2.9.7 6.5-2.2 8.2l-14.3 8.2 3.9 6.7 14.3-8.2c2.9-1.7 6.5-.7 8.2 2.2 1.7 2.9.7 6.5-2.2 8.2L94.4 43.1v.7c0 3.8-.7 7.6-2 11.2v.1c-.8 2.3-3.1 3.9-5.6 3.9zM84 52c-.5 1.5.3 3.2 1.8 3.8 1.5.6 3.2-.2 3.8-1.7V54c1.2-3.3 1.8-6.7 1.8-10.2v-.9-.6c0-.6.3-1.1.7-1.4l26.4-15.2c1.4-.8 1.9-2.7 1.1-4.1-.8-1.4-2.7-1.9-4.1-1.1l-15.6 9c-.3.2-.8.3-1.1.1-.4-.1-.7-.4-.9-.7l-5.4-9.3c-.4-.7-.2-1.6.5-2l15.6-9c1.4-.8 1.9-2.7 1.1-4.1-.8-1.4-2.7-1.9-4.1-1.1L79.2 18.6c-.5.3-1.1.3-1.6 0-3.4-2.2-7.1-3.6-11-4.3h-.1c-.8-.1-1.5.1-2.2.5-.7.5-1.1 1.1-1.2 1.9-.3 1.6.8 3.1 2.4 3.5h.1c11.5 2 19.8 11.9 19.8 23.6.1 2.8-.4 5.5-1.4 8.2z"/>
</svg>
