<!-- Generator: Adobe Illustrator 21.0.0, SVG Export Plug-In  -->
<svg version="1.1"
	 xmlns="http://www.w3.org/2000/svg" xmlns:xlink="http://www.w3.org/1999/xlink" xmlns:a="http://ns.adobe.com/AdobeSVGViewerExtensions/3.0/"
	 x="0px" y="0px" width="123px" height="108.1px" viewBox="0 0 123 108.1" style="enable-background:new 0 0 123 108.1;"
	 xml:space="preserve">
<style type="text/css">
	.fillCurrent{fill:currentColor;}
</style>
<defs>
</defs>
<g>
	<path class="fillCurrent" d="M61.5,59.6c-3.3,0-6-2.7-6-6c0-3.3,2.7-6,6-6s6,2.7,6,6C67.5,56.9,64.8,59.6,61.5,59.6z M61.5,50.6
		c-1.6,0-3,1.3-3,3s1.3,3,3,3s3-1.3,3-3S63.1,50.6,61.5,50.6z"/>
	<path class="fillCurrent" d="M70.1,44.8c-2.1,0-4.1-1.1-5.2-3c-1.7-2.9-0.7-6.5,2.2-8.2c0,0,0,0,0,0c2.9-1.7,6.5-0.7,8.2,2.2
		c1.7,2.9,0.7,6.5-2.2,8.2C72.1,44.5,71.1,44.8,70.1,44.8z M68.6,36.2c-1.4,0.8-1.9,2.7-1.1,4.1c0.8,1.4,2.7,1.9,4.1,1.1
		c1.4-0.8,1.9-2.7,1.1-4.1C71.8,35.9,70,35.4,68.6,36.2L68.6,36.2z"/>
	<path class="fillCurrent" d="M52.9,44.8c-1,0-2.1-0.3-3-0.8v0c-2.9-1.7-3.8-5.3-2.2-8.2c1.7-2.9,5.3-3.8,8.2-2.2c1.4,0.8,2.4,2.1,2.8,3.6
		c0.4,1.5,0.2,3.2-0.6,4.5c-0.8,1.4-2.1,2.4-3.6,2.8C54,44.7,53.5,44.8,52.9,44.8z M52.9,35.8c-1,0-2,0.5-2.6,1.5
		c-0.8,1.4-0.3,3.3,1.1,4.1c0,0,0,0,0,0c0.7,0.4,1.5,0.5,2.3,0.3c0.8-0.2,1.4-0.7,1.8-1.4c0.4-0.7,0.5-1.5,0.3-2.3
		c-0.2-0.8-0.7-1.4-1.4-1.8C54,35.9,53.5,35.8,52.9,35.8z"/>
	<path class="fillCurrent" d="M36.2,59c-0.9,0-1.7-0.2-2.5-0.6c-1.5-0.7-2.6-1.9-3.1-3.4c0,0,0-0.1,0-0.1c-1.3-3.6-2-7.3-2-11.2
		c0-0.2,0-0.5,0-0.7L3,28.3c-2.9-1.7-3.8-5.3-2.2-8.2c1.7-2.9,5.3-3.8,8.2-2.2l14.3,8.2l3.9-6.7l-14.3-8.2C10,9.5,9,5.9,10.7,3
		c1.7-2.9,5.3-3.8,8.2-2.2l25.6,14.8c3.5-2.1,7.2-3.5,11.2-4.3c0,0,0.1,0,0.1,0c1.6-0.3,3.2,0.1,4.5,1c1.3,0.9,2.2,2.3,2.5,3.9
		c0.6,3.3-1.6,6.4-4.9,6.9c0,0-0.1,0-0.1,0c-10,1.8-17.2,10.5-17.2,20.6c0,2.4,0.4,4.8,1.2,7.1c0,0,0,0.1,0,0.1
		c0.5,1.5,0.5,3.1-0.2,4.6c-0.7,1.5-1.9,2.6-3.4,3.1C37.6,58.8,36.9,59,36.2,59z M33.4,54.1c0.3,0.7,0.8,1.3,1.5,1.6
		c0.7,0.3,1.5,0.4,2.3,0.1c0.8-0.3,1.4-0.8,1.7-1.5c0.3-0.7,0.4-1.5,0.1-2.2c0,0,0,0,0-0.1c-1-2.6-1.4-5.4-1.4-8.2
		c0-11.7,8.3-21.6,19.8-23.6c0,0,0,0,0.1,0c1.6-0.3,2.6-1.9,2.4-3.5c-0.1-0.8-0.6-1.5-1.2-1.9c-0.6-0.4-1.4-0.6-2.2-0.5
		c0,0,0,0-0.1,0c-3.9,0.7-7.6,2.2-11,4.3c-0.5,0.3-1.1,0.3-1.6,0L17.4,3.4c-1.4-0.8-3.3-0.3-4.1,1.1c-0.8,1.4-0.3,3.3,1.1,4.1
		l15.6,9c0.3,0.2,0.6,0.5,0.7,0.9s0,0.8-0.1,1.1l-5.4,9.3c-0.4,0.7-1.3,1-2,0.5l-15.6-9c-1.4-0.8-3.3-0.3-4.1,1.1
		c-0.8,1.4-0.3,3.3,1.1,4.1l26.4,15.2c0.5,0.3,0.8,0.8,0.7,1.4c0,0.2,0,0.4,0,0.6c0,0.3,0,0.6,0,0.9C31.6,47.3,32.2,50.7,33.4,54.1
		C33.4,54.1,33.4,54.1,33.4,54.1z"/>
	<path class="fillCurrent" d="M71.4,108.1c-3.3,0-6-2.7-6-6V85.7h-7.8v16.5c0,3.3-2.7,6-6,6c-3.3,0-6-2.7-6-6V72.6c-3.5-1.9-6.6-4.4-9.1-7.5
		c-0.1-0.1-0.1-0.1-0.2-0.2c-2.1-2.5-1.8-6.3,0.7-8.4c1.2-1,2.8-1.5,4.4-1.4c1.4,0.1,2.7,0.7,3.7,1.8c0.1,0.1,0.2,0.1,0.2,0.2
		c4,4.9,9.9,7.6,16.2,7.6c6.2,0,12-2.7,16-7.5c0,0,0.1-0.1,0.1-0.1c2.1-2.4,5.8-2.7,8.3-0.6c2.5,2.1,2.9,5.9,0.7,8.4
		c-0.1,0.1-0.1,0.2-0.2,0.2c-2.6,3-5.7,5.5-9.1,7.4v29.6C77.4,105.4,74.7,108.1,71.4,108.1z M56.1,82.7h10.8c0.8,0,1.5,0.7,1.5,1.5
		v18c0,1.6,1.3,3,3,3c1.6,0,3-1.3,3-3V71.7c0-0.6,0.3-1.1,0.8-1.3c3.5-1.8,6.7-4.3,9.2-7.4c0.1-0.1,0.1-0.1,0.2-0.2
		c0.9-1.3,0.7-3-0.5-4c-1.3-1.1-3.2-0.9-4.2,0.4c0,0-0.1,0.1-0.1,0.1c-4.6,5.4-11.2,8.4-18.2,8.4c-7,0-13.7-3.1-18.2-8.4
		c0,0-0.1-0.1-0.1-0.1c-0.5-0.6-1.2-1-2-1.1c-0.8-0.1-1.6,0.2-2.2,0.7c-1.2,1-1.4,2.8-0.5,4c0.1,0.1,0.1,0.1,0.2,0.2
		c2.6,3.1,5.7,5.5,9.2,7.4c0.5,0.3,0.8,0.8,0.8,1.3v30.5c0,1.6,1.3,3,3,3c1.6,0,3-1.3,3-3v-18C54.6,83.3,55.3,82.7,56.1,82.7z"/>
	<path class="fillCurrent" d="M86.8,59c-0.7,0-1.4-0.1-2-0.4c-3.1-1.1-4.7-4.6-3.6-7.7c0,0,0-0.1,0-0.1c0.8-2.3,1.2-4.7,1.2-7.1
		c0-10.2-7.2-18.8-17.2-20.6c0,0-0.1,0-0.1,0c-3.3-0.6-5.4-3.7-4.9-6.9c0.3-1.6,1.2-2.9,2.5-3.9c1.3-0.9,2.9-1.3,4.5-1
		c0,0,0.1,0,0.1,0c4,0.7,7.7,2.1,11.2,4.3l25.6-14.8c2.9-1.7,6.5-0.7,8.2,2.2c1.7,2.9,0.7,6.5-2.2,8.2l-14.3,8.2l3.9,6.7l14.3-8.2
		c2.9-1.7,6.5-0.7,8.2,2.2c1.7,2.9,0.7,6.5-2.2,8.2L94.4,43.1c0,0.2,0,0.4,0,0.7c0,3.8-0.7,7.6-2,11.2c0,0,0,0.1,0,0.1
		C91.6,57.4,89.3,59,86.8,59z M84,52c-0.5,1.5,0.3,3.2,1.8,3.8c1.5,0.6,3.2-0.2,3.8-1.7c0,0,0,0,0-0.1c1.2-3.3,1.8-6.7,1.8-10.2
		c0-0.3,0-0.6,0-0.9c0-0.2,0-0.4,0-0.6c0-0.6,0.3-1.1,0.7-1.4l26.4-15.2c1.4-0.8,1.9-2.7,1.1-4.1c-0.8-1.4-2.7-1.9-4.1-1.1l-15.6,9
		c-0.3,0.2-0.8,0.3-1.1,0.1c-0.4-0.1-0.7-0.4-0.9-0.7l-5.4-9.3c-0.4-0.7-0.2-1.6,0.5-2l15.6-9c1.4-0.8,1.9-2.7,1.1-4.1
		c-0.8-1.4-2.7-1.9-4.1-1.1L79.2,18.6c-0.5,0.3-1.1,0.3-1.6,0c-3.4-2.2-7.1-3.6-11-4.3c0,0,0,0-0.1,0c-0.8-0.1-1.5,0.1-2.2,0.5
		c-0.7,0.5-1.1,1.1-1.2,1.9c-0.3,1.6,0.8,3.1,2.4,3.5c0,0,0,0,0.1,0c11.5,2,19.8,11.9,19.8,23.6C85.5,46.6,85,49.3,84,52
		C84,52,84,52,84,52z"/>
</g>
</svg>
