<svg version="1.1"
   xmlns="http://www.w3.org/2000/svg" xmlns:xlink="http://www.w3.org/1999/xlink" xmlns:a="http://ns.adobe.com/AdobeSVGViewerExtensions/3.0/"
   x="0px" y="0px" width="123px" height="108.1px" viewBox="0 0 123 108.1" style="enable-background:new 0 0 123 108.1;"
   xml:space="preserve">
<style type="text/css">
  .st0{fill:currentColor;}
</style>
  <path class="st0" d="M61.5,47.6c-3.3,0-6,2.7-6,6c0,3.3,2.7,6,6,6c3.3,0,6-2.7,6-6C67.5,50.3,64.8,47.6,61.5,47.6z M61.5,56.6
    c-1.6,0-3-1.3-3-3c0-1.6,1.3-3,3-3c1.6,0,3,1.3,3,3C64.5,55.3,63.1,56.6,61.5,56.6z"/>
  <path class="st0" d="M71.6,33c-1.5-0.4-3.2-0.2-4.5,0.6c-1.4,0.8-2.4,2.1-2.8,3.6s-0.2,3.2,0.6,4.5c0.8,1.4,2.1,2.4,3.6,2.8
    c0.5,0.1,1,0.2,1.6,0.2c1,0,2.1-0.3,3-0.8c2.9-1.7,3.8-5.3,2.2-8.2C74.4,34.4,73.2,33.4,71.6,33z M71.6,41.4
    c-0.7,0.4-1.5,0.5-2.3,0.3c-0.8-0.2-1.4-0.7-1.8-1.4c-0.4-0.7-0.5-1.5-0.3-2.3c0.2-0.8,0.7-1.4,1.4-1.8l0,0c0.5-0.3,1-0.4,1.5-0.4
    c0.3,0,0.5,0,0.8,0.1c0.8,0.2,1.4,0.7,1.8,1.4C73.5,38.7,73,40.6,71.6,41.4z"/>
  <path class="st0" d="M58.1,41.8c1.7-2.9,0.7-6.5-2.2-8.2c-1.4-0.8-3-1-4.5-0.6s-2.8,1.4-3.6,2.8c-0.8,1.4-1,3-0.6,4.5
    c0.4,1.5,1.4,2.8,2.8,3.6l0,0c0.9,0.5,1.9,0.8,3,0.8c0.5,0,1-0.1,1.6-0.2C56,44.2,57.3,43.2,58.1,41.8z M55.5,40.3
    c-0.4,0.7-1,1.2-1.8,1.4c-0.8,0.2-1.6,0.1-2.3-0.3l0,0c-0.7-0.4-1.2-1-1.4-1.8c-0.2-0.8-0.1-1.6,0.3-2.3c0.4-0.7,1-1.2,1.8-1.4
    c0.3-0.1,0.5-0.1,0.8-0.1c0.5,0,1,0.1,1.5,0.4C55.9,37,56.4,38.9,55.5,40.3z"/>
  <path class="st0" d="M122.2,20.1c-1.7-2.9-5.3-3.8-8.2-2.2l-14.3,8.2l-3.9-6.7l14.3-8.2c2.9-1.7,3.8-5.3,2.2-8.2
    c-1.7-2.9-5.3-3.8-8.2-2.2L78.5,15.6c-3.5-2.1-7.2-3.5-11.2-4.3c0,0-0.1,0-0.1,0c-2.2-0.4-4.4,0.5-5.7,2.2
    c-0.4-0.4-0.8-0.9-1.2-1.2c-1.3-0.9-2.9-1.3-4.5-1c0,0-0.1,0-0.1,0c-4,0.7-7.7,2.1-11.2,4.3L18.9,0.8C16-0.9,12.3,0.1,10.7,3
    C9,5.9,10,9.5,12.9,11.2l14.3,8.2l-3.9,6.7L9,17.9c-2.9-1.7-6.5-0.7-8.2,2.2C-0.8,23,0.1,26.6,3,28.3l25.6,14.8c0,0.2,0,0.4,0,0.7
    c0,3.8,0.7,7.6,2,11.2c0,0,0,0.1,0,0.1c0.8,2.1,2.6,3.6,4.7,3.9c-0.8,2-0.5,4.3,1,6c0.1,0.1,0.1,0.1,0.2,0.2c2.6,3,5.7,5.5,9.1,7.5
    v29.6c0,3.3,2.7,6,6,6c3.3,0,6-2.7,6-6V85.7h7.8v16.5c0,3.3,2.7,6,6,6s6-2.7,6-6V72.6c3.5-1.9,6.5-4.4,9.1-7.4
    c0.1-0.1,0.2-0.1,0.2-0.2c1-1.2,1.5-2.8,1.4-4.4c-0.1-0.6-0.2-1.1-0.4-1.7c0.6-0.1,1.1-0.2,1.6-0.5c1.5-0.7,2.6-1.9,3.1-3.4
    c0,0,0-0.1,0-0.1c1.3-3.6,2-7.3,2-11.2c0-0.2,0-0.5,0-0.7L120,28.3c1.4-0.8,2.4-2.1,2.8-3.6C123.2,23.1,123,21.5,122.2,20.1z
     M81.2,50.8C81.2,50.9,81.2,50.9,81.2,50.8c-0.5,1.5-0.5,3,0,4.3c-1.4,0.2-2.6,0.9-3.6,1.9c0,0-0.1,0.1-0.1,0.1
    c-4,4.8-9.9,7.5-16,7.5c-6.3,0-12.2-2.8-16.2-7.6c-0.1-0.1-0.1-0.2-0.2-0.2c-0.9-0.9-2.1-1.5-3.4-1.7c0.5-1.3,0.6-2.8,0.1-4.3
    c0,0,0-0.1,0-0.1c-0.8-2.3-1.2-4.7-1.2-7.1c0-10.2,7.2-18.8,17.2-20.6c0,0,0.1,0,0.1,0c1.5-0.3,2.8-1.1,3.6-2.2
    c0.9,1.1,2.1,1.9,3.6,2.2c0,0,0.1,0,0.1,0c10,1.8,17.2,10.5,17.2,20.6C82.5,46.2,82,48.6,81.2,50.8z M33.4,54.1
    C33.4,54.1,33.4,54.1,33.4,54.1c-1.2-3.3-1.8-6.8-1.8-10.3c0-0.3,0-0.6,0-0.9c0-0.2,0-0.4,0-0.6c0-0.6-0.3-1.1-0.7-1.4L4.5,25.7
    c-1.4-0.8-1.9-2.7-1.1-4.1c0.8-1.4,2.7-1.9,4.1-1.1l15.6,9c0.7,0.4,1.6,0.2,2-0.5l5.4-9.3c0.2-0.3,0.3-0.8,0.1-1.1
    c-0.1-0.4-0.4-0.7-0.7-0.9l-15.6-9c-1.4-0.8-1.9-2.7-1.1-4.1c0.8-1.4,2.7-1.9,4.1-1.1l26.4,15.2c0.5,0.3,1.1,0.3,1.6,0
    c3.4-2.2,7.1-3.6,11-4.3c0,0,0,0,0.1,0c0.8-0.1,1.5,0.1,2.2,0.5c0.7,0.5,1.1,1.1,1.2,1.9c0.3,1.6-0.8,3.1-2.4,3.5c0,0,0,0-0.1,0
    c-11.5,2-19.8,11.9-19.8,23.6c0,2.8,0.5,5.6,1.4,8.2c0,0,0,0,0,0.1c0.5,1.5-0.3,3.2-1.8,3.8C35.7,56.3,34,55.6,33.4,54.1z
     M84.6,62.8c-0.1,0.1-0.1,0.1-0.2,0.2c-2.6,3.1-5.7,5.5-9.2,7.4c-0.5,0.3-0.8,0.8-0.8,1.3v30.5c0,1.6-1.3,3-3,3c-1.6,0-3-1.3-3-3
    v-18c0-0.8-0.7-1.5-1.5-1.5H56.1c-0.8,0-1.5,0.7-1.5,1.5v18c0,1.6-1.3,3-3,3c-1.6,0-3-1.3-3-3V71.7c0-0.6-0.3-1.1-0.8-1.3
    c-3.5-1.8-6.7-4.3-9.2-7.4c-0.1-0.1-0.1-0.1-0.2-0.2c-0.9-1.3-0.7-3,0.5-4c1.3-1.1,3.2-0.9,4.2,0.4c0,0,0.1,0.1,0.1,0.1
    c4.6,5.4,11.2,8.4,18.2,8.4c7,0,13.7-3.1,18.2-8.4c0,0,0.1-0.1,0.1-0.1c0.5-0.6,1.2-1,2-1.1c0.8-0.1,1.6,0.2,2.2,0.7s1,1.2,1.1,2
    C85.2,61.5,85,62.2,84.6,62.8z M119.9,23.9c-0.2,0.8-0.7,1.4-1.4,1.8L92.1,40.9c-0.5,0.3-0.8,0.8-0.7,1.4c0,0.2,0,0.4,0,0.6
    c0,0.3,0,0.6,0,0.9c0,3.5-0.6,7-1.8,10.2c0,0,0,0,0,0.1c-0.3,0.7-0.8,1.3-1.5,1.6c-0.7,0.3-1.5,0.4-2.3,0.1s-1.4-0.8-1.7-1.5
    c-0.3-0.7-0.4-1.5-0.1-2.2c0,0,0,0,0-0.1c1-2.6,1.4-5.4,1.4-8.2c0-11.7-8.3-21.6-19.8-23.6c0,0,0,0-0.1,0c-1.6-0.3-2.6-1.9-2.4-3.5
    c0.3-1.6,1.8-2.7,3.4-2.4c0,0,0,0,0.1,0c3.9,0.7,7.6,2.2,11,4.3c0.5,0.3,1.1,0.3,1.6,0l26.4-15.2c1.4-0.8,3.3-0.3,4.1,1.1
    c0.8,1.4,0.3,3.3-1.1,4.1l-15.6,9c-0.3,0.2-0.6,0.5-0.7,0.9c-0.1,0.4,0,0.8,0.2,1.1l5.4,9.3c0.4,0.7,1.3,1,2,0.5l15.6-9
    c1.4-0.8,3.3-0.3,4.1,1.1C120,22.3,120.1,23.1,119.9,23.9z"/>
</svg>

