<svg viewBox="0 0 50 50" xmlns="http://www.w3.org/2000/svg">
  <path d="M36.966 17.352c.799 2.263.896 4.705.289 7.036a1.5 1.5 0 1 1-2.903-.756 8.995 8.995 0 0 0-.912-6.795 8.996 8.996 0 0 0-5.429-4.188 1.5 1.5 0 1 1 .796-2.892 12.01 12.01 0 0 1 5.95 3.768l8.484-9.05a1.5 1.5 0 1 1 2.189 2.05l-6.924 7.387 9.858-2.303a1.5 1.5 0 0 1 .683 2.92l-12.08 2.823zM16.45 13.525a12.008 12.008 0 0 1 5.95-3.768 1.5 1.5 0 0 1 .795 2.893 8.995 8.995 0 0 0-5.428 4.186 8.998 8.998 0 0 0-.912 6.796 1.5 1.5 0 1 1-2.903.757 12.01 12.01 0 0 1 .288-7.037L2.16 14.53a1.5 1.5 0 0 1 .683-2.921l9.858 2.303-6.924-7.386a1.5 1.5 0 0 1 2.189-2.052l8.484 9.05zm6.954 19.667a12.012 12.012 0 0 1-6.237-3.268 1.5 1.5 0 0 1 2.107-2.136 8.995 8.995 0 0 0 6.34 2.608 8.997 8.997 0 0 0 6.341-2.608 1.5 1.5 0 0 1 2.107 2.136 12.011 12.011 0 0 1-6.238 3.268l3.596 11.873a1.5 1.5 0 1 1-2.871.87l-2.935-9.69-2.934 9.69a1.5 1.5 0 1 1-2.871-.87l3.595-11.873zm4.606-7.727a2.396 2.396 0 1 1-4.791 0 2.396 2.396 0 0 1 4.791 0zm-7.17-4.087a2.396 2.396 0 1 1 2.393-4.153 2.396 2.396 0 0 1-2.393 4.153zm7.13-4.15a2.396 2.396 0 1 1 2.4 4.148 2.396 2.396 0 0 1-2.4-4.148z" fill="currentColor"/>
</svg>
