<svg xmlns="http://www.w3.org/2000/svg" viewBox="0 0 123 108.1">
  <style>
    .fillCurrent{fill:currentColor}
  </style>
  <path class="fillCurrent" d="M61.5 47.6c-3.3 0-6 2.7-6 6s2.7 6 6 6 6-2.7 6-6-2.7-6-6-6zm0 9c-1.6 0-3-1.3-3-3 0-1.6 1.3-3 3-3 1.6 0 3 1.3 3 3s-1.4 3-3 3zM71.6 33c-1.5-.4-3.2-.2-4.5.6-1.4.8-2.4 2.1-2.8 3.6s-.2 3.2.6 4.5c.8 1.4 2.1 2.4 3.6 2.8.5.1 1 .2 1.6.2 1 0 2.1-.3 3-.8 2.9-1.7 3.8-5.3 2.2-8.2-.9-1.3-2.1-2.3-3.7-2.7zm0 8.4c-.7.4-1.5.5-2.3.3-.8-.2-1.4-.7-1.8-1.4-.4-.7-.5-1.5-.3-2.3.2-.8.7-1.4 1.4-1.8.5-.3 1-.4 1.5-.4.3 0 .5 0 .8.1.8.2 1.4.7 1.8 1.4.8 1.4.3 3.3-1.1 4.1zM58.1 41.8c1.7-2.9.7-6.5-2.2-8.2-1.4-.8-3-1-4.5-.6s-2.8 1.4-3.6 2.8c-.8 1.4-1 3-.6 4.5s1.4 2.8 2.8 3.6c.9.5 1.9.8 3 .8.5 0 1-.1 1.6-.2 1.4-.3 2.7-1.3 3.5-2.7zm-2.6-1.5c-.4.7-1 1.2-1.8 1.4-.8.2-1.6.1-2.3-.3-.7-.4-1.2-1-1.4-1.8-.2-.8-.1-1.6.3-2.3.4-.7 1-1.2 1.8-1.4.3-.1.5-.1.8-.1.5 0 1 .1 1.5.4 1.5.8 2 2.7 1.1 4.1z"/>
  <path class="fillCurrent" d="M122.2 20.1c-1.7-2.9-5.3-3.8-8.2-2.2l-14.3 8.2-3.9-6.7 14.3-8.2c2.9-1.7 3.8-5.3 2.2-8.2C110.6.1 107-.8 104.1.8L78.5 15.6c-3.5-2.1-7.2-3.5-11.2-4.3h-.1c-2.2-.4-4.4.5-5.7 2.2-.4-.4-.8-.9-1.2-1.2-1.3-.9-2.9-1.3-4.5-1h-.1c-4 .7-7.7 2.1-11.2 4.3L18.9.8C16-.9 12.3.1 10.7 3 9 5.9 10 9.5 12.9 11.2l14.3 8.2-3.9 6.7L9 17.9c-2.9-1.7-6.5-.7-8.2 2.2C-.8 23 .1 26.6 3 28.3l25.6 14.8v.7c0 3.8.7 7.6 2 11.2v.1c.8 2.1 2.6 3.6 4.7 3.9-.8 2-.5 4.3 1 6l.2.2c2.6 3 5.7 5.5 9.1 7.5v29.6c0 3.3 2.7 6 6 6s6-2.7 6-6V85.7h7.8v16.5c0 3.3 2.7 6 6 6s6-2.7 6-6V72.6c3.5-1.9 6.5-4.4 9.1-7.4.1-.1.2-.1.2-.2 1-1.2 1.5-2.8 1.4-4.4-.1-.6-.2-1.1-.4-1.7.6-.1 1.1-.2 1.6-.5 1.5-.7 2.6-1.9 3.1-3.4v-.1c1.3-3.6 2-7.3 2-11.2V43L120 28.3c1.4-.8 2.4-2.1 2.8-3.6.4-1.6.2-3.2-.6-4.6zm-41 30.7c0 .1 0 .1 0 0-.5 1.5-.5 3 0 4.3-1.4.2-2.6.9-3.6 1.9l-.1.1c-4 4.8-9.9 7.5-16 7.5-6.3 0-12.2-2.8-16.2-7.6-.1-.1-.1-.2-.2-.2-.9-.9-2.1-1.5-3.4-1.7.5-1.3.6-2.8.1-4.3v-.1c-.8-2.3-1.2-4.7-1.2-7.1 0-10.2 7.2-18.8 17.2-20.6h.1c1.5-.3 2.8-1.1 3.6-2.2.9 1.1 2.1 1.9 3.6 2.2h.1c10 1.8 17.2 10.5 17.2 20.6.1 2.6-.4 5-1.2 7.2zm-47.8 3.3c-1.2-3.3-1.8-6.8-1.8-10.3v-.9-.6c0-.6-.3-1.1-.7-1.4L4.5 25.7c-1.4-.8-1.9-2.7-1.1-4.1.8-1.4 2.7-1.9 4.1-1.1l15.6 9c.7.4 1.6.2 2-.5l5.4-9.3c.2-.3.3-.8.1-1.1-.1-.4-.4-.7-.7-.9l-15.6-9c-1.4-.8-1.9-2.7-1.1-4.1.8-1.4 2.7-1.9 4.1-1.1l26.4 15.2c.5.3 1.1.3 1.6 0 3.4-2.2 7.1-3.6 11-4.3h.1c.8-.1 1.5.1 2.2.5.7.5 1.1 1.1 1.2 1.9.3 1.6-.8 3.1-2.4 3.5h-.1c-11.5 2-19.8 11.9-19.8 23.6 0 2.8.5 5.6 1.4 8.2v.1c.5 1.5-.3 3.2-1.8 3.8-1.4.3-3.1-.4-3.7-1.9zm51.2 8.7l-.2.2c-2.6 3.1-5.7 5.5-9.2 7.4-.5.3-.8.8-.8 1.3v30.5c0 1.6-1.3 3-3 3-1.6 0-3-1.3-3-3v-18c0-.8-.7-1.5-1.5-1.5H56.1c-.8 0-1.5.7-1.5 1.5v18c0 1.6-1.3 3-3 3-1.6 0-3-1.3-3-3V71.7c0-.6-.3-1.1-.8-1.3-3.5-1.8-6.7-4.3-9.2-7.4l-.2-.2c-.9-1.3-.7-3 .5-4 1.3-1.1 3.2-.9 4.2.4l.1.1c4.6 5.4 11.2 8.4 18.2 8.4s13.7-3.1 18.2-8.4l.1-.1c.5-.6 1.2-1 2-1.1.8-.1 1.6.2 2.2.7s1 1.2 1.1 2c.2.7 0 1.4-.4 2zm35.3-38.9c-.2.8-.7 1.4-1.4 1.8L92.1 40.9c-.5.3-.8.8-.7 1.4v1.5c0 3.5-.6 7-1.8 10.2v.1c-.3.7-.8 1.3-1.5 1.6-.7.3-1.5.4-2.3.1s-1.4-.8-1.7-1.5c-.3-.7-.4-1.5-.1-2.2V52c1-2.6 1.4-5.4 1.4-8.2 0-11.7-8.3-21.6-19.8-23.6h-.1c-1.6-.3-2.6-1.9-2.4-3.5.3-1.6 1.8-2.7 3.4-2.4h.1c3.9.7 7.6 2.2 11 4.3.5.3 1.1.3 1.6 0l26.4-15.2c1.4-.8 3.3-.3 4.1 1.1.8 1.4.3 3.3-1.1 4.1l-15.6 9c-.3.2-.6.5-.7.9-.1.4 0 .8.2 1.1l5.4 9.3c.4.7 1.3 1 2 .5l15.6-9c1.4-.8 3.3-.3 4.1 1.1.4.8.5 1.6.3 2.4z"/>
</svg>
