<svg viewBox="0 0 50 50" xmlns="http://www.w3.org/2000/svg">
  <g fill="currentColor" fill-rule="nonzero">
    <path d="M6.56 45.56c-.945.945-2.56.276-2.56-1.06V7.834A4.834 4.834 0 0 1 8.833 3h33.332A4.833 4.833 0 0 1 47 7.834V34.5a4.834 4.834 0 0 1-4.834 4.834H12.788L6.56 45.56zm4.546-8.787a1.5 1.5 0 0 1 1.06-.44h30A1.834 1.834 0 0 0 44 34.5V7.834C44 6.82 43.18 6 42.165 6H8.834C7.82 6 7 6.82 7 7.834v33.045l4.106-4.106z"/>
    <path d="M27 21.167a1.5 1.5 0 1 0-3 0 1.5 1.5 0 0 0 3 0zm3 0a4.5 4.5 0 1 1-9-.001 4.5 4.5 0 0 1 9 0zM16 21.167a1.5 1.5 0 1 0-3 0 1.5 1.5 0 0 0 3 0zm3 0a4.5 4.5 0 1 1-9-.001 4.5 4.5 0 0 1 9 0zM38 21.167a1.5 1.5 0 1 0-3 0 1.5 1.5 0 0 0 3 0zm3 0a4.5 4.5 0 1 1-9-.001 4.5 4.5 0 0 1 9 0z"/>
  </g>
</svg>
