<?xml version="1.0" encoding="UTF-8"?>
<svg width="50px" height="50px" viewBox="0 0 50 50" version="1.1" xmlns="http://www.w3.org/2000/svg" xmlns:xlink="http://www.w3.org/1999/xlink">
    <!-- Generator: Sketch 42 (36781) - http://www.bohemiancoding.com/sketch -->
      <g id="confirmed" transform="translate(4.000000, 4.000000)">
          <path d="M41.5,41.4999 L21.5,37.5029 L1.5,41.4999 L1.5,3.8999 C1.5,2.5749 2.843,1.4999 4.5,1.4999 L38.5,1.4999 C40.157,1.4999 41.5,2.5749 41.5,3.8999 L41.5,41.4999 Z" id="Fill-1" fill="#5AA0FA"></path>
          <path d="M40,3.8999 C40,3.48587331 39.3926382,2.9999 38.5,2.9999 L4.5,2.9999 C3.60736176,2.9999 3,3.48587331 3,3.8999 L3,39.6704633 L21.206038,36.0319866 C21.400094,35.9932045 21.599906,35.9932045 21.793962,36.0319866 L40,39.6704633 L40,3.8999 Z M1.79396205,42.9708134 C0.865833949,43.1562998 0,42.4463814 0,41.4999 L0,3.8999 C0,1.66351223 2.07915623,-0.0001 4.5,-0.0001 L38.5,-0.0001 C40.9208438,-0.0001 43,1.66351223 43,3.8999 L43,41.4999 C43,42.4463814 42.1341661,43.1562998 41.206038,42.9708134 L21.5,39.0325617 L1.79396205,42.9708134 Z" id="Stroke-3" fill="#F7FBFF" fill-rule="nonzero"></path>
          <path d="M12.3864602,19.3348398 C11.8006737,18.7490534 10.8509263,18.7490534 10.2651398,19.3348398 C9.67935339,19.9206263 9.67935339,20.8703737 10.2651398,21.4561602 L15.9531398,27.1441602 C16.5389263,27.7299466 17.4886737,27.7299466 18.0744602,27.1441602 L32.7344602,12.4841602 C33.3202466,11.8983737 33.3202466,10.9486263 32.7344602,10.3628398 C32.1486737,9.77705339 31.1989263,9.77705339 30.6131398,10.3628398 L17.0138,23.9621797 L12.3864602,19.3348398 Z" id="Stroke-5" fill="#FFFFFF" fill-rule="nonzero"></path>
      </g>

</svg>
