<?xml version="1.0" encoding="utf-8"?>
<svg version="1.1" id="Layer_3" xmlns="http://www.w3.org/2000/svg" xmlns:xlink="http://www.w3.org/1999/xlink" x="0px" y="0px" width="63px" height="63px"
	 viewBox="0 0 63 63" enable-background="new 0 0 63 63" xml:space="preserve">
<path fill="currentColor" d="M57,58.5c-0.0977,0-0.1963-0.0098-0.2939-0.0293L31.5,53.4336L6.2939,58.4707
	c-0.4419,0.0879-0.8979-0.0254-1.2451-0.3105S4.5,57.4492,4.5,57V9.0601C4.5,6.5454,6.8887,4.5,9.8252,4.5h43.3496
	C56.1113,4.5,58.5,6.5454,58.5,9.0601V57c0,0.4492-0.2012,0.875-0.5488,1.1602C57.6807,58.3818,57.3438,58.5,57,58.5z M31.5,50.4043
	c0.0986,0,0.1968,0.0098,0.2939,0.0293L55.5,55.1709V9.0601C55.5,8.229,54.4131,7.5,53.1748,7.5H9.8252
	C8.5864,7.5,7.5,8.229,7.5,9.0601v46.1108l23.7061-4.7373C31.3032,50.4141,31.4014,50.4043,31.5,50.4043z"/>
<path fill="currentColor" d="M18.7983,45.8252c-0.3838,0-0.7676-0.1465-1.0605-0.4395c-0.5859-0.5859-0.5859-1.5352,0-2.1211
	l25.6733-25.6729c0.5859-0.5859,1.5352-0.5859,2.1211,0c0.5859,0.5854,0.5859,1.5356,0,2.1211L19.8589,45.3857
	C19.5659,45.6787,19.1821,45.8252,18.7983,45.8252z"/>
<path fill="currentColor" d="M44.4717,45.8252c-0.3838,0-0.7676-0.1465-1.0605-0.4395L17.7378,19.7129
	c-0.5859-0.5854-0.5859-1.5356,0-2.1211c0.5859-0.5859,1.5352-0.5859,2.1211,0l25.6733,25.6729
	c0.5859,0.5859,0.5859,1.5352,0,2.1211C45.2393,45.6787,44.8555,45.8252,44.4717,45.8252z"/>
</svg>
