<svg xmlns="http://www.w3.org/2000/svg" viewBox="0 0 63 63">
  <path fill="currentColor" d="M57 58.5c-.098 0-.196-.01-.294-.03L31.5 53.435 6.294 58.47A1.498 1.498 0 0 1 4.5 57V9.06c0-2.515 2.389-4.56 5.325-4.56h43.35c2.936 0 5.325 2.045 5.325 4.56V57a1.5 1.5 0 0 1-1.5 1.5zm-25.5-8.096c.099 0 .197.01.294.03L55.5 55.17V9.06c0-.832-1.087-1.561-2.325-1.561H9.825C8.586 7.5 7.5 8.229 7.5 9.06v46.11l23.706-4.736c.097-.02.195-.03.294-.03z"/>
  <path fill="currentColor" d="M18.798 45.825a1.5 1.5 0 0 1-1.06-2.56L43.41 17.592a1.5 1.5 0 1 1 2.121 2.12L19.86 45.387c-.293.293-.677.44-1.06.44z"/>
  <path fill="currentColor" d="M44.472 45.825c-.384 0-.768-.146-1.06-.44L17.737 19.714a1.5 1.5 0 1 1 2.12-2.121l25.674 25.673a1.5 1.5 0 0 1-1.06 2.56z"/>
</svg>
