<svg viewBox="0 0 123 123" xmlns="http://www.w3.org/2000/svg"><g fill="currentColor" fill-rule="nonzero"><path d="M116.5 100c1.922 0 3.5-1.578 3.5-3.5v-90c0-1.922-1.578-3.5-3.5-3.5H6.5A3.515 3.515 0 0 0 3 6.5v90c0 1.922 1.578 3.5 3.5 3.5h110zm0 3H6.5c-3.578 0-6.5-2.922-6.5-6.5v-90C0 2.922 2.922 0 6.5 0h110c3.578 0 6.5 2.922 6.5 6.5v90c0 3.578-2.922 6.5-6.5 6.5z"/><path d="M106.5 78c1.922 0 3.5-1.578 3.5-3.5v-58c0-1.922-1.578-3.5-3.5-3.5h-90a3.515 3.515 0 0 0-3.5 3.5v58c0 1.922 1.578 3.5 3.5 3.5h90zm0 3h-90c-3.578 0-6.5-2.922-6.5-6.5v-58c0-3.578 2.922-6.5 6.5-6.5h90c3.578 0 6.5 2.922 6.5 6.5v58c0 3.578-2.922 6.5-6.5 6.5zm-53.552 22c-.498 7.24-4.581 13.494-10.487 17H80.54c-5.906-3.506-9.989-9.76-10.487-17H52.948zM73 101.5c0 10.218 8.282 18.5 18.5 18.5 2 0 2 3 0 3h-60c-2 0-2-3 0-3 10.218 0 18.5-8.282 18.5-18.5a1.5 1.5 0 0 1 1.5-1.5h20a1.5 1.5 0 0 1 1.5 1.5z"/></g></svg>
