
<svg width="84px" height="104px" viewBox="0 0 84 104" version="1.1" xmlns="http://www.w3.org/2000/svg" xmlns:xlink="http://www.w3.org/1999/xlink">

      <g id="flag">
          <path d="M2.05646127,103.558892 C1.04228188,103.812234 0.06,103.045143 0.06,101.9998 L0.06,7.9998 C0.06,3.79897443 3.46578233,0.3928 7.667,0.3928 L75.667,0.3928 C79.8675216,0.3928 83.274,3.79927841 83.274,7.9998 L83.274,101.9998 C83.274,103.045143 82.2917181,103.812234 81.2775387,103.558892 L41.667,93.6641798 L2.05646127,103.558892 Z" id="Stroke-4" fill="currentColor"></path>
            <path d="M79.0005,98.666675 L41.667,89.3407667 L4.3335,98.666675 L4.3335,10.93295 C4.3335,7.84080286 6.84044453,5.332925 9.933525,5.332925 L73.400475,5.332925 C76.4926221,5.332925 79.0005,7.84080286 79.0005,10.93295 L79.0005,98.666675 Z" id="Fill-2"></path>
      </g>

</svg>