
<svg width="84px" height="104px" viewBox="0 0 84 104" version="1.1" xmlns="http://www.w3.org/2000/svg" xmlns:xlink="http://www.w3.org/1999/xlink">

      <g id="flag">
          <path d="M81.667,101.9998 L41.667,92.0078 L1.667,101.9998 L1.667,7.9998 C1.667,4.6868 4.353,1.9998 7.667,1.9998 L75.667,1.9998 C78.98,1.9998 81.667,4.6868 81.667,7.9998 L81.667,101.9998 Z" id="Fill-2" fill="#F7FBFF"></path>
          <path d="M77.06,11.4203138 C77.06,9.18436047 75.2462191,7.37057953 73.0102657,7.37057953 L10.3237343,7.37057953 C8.08721562,7.37057953 6.274,9.1840039 6.274,11.4203138 L6.274,96.1782121 L41.3079709,87.4267262 C41.5437019,87.3678406 41.7902981,87.3678406 42.0260291,87.4267262 L77.06,96.1782121 L77.06,11.4203138 Z M2.05646127,103.558892 C1.04228188,103.812234 0.06,103.045143 0.06,101.9998 L0.06,7.9998 C0.06,3.79897443 3.46578233,0.3928 7.667,0.3928 L75.667,0.3928 C79.8675216,0.3928 83.274,3.79927841 83.274,7.9998 L83.274,101.9998 C83.274,103.045143 82.2917181,103.812234 81.2775387,103.558892 L41.667,93.6641798 L2.05646127,103.558892 Z" id="Stroke-4" fill="currentColor" fill-rule="nonzero"></path>
      </g>

</svg>
