<?xml version="1.0" encoding="utf-8"?>
<svg width="50px" height="50px" viewBox="0 0 50 50" version="1.1" id="Layer_2" xmlns="http://www.w3.org/2000/svg" xmlns:xlink="http://www.w3.org/1999/xlink" x="0px" y="0px" enable-background="new 0 0 50 50" xml:space="preserve">
<path fill="currentColor" d="M25,13.1665c-2.665,0-4.8335-2.168-4.8335-4.833S22.335,3.5,25,3.5s4.833,2.1685,4.833,4.8335
  S27.665,13.1665,25,13.1665z M25,6.5c-1.0112,0-1.8335,0.8223-1.8335,1.8335c0,1.0107,0.8223,1.833,1.8335,1.833
  c1.0107,0,1.833-0.8223,1.833-1.833C26.833,7.3223,26.0107,6.5,25,6.5z"/>
<path fill="currentColor" d="M25,46.5c-3.584,0-6.5-2.916-6.5-6.5V26.6914l-7.3223-7.3213c-1.8848-1.8843-1.8848-4.9507,0-6.835
  c1.8838-1.8838,4.9507-1.8843,6.8354-0.0005l3.6821,3.6821h6.6094l3.6816-3.6816c1.8848-1.8828,4.9512-1.8848,6.8359,0
  c1.8848,1.8843,1.8848,4.9507,0,6.835L31.5,26.6924V40C31.5,43.584,28.584,46.5,25,46.5z M14.5957,14.1201
  c-0.4697,0-0.9395,0.1787-1.2969,0.5361c-0.7148,0.7148-0.7148,1.8779,0,2.5928l7.7617,7.7607
  C21.3418,25.291,21.5,25.6724,21.5,26.0703V40c0,1.9297,1.5703,3.5,3.5,3.5s3.5-1.5703,3.5-3.5V26.0713
  c0-0.3979,0.1582-0.7793,0.4395-1.0605l7.7617-7.7617c0.7148-0.7148,0.7148-1.8779,0-2.5928s-1.8789-0.7144-2.5938,0.0005
  l-4.1211,4.1206c-0.2812,0.2812-0.6631,0.4395-1.0605,0.4395h-7.8516c-0.3979,0-0.7793-0.1582-1.0605-0.4395l-4.1211-4.1211
  C15.5347,14.2988,15.0649,14.1201,14.5957,14.1201z"/>
</svg>
