<svg viewBox="0 0 50 50" xmlns="http://www.w3.org/2000/svg">
  <path fill="currentColor" d="M25 13.166c-2.665 0-4.833-2.168-4.833-4.833S22.334 3.5 25 3.5s4.833 2.168 4.833 4.833-2.168 4.833-4.833 4.833zM25 6.5a1.835 1.835 0 0 0-1.833 1.833c0 1.011.822 1.834 1.833 1.834 1.01 0 1.833-.823 1.833-1.833A1.835 1.835 0 0 0 25 6.5z"/>
  <path fill="currentColor" d="M25 46.5a6.508 6.508 0 0 1-6.5-6.5V26.691l-7.322-7.32a4.838 4.838 0 0 1 0-6.836 4.84 4.84 0 0 1 6.835 0l3.682 3.682h6.61l3.681-3.682a4.84 4.84 0 0 1 6.836 0 4.838 4.838 0 0 1 0 6.835L31.5 26.692V40c0 3.584-2.916 6.5-6.5 6.5zM14.596 14.12c-.47 0-.94.179-1.297.536a1.836 1.836 0 0 0 0 2.593l7.762 7.76a1.5 1.5 0 0 1 .439 1.061V40c0 1.93 1.57 3.5 3.5 3.5s3.5-1.57 3.5-3.5V26.071c0-.398.158-.779.44-1.06l7.761-7.762c.715-.715.715-1.878 0-2.593s-1.879-.714-2.594 0l-4.12 4.121a1.5 1.5 0 0 1-1.061.44h-7.852a1.5 1.5 0 0 1-1.06-.44l-4.121-4.12a1.83 1.83 0 0 0-1.297-.537z"/>
</svg>
