<svg xmlns="http://www.w3.org/2000/svg" viewBox="0 0 50 50">
  <g fill="currentColor">
    <path d="M5 24.119c-.82 0-1.487-.609-1.5-1.428v-.144A1.5 1.5 0 0 1 5 21.07h.023A1.5 1.5 0 0 1 6.5 22.591c-.013.82-.68 1.528-1.5 1.528zM22.67 6.5h-.023c-.82-.012-1.527-.68-1.527-1.5s.609-1.488 1.428-1.5h.143a1.5 1.5 0 0 1-.021 3z"/>
    <path d="M27.378 46.5a4.844 4.844 0 0 1-3.437-1.422L4.92 26.058A4.839 4.839 0 0 1 3.5 22.69V8.362A4.867 4.867 0 0 1 8.362 3.5H22.67a4.847 4.847 0 0 1 3.39 1.42l19.02 19.02a4.868 4.868 0 0 1 0 6.875L30.816 45.078a4.844 4.844 0 0 1-3.438 1.422zM8.362 6.5A1.864 1.864 0 0 0 6.5 8.362v14.207c.008.567.2 1.025.542 1.368l19.02 19.02a1.866 1.866 0 0 0 2.633 0l14.262-14.263a1.864 1.864 0 0 0 0-2.633l-19.02-19.02a1.85 1.85 0 0 0-1.29-.54L22.57 5v1.5H8.362z"/>
    <path d="M15.116 19.975a4.848 4.848 0 0 1-3.438-1.42 4.868 4.868 0 0 1 0-6.877 4.83 4.83 0 0 1 3.438-1.424 4.83 4.83 0 0 1 3.438 1.424 4.83 4.83 0 0 1 1.424 3.438 4.83 4.83 0 0 1-1.424 3.438 4.845 4.845 0 0 1-3.438 1.421zm0-6.721c-.497 0-.964.194-1.317.545a1.864 1.864 0 0 0 .001 2.633 1.864 1.864 0 0 0 3.178-1.316c0-.497-.194-.965-.545-1.316a1.849 1.849 0 0 0-1.317-.546zM21.436 32.444a1.5 1.5 0 0 1-1.06-2.56l9.507-9.51a1.5 1.5 0 1 1 2.122 2.122l-9.509 9.508c-.293.293-.676.44-1.06.44zM26.19 37.198a1.5 1.5 0 0 1-1.06-2.56l9.508-9.51a1.5 1.5 0 1 1 2.12 2.122l-9.508 9.508c-.293.293-.676.44-1.06.44z"/>
  </g>
</svg>
