<?xml version="1.0" encoding="utf-8"?>
<svg width="50px" height="50px" version="1.1" id="Layer_3" xmlns="http://www.w3.org/2000/svg" xmlns:xlink="http://www.w3.org/1999/xlink" x="0px" y="0px"
	 viewBox="0 0 50 50" enable-background="new 0 0 50 50" xml:space="preserve">
<g id="info_1_" fill="currentColor">
	<path d="M5.0006,24.1188c-0.8199,0-1.4879-0.6084-1.5001-1.4283c0-0.0146,0-0.1284,0-0.1431
		c0.0122-0.8208,0.6812-1.4781,1.4996-1.4781c0.0073,0,0.0146,0,0.0225,0c0.8282,0.0122,1.4898,0.6934,1.4781,1.5221
		C6.4885,23.4108,5.8205,24.1188,5.0006,24.1188z"/>
	<path d="M22.6696,6.5002c-0.0073,0-0.0151,0-0.0225,0C21.8273,6.488,21.1197,5.82,21.1197,5.0001
		S21.7286,3.5122,22.5485,3.5c0.0146,0,0.1279,0,0.1426,0c0.8287,0.0122,1.4903,0.6939,1.4781,1.5221
		C24.157,5.8429,23.4875,6.5002,22.6696,6.5002z"/>
	<path d="M27.3784,46.5c-1.2452,0-2.4899-0.4737-3.4377-1.422L4.9196,26.0574
		c-0.897-0.8985-1.4005-2.0939-1.419-3.3674c0-0.0044-0.0005-0.1084-0.0005-0.1133V8.3616C3.5001,5.6808,5.6813,3.5,8.3622,3.5
		h14.3065c1.2965,0.0186,2.4923,0.5225,3.3894,1.4195l19.0206,19.0206c1.8956,1.8966,1.8946,4.9808,0,6.8754L30.8161,45.078
		C29.8687,46.0263,28.6236,46.5,27.3784,46.5z M8.3622,6.5002c-1.0269,0-1.8619,0.835-1.8619,1.8614v14.2078
		c0.0073,0.5669,0.1997,1.025,0.5415,1.3678l19.0201,19.0196c0.7266,0.7247,1.9064,0.7247,2.633,0l14.2625-14.2625
		c0.7256-0.7256,0.7256-1.9073-0.001-2.633L23.9363,7.0407c-0.3418-0.3413-0.7998-0.5337-1.2891-0.5406l-0.0767-1.5001v1.5001
		H8.3622z"/>
	<path d="M15.116,19.9751c-1.2447,0-2.4899-0.4737-3.4377-1.421c-1.8956-1.8966-1.8956-4.9808,0-6.8759
		c0.9185-0.9185,2.1393-1.4244,3.4377-1.4244c1.2989,0,2.5197,0.5059,3.4382,1.4244c0.918,0.918,1.4239,2.1388,1.4239,3.4377
		c0,1.2984-0.5059,2.5192-1.4244,3.4377C17.6063,19.5014,16.3611,19.9751,15.116,19.9751z M15.116,13.254
		c-0.4971,0-0.9644,0.1939-1.3165,0.5454c-0.7256,0.7256-0.7256,1.9068,0.0005,2.633c0.7256,0.7256,1.9068,0.7256,2.6325,0
		c0.3516-0.3521,0.5454-0.8194,0.5454-1.3165c0-0.4971-0.1939-0.9649-0.5454-1.316C16.0809,13.4478,15.6131,13.254,15.116,13.254z"
		/>
	<path d="M21.4356,32.4435c-0.3838,0-0.7676-0.1465-1.0606-0.4395c-0.586-0.586-0.586-1.5352,0-2.1212l9.5084-9.5079
		c0.586-0.586,1.5352-0.586,2.1212,0c0.586,0.586,0.586,1.5357,0,2.1212l-9.5084,9.5079
		C22.2033,32.297,21.8195,32.4435,21.4356,32.4435z"/>
	<path d="M26.1898,37.1977c-0.3838,0-0.7676-0.1465-1.0606-0.4395c-0.586-0.586-0.586-1.5352,0-2.1212l9.5084-9.5084
		c0.586-0.586,1.5352-0.586,2.1212,0c0.586,0.586,0.586,1.5352,0,2.1212l-9.5084,9.5084
		C26.9574,37.0512,26.5736,37.1977,26.1898,37.1977z"/>
</g>
</svg>
