<?xml version="1.0" encoding="UTF-8"?>
<svg width="50px" height="50px" viewBox="0 0 50 50" version="1.1" xmlns="http://www.w3.org/2000/svg" xmlns:xlink="http://www.w3.org/1999/xlink">
    <!-- Generator: Sketch 42 (36781) - http://www.bohemiancoding.com/sketch -->
      <g id="look" transform="translate(4.000000, 4.000000)" fill-rule="nonzero" fill="currentColor">
          <path d="M26.0463304,26.0459493 C31.3174836,20.7738961 31.3174836,12.2265039 26.0462398,6.95436017 C20.7740112,1.68213152 12.2266888,1.68213152 6.95365071,6.95426963 C1.68231643,12.2265039 1.68231643,20.7738961 6.95337909,26.0458588 C12.226619,31.3172987 20.774081,31.3172987 26.0463304,26.0459493 Z M28.1676507,28.1672696 C21.723719,34.6101013 11.277181,34.6101013 4.83214929,28.1672696 C-1.61051643,21.7235039 -1.61051643,11.2768961 4.83233036,4.83294931 C11.2771112,-1.61073152 21.7237888,-1.61073152 28.1676507,4.83313037 C34.6103164,11.2768961 34.6103164,21.7235039 28.1676507,28.1672696 Z" id="Stroke-1"></path>
          <path d="M11.9038602,21.0958398 C9.36564661,18.5576263 9.36564661,14.4423737 11.9038602,11.9041602 C12.4896466,11.3183737 12.4896466,10.3686263 11.9038602,9.78283983 C11.3180737,9.19705339 10.3683263,9.19705339 9.78253983,9.78283983 C6.07275339,13.4926263 6.07275339,19.5073737 9.78253983,23.2171602 C10.3683263,23.8029466 11.3180737,23.8029466 11.9038602,23.2171602 C12.4896466,22.6313737 12.4896466,21.6816263 11.9038602,21.0958398 Z" id="Stroke-3"></path>
          <path d="M34.4289462,39.3789334 L24.0156064,28.964686 C23.4298455,28.3788741 22.480098,28.3788327 21.894286,28.9645936 C21.3084741,29.5503545 21.3084327,30.500102 21.8941936,31.085914 L33.3681936,42.560914 C33.9539726,43.146744 34.9037557,43.1467647 35.4895602,42.5609602 L42.5605602,35.4899602 C43.1463466,34.9041737 43.1463466,33.9544263 42.5605602,33.3686398 L31.0855602,21.8936398 C30.4997737,21.3078534 29.5500263,21.3078534 28.9642398,21.8936398 C28.3784534,22.4794263 28.3784534,23.4291737 28.9642398,24.0149602 L39.3785797,34.4293 L34.4289462,39.3789334 Z" id="Stroke-5"></path>
      </g>

</svg>
