<svg viewBox="0 0 50 50" xmlns="http://www.w3.org/2000/svg">
  <g fill="currentColor">
    <path d="M30.046 30.046c5.271-5.272 5.271-13.82 0-19.092-5.272-5.272-13.82-5.272-19.092 0-5.272 5.273-5.272 13.82 0 19.092 5.273 5.271 13.82 5.271 19.092 0zm2.122 2.121c-6.444 6.443-16.89 6.443-23.336 0-6.443-6.443-6.443-16.89 0-23.334 6.445-6.444 16.892-6.444 23.336 0 6.442 6.444 6.442 16.89 0 23.334z"/>
    <path d="M15.904 25.096a6.5 6.5 0 0 1 0-9.192 1.5 1.5 0 0 0-2.121-2.121 9.5 9.5 0 0 0 0 13.434 1.5 1.5 0 0 0 2.12-2.121zM38.429 43.379L28.016 32.965a1.5 1.5 0 0 0-2.122 2.12l11.474 11.476a1.5 1.5 0 0 0 2.122 0l7.07-7.071a1.5 1.5 0 0 0 0-2.121L35.087 25.894a1.5 1.5 0 0 0-2.122 2.121L43.38 38.429l-4.95 4.95z"/>
  </g>
</svg>
