<svg viewBox="0 0 50 50" xmlns="http://www.w3.org/2000/svg" xmlns:xlink="http://www.w3.org/1999/xlink">
  <defs>
    <path id="a" d="M43 0v42.99H0V0h43z"/>
  </defs>
  <g transform="translate(4 4)" fill="none" fill-rule="evenodd">
    <mask id="b" fill="#fff">
      <use xlink:href="#a"/>
    </mask>
    <path d="M21.372 29.712c-4.687 0-8.5-3.813-8.5-8.5 0-4.687 3.813-8.5 8.5-8.5 4.687 0 8.5 3.813 8.5 8.5 0 4.687-3.813 8.5-8.5 8.5m19.938-16.59a21.444 21.444 0 0 0-4.607-6.833 21.43 21.43 0 0 0-6.833-4.607c-5.3-2.242-11.439-2.242-16.739 0a21.434 21.434 0 0 0-6.834 4.607A21.444 21.444 0 0 0 0 21.49a21.433 21.433 0 0 0 6.297 15.203A21.42 21.42 0 0 0 21.5 42.99c2.902 0 5.718-.568 8.37-1.69a1.5 1.5 0 0 0-1.169-2.763c-4.56 1.927-9.84 1.929-14.402 0a18.435 18.435 0 0 1-5.88-3.965A18.45 18.45 0 0 1 3 21.49c0-2.498.49-4.92 1.453-7.2a18.467 18.467 0 0 1 3.965-5.88A18.46 18.46 0 0 1 14.3 4.445c4.558-1.93 9.843-1.93 14.401 0a18.45 18.45 0 0 1 5.881 3.965A18.434 18.434 0 0 1 40 21.49a5.293 5.293 0 0 1-1.56 3.768 3.937 3.937 0 0 1-2.8 1.16 2.85 2.85 0 0 1-2.03-.84c-.455-.456-.738-.996-.738-1.411V11.212a1.5 1.5 0 1 0-3 0v2.28c-2.105-2.314-5.13-3.78-8.5-3.78-6.34 0-11.5 5.159-11.5 11.5 0 6.34 5.16 11.5 11.5 11.5 4.116 0 7.723-2.181 9.755-5.44.12.143.225.292.362.427a5.827 5.827 0 0 0 4.15 1.719 6.915 6.915 0 0 0 4.922-2.04 8.27 8.27 0 0 0 2.44-5.887 21.37 21.37 0 0 0-1.69-8.368" fill="currentColor" mask="url(#b)"/>
  </g>
</svg>
