<svg xmlns="http://www.w3.org/2000/svg" viewBox="0 0 43 43">
  <path d="M21.4 29.7c-4.7 0-8.5-3.8-8.5-8.5s3.8-8.5 8.5-8.5 8.5 3.8 8.5 8.5-3.8 8.5-8.5 8.5m19.9-16.6c-1.1-2.6-2.6-4.9-4.6-6.8-2-2-4.3-3.5-6.8-4.6-5.3-2.2-11.4-2.2-16.7 0-2.6 1.1-4.9 2.6-6.8 4.6-4 4-6.3 9.5-6.3 15.2 0 5.7 2.3 11.2 6.3 15.2S15.9 43 21.6 43c2.9 0 5.7-.6 8.4-1.7.8-.3 1.1-1.2.8-2-.3-.8-1.2-1.1-2-.8-4.6 1.9-9.8 1.9-14.4 0-2.2-.9-4.2-2.3-5.9-4-3.6-3.4-5.5-8.1-5.5-13 0-2.5.5-4.9 1.5-7.2.9-2.2 2.3-4.2 4-5.9 1.7-1.7 3.7-3 5.9-4 4.6-1.9 9.8-1.9 14.4 0 2.2.9 4.2 2.3 5.9 4 3.5 3.5 5.4 8.2 5.4 13.1 0 1.4-.6 2.8-1.6 3.8-.7.7-1.7 1.2-2.8 1.2-.8 0-1.5-.3-2-.8s-.7-1-.7-1.4v-13c0-.8-.7-1.5-1.5-1.5s-1.5.7-1.5 1.5v2.3c-2.1-2.3-5.1-3.8-8.5-3.8C15 9.7 9.9 14.9 9.9 21.2c0 6.3 5.2 11.5 11.5 11.5 4.1 0 7.7-2.2 9.8-5.4.1.1.2.3.4.4 1.1 1.1 2.6 1.7 4.2 1.7 1.8 0 3.6-.7 4.9-2 1.6-1.6 2.4-3.7 2.4-5.9-.1-2.9-.7-5.7-1.8-8.4"/>
</svg>
