<?xml version="1.0" encoding="UTF-8"?>
<svg width="50px" height="50px" viewBox="0 0 50 50" version="1.1" xmlns="http://www.w3.org/2000/svg" xmlns:xlink="http://www.w3.org/1999/xlink">
    <!-- Generator: Sketch 42 (36781) - http://www.bohemiancoding.com/sketch -->
      <g id="meeting" transform="translate(4.000000, 3.000000)" fill-rule="nonzero" fill="currentColor">
          <path d="M5.0003,1.5001 L5.0003,41.5001 C5.0003,42.3285271 5.67187288,43.0001 6.5003,43.0001 C7.32872712,43.0001 8.0003,42.3285271 8.0003,41.5001 L8.0003,1.5001 C8.0003,0.671672875 7.32872712,0.0001 6.5003,0.0001 C5.67187288,0.0001 5.0003,0.671672875 5.0003,1.5001 Z" id="Stroke-1"></path>
          <path d="M1.5003,43.0001 L11.5003,43.0001 C12.3287271,43.0001 13.0003,42.3285271 13.0003,41.5001 C13.0003,40.6716729 12.3287271,40.0001 11.5003,40.0001 L1.5003,40.0001 C0.671872875,40.0001 0.0003,40.6716729 0.0003,41.5001 C0.0003,42.3285271 0.671872875,43.0001 1.5003,43.0001 Z" id="Stroke-3"></path>
          <path d="M39.3789797,16.5001 L30.8789797,8.0001 L8.0003,8.0001 L8.0003,25.0001 L30.8789797,25.0001 L39.3789797,16.5001 Z M31.5003,28.0001 L6.5003,28.0001 C5.67187288,28.0001 5.0003,27.3285271 5.0003,26.5001 L5.0003,6.5001 C5.0003,5.67167288 5.67187288,5.0001 6.5003,5.0001 L31.5003,5.0001 C31.8981247,5.0001 32.2796556,5.15813526 32.5609602,5.43943983 L42.5609602,15.4394398 C43.1467466,16.0252263 43.1467466,16.9749737 42.5609602,17.5607602 L32.5609602,27.5607602 C32.2796556,27.8420647 31.8981247,28.0001 31.5003,28.0001 Z" id="Stroke-5"></path>
      </g>

</svg>
