<svg viewBox="0 0 50 50" xmlns="http://www.w3.org/2000/svg">
  <g fill="currentColor">
    <path d="M5.5 37A1.5 1.5 0 0 1 4 35.5v-20A1.5 1.5 0 0 1 5.5 14h40a1.5 1.5 0 0 1 1.5 1.5v20a1.5 1.5 0 0 1-1.5 1.5h-40zM44 34V17H7v17h37z"/>
    <path d="M5.5 24.253a8.753 8.753 0 0 0 8.753-8.753 1.5 1.5 0 0 0-3 0A5.753 5.753 0 0 1 5.5 21.253a1.5 1.5 0 0 0 0 3zM14.253 35.5A8.753 8.753 0 0 0 5.5 26.747a1.5 1.5 0 0 0 0 3 5.753 5.753 0 0 1 5.753 5.753 1.5 1.5 0 0 0 3 0zM45.5 26.747a8.753 8.753 0 0 0-8.753 8.753 1.5 1.5 0 0 0 3 0 5.753 5.753 0 0 1 5.753-5.753 1.5 1.5 0 0 0 0-3zM36.747 15.5a8.753 8.753 0 0 0 8.753 8.753 1.5 1.5 0 0 0 0-3 5.753 5.753 0 0 1-5.753-5.753 1.5 1.5 0 0 0-3 0zM28.699 25.5a3.198 3.198 0 1 0-6.397 0 3.198 3.198 0 0 0 6.397 0zm3 0a6.198 6.198 0 1 1-12.397 0 6.198 6.198 0 0 1 12.397 0z"/>
  </g>
</svg>
