<?xml version="1.0" encoding="UTF-8"?>
<svg width="50px" height="50px" viewBox="0 0 50 50" version="1.1" xmlns="http://www.w3.org/2000/svg" xmlns:xlink="http://www.w3.org/1999/xlink">
    <!-- Generator: Sketch 42 (36781) - http://www.bohemiancoding.com/sketch -->
      <g id="money" transform="translate(4.000000, 14.000000)" fill-rule="nonzero" fill="currentColor">
          <path d="M1.5,23 C0.671572875,23 0,22.3284271 0,21.5 L0,1.5 C0,0.671572875 0.671572875,0 1.5,0 L41.5,0 C42.3284271,0 43,0.671572875 43,1.5 L43,21.5 C43,22.3284271 42.3284271,23 41.5,23 L1.5,23 Z M40,20 L40,3 L3,3 L3,20 L40,20 Z" id="Stroke-1"></path>
          <path d="M1.5003,10.253 C6.33472712,10.253 10.2533,6.33442712 10.2533,1.5 C10.2533,0.671572875 9.58172712,0 8.7533,0 C7.92487288,0 7.2533,0.671572875 7.2533,1.5 C7.2533,4.67757288 4.67787288,7.253 1.5003,7.253 C0.671872875,7.253 0.0003,7.92457288 0.0003,8.753 C0.0003,9.58142712 0.671872875,10.253 1.5003,10.253 Z" id="Stroke-3"></path>
          <path d="M10.2533,21.5001 C10.2533,16.6656729 6.33472712,12.7471 1.5003,12.7471 C0.671872875,12.7471 0.0003,13.4186729 0.0003,14.2471 C0.0003,15.0755271 0.671872875,15.7471 1.5003,15.7471 C4.67787288,15.7471 7.2533,18.3225271 7.2533,21.5001 C7.2533,22.3285271 7.92487288,23.0001 8.7533,23.0001 C9.58172712,23.0001 10.2533,22.3285271 10.2533,21.5001 Z" id="Stroke-4"></path>
          <path d="M41.5003,12.7469 C36.6658729,12.7469 32.7473,16.6654729 32.7473,21.4999 C32.7473,22.3283271 33.4188729,22.9999 34.2473,22.9999 C35.0757271,22.9999 35.7473,22.3283271 35.7473,21.4999 C35.7473,18.3223271 38.3227271,15.7469 41.5003,15.7469 C42.3287271,15.7469 43.0003,15.0753271 43.0003,14.2469 C43.0003,13.4184729 42.3287271,12.7469 41.5003,12.7469 Z" id="Stroke-5"></path>
          <path d="M32.7474,1.5001 C32.7474,6.33452712 36.6659729,10.2531 41.5004,10.2531 C42.3288271,10.2531 43.0004,9.58152712 43.0004,8.7531 C43.0004,7.92467288 42.3288271,7.2531 41.5004,7.2531 C38.3228271,7.2531 35.7474,4.67767288 35.7474,1.5001 C35.7474,0.671672875 35.0758271,0.0001 34.2474,0.0001 C33.4189729,0.0001 32.7474,0.671672875 32.7474,1.5001 Z" id="Stroke-6"></path>
          <path d="M24.6986,11.5001 C24.6986,9.73392184 23.2665676,8.3021 21.5006,8.3021 C19.7337376,8.3021 18.3016,9.7338166 18.3016,11.5001 C18.3016,13.2663834 19.7337376,14.6981 21.5006,14.6981 C23.2665676,14.6981 24.6986,13.2662782 24.6986,11.5001 Z M27.6986,11.5001 C27.6986,14.9232312 24.9233231,17.6981 21.5006,17.6981 C18.0770808,17.6981 15.3016,14.9234351 15.3016,11.5001 C15.3016,8.07676485 18.0770808,5.3021 21.5006,5.3021 C24.9233231,5.3021 27.6986,8.07696884 27.6986,11.5001 Z" id="Stroke-7"></path>
      </g>

</svg>
