<svg viewBox="0 0 50 50" xmlns="http://www.w3.org/2000/svg">
  <path d="M37.5 15.531c-.04-.055-.062-.119-.11-.168l-3.54-3.54c-.05-.046-.113-.065-.166-.104L36.8 8.613l3.81 3.81-3.109 3.108zM16.664 36.367l-7.098 3.278 3.312-7.172 18.747-18.7c.038.056.057.12.104.17l3.54 3.54c.046.047.101.086.153.126L16.664 36.367zm27.124-25.004l-5.939-5.94a1.54 1.54 0 0 0-2.12 0l-25.21 25.17c-.14.15-.24.321-.307.502L5.14 42.083c-.022.048-.034.098-.05.147-.01.031-.023.061-.03.092a1.466 1.466 0 0 0-.059.39 1.5 1.5 0 0 0 1.5 1.501c.128 0 .255-.023.38-.056.04-.01.077-.025.116-.039.044-.016.09-.025.132-.045l10.865-5.018c.217-.069.42-.18.585-.342l25.21-25.23a1.5 1.5 0 0 0 0-2.12z" fill="currentColor"/>
</svg>
