<?xml version="1.0" encoding="UTF-8"?>
<svg width="50px" height="50px" viewBox="0 0 50 50" version="1.1" xmlns="http://www.w3.org/2000/svg" xmlns:xlink="http://www.w3.org/1999/xlink">

      <g id="pencil" transform="translate(5.000000, 5.000000)" fill="currentColor">
          <path d="M32.5002,10.5313 C32.4592,10.4763 32.4382,10.4123 32.3892,10.3633 L28.8492,6.8233 C28.7992,6.7773 28.7372,6.7583 28.6842,6.7193 L31.7992,3.6133 L35.6082,7.4233 L32.5002,10.5313 Z M11.6642,31.3673 L4.5662,34.6453 L7.8782,27.4733 L26.6252,8.7733 C26.6632,8.8293 26.6822,8.8923 26.7292,8.9433 L30.2692,12.4823 C30.3152,12.5303 30.3702,12.5693 30.4222,12.6093 L11.6642,31.3673 Z M38.7882,6.3633 L32.8492,0.4233 C32.2542,-0.1407 31.3222,-0.1407 30.7292,0.4233 L5.5192,25.5933 C5.3792,25.7423 5.2792,25.9143 5.2122,26.0953 L0.1392,37.0833 C0.1172,37.1313 0.1052,37.1813 0.0892,37.2303 C0.0782,37.2613 0.0662,37.2913 0.0582,37.3223 C0.0232,37.4493 0.0002,37.5793 0.0002,37.7123 C-0.0008,38.5403 0.6702,39.2123 1.4992,39.2133 C1.6282,39.2133 1.7552,39.1903 1.8792,39.1573 C1.9192,39.1463 1.9572,39.1323 1.9962,39.1183 C2.0402,39.1023 2.0862,39.0933 2.1282,39.0733 L12.9932,34.0553 C13.2102,33.9863 13.4122,33.8743 13.5782,33.7133 L38.7882,8.4833 C39.3732,7.8973 39.3732,6.9483 38.7882,6.3633 L38.7882,6.3633 Z" id="Fill-1"></path>
      </g>

</svg>
