<svg viewBox="0 0 50 50" xmlns="http://www.w3.org/2000/svg" xmlns:xlink="http://www.w3.org/1999/xlink">
  <defs>
    <path id="a" d="M43 0v42.991H0V.001h43z"/>
  </defs>
  <g transform="translate(3 3)" fill="none" fill-rule="evenodd">
    <mask id="b" fill="#fff">
      <use xlink:href="#a"/>
    </mask>
    <path d="M13.523 15.344c0-.806.313-1.564.883-2.135l.852-.85a.307.307 0 0 1 .436 0l3.842 3.841c.12.121.12.316 0 .436l-.852.852a1.5 1.5 0 0 0-.4 1.4 7.56 7.56 0 0 0 5.619 5.618 1.494 1.494 0 0 0 1.4-.4l.85-.852a.309.309 0 0 1 .437 0l3.843 3.843c.12.12.12.314 0 .435l-.852.852a3.005 3.005 0 0 1-2.136.884c-4.424 0-13.922-9.499-13.922-13.924m27.787-2.22a21.428 21.428 0 0 0-4.608-6.835 21.424 21.424 0 0 0-6.832-4.607c-5.302-2.243-11.438-2.243-16.74 0A21.44 21.44 0 0 0 6.298 6.29 21.42 21.42 0 0 0 .002 21.491a21.43 21.43 0 0 0 6.297 15.204A21.44 21.44 0 0 0 21.5 42.991a9.97 9.97 0 0 0 7.093-2.938 8.27 8.27 0 0 0 2.44-5.888c0-.893-.174-1.76-.502-2.583l-.015-.039c-.011-.028-.02-.058-.032-.087l-.006-.012c.44-.258.852-.569 1.224-.939l.851-.852a3.313 3.313 0 0 0 0-4.677l-3.844-3.845a3.315 3.315 0 0 0-4.678.001l-.204.204a4.559 4.559 0 0 1-2.375-2.375l.206-.204a3.314 3.314 0 0 0-.002-4.678l-3.843-3.842a3.312 3.312 0 0 0-4.677 0l-.853.852a5.983 5.983 0 0 0-1.761 4.255c0 6.065 10.393 16.556 16.605 16.907.26.087.477.255.63.485.177.456.276.934.276 1.43a5.293 5.293 0 0 1-1.56 3.766 6.99 6.99 0 0 1-4.974 2.06c-2.498 0-4.92-.49-7.201-1.454a18.408 18.408 0 0 1-5.88-3.965 18.46 18.46 0 0 1-3.967-5.88 18.395 18.395 0 0 1-1.451-7.202c0-2.498.488-4.919 1.451-7.2a18.442 18.442 0 0 1 3.966-5.88c1.7-1.7 3.68-3.035 5.882-3.965 4.558-1.93 9.842-1.93 14.4 0a18.415 18.415 0 0 1 5.881 3.964 18.445 18.445 0 0 1 5.42 13.081c0 2.5-.49 4.921-1.454 7.202a1.5 1.5 0 0 0 2.763 1.168 21.356 21.356 0 0 0 1.69-8.37c0-2.9-.569-5.717-1.69-8.368" fill="currentColor" mask="url(#b)"/>
  </g>
</svg>
