<svg xmlns="http://www.w3.org/2000/svg" viewBox="0 0 43 43">
  <path d="M13.5 15.3c0-.8.3-1.6.9-2.1l.9-.9c.1-.1.3-.1.4 0l3.8 3.8c.1.1.1.3 0 .4l-.9.9c-.4.4-.5.9-.4 1.4.7 2.8 2.8 5 5.6 5.6.5.1 1 0 1.4-.4l.9-.9c.1-.1.3-.1.4 0l3.8 3.8c.1.1.1.3 0 .4l-.9.9c-.6.6-1.3.9-2.1.9-4.3.2-13.8-9.3-13.8-13.8m27.8-2.2c-1.1-2.6-2.6-4.9-4.6-6.8-2-2-4.3-3.5-6.8-4.6-5.3-2.2-11.4-2.2-16.7 0-2.6 1.1-4.9 2.6-6.8 4.6-4 4-6.3 9.5-6.3 15.2 0 5.7 2.3 11.2 6.3 15.2S15.9 43 21.6 43c2.7 0 5.2-1.1 7.1-2.9 1.6-1.6 2.4-3.7 2.4-5.9 0-.9-.2-1.8-.5-2.6v-.1c.4-.3.9-.6 1.2-.9l.9-.9c1.3-1.3 1.3-3.4 0-4.7l-3.8-3.8a3.32 3.32 0 0 0-4.7 0l-.2.2c-1.1-.5-1.9-1.3-2.4-2.4l.2-.2c1.3-1.3 1.3-3.4 0-4.7L18 10.3a3.32 3.32 0 0 0-4.7 0l-.9.9c-1.1 1.1-1.8 2.7-1.8 4.3 0 6.1 10.4 16.6 16.6 16.9.3.1.5.3.6.5.2.5.3.9.3 1.4 0 1.4-.6 2.8-1.6 3.8-1.3 1.3-3.1 2.1-5 2.1-2.5 0-4.9-.5-7.2-1.5-2.2-.9-4.2-2.3-5.9-4-1.7-1.7-3-3.7-4-5.9C3.5 26.4 3 24 3 21.5s.5-4.9 1.5-7.2c.9-2.2 2.3-4.2 4-5.9 1.7-1.7 3.7-3 5.9-4 4.6-1.9 9.8-1.9 14.4 0 2.2.9 4.2 2.3 5.9 4 3.5 3.5 5.4 8.2 5.4 13.1 0 2.5-.5 4.9-1.5 7.2-.3.8.1 1.6.8 2 .8.3 1.6 0 1.9-.8 1.1-2.6 1.7-5.5 1.7-8.4 0-2.9-.6-5.7-1.7-8.4"/>
</svg>
