<!-- Generator: Adobe Illustrator 21.0.0, SVG Export Plug-In  -->
<svg version="1.1"
	 xmlns="http://www.w3.org/2000/svg" xmlns:xlink="http://www.w3.org/1999/xlink" xmlns:a="http://ns.adobe.com/AdobeSVGViewerExtensions/3.0/"
	 x="0px" y="0px" width="123px" height="123px" viewBox="0 0 123 123" style="enable-background:new 0 0 123 123;"
	 xml:space="preserve">
<g fill="currentColor">
	<path d="M115.9,30H98.4L66.2,3.5c-0.7-2-2.5-3.5-4.7-3.5c-2.2,0-4.1,1.5-4.7,3.5L24.6,30H7.1C3.2,30,0,33.2,0,37.1v78.8
		c0,3.9,3.2,7.1,7.1,7.1h108.8c3.9,0,7.1-3.2,7.1-7.1V37.1C123,33.2,119.8,30,115.9,30z M61.5,3c1.1,0,2,0.9,2,2s-0.9,2-2,2
		c-1.1,0-2-0.9-2-2S60.4,3,61.5,3z M57,7.1c0.8,1.7,2.5,2.8,4.5,2.8s3.7-1.2,4.5-2.8L93.7,30H29.3L57,7.1z M120,115.9
		c0,2.3-1.8,4.1-4.1,4.1H7.1c-2.3,0-4.1-1.8-4.1-4.1V37.1C3,34.8,4.8,33,7.1,33h18c0,0,0,0,0,0c0,0,0,0,0,0h72.8c0,0,0,0,0,0
		c0,0,0,0,0,0h18c2.3,0,4.1,1.8,4.1,4.1V115.9z"/>
	<path d="M51.9,70.2c6.1,0,11.1-5,11.1-11.1S58,48,51.9,48s-11.1,5-11.1,11.1S45.8,70.2,51.9,70.2z M51.9,51c4.5,0,8.1,3.6,8.1,8.1
		s-3.6,8.1-8.1,8.1s-8.1-3.6-8.1-8.1S47.4,51,51.9,51z"/>
	<path d="M110.2,41.3H12.8c-0.8,0-1.5,0.7-1.5,1.5v67.3c0,0.8,0.7,1.5,1.5,1.5h97.3c0.8,0,1.5-0.7,1.5-1.5V42.8
		C111.7,42,111,41.3,110.2,41.3z M108.7,44.3v43L81.8,60.5c-0.6-0.6-1.5-0.6-2.1,0L54.7,85.4L43.4,74c-0.6-0.6-1.5-0.6-2.1,0
		l-26.9,26.9V44.3H108.7z M14.3,105.2l28-28l11.4,11.4l20.1,20.1H14.3V105.2z M78,108.7L56.8,87.5l23.9-23.9l28,28v17.1H78z"/>
</g>
</svg>
