<?xml version="1.0" encoding="utf-8"?>
<svg width="50px" height="50px" version="1.1" xmlns="http://www.w3.org/2000/svg" xmlns:xlink="http://www.w3.org/1999/xlink" x="0px" y="0px"
	 viewBox="0 0 50 50" style="enable-background:new 0 0 50 50;" xml:space="preserve">
<g id="picture" fill="currentColor">
	<path class="st0" d="M37.1,15.3c-0.3,0-0.6-0.1-0.9-0.3L25,6.8L13.7,15c-0.7,0.5-1.6,0.3-2.1-0.3C11.2,14,11.3,13,12,12.5l12.1-8.8
		c0.5-0.4,1.2-0.4,1.8,0L38,12.5c0.7,0.5,0.8,1.4,0.3,2.1C38.1,15,37.6,15.3,37.1,15.3z"/>
	<g>
		<path class="st0" d="M45,46.5H5c-0.8,0-1.5-0.7-1.5-1.5V13.8c0-0.8,0.7-1.5,1.5-1.5h40c0.8,0,1.5,0.7,1.5,1.5V45
			C46.5,45.8,45.8,46.5,45,46.5z M6.5,43.5h37V15.3h-37V43.5z"/>
		<path class="st0" d="M5,44.6c-0.4,0-0.8-0.1-1.1-0.4c-0.6-0.6-0.6-1.5,0-2.1l11.4-11.4c0.6-0.6,1.5-0.6,2.1,0l3.8,3.8l9.8-9.8
			c0.6-0.6,1.5-0.6,2.1,0L46,37.5c0.6,0.6,0.6,1.5,0,2.1s-1.5,0.6-2.1,0L32.1,27.8l-9.8,9.8c-0.6,0.6-1.5,0.6-2.1,0l-3.8-3.8
			L6.1,44.2C5.8,44.5,5.4,44.6,5,44.6z"/>
		<path class="st0" d="M18.6,27.9c-2.6,0-4.7-2.1-4.7-4.7c0-2.6,2.1-4.7,4.7-4.7s4.7,2.1,4.7,4.7C23.3,25.8,21.2,27.9,18.6,27.9z
			 M18.6,21.5c-0.9,0-1.7,0.8-1.7,1.7c0,0.9,0.8,1.7,1.7,1.7c0.9,0,1.7-0.8,1.7-1.7C20.3,22.2,19.5,21.5,18.6,21.5z"/>
	</g>
</g>
</svg>
