<svg xmlns="http://www.w3.org/2000/svg" viewBox="0 0 141 140.9">
  <path d="M73 5.4c0-1.4-1.1-2.5-2.5-2.6-1.4 0-2.5 1.1-2.6 2.5v.1c0 1.4 1.2 2.5 2.6 2.4 1.4 0 2.5-1 2.5-2.4zm3 0c0 3-2.4 5.6-5.4 5.6-3 0-5.6-2.4-5.6-5.4v-.1c.1-3 2.6-5.5 5.6-5.4 3 0 5.4 2.3 5.4 5.3z"/>
  <path d="M73.5 5.8l37.9 31.3c.7.5 1.6.4 2.1-.3.5-.6.4-1.5-.2-2.1L75.4 3.5c-.6-.5-1.6-.4-2.1.2-.5.6-.4 1.6.2 2.1zm-7.9-2.3L27.7 34.7c-.6.5-.7 1.5-.2 2.1.5.6 1.5.7 2.1.2L67.5 5.8c.7-.5.8-1.5.3-2.1s-1.5-.8-2.2-.2c.1 0 0 0 0 0z"/>
  <path d="M134 137.9c2.2 0 4-1.8 4-4V41.4c0-2.2-1.8-4-4-4H7c-2.2 0-4 1.8-4 4v92.5c0 2.2 1.8 4 4 4h127zm0 3H7c-3.9 0-7-3.1-7-7V41.4c0-3.9 3.1-7 7-7h127c3.9 0 7 3.1 7 7v92.5c0 3.9-3.1 7-7 7z"/>
  <path d="M61.7 101.4c.6.6 1.5.6 2.1 0l28.8-28.8 32.8 32.8c.6.6 1.5.6 2.1 0 .6-.6.6-1.5 0-2.1L93.7 69.4c-.6-.6-1.5-.6-2.1 0L62.7 98.2 49.5 85c-.6-.6-1.5-.6-2.1 0l-33.9 33.9c-.6.6-.6 1.5 0 2.1.6.6 1.5.6 2.1 0l32.8-32.8 13.3 13.2z"/>
  <path d="M69 67.7c0-5.3-4.3-9.5-9.5-9.5-5.3 0-9.5 4.3-9.5 9.5 0 5.3 4.3 9.5 9.5 9.5s9.5-4.3 9.5-9.5zm3 0c0 6.9-5.6 12.5-12.5 12.5S47 74.6 47 67.7s5.6-12.5 12.5-12.5S72 60.7 72 67.7zm-10.3 33.7l26.1 26.1c.6.6 1.6.5 2.1-.1s.5-1.5 0-2.1l-26.1-26c-.6-.6-1.5-.6-2.1 0-.6.6-.6 1.5 0 2.1z"/>
  <path d="M14.5 127.9c-.8 0-1.5-.7-1.5-1.5V49c0-.8.7-1.5 1.5-1.5h112c.8 0 1.5.7 1.5 1.5v77.4c0 .8-.7 1.5-1.5 1.5h-112zm110.5-3V50.5H16v74.4h109z"/>
</svg>
