<svg viewBox="0 0 143 142" xmlns="http://www.w3.org/2000/svg" xmlns:xlink="http://www.w3.org/1999/xlink">
  <defs>
    <path id="a" d="M1 142h141V1H1z"/>
  </defs>
  <g transform="translate(0 -1)">
    <path d="M74.02 6.498a2.52 2.52 0 1 0-5.039 0 2.52 2.52 0 0 0 5.038 0zm3 0a5.52 5.52 0 1 1-11.039 0 5.52 5.52 0 0 1 11.038 0z" fill="currentColor"/>
    <path d="M74.492 6.89l37.909 31.257a1.5 1.5 0 0 0 1.908-2.314L76.401 4.576a1.5 1.5 0 1 0-1.909 2.315zM66.601 4.574l-37.91 31.258a1.5 1.5 0 1 0 1.908 2.315l37.91-31.259a1.5 1.5 0 1 0-1.908-2.314z" fill="currentColor"/>
    <path d="M135 139.021c2.22 0 4.02-1.8 4.02-4.022V42.511c0-2.221-1.8-4.021-4.02-4.021H8A4.021 4.021 0 0 0 3.98 42.51V135c0 2.222 1.8 4.022 4.022 4.022h126.998zm0 3H8A7.021 7.021 0 0 1 .98 135V42.511A7.021 7.021 0 0 1 8 35.49h126.998a7.021 7.021 0 0 1 7.022 7.021V135a7.021 7.021 0 0 1-7.022 7.022z" fill="currentColor"/>
    <path d="M62.63 102.484a1.5 1.5 0 0 0 2.12 0l28.841-28.84 32.826 32.827a1.5 1.5 0 1 0 2.121-2.121L94.652 70.462a1.5 1.5 0 0 0-2.122 0l-28.84 28.84-13.22-13.22a1.5 1.5 0 0 0-2.12 0L14.461 119.97a1.5 1.5 0 1 0 2.121 2.121L49.41 89.265l13.22 13.22z" fill="currentColor"/>
    <path d="M70 68.735a9.545 9.545 0 0 0-9.545-9.546 9.545 9.545 0 0 0-9.545 9.546 9.545 9.545 0 0 0 9.545 9.545A9.545 9.545 0 0 0 70 68.735zm3 0c0 6.929-5.616 12.545-12.545 12.545S47.91 75.664 47.91 68.735c0-6.93 5.616-12.546 12.545-12.546S73 61.806 73 68.735zM62.63 102.485l26.053 26.053a1.5 1.5 0 0 0 2.12-2.121L64.75 100.363a1.5 1.5 0 0 0-2.12 2.122z" fill="currentColor"/>
    <mask id="b" fill="#fff">
      <use xlink:href="#a"/>
    </mask>
    <path d="M15.522 128.978a1.5 1.5 0 0 1-1.5-1.5V50.033a1.5 1.5 0 0 1 1.5-1.5h111.955a1.5 1.5 0 0 1 1.5 1.5v77.445a1.5 1.5 0 0 1-1.5 1.5H15.522zm110.455-3V51.533H17.022v74.445h108.955z" fill="currentColor" mask="url(#b)"/>
  </g>
</svg>
