<svg xmlns="http://www.w3.org/2000/svg" viewBox="0 0 123 123">
  <g fill="currentColor">
    <path d="M115.9 30H98.4L66.2 3.5c-.7-2-2.5-3.5-4.7-3.5s-4.1 1.5-4.7 3.5L24.6 30H7.1C3.2 30 0 33.2 0 37.1v78.8c0 3.9 3.2 7.1 7.1 7.1h108.8c3.9 0 7.1-3.2 7.1-7.1V37.1c0-3.9-3.2-7.1-7.1-7.1zM61.5 3c1.1 0 2 .9 2 2s-.9 2-2 2-2-.9-2-2 .9-2 2-2zM57 7.1c.8 1.7 2.5 2.8 4.5 2.8s3.7-1.2 4.5-2.8L93.7 30H29.3L57 7.1zm63 108.8c0 2.3-1.8 4.1-4.1 4.1H7.1c-2.3 0-4.1-1.8-4.1-4.1V37.1C3 34.8 4.8 33 7.1 33h108.8c2.3 0 4.1 1.8 4.1 4.1v78.8z"/>
    <path d="M51.9 70.2c6.1 0 11.1-5 11.1-11.1S58 48 51.9 48s-11.1 5-11.1 11.1 5 11.1 11.1 11.1zm0-19.2c4.5 0 8.1 3.6 8.1 8.1s-3.6 8.1-8.1 8.1-8.1-3.6-8.1-8.1 3.6-8.1 8.1-8.1z"/>
    <path d="M110.2 41.3H12.8c-.8 0-1.5.7-1.5 1.5v67.3c0 .8.7 1.5 1.5 1.5h97.3c.8 0 1.5-.7 1.5-1.5V42.8c.1-.8-.6-1.5-1.4-1.5zm-1.5 3v43L81.8 60.5c-.6-.6-1.5-.6-2.1 0l-25 24.9L43.4 74c-.6-.6-1.5-.6-2.1 0l-26.9 26.9V44.3h94.3zm-94.4 60.9l28-28 11.4 11.4 20.1 20.1H14.3v-3.5zm63.7 3.5L56.8 87.5l23.9-23.9 28 28v17.1H78z"/>
  </g>
</svg>
