<?xml version="1.0" encoding="UTF-8"?>
<svg width="50px" height="50px" viewBox="0 0 50 50" version="1.1" xmlns="http://www.w3.org/2000/svg" xmlns:xlink="http://www.w3.org/1999/xlink">
  <path d="M45.5,24 L27,24 L27,5.5 C27,4.672 26.328,4 25.5,4 C24.672,4 24,4.672 24,5.5 L24,24 L5.5,24 C4.672,24 4,24.672 4,25.5 C4,26.328 4.672,27 5.5,27 L24,27 L24,45.5 C24,46.328 24.672,47 25.5,47 C26.328,47 27,46.328 27,45.5 L27,27 L45.5,27 C46.328,27 47,26.328 47,25.5 C47,24.672 46.328,24 45.5,24" fill="currentColor"></path>
</svg>
