<svg viewBox="0 0 100 100" xmlns="http://www.w3.org/2000/svg">
  <path d="M50 89.5c9.602 0 18.699-3.8 25.5-10.602 14-14.102 14-37.102 0-51.199-1.602-1.602-4.102-1.602-5.7 0-1.6 1.602-1.6 4.102 0 5.7 10.899 11 10.899 28.897 0 39.897-5.3 5.301-12.3 8.301-19.8 8.301s-14.5-2.898-19.801-8.3c-10.898-11-10.898-28.899 0-39.899 1.601-1.601 1.5-4.101 0-5.699-1.602-1.602-4.102-1.5-5.7 0-14 14.102-14 37.102 0 51.199C31.3 85.698 40.399 89.5 50 89.5z"/>
  <path d="M50 55.5c2.2 0 4-1.8 4-4v-37c0-2.2-1.8-4-4-4s-4 1.8-4 4v37c0 2.2 1.8 4 4 4z"/>
</svg>
