  <?xml version="1.0" encoding="UTF-8"?>
<svg width="100px" height="100px" version="1.1" viewBox="0 0 100 100" xmlns="http://www.w3.org/2000/svg">
<g>
  <path d="m50 89.5c9.6016 0 18.699-3.8008 25.5-10.602 14-14.102 14-37.102 0-51.199-1.6016-1.6016-4.1016-1.6016-5.6992 0-1.6016 1.6016-1.6016 4.1016 0 5.6992 10.898 11 10.898 28.898 0 39.898-5.3008 5.3008-12.301 8.3008-19.801 8.3008s-14.5-2.8984-19.801-8.3008c-10.898-11-10.898-28.898 0-39.898 1.6016-1.6016 1.5-4.1016 0-5.6992-1.6016-1.6016-4.1016-1.5-5.6992 0-14 14.102-14 37.102 0 51.199 6.8008 6.8008 15.898 10.602 25.5 10.602z"/>
  <path d="m50 55.5c2.1992 0 4-1.8008 4-4v-37c0-2.1992-1.8008-4-4-4s-4 1.8008-4 4v37c0 2.1992 1.8008 4 4 4z"/>
</g>
</svg>
