<?xml version="1.0" encoding="UTF-8"?>
<svg width="50px" height="50px" viewBox="0 0 50 50" version="1.1" xmlns="http://www.w3.org/2000/svg" xmlns:xlink="http://www.w3.org/1999/xlink">
    <!-- Generator: Sketch 42 (36781) - http://www.bohemiancoding.com/sketch -->
      <g id="register" transform="translate(7.000000, 4.000000)" fill-rule="nonzero" fill="currentColor">
          <path d="M11.8247883,26.800868 C11.2390726,26.2150108 10.2893252,26.214896 9.70346798,26.8006117 C9.11761078,27.3863274 9.11749603,28.3360748 9.70321169,28.921932 L13.8412117,33.060932 C14.4269774,33.6468393 15.3768237,33.6468967 15.9626602,33.0610602 L26.6296602,22.3940602 C27.2154466,21.8082737 27.2154466,20.8585263 26.6296602,20.2727398 C26.0438737,19.6869534 25.0941263,19.6869534 24.5083398,20.2727398 L14.9021282,29.8789515 L11.8247883,26.800868 Z" id="Stroke-1"></path>
          <path d="M24.8337,9.6667 L31.4997,9.6667 C32.5126028,9.6667 33.3337,10.487457 33.3337,11.4997 L33.3337,38.1667 C33.3337,39.178943 32.5126028,39.9997 31.4997,39.9997 L4.8337,39.9997 C3.82079722,39.9997 2.9997,39.178943 2.9997,38.1667 L2.9997,11.4997 C2.9997,10.487457 3.82079722,9.6667 4.8337,9.6667 L11.4997,9.6667 C12.3281271,9.6667 12.9997,8.99512712 12.9997,8.1667 C12.9997,7.33827288 12.3281271,6.6667 11.4997,6.6667 L4.8337,6.6667 C2.16422122,6.6667 -0.0003,8.83032438 -0.0003,11.4997 L-0.0003,38.1667 C-0.0003,40.8360756 2.16422122,42.9997 4.8337,42.9997 L31.4997,42.9997 C34.1691788,42.9997 36.3337,40.8360756 36.3337,38.1667 L36.3337,11.4997 C36.3337,8.83032438 34.1691788,6.6667 31.4997,6.6667 L24.8337,6.6667 C24.0052729,6.6667 23.3337,7.33827288 23.3337,8.1667 C23.3337,8.99512712 24.0052729,9.6667 24.8337,9.6667 Z" id="Stroke-2"></path>
          <path d="M23.3337,8.1667 C23.3337,5.31312712 21.0202729,2.9997 18.1667,2.9997 C15.3131271,2.9997 12.9997,5.31312712 12.9997,8.1667 C12.9997,11.0202729 15.3131271,13.3337 18.1667,13.3337 C21.0202729,13.3337 23.3337,11.0202729 23.3337,8.1667 Z M26.3337,8.1667 C26.3337,12.6771271 22.6771271,16.3337 18.1667,16.3337 C13.6562729,16.3337 9.9997,12.6771271 9.9997,8.1667 C9.9997,3.65627288 13.6562729,-0.0003 18.1667,-0.0003 C22.6771271,-0.0003 26.3337,3.65627288 26.3337,8.1667 Z" id="Stroke-4"></path>
      </g>

</svg>
