<svg viewBox="0 0 50 50" xmlns="http://www.w3.org/2000/svg">
  <g fill="currentColor">
    <path d="M18.825 30.8a1.5 1.5 0 1 0-2.122 2.122l4.138 4.139a1.5 1.5 0 0 0 2.122 0L33.63 26.394a1.5 1.5 0 0 0-2.122-2.121l-9.606 9.606-3.077-3.078z"/>
    <path d="M31.834 13.667H38.5c1.013 0 1.834.82 1.834 1.833v26.667A1.834 1.834 0 0 1 38.5 44H11.834A1.834 1.834 0 0 1 10 42.167V15.5c0-1.013.82-1.833 1.834-1.833H18.5a1.5 1.5 0 0 0 0-3h-6.666A4.834 4.834 0 0 0 7 15.5v26.667A4.834 4.834 0 0 0 11.834 47H38.5a4.834 4.834 0 0 0 4.834-4.833V15.5a4.834 4.834 0 0 0-4.834-4.833h-6.666a1.5 1.5 0 0 0 0 3z"/>
    <path d="M30.334 12.167a5.167 5.167 0 1 0-10.335 0 5.167 5.167 0 0 0 10.335 0zm3 0a8.167 8.167 0 1 1-16.335 0 8.167 8.167 0 0 1 16.335 0z"/>
  </g>
</svg>
