<svg xmlns="http://www.w3.org/2000/svg" viewBox="0 0 50 50">
  <path fill="currentColor" d="M38.044 43.053a1.07 1.07 0 0 1-.652-1.92c7.85-6.017 10.224-16.758 5.647-25.539S28.299 2.61 18.874 5.6a1.07 1.07 0 0 1-.648-2.041 22.428 22.428 0 0 1 26.712 11.045 22.439 22.439 0 0 1-6.244 28.228c-.193.15-.423.221-.65.221zM24.967 47.5A22.441 22.441 0 0 1 5.062 35.396a22.44 22.44 0 0 1 6.243-28.228 1.071 1.071 0 0 1 1.303 1.7A20.303 20.303 0 0 0 6.96 34.405 20.293 20.293 0 0 0 31.127 44.4a1.07 1.07 0 1 1 .647 2.041 22.472 22.472 0 0 1-6.807 1.059z"/>
  <path fill="currentColor" d="M38.043 43.053a1.072 1.072 0 0 1-1.07-1.07l-.004-6.082c0-.591.48-1.071 1.07-1.071h.001c.591 0 1.07.479 1.07 1.07l.004 5.011 5.01-.003h.001a1.07 1.07 0 0 1 0 2.142l-6.08.004h-.002zM11.96 15.17a1.07 1.07 0 0 1-1.071-1.07l-.003-5.011-5.01.003a1.07 1.07 0 0 1-.001-2.142l6.08-.004h.001a1.07 1.07 0 0 1 1.071 1.07l.004 6.083c0 .592-.48 1.071-1.07 1.072h-.001z"/>
</svg>
