<?xml version="1.0" encoding="utf-8"?>
<svg version="1.1" id="Layer_3" xmlns="http://www.w3.org/2000/svg" xmlns:xlink="http://www.w3.org/1999/xlink" x="0px" y="0px"
	 viewBox="0 0 50 50" width="50px" height="50px" enable-background="new 0 0 50 50" xml:space="preserve">
	<path fill="currentColor" d="M38.0441,43.0534c-0.3214,0-0.64-0.1443-0.8505-0.4197c-0.3597-0.4692-0.2712-1.1413,0.1987-1.501
		c7.8488-6.0166,10.2233-16.7576,5.6464-25.5384S28.2997,2.6088,18.8736,5.6c-0.5637,0.1788-1.1657-0.1332-1.3445-0.6968
		c-0.1788-0.5637,0.1332-1.1657,0.6968-1.3445c10.4203-3.3067,21.6538,1.34,26.7118,11.0456
		c5.0587,9.7053,2.4331,21.5771-6.2432,28.2281C38.5007,42.9816,38.2713,43.0534,38.0441,43.0534z"/>
	<path fill="currentColor" d="M24.9672,47.5c-8.1855,0-15.9412-4.4981-19.9053-12.1036c-5.058-9.706-2.4328-21.5778,6.2428-28.2288
		c0.4688-0.3594,1.1416-0.2709,1.5014,0.1983c0.3597,0.4692,0.2712,1.1416-0.1983,1.5014
		C4.7594,14.8842,2.3848,25.6249,6.961,34.4064c4.5766,8.7809,14.7368,12.9827,24.1657,9.9939
		c0.5647-0.1806,1.1657,0.1332,1.3441,0.6972c0.1792,0.5633-0.1332,1.1657-0.6972,1.3441C29.5204,47.157,27.2268,47.5,24.9672,47.5z
		"/>
	<path fill="currentColor" d="M38.0434,43.0534c-0.2837,0-0.5556-0.1129-0.7564-0.313c-0.2015-0.2008-0.3144-0.4734-0.3144-0.7571
		l-0.0035-6.0821c0-0.5912,0.479-1.0716,1.0702-1.0716h0.0007c0.5912,0,1.0709,0.479,1.0709,1.0702l0.0028,5.0113l5.0106-0.0028
		h0.0007c0.5912,0,1.0709,0.479,1.0709,1.0702s-0.479,1.0716-1.0702,1.0716l-6.0814,0.0035H38.0434z"/>
	<path fill="currentColor" d="M11.9597,15.1708c-0.5912,0-1.0705-0.479-1.0709-1.0702L10.8861,9.089L5.8762,9.0918
		c-0.0003,0-0.0007,0-0.0007,0c-0.5912,0-1.0705-0.479-1.0709-1.0702c-0.0003-0.5915,0.479-1.0712,1.0702-1.0716l6.0807-0.0035
		c0.0003,0,0.0003,0,0.0007,0c0.2837,0,0.556,0.1126,0.7568,0.3134c0.2008,0.2004,0.3141,0.4727,0.3141,0.7568l0.0035,6.0825
		c0.0003,0.5915-0.479,1.0712-1.0702,1.0716C11.9601,15.1708,11.9597,15.1708,11.9597,15.1708z"/>
</svg>
