<svg xmlns="http://www.w3.org/2000/svg" viewBox="-3 -3 69 69"><path d="M61.5 0c-.8 0-1.5.7-1.5 1.5v1H36.5c-3.1 0-5.6 2.1-6.3 5H16.5c-.8 0-1.5.7-1.5 1.5v6H3V9c0-.8-.7-1.5-1.5-1.5S0 8.2 0 9v15c0 .8.7 1.5 1.5 1.5S3 24.8 3 24v-6h12v6c0 .8.7 1.5 1.5 1.5h6V31L2.8 60.7c-.5.7-.3 1.6.4 2.1.2.1.5.2.8.2.5 0 1-.2 1.2-.7l17.3-25.9v25c0 .8.7 1.5 1.5 1.5s1.5-.7 1.5-1.5v-25l17.3 25.9c.2.5.7.7 1.2.7.3 0 .6-.1.8-.3.7-.5.9-1.4.4-2.1L25.5 31v-5.5h4.7c.7 2.9 3.3 5 6.3 5H60v1c0 .8.7 1.5 1.5 1.5s1.5-.7 1.5-1.5v-30c0-.8-.7-1.5-1.5-1.5zM18 22.5v-12h12v12H18zM33 24V9c0-1.9 1.6-3.5 3.5-3.5H45v22h-8.5c-1.9 0-3.5-1.6-3.5-3.5zm15 3.5v-22h12v22H48z"/></svg>
