<svg viewBox="0 0 143 143" xmlns="http://www.w3.org/2000/svg">
  <g fill="currentColor">
    <path d="M5.964 137.036c3.951 3.952 10.426 3.952 14.378 0L78.089 79.29c3.95-3.95 3.95-10.426 0-14.377-3.952-3.952-10.427-3.952-14.378 0L5.964 122.659c-3.951 3.95-3.951 10.426 0 14.377zm-2.121 2.122c-5.123-5.123-5.123-13.498 0-18.62L61.59 62.79c5.122-5.122 13.497-5.122 18.62 0 5.123 5.123 5.123 13.498 0 18.62l-57.747 57.748c-5.123 5.122-13.498 5.122-18.62 0z"/>
    <path d="M132.94 3.311l6.749 6.75-9.921 20.75-14.66 3.522a1.5 1.5 0 0 0-.71.397L81.06 68.067a1.5 1.5 0 0 0 2.121 2.122l33.04-33.038 14.942-3.59a1.5 1.5 0 0 0 1.003-.81l10.687-22.354a1.5 1.5 0 0 0-.293-1.708L134.31.44a1.5 1.5 0 0 0-1.707-.292l-22.354 10.687a1.5 1.5 0 0 0-.812 1.003L105.85 26.78 72.81 59.818a1.5 1.5 0 0 0 2.121 2.122l33.337-33.338a1.5 1.5 0 0 0 .398-.71l3.52-14.66 20.752-9.92zM9.383 117.118l16.499 16.5a1.5 1.5 0 1 0 2.121-2.122l-16.499-16.499a1.5 1.5 0 1 0-2.121 2.121zM56.05 70.452L72.547 86.95a1.5 1.5 0 0 0 2.122-2.121l-16.5-16.5a1.5 1.5 0 0 0-2.12 2.122z"/>
    <path d="M61.55 73.83l-46.668 46.667a1.5 1.5 0 1 0 2.121 2.122L63.67 75.952a1.5 1.5 0 0 0-2.12-2.122zM67.049 79.33l-46.667 46.667a1.5 1.5 0 1 0 2.121 2.121L69.17 81.451a1.5 1.5 0 0 0-2.121-2.121zM35 24.833c0-5.615-4.552-10.167-10.167-10.167-5.614 0-10.166 4.552-10.166 10.167S19.22 35 24.833 35C30.448 35 35 30.448 35 24.833zm3 0C38 32.105 32.105 38 24.833 38c-7.271 0-13.166-5.895-13.166-13.167 0-7.271 5.895-13.167 13.166-13.167C32.105 11.666 38 17.561 38 24.833z"/>
    <path d="M46.209 37.43a24.674 24.674 0 0 0 3.458-12.597C49.667 11.118 38.55 0 24.833 0 11.118 0 0 11.118 0 24.833c0 13.715 11.118 24.833 24.833 24.833 4.478 0 8.788-1.207 12.598-3.457a1.5 1.5 0 1 0-1.526-2.583 21.685 21.685 0 0 1-11.072 3.04C12.775 46.666 3 36.891 3 24.833 3 12.775 12.775 3 24.833 3c12.059 0 21.834 9.775 21.834 21.833 0 3.934-1.06 7.72-3.041 11.071a1.5 1.5 0 1 0 2.583 1.526zM133.25 114.63l-5.773-5.774c-5.142-5.142-13.479-5.142-18.62 0-5.143 5.142-5.143 13.478 0 18.62l5.773 5.774-6.128 6.129-5.774-5.775c-7.077-7.076-8.375-17.997-3.352-26.509a1.5 1.5 0 0 0-2.584-1.524c-5.713 9.682-4.236 22.104 3.814 30.155l6.835 6.835a1.5 1.5 0 0 0 2.122 0l8.249-8.25a1.5 1.5 0 0 0 0-2.122l-6.834-6.834c-3.97-3.97-3.97-10.407 0-14.378 3.97-3.97 10.407-3.97 14.377 0l6.834 6.835a1.5 1.5 0 0 0 2.121 0l8.25-8.25a1.5 1.5 0 0 0 0-2.12l-6.833-6.835c-8.052-8.051-20.473-9.528-30.156-3.816a1.5 1.5 0 0 0 1.524 2.584c8.513-5.022 19.433-3.723 26.51 3.353l5.774 5.774-6.129 6.128z"/>
    <path d="M31.833 26.333H36.5a1.5 1.5 0 0 0 0-3h-4.667a1.5 1.5 0 0 0 0 3zM13.167 26.333h4.667a1.5 1.5 0 0 0 0-3h-4.667a1.5 1.5 0 0 0 0 3zM23.333 31.833V36.5a1.5 1.5 0 0 0 3 0v-4.667a1.5 1.5 0 0 0-3 0zM23.333 13.166v4.667a1.5 1.5 0 0 0 3 0v-4.667a1.5 1.5 0 0 0-3 0zM107.394 97.022L83.42 73.05a1.5 1.5 0 1 0-2.121 2.122l23.973 23.972a1.5 1.5 0 1 0 2.12-2.122zM43.857 37.728L67.829 61.7a1.5 1.5 0 0 0 2.121-2.121L45.978 35.607a1.5 1.5 0 0 0-2.121 2.121zM74.564 84.935l22.46 22.459a1.5 1.5 0 1 0 2.12-2.122L76.687 82.813a1.5 1.5 0 0 0-2.122 2.122zM60.187 66.314L37.729 43.856a1.5 1.5 0 0 0-2.122 2.122l22.458 22.458a1.5 1.5 0 0 0 2.122-2.122z"/>
  </g>
</svg>
