<svg viewBox="0 0 140 140" fill="none" xmlns="http://www.w3.org/2000/svg">
  <path fill-rule="evenodd" clip-rule="evenodd" d="M14.2313 73.5229C0.586693 59.9036 0.589579 37.8282 14.2399 24.2124C27.8911 10.5959 50.0224 10.5959 63.6735 24.2124L70.5 31.0217L77.3265 24.2124C90.9777 10.5959 113.109 10.5959 126.76 24.2124C140.413 37.8311 140.413 59.9129 126.76 73.5316C126.76 73.5316 110.224 90.287 102.61 97.6199C100.788 99.4254 98.2903 100.141 95.9324 99.7675C96.2922 102.146 95.5541 104.658 93.7183 106.489C91.8826 108.32 89.3651 109.056 86.9817 108.696C87.3564 111.057 86.6316 113.558 84.8076 115.378C82.9954 117.185 80.5092 117.91 78.1567 117.551C78.5148 119.899 77.7878 122.38 75.9755 124.188C72.9511 127.205 68.0491 127.205 65.0247 124.188C65.0247 124.188 14.3006 73.5932 14.2313 73.5229ZM16.3586 26.3365C28.8388 13.8879 49.0747 13.8879 61.5549 26.3365L68.376 33.1403L43.8118 57.6423C39.9578 61.4866 39.9578 67.7209 43.8118 71.5651C47.6637 75.4073 53.9072 75.4073 57.7591 71.5651L70.4999 58.8566L100.511 88.7913C102.362 90.6379 102.362 93.6304 100.511 95.4771C98.6572 97.3258 95.6506 97.3258 93.7972 95.4771L74.5557 76.2843C73.9692 75.6993 73.0195 75.7005 72.4344 76.287C71.8494 76.8735 71.8506 77.8233 72.4371 78.4084L91.6022 97.525C93.4945 99.4153 93.4937 102.476 91.5997 104.365C89.7112 106.249 86.6526 106.257 84.7537 104.39L65.5662 85.2515C65.4195 85.1051 65.25 84.9955 65.0693 84.9225C64.8932 84.8514 64.7063 84.815 64.5192 84.8135C64.1305 84.8102 63.7408 84.9571 63.4446 85.2541C62.8595 85.8406 62.8607 86.7904 63.4473 87.3754L82.701 106.58C84.5403 108.428 84.5363 111.411 82.689 113.254C80.8355 115.103 77.8289 115.103 75.9755 113.254L56.734 94.0614C56.1475 93.4764 55.1978 93.4776 54.6127 94.0641C54.0277 94.6506 54.0289 95.6004 54.6154 96.1854L73.8568 115.378C75.7082 117.225 75.7082 120.217 73.8568 122.064C72.0034 123.913 68.9967 123.913 67.1433 122.064C67.1433 122.064 29.4768 84.4997 16.3586 71.4076C3.8805 58.9611 3.8805 38.7829 16.3586 26.3365ZM104.838 91.161L124.641 71.4076C137.119 58.9611 137.119 38.7829 124.641 26.3365C112.161 13.8879 91.9253 13.8879 79.4451 26.3365L45.9304 59.7664C43.2515 62.4384 43.2515 66.7691 45.9304 69.4411C48.6113 72.1153 52.9596 72.1153 55.6405 69.4411L69.1118 56.004C69.8791 55.2386 71.121 55.2387 71.8883 56.004C81.5822 65.6588 97.2888 65.6543 106.977 55.9905L107.293 55.6759C107.879 55.0908 108.829 55.092 109.414 55.6786C109.999 56.2651 109.998 57.2149 109.411 57.7999L109.096 58.1145C101.435 65.7556 90.4196 68.0086 80.7805 64.8738L102.629 86.6672C103.894 87.9287 104.63 89.5179 104.838 91.161Z" fill="currentColor"/>
</svg>
