<svg viewBox="0 0 80 80" fill="none" xmlns="http://www.w3.org/2000/svg">
  <path fill-rule="evenodd" clip-rule="evenodd" d="M37.7243 19.5852L40 21.8608L42.2757 19.5852C48.3892 13.4716 58.3013 13.4716 64.4148 19.5852C70.5284 25.6987 70.5284 35.6108 64.4148 41.7244L54.2057 51.9335C53.4906 52.6486 52.579 53.0476 51.6447 53.1304C51.5576 54.0694 51.1546 54.9846 50.4357 55.7035C49.7168 56.4224 48.8016 56.8254 47.8626 56.9125C47.7798 57.8468 47.3808 58.7584 46.6657 59.4735C45.9555 60.1837 45.0517 60.5821 44.1242 60.6687C44.0375 61.5962 43.6391 62.5 42.929 63.2102C41.3114 64.8278 38.6886 64.8278 37.071 63.2102L15.5852 41.7244C9.47161 35.6108 9.47161 25.6987 15.5852 19.5852C21.6987 13.4716 31.6108 13.4716 37.7243 19.5852ZM17.7065 21.7065C22.6485 16.7645 30.661 16.7645 35.603 21.7065L37.8787 23.9821L28.0963 33.7645C26.1286 35.7322 26.1286 38.9225 28.0963 40.8903C30.0641 42.858 33.2544 42.858 35.2221 40.8903L40 36.1124L52.0844 48.1968C52.5305 48.6429 52.5305 49.3661 52.0844 49.8121C51.6383 50.2582 50.9151 50.2582 50.4691 49.8121L42.3285 41.6715C41.7427 41.0858 40.7929 41.0858 40.2071 41.6715C39.6214 42.2573 39.6214 43.2071 40.2071 43.7929L48.3145 51.9002C48.7789 52.3647 48.7788 53.1177 48.3144 53.5822C47.8499 54.0466 47.0967 54.0465 46.6322 53.5821L38.5251 45.4749C37.9393 44.8892 36.9895 44.8892 36.4037 45.4749C35.818 46.0607 35.818 47.0105 36.4037 47.5963L44.5444 55.7369C44.9904 56.183 44.9904 56.9061 44.5443 57.3522C44.0983 57.7983 43.3751 57.7983 42.929 57.3522L34.7884 49.2116C34.2026 48.6258 33.2529 48.6258 32.6671 49.2116C32.0813 49.7974 32.0813 50.7471 32.6671 51.3329L40.8077 59.4735C41.2537 59.9196 41.2537 60.6428 40.8077 61.0889C40.3616 61.5349 39.6384 61.5349 39.1923 61.0889L17.7065 39.603C12.7645 34.661 12.7645 26.6485 17.7065 21.7065ZM62.2935 39.603L54.9006 46.9959C54.7175 46.6659 54.4859 46.3556 54.2057 46.0755L46.9741 38.8439C50.5427 39.1349 54.2114 37.9153 56.9415 35.1852L57.0749 35.0517C57.6607 34.4659 57.6607 33.5162 57.0749 32.9304C56.4892 32.3446 55.5394 32.3446 54.9536 32.9304L54.8202 33.0639C51.0591 36.8249 44.9622 36.8266 41.1991 33.0688C40.5364 32.4069 39.4626 32.4072 38.8002 33.0696L33.1008 38.769C32.3046 39.5651 31.0138 39.5651 30.2177 38.769C29.4215 37.9728 29.4215 36.682 30.2177 35.8858L44.397 21.7065C49.339 16.7645 57.3515 16.7645 62.2935 21.7065C67.2355 26.6485 67.2355 34.661 62.2935 39.603Z" fill="currentColor"/>
</svg>
