<svg width="83px" height="113px" viewBox="0 0 83 113" version="1.1" xmlns="http://www.w3.org/2000/svg" xmlns:xlink="http://www.w3.org/1999/xlink">

  <path fill="currentColor" d="M41.5,113c-0.2,0-0.5-0.1-0.7-0.2L4.1,94.5C1.6,93.2,0,90.7,0,87.8V11.5C0,10.7,0.7,10,1.5,10
	C18,10,40.7,0.2,40.9,0.1c0.4-0.2,0.8-0.2,1.2,0C42.3,0.2,65,10,81.5,10c0.8,0,1.5,0.7,1.5,1.5v76.3c0,2.9-1.6,5.4-4.1,6.7
	l-36.7,18.3C42,112.9,41.7,113,41.5,113z"/>
  <path d="M4.2,14.3v72.6c0,1.7,0.9,3.2,2.4,3.9l34.9,17.5l34.9-17.5c1.5-0.7,2.4-2.2,2.4-3.9V14.3
	c-15.1-0.5-33.8-8-37.3-9.5C37.9,6.2,19.2,13.8,4.2,14.3z"/>

</svg>
