<svg viewBox="0 0 50 50" xmlns="http://www.w3.org/2000/svg">
  <g fill="currentColor" fill-rule="evenodd">
    <path d="M24.834 13.666a1.5 1.5 0 1 1 0-3h4a1.5 1.5 0 1 1 0 3h-4zM13.333 37.333H17v-3.667h-3.667v3.667zm-1.5 3H18.5a1.5 1.5 0 0 0 1.5-1.5v-6.667a1.5 1.5 0 0 0-1.5-1.5h-6.667a1.5 1.5 0 0 0-1.5 1.5v6.667a1.5 1.5 0 0 0 1.5 1.5zM13.333 24H17V13.666h-3.667V24zm-1.5 3H18.5a1.5 1.5 0 0 0 1.5-1.5V12.166a1.5 1.5 0 0 0-1.5-1.5h-6.667a1.5 1.5 0 0 0-1.5 1.5V25.5a1.5 1.5 0 0 0 1.5 1.5zM24.834 27h4a1.5 1.5 0 1 0 0-3h-4a1.5 1.5 0 1 0 0 3M24.834 20.333H32.5a1.5 1.5 0 0 0 0-3h-7.667a1.5 1.5 0 1 0 0 3M24.834 33.666H32.5a1.5 1.5 0 0 0 0-3h-7.667a1.5 1.5 0 1 0 0 3M24.834 40.333H32.5a1.5 1.5 0 0 0 0-3h-7.667a1.5 1.5 0 1 0 0 3"/>
    <path d="M44 42.166A1.835 1.835 0 0 1 42.167 44a1.836 1.836 0 0 1-1.834-1.834V10.333H44v31.833zM7 7h30.333v35.166c0 .104.011.205.031.303.034.537.139 1.055.336 1.531H8.833A1.835 1.835 0 0 1 7 42.166V7zm38.5.333h-5.167V5.5a1.5 1.5 0 0 0-1.5-1.5H5.5A1.5 1.5 0 0 0 4 5.5v36.666c0 .104.011.205.031.303a4.814 4.814 0 0 0 4.5 4.501c.098.019.198.03.302.03h33.334c.104 0 .204-.011.302-.03C44.991 46.81 47 44.728 47 42.166V8.833a1.5 1.5 0 0 0-1.5-1.5z"/>
  </g>
</svg>
