<svg viewBox="0 0 143 143" xmlns="http://www.w3.org/2000/svg">
  <g fill="currentColor">
    <path d="M116.667 1.497v127.429a1.5 1.5 0 0 0 3 0V1.496a1.5 1.5 0 0 0-3 0zM13.167 142.01h116.667a1.5 1.5 0 0 0 0-3H13.167a1.5 1.5 0 0 0 0 3zM48.167 26.165h35a1.5 1.5 0 0 0 0-3h-35a1.5 1.5 0 1 0 0 3zM13.167 118.84a1.5 1.5 0 0 1-1.5-1.5V94.173a1.5 1.5 0 0 1 1.5-1.5H36.5a1.5 1.5 0 0 1 1.5 1.5v23.169a1.5 1.5 0 0 1-1.5 1.5H13.167zm1.5-3H35V95.673H14.667v20.169zM13.167 72.504a1.5 1.5 0 0 1-1.5-1.5V24.665a1.5 1.5 0 0 1 1.5-1.5H36.5a1.5 1.5 0 0 1 1.5 1.5v46.339a1.5 1.5 0 0 1-1.5 1.5H13.167zm1.5-3H35V26.165H14.667v43.339zM48.167 72.504h35a1.5 1.5 0 1 0 0-3h-35a1.5 1.5 0 0 0 0 3zM48.167 49.335H106.5a1.5 1.5 0 0 0 0-3H48.167a1.5 1.5 0 0 0 0 3zM48.167 60.919H106.5a1.5 1.5 0 0 0 0-3H48.167a1.5 1.5 0 0 0 0 3zM48.167 84.088H106.5a1.5 1.5 0 0 0 0-3H48.167a1.5 1.5 0 1 0 0 3zM48.167 95.673H106.5a1.5 1.5 0 0 0 0-3H48.167a1.5 1.5 0 0 0 0 3zM48.167 107.257H106.5a1.5 1.5 0 0 0 0-3H48.167a1.5 1.5 0 0 0 0 3zM48.167 118.842H106.5a1.5 1.5 0 1 0 0-3H48.167a1.5 1.5 0 0 0 0 3z"/>
    <path d="M118.167-.003H1.5a1.5 1.5 0 1 0 0 3h116.667a1.5 1.5 0 0 0 0-3zM140 128.926c0 5.567-4.55 10.085-10.166 10.085-5.618 0-10.167-4.518-10.167-10.085a1.5 1.5 0 0 0-3 0c0 7.229 5.897 13.085 13.167 13.085 7.269 0 13.166-5.856 13.166-13.085V13.081a1.5 1.5 0 0 0-1.5-1.5h-23.333a1.5 1.5 0 0 0 0 3H140v114.345zM0 128.926c0 7.229 5.897 13.085 13.167 13.085a1.5 1.5 0 0 0 0-3C7.549 139.01 3 134.493 3 128.926a1.5 1.5 0 0 0-3 0z"/>
    <path d="M3 128.926V1.496a1.5 1.5 0 0 0-3 0v127.43a1.5 1.5 0 0 0 3 0z"/>
  </g>
</svg>
