<?xml version="1.0" encoding="UTF-8"?>
<svg width="143px" height="143px" viewBox="0 0 143 143" version="1.1" xmlns="http://www.w3.org/2000/svg" xmlns:xlink="http://www.w3.org/1999/xlink">

      <g id="stories-big" transform="translate(0.000000, -1.000000)" fill-rule="nonzero" fill="currentColor">
          <path d="M116.6667,2.49657817 L116.6667,129.925825 C116.6667,130.754252 117.338273,131.425825 118.1667,131.425825 C118.995127,131.425825 119.6667,130.754252 119.6667,129.925825 L119.6667,2.49657817 C119.6667,1.66815104 118.995127,0.996578169 118.1667,0.996578169 C117.338273,0.996578169 116.6667,1.66815104 116.6667,2.49657817 Z" id="Stroke-1"></path>
          <path d="M13.1667,143.010663 L129.8337,143.010663 C130.662127,143.010663 131.3337,142.33909 131.3337,141.510663 C131.3337,140.682236 130.662127,140.010663 129.8337,140.010663 L13.1667,140.010663 C12.3382729,140.010663 11.6667,140.682236 11.6667,141.510663 C11.6667,142.33909 12.3382729,143.010663 13.1667,143.010663 Z" id="Stroke-3"></path>
          <path d="M48.1667,27.1654599 L83.1667,27.1654599 C83.9951271,27.1654599 84.6667,26.493887 84.6667,25.6654599 C84.6667,24.8370327 83.9951271,24.1654599 83.1667,24.1654599 L48.1667,24.1654599 C47.3382729,24.1654599 46.6667,24.8370327 46.6667,25.6654599 C46.6667,26.493887 47.3382729,27.1654599 48.1667,27.1654599 Z" id="Stroke-6"></path>
          <path d="M13.167,119.840887 C12.3385729,119.840887 11.667,119.169314 11.667,118.340887 L11.667,95.1722042 C11.667,94.3437771 12.3385729,93.6722042 13.167,93.6722042 L36.5,93.6722042 C37.3284271,93.6722042 38,94.3437771 38,95.1722042 L38,118.340887 C38,119.169314 37.3284271,119.840887 36.5,119.840887 L13.167,119.840887 Z M14.667,116.840887 L35,116.840887 L35,96.6722042 L14.667,96.6722042 L14.667,116.840887 Z" id="Stroke-7"></path>
          <path d="M13.167,73.5035211 C12.3385729,73.5035211 11.667,72.8319483 11.667,72.0035211 L11.667,25.665162 C11.667,24.8367348 12.3385729,24.165162 13.167,24.165162 L36.5,24.165162 C37.3284271,24.165162 38,24.8367348 38,25.665162 L38,72.0035211 C38,72.8319483 37.3284271,73.5035211 36.5,73.5035211 L13.167,73.5035211 Z M14.667,70.5035211 L35,70.5035211 L35,27.165162 L14.667,27.165162 L14.667,70.5035211 Z" id="Stroke-8"></path>
          <path d="M48.1667,73.5035211 L83.1667,73.5035211 C83.9951271,73.5035211 84.6667,72.8319483 84.6667,72.0035211 C84.6667,71.175094 83.9951271,70.5035211 83.1667,70.5035211 L48.1667,70.5035211 C47.3382729,70.5035211 46.6667,71.175094 46.6667,72.0035211 C46.6667,72.8319483 47.3382729,73.5035211 48.1667,73.5035211 Z" id="Stroke-9"></path>
          <path d="M48.1667,50.3345401 L106.4997,50.3345401 C107.328127,50.3345401 107.9997,49.6629673 107.9997,48.8345401 C107.9997,48.006113 107.328127,47.3345401 106.4997,47.3345401 L48.1667,47.3345401 C47.3382729,47.3345401 46.6667,48.006113 46.6667,48.8345401 C46.6667,49.6629673 47.3382729,50.3345401 48.1667,50.3345401 Z" id="Stroke-10"></path>
          <path d="M48.1667,61.918981 L106.4997,61.918981 C107.328127,61.918981 107.9997,61.2474081 107.9997,60.418981 C107.9997,59.5905539 107.328127,58.918981 106.4997,58.918981 L48.1667,58.918981 C47.3382729,58.918981 46.6667,59.5905539 46.6667,60.418981 C46.6667,61.2474081 47.3382729,61.918981 48.1667,61.918981 Z" id="Stroke-11"></path>
          <path d="M48.1667,85.0880613 L106.4997,85.0880613 C107.328127,85.0880613 107.9997,84.4164884 107.9997,83.5880613 C107.9997,82.7596341 107.328127,82.0880613 106.4997,82.0880613 L48.1667,82.0880613 C47.3382729,82.0880613 46.6667,82.7596341 46.6667,83.5880613 C46.6667,84.4164884 47.3382729,85.0880613 48.1667,85.0880613 Z" id="Stroke-12"></path>
          <path d="M48.1667,96.6725021 L106.4997,96.6725021 C107.328127,96.6725021 107.9997,96.0009292 107.9997,95.1725021 C107.9997,94.344075 107.328127,93.6725021 106.4997,93.6725021 L48.1667,93.6725021 C47.3382729,93.6725021 46.6667,94.344075 46.6667,95.1725021 C46.6667,96.0009292 47.3382729,96.6725021 48.1667,96.6725021 Z" id="Stroke-13"></path>
          <path d="M48.1667,108.257042 L106.4997,108.257042 C107.328127,108.257042 107.9997,107.585469 107.9997,106.757042 C107.9997,105.928615 107.328127,105.257042 106.4997,105.257042 L48.1667,105.257042 C47.3382729,105.257042 46.6667,105.928615 46.6667,106.757042 C46.6667,107.585469 47.3382729,108.257042 48.1667,108.257042 Z" id="Stroke-14"></path>
          <path d="M48.1667,119.841582 L106.4997,119.841582 C107.328127,119.841582 107.9997,119.17001 107.9997,118.341582 C107.9997,117.513155 107.328127,116.841582 106.4997,116.841582 L48.1667,116.841582 C47.3382729,116.841582 46.6667,117.513155 46.6667,118.341582 C46.6667,119.17001 47.3382729,119.841582 48.1667,119.841582 Z" id="Stroke-15"></path>
          <path d="M118.1667,0.996578169 L1.4997,0.996578169 C0.671272875,0.996578169 -0.0003,1.66815104 -0.0003,2.49657817 C-0.0003,3.32500529 0.671272875,3.99657817 1.4997,3.99657817 L118.1667,3.99657817 C118.995127,3.99657817 119.6667,3.32500529 119.6667,2.49657817 C119.6667,1.66815104 118.995127,0.996578169 118.1667,0.996578169 Z" id="Stroke-16"></path>
          <path d="M139.9997,129.926023 C139.9997,135.49307 135.450406,140.010861 129.8337,140.010861 C124.216128,140.010861 119.6667,135.493204 119.6667,129.926023 C119.6667,129.097596 118.995127,128.426023 118.1667,128.426023 C117.338273,128.426023 116.6667,129.097596 116.6667,129.926023 C116.6667,137.154782 122.563962,143.010861 129.8337,143.010861 C137.102612,143.010861 142.9997,137.154609 142.9997,129.926023 L142.9997,14.0806218 C142.9997,13.2521947 142.328127,12.5806218 141.4997,12.5806218 L118.1667,12.5806218 C117.338273,12.5806218 116.6667,13.2521947 116.6667,14.0806218 C116.6667,14.909049 117.338273,15.5806218 118.1667,15.5806218 L139.9997,15.5806218 L139.9997,129.926023 Z" id="Stroke-18"></path>
          <path d="M0,129.926023 C0,137.154782 5.89726226,143.010861 13.167,143.010861 C13.9954271,143.010861 14.667,142.339288 14.667,141.510861 C14.667,140.682434 13.9954271,140.010861 13.167,140.010861 C7.54942847,140.010861 3,135.493204 3,129.926023 C3,129.097596 2.32842712,128.426023 1.5,128.426023 C0.671572875,128.426023 0,129.097596 0,129.926023 Z" id="Stroke-20"></path>
          <path d="M3,129.926023 L3,2.49677676 C3,1.66834964 2.32842712,0.996776761 1.5,0.996776761 C0.671572875,0.996776761 0,1.66834964 0,2.49677676 L0,129.926023 C0,130.75445 0.671572875,131.426023 1.5,131.426023 C2.32842712,131.426023 3,130.75445 3,129.926023 Z" id="Stroke-22"></path>
      </g>

</svg>
