<svg viewBox="0 0 103 123" xmlns="http://www.w3.org/2000/svg"><g fill="currentColor" fill-rule="nonzero"><path d="M51.5 117a6.5 6.5 0 1 1 0-13 6.5 6.5 0 0 1 0 13zm0-3a3.5 3.5 0 1 0 0-7 3.5 3.5 0 0 0 0 7z"/><path d="M96.5 120c1.922 0 3.5-1.578 3.5-3.5V6.5c0-1.922-1.578-3.5-3.5-3.5h-90A3.515 3.515 0 0 0 3 6.5v110c0 1.922 1.578 3.5 3.5 3.5h90zm0 3h-90c-3.578 0-6.5-2.922-6.5-6.5V6.5C0 2.922 2.922 0 6.5 0h90c3.578 0 6.5 2.922 6.5 6.5v110c0 3.578-2.922 6.5-6.5 6.5z"/><path d="M86.5 98c1.922 0 3.5-1.578 3.5-3.5v-78c0-1.922-1.578-3.5-3.5-3.5h-70a3.515 3.515 0 0 0-3.5 3.5v78c0 1.922 1.578 3.5 3.5 3.5h70zm0 3h-70c-3.578 0-6.5-2.922-6.5-6.5v-78c0-3.578 2.922-6.5 6.5-6.5h70c3.578 0 6.5 2.922 6.5 6.5v78c0 3.578-2.922 6.5-6.5 6.5z"/></g></svg>
