<svg viewBox="0 0 107 106" fill="none" xmlns="http://www.w3.org/2000/svg">
  <g filter="url(#filter0_d)">
    <circle cx="52" cy="51" r="50" fill="#74B1FF"/>
    <circle cx="52" cy="51" r="50" stroke="white" stroke-width="1.5"/>
  </g>
  <path d="M67 25C72.5228 25 77 29.4772 77 35L77 51L27 51L27 35C27 29.4772 31.4772 25 37 25L67 25Z" stroke="white" stroke-width="1.5"/>
  <path d="M52 21V25" stroke="white" stroke-width="1.5" stroke-linecap="round" stroke-linejoin="round"/>
  <rect x="22" y="51" width="60" height="20" rx="5" stroke="white" stroke-width="1.5"/>
  <path d="M40 57H64V60C64 62.7614 61.7614 65 59 65H45C42.2386 65 40 62.7614 40 60V57Z" stroke="white" stroke-width="1.5" stroke-linejoin="round"/>
  <path d="M69 77C69 79.2091 70.7909 81 73 81V81C75.2091 81 77 79.2091 77 77V71H69V77Z" stroke="white" stroke-width="1.5"/>
  <path d="M27 77C27 79.2091 28.7909 81 31 81V81C33.2091 81 35 79.2091 35 77V71H27V77Z" stroke="white" stroke-width="1.5"/>
  <path d="M26 43C23.7909 43 22 44.7909 22 47V47C22 49.2091 23.7909 51 26 51L27 51L27 43L26 43Z" stroke="white" stroke-width="1.5"/>
  <path d="M78 51C80.2091 51 82 49.2091 82 47V47C82 44.7909 80.2091 43 78 43L77 43L77 51L78 51Z" stroke="white" stroke-width="1.5"/>
  <circle cx="31" cy="61" r="4" stroke="white" stroke-width="1.5"/>
  <circle cx="73" cy="61" r="4" stroke="white" stroke-width="1.5"/>
  <path d="M58 51C58 47.6863 60.6863 45 64 45C67.3137 45 70 47.6863 70 51" stroke="white" stroke-width="1.5" stroke-linecap="round" stroke-linejoin="round"/>
  <path d="M30 51C30 45.4772 34.4772 41 40 41C45.5228 41 50 45.4772 50 51" stroke="white" stroke-width="1.5" stroke-linecap="round" stroke-linejoin="round"/>
  <path d="M54 51C54 45.4772 58.4772 41 64 41C69.5228 41 74 45.4772 74 51" stroke="white" stroke-width="1.5" stroke-linecap="round" stroke-linejoin="round"/>
  <path d="M64 38C66.2091 38 68 36.2091 68 34C68 31.7909 66.2091 30 64 30C61.7909 30 60 31.7909 60 34C60 36.2091 61.7909 38 64 38Z" stroke="white" stroke-width="1.5" stroke-miterlimit="10" stroke-linecap="round" stroke-linejoin="round"/>
  <path d="M40 38C42.2091 38 44 36.2091 44 34C44 31.7909 42.2091 30 40 30C37.7909 30 36 31.7909 36 34C36 36.2091 37.7909 38 40 38Z" stroke="white" stroke-width="1.5" stroke-miterlimit="10" stroke-linecap="round" stroke-linejoin="round"/>
  <defs>
    <filter id="filter0_d" x="0.75" y="0.25" width="105.5" height="105.5" filterUnits="userSpaceOnUse" color-interpolation-filters="sRGB">
      <feFlood flood-opacity="0" result="BackgroundImageFix"/>
      <feColorMatrix in="SourceAlpha" type="matrix" values="0 0 0 0 0 0 0 0 0 0 0 0 0 0 0 0 0 0 127 0" result="hardAlpha"/>
      <feOffset dx="1.5" dy="2"/>
      <feGaussianBlur stdDeviation="1"/>
      <feColorMatrix type="matrix" values="0 0 0 0 0.129412 0 0 0 0 0.129412 0 0 0 0 0.129412 0 0 0 0.3 0"/>
      <feBlend mode="normal" in2="BackgroundImageFix" result="effect1_dropShadow"/>
      <feBlend mode="normal" in="SourceGraphic" in2="effect1_dropShadow" result="shape"/>
    </filter>
  </defs>
</svg>
