<svg id="Calque_1" data-name="Calque 1" xmlns="http://www.w3.org/2000/svg" viewBox="0 0 80 80">
  <defs>
    <style>
      .cls-1{fill:currentColor}
    </style>
  </defs>
  <path class="cls-1" d="M55 41.5a1.5 1.5 0 0 1-1.06-.44l-15-15A1.5 1.5 0 0 1 38.5 25 16.5 16.5 0 1 1 55 41.5zM41.51 24.39l14.1 14.1a13.5 13.5 0 1 0-14.1-14.1z"/>
  <path class="cls-1" d="M25 67.12a1.5 1.5 0 0 1-1.06-.44l-10.62-10.6a1.5 1.5 0 0 1-.09-2l22.08-26.51.09-.1 3.54-3.54a1.5 1.5 0 0 1 2.12 2.12l-3.49 3.49-21.16 25.38 8.67 8.67 25.37-21.16 3.49-3.49a1.5 1.5 0 0 1 2.12 2.12l-3.54 3.54-.1.09-26.48 22.08a1.5 1.5 0 0 1-.94.35z"/>
  <path class="cls-1" d="M10 71.5a1.5 1.5 0 0 1-1.06-2.56l9.68-9.68a1.5 1.5 0 0 1 2.12 2.12l-9.68 9.68a1.5 1.5 0 0 1-1.06.44zM36 45.5a1.5 1.5 0 0 1-1.06-2.56l3.68-3.68a1.5 1.5 0 0 1 2.12 2.12l-3.68 3.68a1.5 1.5 0 0 1-1.06.44z"/>
</svg>
