<svg id="Calque_1" data-name="Calque 1" xmlns="http://www.w3.org/2000/svg" viewBox="0 0 120 120">
  <defs>
    <style>
      .cls-1{fill:currentColor}
    </style>
  </defs>
  <circle class="cls-2" cx="60" cy="60" r="51.5"/>
  <path fill="#fff" d="M60 111.5A51.5 51.5 0 1 1 111.5 60 51.56 51.56 0 0 1 60 111.5zm0-100A48.5 48.5 0 1 0 108.5 60 48.55 48.55 0 0 0 60 11.5z"/>
  <path class="cls-1" d="M54.81 86.5a1.5 1.5 0 0 1-1.36-2.13l4.23-9.18a1.5 1.5 0 0 1 2.72 1.26l-4.23 9.18a1.5 1.5 0 0 1-1.36.87z"/>
  <path class="cls-1" d="M54.81 86.5a1.5 1.5 0 0 1-.63-2.86l9.18-4.23a1.5 1.5 0 1 1 1.26 2.72l-9.18 4.23a1.49 1.49 0 0 1-.63.14z"/>
  <path class="cls-1" d="M64 82.27a1.5 1.5 0 0 1-1.06-2.56l20-20-2.83-2.83-20 20A1.5 1.5 0 0 1 58 74.76l21-21a1.5 1.5 0 0 1 2.12 0l4.95 4.95a1.5 1.5 0 0 1 0 2.12l-21 21a1.5 1.5 0 0 1-1.07.44z"/>
  <path class="cls-1" d="M58.65 78.17H35a1.5 1.5 0 0 1-1.5-1.5V35a1.5 1.5 0 0 1 1.5-1.5h33.33a1.5 1.5 0 0 1 1.5 1.5v31.53a1.5 1.5 0 1 1-3 0v-30H36.5v38.64h22.15a1.5 1.5 0 0 1 0 3zM79.67 64.59a1.5 1.5 0 0 1-1.06-.44l-2.95-2.95a1.5 1.5 0 0 1 2.12-2.12L80.73 62a1.5 1.5 0 0 1-1.06 2.56z"/>
  <path class="cls-1" d="M61.25 44.83h-11.5a1.5 1.5 0 0 1 0-3h11.5a1.5 1.5 0 0 1 0 3zM61.25 53.17h-11.5a1.5 1.5 0 0 1 0-3h11.5a1.5 1.5 0 0 1 0 3zM61.25 61.5h-11.5a1.5 1.5 0 0 1 0-3h11.5a1.5 1.5 0 0 1 0 3zM43.28 45.78a2.45 2.45 0 1 1 1.22-.33 2.45 2.45 0 0 1-1.22.33zm0-3a.55.55 0 0 0-.48.83.55.55 0 1 0 .48-.83zM43.28 54.11a2.44 2.44 0 1 1 1.22-.33 2.45 2.45 0 0 1-1.22.33zm0-3a.55.55 0 0 0-.48.83.55.55 0 1 0 1-.55.55.55 0 0 0-.53-.28zM43.28 62.45a2.45 2.45 0 1 1 1.22-.33 2.45 2.45 0 0 1-1.22.33zm0-3a.55.55 0 1 0 .48.28.55.55 0 0 0-.49-.28z"/>
</svg>
