<svg id="Calque_1" data-name="Calque 1" xmlns="http://www.w3.org/2000/svg" viewBox="0 0 140 140">
  <defs>
    <style>
      .cls-1{fill:currentColor}
    </style>
  </defs>
  <path class="cls-1" d="M73 31.5H43a1.5 1.5 0 0 1 0-3h30a1.5 1.5 0 0 1 0 3zM73 51.5H43a1.5 1.5 0 0 1 0-3h30a1.5 1.5 0 0 1 0 3zM73 71.5H43a1.5 1.5 0 0 1 0-3h30a1.5 1.5 0 0 1 0 3zM59 91.5H43a1.5 1.5 0 0 1 0-3h16a1.5 1.5 0 0 1 0 3zM24 36.5a6.5 6.5 0 1 1 6.5-6.5 6.51 6.51 0 0 1-6.5 6.5zm0-10a3.5 3.5 0 1 0 3.5 3.5 3.5 3.5 0 0 0-3.5-3.5zM24 66.5a6.5 6.5 0 1 1 6.5-6.5 6.51 6.51 0 0 1-6.5 6.5zm0-10a3.5 3.5 0 1 0 3.5 3.5 3.5 3.5 0 0 0-3.5-3.5zM24 96.5a6.5 6.5 0 1 1 6.5-6.5 6.51 6.51 0 0 1-6.5 6.5zm0-10a3.5 3.5 0 1 0 3.5 3.5 3.5 3.5 0 0 0-3.5-3.5zM62.34 131.5a1.5 1.5 0 0 1-1.29-2.26L71.21 112a1.5 1.5 0 0 1 2.58 1.52l-10.15 17.24a1.5 1.5 0 0 1-1.3.74z"/>
  <path class="cls-1" d="M62.35 131.5a1.5 1.5 0 0 1-.76-2.79l17.23-10.16a1.5 1.5 0 0 1 1.52 2.58l-17.23 10.16a1.49 1.49 0 0 1-.76.21z"/>
  <path class="cls-1" d="M79.57 121.34a1.5 1.5 0 0 1-1.06-.44l-7.07-7.07a1.5 1.5 0 0 1 0-2.12l50.43-50.43a1.54 1.54 0 0 1 2.12 0l7.07 7.07a1.5 1.5 0 0 1 0 2.12L80.63 120.9a1.5 1.5 0 0 1-1.06.44zm-4.95-8.57l4.95 4.95 48.31-48.3-5-5z"/>
  <path class="cls-1" d="M75.27 111.5H10a1.5 1.5 0 0 1-1.5-1.5V10A1.5 1.5 0 0 1 10 8.5h80a1.5 1.5 0 0 1 1.5 1.5v85.27a1.5 1.5 0 0 1-3 0V11.5h-77v97h63.77a1.5 1.5 0 0 1 0 3zM122 78.92a1.5 1.5 0 0 1-1.06-.44l-7.07-7.07a1.5 1.5 0 0 1 2.13-2.13l7.07 7.07a1.5 1.5 0 0 1-1.07 2.57z"/>
</svg>
