<svg viewBox="0 0 80 80" fill="none" xmlns="http://www.w3.org/2000/svg">
<path fill-rule="evenodd" clip-rule="evenodd" d="M56.5006 13C52.9107 13 50.0006 15.9102 50.0006 19.5C50.0006 23.0899 52.9107 26.0001 56.5006 26.0001C60.0905 26.0001 63.0006 23.0899 63.0006 19.5C63.0006 15.9102 60.0905 13 56.5006 13ZM53.0006 19.5C53.0006 17.567 54.5676 16 56.5006 16C58.4336 16 60.0006 17.567 60.0006 19.5C60.0006 21.4331 58.4336 23.0001 56.5006 23.0001C54.5676 23.0001 53.0006 21.4331 53.0006 19.5Z" fill="currentColor"/>
<path fill-rule="evenodd" clip-rule="evenodd" d="M18.0006 19.5C18.0006 15.9102 20.9107 13 24.5006 13C28.0905 13 31.0006 15.9102 31.0006 19.5C31.0006 23.0899 28.0905 26.0001 24.5006 26.0001C20.9107 26.0001 18.0006 23.0899 18.0006 19.5ZM24.5006 16C22.5676 16 21.0006 17.567 21.0006 19.5C21.0006 21.4331 22.5676 23.0001 24.5006 23.0001C26.4336 23.0001 28.0006 21.4331 28.0006 19.5C28.0006 17.567 26.4336 16 24.5006 16Z" fill="currentColor"/>
<path fill-rule="evenodd" clip-rule="evenodd" d="M36.7125 20.7809C37.3856 20.382 38.2546 20.6043 38.6535 21.2774C38.8902 21.6768 39.1395 22.0679 39.4008 22.4502C43.2754 28.1183 49.7862 31.8331 57.1638 31.8331C60.3584 31.8331 63.3941 31.1354 66.1234 29.8826C66.8764 29.537 67.2065 28.6465 66.861 27.8936C66.5154 27.1407 65.6249 26.8105 64.872 27.1561C62.5273 28.2323 59.9178 28.8331 57.1638 28.8331C53.2262 28.8331 49.5752 27.6044 46.5735 25.5049C46.8475 25.0948 47.1108 24.6769 47.363 24.2514C48.6066 22.1529 47.9136 19.4437 45.8151 18.2001C44.0668 17.164 41.8945 17.4721 40.4991 18.8174C39.1037 17.4721 36.9314 17.164 35.1831 18.2001C33.0846 19.4437 32.3916 22.1529 33.6352 24.2514C33.8873 24.6768 34.1506 25.0947 34.4246 25.5047C31.4236 27.604 27.774 28.833 23.8343 28.833C21.0803 28.833 18.4708 28.2323 16.1261 27.1561C15.3732 26.8105 14.4827 27.1407 14.1371 27.8936C13.7915 28.6465 14.1217 29.537 14.8746 29.8826C17.604 31.1353 20.6397 31.833 23.8343 31.833C28.4463 31.833 32.7228 30.3804 36.2266 27.905C36.8394 28.6345 37.4899 29.3316 38.1749 29.9933C36.3006 31.3628 34.2234 32.4707 31.9973 33.2634C31.3996 33.4762 31.0005 34.042 31.0005 34.6765V61.4999C31.0005 62.3284 30.3289 62.9999 29.5005 62.9999C28.672 62.9999 28.0005 62.3284 28.0005 61.4999V48.5C28.0005 47.6716 27.3289 47 26.5005 47H21.5005C20.672 47 20.0005 47.6716 20.0005 48.5V61.5413C20.0005 62.3616 19.3415 63.0298 18.5212 63.0411C17.6847 63.0528 17.0004 62.3778 17.0004 61.5413V35.5C17.0004 34.6716 16.3288 34 15.5004 34C14.6719 34 14.0004 34.6716 14.0004 35.5V61.5413C14.0004 64.051 16.0534 66.0757 18.5629 66.0409C21.0235 66.0067 23.0005 64.0023 23.0005 61.5413V50H25.0005V61.4999C25.0005 63.9852 27.0152 65.9999 29.5005 65.9999C31.9857 65.9999 34.0005 63.9852 34.0005 61.4999V35.7124C36.3456 34.7721 38.5292 33.5168 40.499 31.9998C42.4699 33.5177 44.6545 34.7733 47.0006 35.7136V61.5018C47.0006 63.9883 49.0165 66 51.5006 66C53.9858 66 56.0006 63.9853 56.0006 61.5V50H58.0006V61.5014C58.0006 63.9859 60.0146 66 62.4991 66C64.9836 66 66.9977 63.9859 66.9977 61.5014V35.5C66.9977 34.6716 66.3261 34 65.4977 34C64.6693 34 63.9977 34.6716 63.9977 35.5V61.5014C63.9977 62.3291 63.3268 63 62.4991 63C61.6715 63 61.0006 62.3291 61.0006 61.5014V48.5C61.0006 47.6716 60.329 47 59.5006 47H54.5006C53.6721 47 53.0006 47.6716 53.0006 48.5V61.5C53.0006 62.3284 52.329 63 51.5006 63C50.6709 63 50.0006 62.3291 50.0006 61.5018V34.6775C50.0006 34.043 49.6013 33.4771 49.0036 33.2644C46.2481 32.2836 43.7209 30.8198 41.5246 28.9755C41.5065 28.9586 41.4878 28.942 41.4688 28.9259C40.0631 27.738 38.7944 26.394 37.6895 24.9212C37.6895 24.9212 37.6555 24.8771 37.6376 24.8559C37.4403 24.5911 37.2483 24.3221 37.0617 24.0491C36.7661 23.6166 36.4839 23.174 36.216 22.7219C35.8171 22.0488 36.0394 21.1798 36.7125 20.7809ZM42.2994 21.3492C42.8899 22.1445 43.5422 22.8905 44.2493 23.58C44.4326 23.298 44.6103 23.0119 44.7822 22.7219C45.1811 22.0488 44.9588 21.1798 44.2857 20.7809C43.6126 20.382 42.7436 20.6043 42.3447 21.2774C42.3301 21.3019 42.315 21.3258 42.2994 21.3492Z" fill="currentColor"/>
</svg>
