<svg viewBox="0 0 140 140" fill="none" xmlns="http://www.w3.org/2000/svg">
<path fill-rule="evenodd" clip-rule="evenodd" d="M47.9814 8.5C47.5837 8.5 47.2022 8.65795 46.921 8.93911L30.9184 24.9349C30.8771 24.9753 30.8381 25.0181 30.8017 25.0631C30.7221 25.1612 30.6567 25.2671 30.6055 25.3779C30.5172 25.5691 30.4678 25.7821 30.4678 26.0066V78.5201H26.6269L11.0526 62.9525C10.4667 62.3669 9.51698 62.3671 8.93133 62.953C8.34567 63.5389 8.34587 64.4887 8.93178 65.0743L24.9453 81.081C25.2266 81.3622 25.6081 81.5201 26.0058 81.5201H31.8018C31.8563 81.5261 31.9117 81.5292 31.9678 81.5292C32.024 81.5292 32.0794 81.5261 32.1339 81.5201H66.5401C68.7524 81.5201 70.5447 83.3126 70.5447 85.5224C70.5447 87.7322 68.7524 89.5247 66.5401 89.5247H47.0391C46.9751 89.5241 46.9111 89.5275 46.8475 89.535C46.7471 89.5467 46.6497 89.5684 46.5564 89.5989C46.3393 89.6699 46.1352 89.7916 45.9627 89.9642C45.8017 90.1252 45.685 90.3137 45.6125 90.5146C45.5633 90.6508 45.5332 90.7962 45.5255 90.9475C45.5242 90.9731 45.5236 90.9988 45.5236 91.0247C45.5236 91.0482 45.5241 91.0715 45.5252 91.0946C45.5414 91.4479 45.6798 91.7694 45.8992 92.0176C45.9221 92.0436 45.946 92.0688 45.9707 92.0931L60.7481 106.864C60.9381 107.122 61.1497 107.368 61.3828 107.601C61.6159 107.834 61.8624 108.046 62.1198 108.236L76.4884 122.598C77.8369 123.946 77.837 126.132 76.4884 127.479C75.1395 128.828 72.9522 128.828 71.6033 127.479L53.0879 108.972C52.502 108.386 51.5523 108.386 50.9666 108.972C50.3809 109.558 50.3811 110.508 50.9671 111.094C53.3754 113.73 56.2867 116.557 58.9488 119.142C60.2072 120.363 61.4098 121.531 62.4773 122.599C63.8251 123.947 63.8248 126.132 62.4765 127.479C61.1276 128.828 58.9404 128.828 57.5915 127.479L39.076 108.972C38.4901 108.386 37.5403 108.386 36.9546 108.972C36.369 109.558 36.3692 110.508 36.9551 111.094L48.4665 122.6C49.8132 123.948 49.8126 126.132 48.4647 127.479C47.1158 128.828 44.9285 128.828 43.5796 127.479L25.0642 108.972C24.4783 108.386 23.5286 108.386 22.9429 108.972C22.3573 109.558 22.3575 110.508 22.9434 111.094L34.4838 122.629C35.8018 123.979 35.7917 126.142 34.4534 127.479C33.1045 128.828 30.9172 128.828 29.5683 127.479L11.0526 108.972C10.4667 108.386 9.51696 108.386 8.9313 108.972C8.34564 109.558 8.34584 110.508 8.93176 111.094L27.4474 129.601C29.9678 132.121 34.0539 132.121 36.5742 129.601C37.4726 128.703 38.0508 127.607 38.3088 126.453L41.4588 129.601C43.9791 132.121 48.0652 132.121 50.5856 129.601C51.484 128.703 52.0622 127.606 52.3202 126.452L55.4706 129.601C57.991 132.121 62.077 132.121 64.5974 129.601C65.4958 128.703 66.0741 127.606 66.3321 126.452L69.4825 129.601C72.0028 132.121 76.0889 132.121 78.6093 129.601C81.13 127.082 81.13 122.996 78.6093 120.477L67.4437 109.316C68.5672 109.049 69.6331 108.477 70.5096 107.601L73.66 104.452C73.918 105.606 74.4962 106.703 75.3947 107.601C77.915 110.121 82.0011 110.121 84.5215 107.601L87.6719 104.452C87.9299 105.606 88.5081 106.703 89.4065 107.601C91.9269 110.121 96.0129 110.121 98.5333 107.601L101.683 104.453C101.941 105.607 102.52 106.703 103.418 107.601C105.938 110.121 110.024 110.121 112.545 107.601L131.06 89.0935C131.646 88.5078 131.646 87.5581 131.061 86.9722C130.475 86.3863 129.525 86.3861 128.939 86.9717L110.424 105.479C109.075 106.828 106.888 106.828 105.539 105.479C104.2 104.142 104.19 101.979 105.508 100.629L117.049 89.0936C117.635 88.5079 117.635 87.5582 117.049 86.9723C116.463 86.3864 115.514 86.3862 114.928 86.9718L96.4124 105.479C95.0635 106.828 92.8763 106.828 91.5274 105.479C90.1794 104.132 90.1788 101.948 91.5255 100.6L103.037 89.0936C103.623 88.5079 103.623 87.5582 103.037 86.9723C102.452 86.3864 101.502 86.3862 100.916 86.9718L82.4006 105.479C81.0517 106.828 78.8644 106.828 77.5155 105.479C76.1672 104.132 76.167 101.947 77.5147 100.599C78.5822 99.5311 79.7849 98.3634 81.0433 97.1416C83.7054 94.5569 86.6167 91.7302 89.025 89.0936C89.6109 88.5079 89.6111 87.5582 89.0255 86.9723C88.4398 86.3864 87.4901 86.3862 86.9041 86.9718L68.3887 105.479C67.2111 106.657 65.3946 106.806 64.0547 105.928L63.055 104.929C62.1769 103.59 62.3264 101.775 63.5037 100.598L94.0214 70.0931C94.0461 70.0688 94.0699 70.0436 94.0929 70.0176C94.3123 69.7694 94.4507 69.4479 94.4669 69.0946C94.4676 69.0793 94.4681 69.0639 94.4683 69.0485L94.4685 69.0247C94.4685 68.9988 94.4678 68.9731 94.4666 68.9475C94.4589 68.7962 94.4288 68.6508 94.3795 68.5146C94.3071 68.3137 94.1904 68.1252 94.0294 67.9642C93.8569 67.7916 93.6528 67.6699 93.4357 67.5989C93.3423 67.5684 93.245 67.5467 93.1446 67.535C93.081 67.5275 93.017 67.5241 92.953 67.5247H73.452C71.2397 67.5247 69.4473 65.7322 69.4473 63.5224C69.4473 61.3126 71.2397 59.5201 73.452 59.5201H113.986C114.384 59.5201 114.765 59.3622 115.047 59.081L131.06 43.0743C131.646 42.4887 131.646 41.5389 131.061 40.953C130.475 40.3671 129.525 40.3669 128.939 40.9525L113.365 56.5201H109.532V10C109.532 9.17157 108.861 8.5 108.032 8.5H47.9814ZM59.6673 101.542C59.9342 100.419 60.506 99.353 61.3828 98.4766L67.3878 92.474C67.1099 92.5075 66.827 92.5247 66.5401 92.5247H50.646L59.6673 101.542ZM73.4939 86.3704L89.3461 70.5247H73.452C69.584 70.5247 66.4473 67.3903 66.4473 63.5224C66.4473 59.6546 69.584 56.5201 73.452 56.5201H90.5187V27.5066H71.4999V42.0133C71.4999 42.8417 70.8284 43.5133 69.9999 43.5133H53.9864C53.158 43.5133 52.4864 42.8417 52.4864 42.0133V27.5066H33.4678V78.5201H66.5401C70.408 78.5201 73.5447 81.6546 73.5447 85.5224C73.5447 85.8095 73.5275 86.0924 73.4939 86.3704ZM106.532 56.5201H93.5187V26.6282L106.532 13.6202V56.5201ZM53.3655 24.5066L60.9328 16.9425C61.2141 16.6614 61.5955 16.5034 61.9932 16.5034H78.0068C78.6135 16.5034 79.1605 16.869 79.3926 17.4295C79.6248 17.9901 79.4963 18.6354 79.0672 19.0643L73.6226 24.5066H91.3976L104.41 11.5H48.6025L35.5904 24.5066H53.3655ZM55.4864 27.5068V40.5133H68.4999V27.5068H55.4864ZM69.379 24.5066L74.3843 19.5034H62.6143L57.609 24.5066H69.379Z" fill="currentColor"/>
</svg>
