<svg id="Calque_1" data-name="Calque 1" xmlns="http://www.w3.org/2000/svg" viewBox="0 0 140 140">
  <defs>
    <style>
      .cls-1{fill:currentColor}
    </style>
  </defs>
  <path class="cls-1" d="M97.64 29.92a1.49 1.49 0 0 1-.83-.25L69.17 11.25a1.5 1.5 0 1 1 1.66-2.5l27.64 18.43a1.5 1.5 0 0 1-.83 2.75z"/>
  <path class="cls-1" d="M10 51.5a1.5 1.5 0 0 1-.83-2.75l60-40a1.5 1.5 0 1 1 1.66 2.5l-60 40a1.49 1.49 0 0 1-.83.25zM90.41 113.63a1.5 1.5 0 0 1-1.42-1L75.4 73.83a1.5 1.5 0 0 1 2.83-1l13.6 38.8a1.5 1.5 0 0 1-1.42 2z"/>
  <path class="cls-1" d="M90.41 131.5a19.37 19.37 0 1 1 19.37-19.37 19.39 19.39 0 0 1-19.37 19.37zm0-35.74a16.37 16.37 0 1 0 16.37 16.37 16.39 16.39 0 0 0-16.37-16.37zM27.87 131.5a19.37 19.37 0 1 1 19.37-19.37 19.39 19.39 0 0 1-19.37 19.37zm0-35.74a16.37 16.37 0 1 0 16.37 16.37 16.39 16.39 0 0 0-16.37-16.37z"/>
  <path class="cls-1" d="M54.67 113.63h-26.8a1.5 1.5 0 0 1 0-3h26.8a1.5 1.5 0 0 1 0 3z"/>
  <path class="cls-1" d="M54.67 113.63a1.5 1.5 0 0 1-1.07-2.55l26.3-26.92a1.5 1.5 0 1 1 2.15 2.1l-26.3 26.92a1.5 1.5 0 0 1-1.08.45z"/>
  <path class="cls-1" d="M54.67 113.63a1.5 1.5 0 0 1-1.41-1L41 79.06a1.5 1.5 0 0 1 2.82-1l12.22 33.58a1.5 1.5 0 0 1-1.41 2z"/>
  <path class="cls-1" d="M48.89 97.73a1.5 1.5 0 0 1-.49-2.92l32.09-11a1.5 1.5 0 1 1 1 2.84l-32.09 11a1.5 1.5 0 0 1-.51.08zM27.87 113.63a1.5 1.5 0 0 1-1.23-2.36l17.64-25.19a1.5 1.5 0 0 1 2.46 1.72L29.1 113a1.5 1.5 0 0 1-1.23.63zM51.39 80H33.52a1.5 1.5 0 0 1 0-3h17.87a1.5 1.5 0 1 1 0 3zM85.75 83.77a1.5 1.5 0 0 1 0-3 3 3 0 0 0 0-5.93h-8.94a1.5 1.5 0 0 1 0-3h8.94a6 6 0 0 1 0 11.93zM81 33.67a1.5 1.5 0 0 1-.84-.26L70 26.5l-10.16 6.91a1.5 1.5 0 0 1-1.69 0l-11-7.48a1.5 1.5 0 1 1 1.69-2.48L59 30.35l10.16-6.91a1.5 1.5 0 0 1 1.69 0L81 30.35l10.16-6.91a1.5 1.5 0 1 1 1.69 2.48l-11 7.48a1.5 1.5 0 0 1-.85.27zM118.87 85.58c-11.42 0-20.71-8.89-20.71-19.82a19 19 0 0 1 1.11-6.4 19.58 19.58 0 0 1-10-17c0-10.93 9.29-19.82 20.71-19.82h.24A20.51 20.51 0 0 1 130 8.5a1.5 1.5 0 0 1 0 3 17.45 17.45 0 0 0-17.23 13 1.5 1.5 0 0 1-1.56 1.14h-1.28c-9.76 0-17.71 7.55-17.71 16.82a16.69 16.69 0 0 0 9.57 14.93 1.5 1.5 0 0 1 .71 2 16 16 0 0 0-1.37 6.49c0 9.27 7.94 16.82 17.71 16.82a18.21 18.21 0 0 0 10.29-3.15 1.5 1.5 0 0 1 1.69 2.48 21.19 21.19 0 0 1-11.95 3.55z"/>
  <path class="cls-1" d="M122 131.5a1.5 1.5 0 0 1 0-3 6.46 6.46 0 0 0 6.5-6.5V80.67a1.5 1.5 0 0 1 3 0V122a9.46 9.46 0 0 1-9.5 9.5z"/>
</svg>
