<svg id="Calque_1" data-name="Calque 1" xmlns="http://www.w3.org/2000/svg" viewBox="0 0 80 80">
  <defs>
    <style>
      .cls-1{fill:currentColor}
    </style>
  </defs>
  <path class="cls-1" d="M46.39 25.74a1.5 1.5 0 0 1-.89-.29L40 21.4l-5.5 4.05a1.5 1.5 0 0 1-1.78 0l-6.39-4.71a1.5 1.5 0 0 1 1.78-2.42l5.5 4.05 5.5-4.05a1.5 1.5 0 0 1 1.78 0l5.5 4.05 5.5-4.05a1.5 1.5 0 0 1 1.78 2.42l-6.39 4.71a1.5 1.5 0 0 1-.89.29z"/>
  <path class="cls-1" d="M10 33.9a1.5 1.5 0 0 1-.9-2.7l30-22.4a1.5 1.5 0 0 1 1.79 0l13.59 10.14a1.5 1.5 0 0 1-1.79 2.4L40 11.87 10.9 33.6a1.5 1.5 0 0 1-.9.3zM49.07 63.7a1.5 1.5 0 0 1-1.41-1l-8-21.8a1.5 1.5 0 0 1 2.82-1l8 21.8a1.5 1.5 0 0 1-1.41 2z"/>
  <path class="cls-1" d="M49.07 71.5a9.3 9.3 0 1 1 9.3-9.3 9.31 9.31 0 0 1-9.3 9.3zm0-15.6a6.3 6.3 0 1 0 6.3 6.3 6.31 6.31 0 0 0-6.3-6.3zM17.8 71.5a9.3 9.3 0 1 1 9.3-9.3 9.31 9.31 0 0 1-9.3 9.3zm0-15.6a6.3 6.3 0 1 0 6.3 6.3 6.31 6.31 0 0 0-6.3-6.3z"/>
  <path class="cls-1" d="M31.2 63.7H17.8a1.5 1.5 0 0 1 0-3h13.4a1.5 1.5 0 1 1 0 3z"/>
  <path class="cls-1" d="M31.2 63.7a1.5 1.5 0 0 1-1.13-2.48l12.56-14.47a1.5 1.5 0 1 1 2.26 2L32.33 63.18a1.5 1.5 0 0 1-1.13.52zM27.11 53.35a1.5 1.5 0 0 1-1.38-.92l-3.22-7.64a1.5 1.5 0 1 1 2.76-1.16l3.22 7.64a1.5 1.5 0 0 1-1.38 2.08z"/>
  <path class="cls-1" d="M40.19 53.35H27.11a1.5 1.5 0 0 1 0-3h13.08a1.5 1.5 0 0 1 0 3zM28.36 45.71h-8.94a1.5 1.5 0 1 1 0-3h8.94a1.5 1.5 0 1 1 0 3zM47.94 41.9h-6.87a1.5 1.5 0 0 1 0-3h6.87a1.5 1.5 0 0 1 0 3zM64.93 45.23a10.06 10.06 0 0 1-10.24-9.84 9.45 9.45 0 0 1 .31-2.56 9.69 9.69 0 0 1-4.41-8.08 10 10 0 0 1 9.77-9.83A10.18 10.18 0 0 1 70 8.5a1.5 1.5 0 0 1 0 3 7.13 7.13 0 0 0-7 5.29 1.5 1.5 0 0 1-1.56 1.14h-.52a7.06 7.06 0 0 0-7.24 6.84 6.79 6.79 0 0 0 3.9 6.06 1.5 1.5 0 0 1 .71 2 6.47 6.47 0 0 0-.55 2.63 7.06 7.06 0 0 0 7.24 6.84 7.47 7.47 0 0 0 4.23-1.29 1.5 1.5 0 0 1 1.69 2.48 10.46 10.46 0 0 1-5.97 1.74z"/>
  <path class="cls-1" d="M63.81 71.5a1.5 1.5 0 0 1 0-3 4.69 4.69 0 0 0 4.69-4.69V42.18a1.5 1.5 0 0 1 3 0v21.63a7.7 7.7 0 0 1-7.69 7.69z"/>
</svg>
