<svg id="Calque_1" data-name="Calque 1" xmlns="http://www.w3.org/2000/svg" viewBox="0 0 120 120"><defs><style>.cls-1{fill:currentColor;}</style></defs><title>ActivitesCreatrices</title><path class="cls-1" d="M60,111.5A51.5,51.5,0,1,1,111.5,60,51.56,51.56,0,0,1,60,111.5Zm0-100A48.5,48.5,0,1,0,108.5,60,48.55,48.55,0,0,0,60,11.5Z"/><circle class="cls-2" cx="60" cy="60" r="51.5"/><path class="cls-1" d="M65.83,53.17a9.83,9.83,0,1,1,9.83-9.83A9.84,9.84,0,0,1,65.83,53.17Zm0-16.67a6.83,6.83,0,1,0,6.83,6.83A6.84,6.84,0,0,0,65.83,36.5Z"/><path class="cls-1" d="M49.17,69.83a1.5,1.5,0,0,1-1.5-1.5,5.67,5.67,0,0,1,5.67-5.67A2.67,2.67,0,0,0,56,60a9.84,9.84,0,0,1,9.83-9.83,1.5,1.5,0,0,1,0,3A6.84,6.84,0,0,0,59,60a5.67,5.67,0,0,1-5.67,5.67,2.67,2.67,0,0,0-2.67,2.67A1.5,1.5,0,0,1,49.17,69.83Z"/><path class="cls-1" d="M54.89,86.5a11,11,0,0,1-2.8-.36A1.5,1.5,0,0,1,51,85.06,10.8,10.8,0,0,1,64.27,71.81a1.5,1.5,0,0,1,1.07,1.07A10.78,10.78,0,0,1,54.89,86.5Zm-1.15-3.08a7.79,7.79,0,0,0,8.88-8.88,7.78,7.78,0,0,0-8.88,8.88Z"/><path class="cls-1" d="M63.89,74.76a1.5,1.5,0,0,1-1.06-2.56L83.94,51.09a1.5,1.5,0,0,1,2.12,2.12L65,74.32A1.5,1.5,0,0,1,63.89,74.76Z"/><path class="cls-1" d="M80.15,74.19a1.49,1.49,0,0,1-.75-.2L46.7,55.11a1.5,1.5,0,1,1,1.5-2.6L80.9,71.39a1.5,1.5,0,0,1-.75,2.8Z"/><path class="cls-1" d="M41.17,57a13.83,13.83,0,0,1-6.92-1.84,1.5,1.5,0,0,1-.55-2L40,42.26a1.5,1.5,0,0,1,2-.55A14,14,0,0,1,48.95,53.8a1.5,1.5,0,0,1-.75,1.31A14.14,14.14,0,0,1,41.17,57ZM37.1,53.2a10.85,10.85,0,0,0,8.81-.28,10.85,10.85,0,0,0-4.16-7.77Z"/></svg>