<svg id="Calque_1" data-name="Calque 1" xmlns="http://www.w3.org/2000/svg" viewBox="0 0 80 80"><defs><style>.cls-1{fill:none;stroke:currentColor;stroke-linecap:round;stroke-linejoin:round;stroke-width:3px;}</style></defs><title>RencontresThematiques_S</title><line class="cls-1" x1="38.85" y1="58.99" x2="33.77" y2="70"/><line class="cls-1" x1="44.79" y1="64.92" x2="33.77" y2="70"/><polyline class="cls-1" points="38.85 58.99 64.06 33.77 70 39.71 44.79 64.92"/><polyline class="cls-1" points="50 47.84 50 10 10 10 10 60 38.38 60"/><line class="cls-1" x1="60.06" y1="40.17" x2="63.6" y2="43.71"/><line class="cls-1" x1="27.7" y1="20" x2="41.5" y2="20"/><line class="cls-1" x1="27.7" y1="30" x2="41.5" y2="30"/><line class="cls-1" x1="27.7" y1="40" x2="41.5" y2="40"/><circle class="cls-1" cx="19.93" cy="20" r="1.14" transform="translate(-7.33 12.64) rotate(-30)"/><circle class="cls-1" cx="19.93" cy="30" r="1.14" transform="translate(-12.33 13.98) rotate(-30)"/><circle class="cls-1" cx="19.93" cy="40" r="1.14" transform="translate(-17.33 15.32) rotate(-30)"/></svg>