<svg viewBox="0 0 80 80" fill="none" xmlns="http://www.w3.org/2000/svg">
  <path d="M15.5 13C16.3284 13 17 13.6716 17 14.5V21.3182C17 21.6339 17.1045 21.8009 17.1821 21.8817C17.2713 21.9745 17.3655 22 17.42 22H22V14.5C22 13.6716 22.6716 13 23.5 13C24.3284 13 25 13.6716 25 14.5V22H30V14.5C30 13.6716 30.6716 13 31.5 13C32.3284 13 33 13.6716 33 14.5V22H37.58C37.6345 22 37.7287 21.9745 37.8179 21.8817C37.8955 21.8009 38 21.6339 38 21.3182V14.5C38 13.6716 38.6716 13 39.5 13C40.3284 13 41 13.6716 41 14.5V21.3182C41 23.4519 39.4256 25 37.58 25H29V64.5C29 65.3284 28.3284 66 27.5 66C26.6716 66 26 65.3284 26 64.5V25H17.42C15.5744 25 14 23.4519 14 21.3182V14.5C14 13.6716 14.6716 13 15.5 13Z" fill="currentColor"/>
  <path fill-rule="evenodd" clip-rule="evenodd" d="M45 40.5C45 39.6716 45.6716 39 46.5 39H65.5C66.3284 39 67 39.6716 67 40.5C67 41.3284 66.3284 42 65.5 42H64.002V64.5C64.002 65.3284 63.3304 66 62.502 66H46.5C45.6716 66 45 65.3284 45 64.5V46H39V56.5C39 57.3284 38.3284 58 37.5 58C36.6716 58 36 57.3284 36 56.5V44.5C36 43.6716 36.6716 43 37.5 43H45V40.5ZM48 63H61.002V42H48V63Z" fill="currentColor"/>
  <path fill-rule="evenodd" clip-rule="evenodd" d="M45 24C45 17.9249 49.9249 13 56 13C62.0751 13 67 17.9249 67 24C67 30.0751 62.0751 35 56 35C49.9249 35 45 30.0751 45 24ZM48.4371 21.385C53.8676 21.7981 58.202 26.1324 58.6152 31.5628C60.9297 30.7626 62.7626 28.9297 63.5628 26.6152C58.1324 26.202 53.7981 21.8676 53.385 16.4371C51.0703 17.2374 49.2374 19.0703 48.4371 21.385ZM56.3636 16.0081C56.5758 20.1243 59.8757 23.4243 63.9919 23.6366C63.8073 19.5075 60.4927 16.1928 56.3636 16.0081ZM55.6366 31.9919C55.4243 27.8757 52.1244 24.5758 48.0081 24.3636C48.1928 28.4927 51.5075 31.8073 55.6366 31.9919Z" fill="currentColor"/>
</svg>
