<svg id="Calque_1" data-name="Calque 1" xmlns="http://www.w3.org/2000/svg" viewBox="0 0 80 80">
  <defs>
    <style>
      .cls-1{fill:currentColor}
    </style>
  </defs>
  <path class="cls-1" d="M52.44 71.5a3.56 3.56 0 0 1-2.54-1L34.42 55a3.58 3.58 0 0 1 0-5.07L49.9 34.42a3.67 3.67 0 0 1 5.07 0L70.45 49.9a3.59 3.59 0 0 1 0 5.07L55 70.45a3.56 3.56 0 0 1-2.56 1.05zM52 68.33a.59.59 0 0 0 .83 0l15.5-15.48a.59.59 0 0 0 0-.83L52.85 36.55a.59.59 0 0 0-.83 0L36.55 52a.58.58 0 0 0 0 .83z"/>
  <path class="cls-1" d="M52.44 55.07a2.64 2.64 0 0 1-1.86-4.5 2.7 2.7 0 0 1 3.73 0 2.64 2.64 0 0 1 0 3.73 2.62 2.62 0 0 1-1.87.77zm-.26-2.89a.36.36 0 0 0 0 .51.38.38 0 0 0 .51 0 .36.36 0 0 0 0-.51.38.38 0 0 0-.51 0zM52.44 47a2.64 2.64 0 0 1-1.86-4.5 2.7 2.7 0 0 1 3.73 0 2.64 2.64 0 0 1 0 3.73 2.62 2.62 0 0 1-1.87.77zm-.26-2.89a.36.36 0 0 0 0 .51.38.38 0 0 0 .51 0 .36.36 0 0 0 0-.51.38.38 0 0 0-.51.03zM60.48 55.07a2.64 2.64 0 1 1 1.87-.77 2.63 2.63 0 0 1-1.87.77zm.8-1.83zm-1.06-1.06a.36.36 0 0 0 .51.51zm.26-.11a.36.36 0 0 0-.26.11l.51.51a.36.36 0 0 0 0-.51.36.36 0 0 0-.25-.11zM44.4 55.07a2.64 2.64 0 1 1 1.87-.77 2.63 2.63 0 0 1-1.87.77zm.8-1.83zm-1.06-1.06a.36.36 0 0 0 .51.51zm.26-.11a.36.36 0 0 0-.26.11l.51.51a.36.36 0 0 0 0-.51.36.36 0 0 0-.25-.11zM52.44 63.11a2.64 2.64 0 0 1-1.86-4.5 2.7 2.7 0 0 1 3.73 0 2.64 2.64 0 0 1 0 3.73 2.62 2.62 0 0 1-1.87.77zm-.26-2.89a.36.36 0 0 0 0 .51.38.38 0 0 0 .51 0 .36.36 0 0 0 0-.51.38.38 0 0 0-.51 0zM23 45.57a3.59 3.59 0 0 1-3.11-1.79L9 24.82a3.59 3.59 0 0 1 1.31-4.9L29.25 9a3.58 3.58 0 0 1 4.9 1.31l10.94 19a3.58 3.58 0 0 1-1.31 4.9l-19 10.94a3.56 3.56 0 0 1-1.78.42zm8-34.07a.58.58 0 0 0-.29.08l-19 10.94a.59.59 0 0 0-.21.8l10.94 19a.59.59 0 0 0 .8.21l19-10.94a.58.58 0 0 0 .21-.8l-10.94-19a.58.58 0 0 0-.35-.27zm12 21.35z"/>
  <path class="cls-1" d="M27 29.67a2.64 2.64 0 0 1-1.32-4.92 2.64 2.64 0 0 1 3.6 1 2.64 2.64 0 0 1-2.28 4zm-.32-2.46a.36.36 0 1 0 .13-.49.36.36 0 0 0-.17.22.37.37 0 0 0 .08.28zm0 0zM19.27 27.59a2.64 2.64 0 1 1 2.28-4 2.64 2.64 0 0 1-2.28 4zm.31-2.82l-.63.36a.36.36 0 0 0 .63-.36zm-.32-.18a.36.36 0 0 0-.31.54l.63-.36a.37.37 0 0 0-.31-.18zM34.81 31.75a2.64 2.64 0 0 1-2.29-1.32 2.64 2.64 0 0 1 4.57-2.64 2.64 2.64 0 0 1-2.28 4zm-.32-2.46a.36.36 0 1 0 0-.27.37.37 0 0 0 0 .28zm0 0z"/>
</svg>
