<svg id="Calque_1" data-name="Calque 1" xmlns="http://www.w3.org/2000/svg" viewBox="0 0 140 140"><defs><style>.cls-1{fill:currentColor;}</style></defs><title>Conferences_L</title><path class="cls-1" d="M100,71.5a1.5,1.5,0,0,1-1.06-.44l-30-30A1.5,1.5,0,0,1,68.5,40,31.5,31.5,0,1,1,100,71.5ZM71.51,39.39l29.11,29.11A28.5,28.5,0,1,0,71.51,39.39Z"/><path class="cls-1" d="M100.13,71.63a1.5,1.5,0,0,1-1.5-1.5v-60a1.5,1.5,0,1,1,3,0v60A1.5,1.5,0,0,1,100.13,71.63Z"/><path class="cls-1" d="M85.13,56.37a1.5,1.5,0,0,1-1.5-1.5V14a1.5,1.5,0,0,1,1.5-1.5h0a1.5,1.5,0,0,1,1.5,1.5V54.87A1.5,1.5,0,0,1,85.13,56.37Z"/><path class="cls-1" d="M115.13,67.43a1.5,1.5,0,0,1-1.5-1.5V14.36a1.5,1.5,0,0,1,3,0V65.93A1.5,1.5,0,0,1,115.13,67.43Z"/><path class="cls-1" d="M100.13,41.37H69.87a1.5,1.5,0,0,1,0-3h60a1.5,1.5,0,0,1,0,3Z"/><path class="cls-1" d="M85.13,56.37a1.5,1.5,0,0,1,0-3H126a1.5,1.5,0,0,1,0,3Z"/><path class="cls-1" d="M100.13,26.37H74.07a1.5,1.5,0,0,1,0-3h51.57a1.5,1.5,0,0,1,0,3Z"/><path class="cls-1" d="M32,130.75a1.5,1.5,0,0,1-1.06-.44L9.69,109.09a1.5,1.5,0,0,1-.08-2l52.17-61a1.5,1.5,0,0,1,1.08-.52A1.52,1.52,0,0,1,64,46L94,76a1.5,1.5,0,0,1-.09,2.2l-61,52.17A1.49,1.49,0,0,1,32,130.75ZM12.8,108,32,127.2,90.72,77,63,49.28Z"/><path class="cls-1" d="M92.93,78.57a1.5,1.5,0,0,1-1.06-.44l-30-30a1.5,1.5,0,0,1,0-2.12l7.07-7.07a1.5,1.5,0,0,1,2.12,2.12l-6,6L92.93,75l6-6a1.5,1.5,0,1,1,2.12,2.12L94,78.13A1.5,1.5,0,0,1,92.93,78.57Z"/><path class="cls-1" d="M10,131.5a1.5,1.5,0,0,1-1.06-2.56L20.3,117.58a1.5,1.5,0,0,1,2.12,2.12L11.06,131.06A1.5,1.5,0,0,1,10,131.5Z"/><path class="cls-1" d="M60.25,88.32a1.5,1.5,0,0,1-1.06-.44l-7.07-7.07a1.5,1.5,0,0,1,0-2.12L66.26,64.55a1.5,1.5,0,0,1,2.12,0l7.07,7.07a1.5,1.5,0,0,1,0,2.12L61.31,87.88A1.5,1.5,0,0,1,60.25,88.32Zm-5-8.57,5,5,12-12-5-5Z"/><path class="cls-1" d="M65.91,82.66a1.5,1.5,0,0,1-1.06-.44l-7.07-7.07A1.5,1.5,0,0,1,59.9,73L67,80.1a1.5,1.5,0,0,1-1.06,2.56Z"/></svg>