<svg id="Calque_1" data-name="Calque 1" xmlns="http://www.w3.org/2000/svg" viewBox="0 0 120 120"><defs><style>.cls-1{fill:currentColor;}</style></defs><title>Culture</title><path class="cls-1" d="M60,111.5A51.5,51.5,0,1,1,111.5,60,51.56,51.56,0,0,1,60,111.5Zm0-100A48.5,48.5,0,1,0,108.5,60,48.55,48.55,0,0,0,60,11.5Z"/><circle class="cls-2" cx="60" cy="60" r="51.5"/><path class="cls-1" d="M84.67,83.17H35.1a1.5,1.5,0,0,1,0-3H84.67a1.5,1.5,0,0,1,0,3Z"/><path class="cls-1" d="M80.77,59.5H39.23a1.5,1.5,0,0,1,0-3H80.77a1.5,1.5,0,0,1,0,3Z"/><path class="cls-1" d="M79.92,50.12H39.85a1.5,1.5,0,0,1,0-3H79.92a1.5,1.5,0,0,1,0,3Z"/><path class="cls-1" d="M79.91,50.12a1.49,1.49,0,0,1-1-.35l-20-17a1.5,1.5,0,0,1,1.94-2.29l20,17a1.5,1.5,0,0,1-1,2.65Z"/><path class="cls-1" d="M39.85,50.12a1.5,1.5,0,0,1-1-2.65l20-17a1.5,1.5,0,1,1,1.94,2.29l-20,17A1.49,1.49,0,0,1,39.85,50.12Z"/><path class="cls-1" d="M59.88,83.17a1.5,1.5,0,0,1-1.5-1.5V58a1.5,1.5,0,0,1,3,0V81.67A1.5,1.5,0,0,1,59.88,83.17Z"/><path class="cls-1" d="M46.69,83.17a1.5,1.5,0,0,1-1.5-1.5V58a1.5,1.5,0,0,1,3,0V81.67A1.5,1.5,0,0,1,46.69,83.17Z"/><path class="cls-1" d="M73.07,83.17a1.5,1.5,0,0,1-1.5-1.5V58a1.5,1.5,0,0,1,3,0V81.67A1.5,1.5,0,0,1,73.07,83.17Z"/><path class="cls-1" d="M85,63.73a1.5,1.5,0,0,1-1.5-1.5,2.73,2.73,0,0,0-2.73-2.73,1.5,1.5,0,0,1,0-3,5.74,5.74,0,0,1,5.73,5.73A1.5,1.5,0,0,1,85,63.73Z"/><path class="cls-1" d="M35,63.73a1.5,1.5,0,0,1-1.5-1.5,5.74,5.74,0,0,1,5.73-5.73,1.5,1.5,0,0,1,0,3,2.73,2.73,0,0,0-2.73,2.73A1.5,1.5,0,0,1,35,63.73Z"/></svg>