<svg fill="none" xmlns="http://www.w3.org/2000/svg" viewBox="0 0 62 62">
  <path fill-rule="evenodd" clip-rule="evenodd" d="M.25 4A3.75 3.75 0 014 .25h54A3.75 3.75 0 0161.75 4v37.75H.25V4zM4 1.75A2.25 2.25 0 001.75 4v36.25h58.5V4A2.25 2.25 0 0058 1.75H4z" fill="currentColor"/>
  <path fill-rule="evenodd" clip-rule="evenodd" d="M4.25 4.25h53.5v33.5H4.25V4.25zm1.5 1.5v30.5h50.5V5.75H5.75zM.25 46A3.75 3.75 0 004 49.75h54A3.75 3.75 0 0061.75 46v-5.75H.25V46zM4 48.25A2.25 2.25 0 011.75 46v-4.25h58.5V46A2.25 2.25 0 0158 48.25H4z" fill="currentColor"/>
  <path fill-rule="evenodd" clip-rule="evenodd" d="M22.25 48.25h17.5v9.5h-17.5v-9.5zm1.5 1.5v6.5h14.5v-6.5h-14.5z" fill="currentColor"/>
  <path fill-rule="evenodd" clip-rule="evenodd" d="M16.25 59A2.75 2.75 0 0019 61.75h24a2.75 2.75 0 100-5.5H19A2.75 2.75 0 0016.25 59zM19 60.25a1.25 1.25 0 110-2.5h24a1.25 1.25 0 110 2.5H19zM31 27.75a1.25 1.25 0 100 2.5 1.25 1.25 0 000-2.5zM28.25 29a2.75 2.75 0 115.5 0 2.75 2.75 0 01-5.5 0zM25.25 16.9c0-3.13 2.589-5.65 5.7-5.65 3.165 0 5.8 2.565 5.8 5.75v.833a4.917 4.917 0 01-4.917 4.917.083.083 0 00-.083.083V24a.75.75 0 01-1.5 0v-1.167c0-.874.709-1.583 1.583-1.583a3.417 3.417 0 003.417-3.417V17c0-2.337-1.944-4.25-4.3-4.25-2.302 0-4.2 1.868-4.2 4.15v.1a.75.75 0 01-1.5 0v-.1z" fill="currentColor"/>
</svg>
