<svg id="Calque_1" data-name="Calque 1" xmlns="http://www.w3.org/2000/svg" viewBox="0 0 120 120"><defs><style>.cls-1{fill:currentColor;}</style></defs><title>Cuisine</title><path class="cls-1" d="M60,111.5A51.5,51.5,0,1,1,111.5,60,51.56,51.56,0,0,1,60,111.5Zm0-100A48.5,48.5,0,1,0,108.5,60,48.55,48.55,0,0,0,60,11.5Z"/><circle class="cls-2" cx="60" cy="60" r="51.5"/><path class="cls-1" d="M65.93,76.84A7.87,7.87,0,0,1,58.07,69V62.61a4.65,4.65,0,0,1,1.32-3.25l4-4.9a3.06,3.06,0,0,1,.32-.38l0,0a3.13,3.13,0,0,1,3.37-.64l7.63,3.45a6.25,6.25,0,0,1,3.8,5.77,6.33,6.33,0,0,1-.13,1.26,6.22,6.22,0,0,1-.37,1.18,6.29,6.29,0,0,1-.58,1.07l-5.06,7.27A7.85,7.85,0,0,1,65.93,76.84Zm-.16-20.53h0l-4.11,5-.1.11a1.67,1.67,0,0,0-.49,1.19V69A4.86,4.86,0,0,0,70,71.7L75,64.43a3.28,3.28,0,0,0,.29-.54,3.23,3.23,0,0,0,.19-.61,3.31,3.31,0,0,0,.07-.66,3.27,3.27,0,0,0-2-3l-7.65-3.46Z"/><path class="cls-1" d="M52.08,60a6.54,6.54,0,0,1-6.54-6.56l0-10.11a1.5,1.5,0,0,1,1.5-1.5h0a1.5,1.5,0,0,1,1.5,1.5l0,10.11a3.52,3.52,0,0,0,1,2.51,3.62,3.62,0,0,0,5,0,3.52,3.52,0,0,0,1-2.51l0-10.11a1.5,1.5,0,0,1,1.5-1.5h0a1.5,1.5,0,0,1,1.5,1.5l0,10.11A6.54,6.54,0,0,1,52.08,60Z"/><path class="cls-1" d="M52.08,85.22a1.5,1.5,0,0,1-1.5-1.5V43.33a1.5,1.5,0,0,1,3,0V83.72A1.5,1.5,0,0,1,52.08,85.22Z"/><path class="cls-1" d="M39.44,66.5H35A1.5,1.5,0,0,1,33.5,65V43.33a1.5,1.5,0,0,1,2.89-.56l7.14,17.67a4.41,4.41,0,0,1-4.09,6.06Zm-2.94-3h2.94a1.41,1.41,0,0,0,1.3-1.93h0L36.5,51.05Z"/><path class="cls-1" d="M35,82.33a1.5,1.5,0,0,1-1.5-1.5V65a1.5,1.5,0,0,1,3,0V80.83A1.5,1.5,0,0,1,35,82.33Z"/><path class="cls-1" d="M60,86.5A26.57,26.57,0,0,1,34,65.3,1.5,1.5,0,0,1,37,64.7,23.55,23.55,0,1,0,38.77,50a1.5,1.5,0,1,1-2.71-1.28A26.49,26.49,0,1,1,60,86.5Z"/></svg>
