<svg id="Calque_1" data-name="Calque 1" xmlns="http://www.w3.org/2000/svg" viewBox="0 0 140 140">
  <defs>
    <style>
      .cls-1{fill:currentColor}
    </style>
  </defs>
  <path class="cls-1" d="M30 101.5H10a1.5 1.5 0 0 1 0-3h20a1.5 1.5 0 0 1 0 3z"/>
  <path class="cls-1" d="M20 111.5a1.5 1.5 0 0 1-1.5-1.5V90a1.5 1.5 0 0 1 3 0v20a1.5 1.5 0 0 1-1.5 1.5zM120 111.5a1.5 1.5 0 0 1-1.5-1.5V90a1.5 1.5 0 0 1 3 0v20a1.5 1.5 0 0 1-1.5 1.5z"/>
  <path class="cls-1" d="M130 101.5h-20a1.5 1.5 0 0 1 0-3h20a1.5 1.5 0 0 1 0 3zM90 101.5H50a1.5 1.5 0 0 1 0-3h40a1.5 1.5 0 0 1 0 3zM35 131.5a6.51 6.51 0 0 1-6.5-6.5V75a6.5 6.5 0 0 1 13 0v50a6.51 6.51 0 0 1-6.5 6.5zm0-60a3.5 3.5 0 0 0-3.5 3.5v50a3.5 3.5 0 0 0 7 0V75a3.5 3.5 0 0 0-3.5-3.5z"/>
  <path class="cls-1" d="M45 131.5a6.51 6.51 0 0 1-6.5-6.5V75a6.5 6.5 0 0 1 13 0v50a6.51 6.51 0 0 1-6.5 6.5zm0-60a3.5 3.5 0 0 0-3.5 3.5v50a3.5 3.5 0 0 0 7 0V75a3.5 3.5 0 0 0-3.5-3.5zM105 131.5a6.51 6.51 0 0 1-6.5-6.5V75a6.5 6.5 0 0 1 13 0v50a6.51 6.51 0 0 1-6.5 6.5zm0-60a3.5 3.5 0 0 0-3.5 3.5v50a3.5 3.5 0 0 0 7 0V75a3.5 3.5 0 0 0-3.5-3.5z"/>
  <path class="cls-1" d="M95 131.5a6.51 6.51 0 0 1-6.5-6.5V75a6.5 6.5 0 0 1 13 0v50a6.51 6.51 0 0 1-6.5 6.5zm0-60a3.5 3.5 0 0 0-3.5 3.5v50a3.5 3.5 0 0 0 7 0V75a3.5 3.5 0 0 0-3.5-3.5zM66.17 31.51a11.5 11.5 0 0 1-3-22.61 11.5 11.5 0 1 1 6 22.22 11.55 11.55 0 0 1-3 .39zm0-20a8.54 8.54 0 0 0-2.21.29 8.45 8.45 0 1 0 2.21-.29zm-2.6-1.16z"/>
  <path class="cls-1" d="M61.7 43.41a1.5 1.5 0 0 1-1.45-1.11L55.08 23a1.5 1.5 0 0 1 2.92-.8l5.18 19.32a1.5 1.5 0 0 1-1.45 1.89z"/>
  <path class="cls-1" d="M70.77 82.22a6.51 6.51 0 0 1-6.28-4.82l-7.76-29a6.5 6.5 0 0 1 12.56-3.36L77 74a6.51 6.51 0 0 1-4.6 8 6.48 6.48 0 0 1-1.63.22zm1.29-1.67zM63 43.24a3.51 3.51 0 0 0-3.38 4.41l7.76 29a3.51 3.51 0 0 0 4.29 2.48 3.5 3.5 0 0 0 2.47-4.29l-7.76-29a3.52 3.52 0 0 0-3.38-2.6zM88.51 22.84a1.49 1.49 0 0 1-.75-.2l-17.32-10a1.5 1.5 0 0 1 1.5-2.6L89.26 20a1.5 1.5 0 0 1-.75 2.8z"/>
  <path class="cls-1" d="M118.8 45.34a6.43 6.43 0 0 1-3.23-.87l-26-15a6.5 6.5 0 0 1 6.5-11.26l26 15a6.51 6.51 0 0 1 2.38 8.88 6.45 6.45 0 0 1-3.95 3 6.58 6.58 0 0 1-1.7.25zm-25.94-25a3.55 3.55 0 0 0-.92.12 3.5 3.5 0 0 0-.85 6.41l26 15a3.51 3.51 0 0 0 4.78-1.28 3.5 3.5 0 0 0-1.28-4.78l-26-15a3.46 3.46 0 0 0-1.74-.46zm30.3 21z"/>
</svg>
