<svg id="Calque_1" data-name="Calque 1" xmlns="http://www.w3.org/2000/svg" viewBox="0 0 80 80"><defs><style>.cls-1{fill:none;stroke:currentColor;stroke-linecap:round;stroke-linejoin:round;stroke-width:3px;}</style></defs><title>Entraide_S</title><path class="cls-1" d="M36.59,60a5,5,0,0,0-5-5,5,5,0,0,0-5-5,5,5,0,1,0-5,5,5,5,0,0,0,5,5,5,5,0,0,0,5,5,5,5,0,1,0,5-5Z"/><path class="cls-1" d="M70,30.13,62.83,37.3h0a6.19,6.19,0,0,1,0,8.75l-.61.61"/><path class="cls-1" d="M40,68.66A5,5,0,0,0,48.42,65a5,5,0,0,0,5-5,5,5,0,0,0,5-5,5,5,0,0,0,3.42-8.69L49.36,33.74h0l-8.79,8.8a5.78,5.78,0,0,1-8.17,0h0a5.78,5.78,0,0,1,0-8.17l8.89-8.89a5.75,5.75,0,0,1,8.13,0h0L64.75,10.15"/><path class="cls-1" d="M10,30.13l7.17,7.17h0a6.19,6.19,0,0,0,0,8.75l.58.58"/><path class="cls-1" d="M40,26.77l-1.29-1.29a5.75,5.75,0,0,0-8.13,0h0L15.1,10"/></svg>