<svg id="Calque_1" data-name="Calque 1" xmlns="http://www.w3.org/2000/svg" viewBox="0 0 140 140">
  <defs>
    <style>
      .cls-1{fill:currentColor}
    </style>
  </defs>
  <path class="cls-1" d="M119.82 131.5a1.5 1.5 0 0 1-.39-.05l-84.1-22.54a1.5 1.5 0 1 1 .78-2.9l84.1 22.54a1.5 1.5 0 0 1-.39 2.95z"/>
  <path class="cls-1" d="M119.82 131.5a1.5 1.5 0 0 1-1.45-1.89 27.52 27.52 0 1 0-53.17-14.25 1.5 1.5 0 0 1-2.9-.78 30.52 30.52 0 1 1 59 15.8 1.5 1.5 0 0 1-1.48 1.12z"/>
  <path class="cls-1" d="M99.3 96a1.5 1.5 0 0 1-1.45-1.89l2.5-9.35a1.5 1.5 0 0 1 2.9.78l-2.5 9.35A1.5 1.5 0 0 1 99.3 96z"/>
  <path class="cls-1" d="M110.48 129a1.5 1.5 0 0 1-1.45-1.89c3.93-14.66-.61-28.66-10.12-31.21-4.49-1.2-9.48.34-14 4.35-4.73 4.16-8.4 10.41-10.33 17.62a1.5 1.5 0 0 1-2.9-.78c2.08-7.77 6.08-14.55 11.25-19.1 5.34-4.69 11.3-6.46 16.79-5 11.1 3 16.59 18.62 12.24 34.88a1.5 1.5 0 0 1-1.48 1.13z"/>
  <path class="cls-1" d="M101.13 126.49a1.5 1.5 0 0 1-1.45-1.89c4.41-16.47 2.53-27.82-.77-28.7s-10.61 8-15 24.47a1.5 1.5 0 0 1-2.9-.78C84.82 105.3 92.68 91.13 99.69 93s6.72 18.08 2.89 32.38a1.5 1.5 0 0 1-1.45 1.11zM125.16 97.71a6.33 6.33 0 0 1-1.64-.22 63.75 63.75 0 0 1-22.14-10.82A63.78 63.78 0 0 1 76.8 85a6.34 6.34 0 0 1 3.28-12.24 63.75 63.75 0 0 1 22.14 10.82 63.75 63.75 0 0 1 24.58 1.7 6.34 6.34 0 0 1-1.64 12.46zm-19.28-11.5a60.83 60.83 0 0 0 18.42 8.39 3.34 3.34 0 0 0 1.7-6.45 60.84 60.84 0 0 0-20.12-1.94zm-28.3-4.13A60.83 60.83 0 0 0 97.72 84a60.83 60.83 0 0 0-18.42-8.37 3.34 3.34 0 0 0-1.73 6.45zM45.37 47.1a1.5 1.5 0 0 1-.37-2.95l68.29-18.3a1.5 1.5 0 1 1 .78 2.9L45.76 47a1.5 1.5 0 0 1-.39.1zM36.55 64.49a1.5 1.5 0 0 1-.39-2.95l93.45-25a1.5 1.5 0 1 1 .78 2.9l-93.45 25a1.5 1.5 0 0 1-.39.05z"/>
  <path class="cls-1" d="M44 62.48h-.1a1.5 1.5 0 0 1-1.36-1.62l2.53-28.91a16 16 0 0 1 17.34-14.57l12.29 1.08 10.11-7.08a16 16 0 0 1 22.3 3.93l16.65 23.78a1.5 1.5 0 0 1-2.46 1.72L104.65 17a13 13 0 0 0-18.12-3.19L76 21.23a1.48 1.48 0 0 1-1 .27l-12.85-1.13a13 13 0 0 0-14.1 11.83l-2.53 28.91A1.5 1.5 0 0 1 44 62.48z"/>
  <path class="cls-1" d="M39 47.82A30.56 30.56 0 0 1 8.5 17.29a1.5 1.5 0 0 1 1.5-1.5 37.55 37.55 0 0 1 36.84 29.48 1.5 1.5 0 0 1-1.14 1.79 30.68 30.68 0 0 1-6.7.76zm-27.48-29a27.56 27.56 0 0 0 27.48 26 27.08 27.08 0 0 0 4.51-.39 34.53 34.53 0 0 0-31.97-25.6z"/>
  <path class="cls-1" d="M29.43 46.16A1.5 1.5 0 0 1 28 44.09a15.94 15.94 0 0 1 13.38-9.88 1.5 1.5 0 0 1 .27 3 13 13 0 0 0-10.87 8 1.5 1.5 0 0 1-1.35.95zM21.77 42.09h-.28a1.5 1.5 0 0 1-1.19-1.75A16 16 0 0 1 36 27.3h.5a1.5 1.5 0 0 1-.09 3H36a13 13 0 0 0-12.76 10.57 1.5 1.5 0 0 1-1.47 1.22zM15 35a1.5 1.5 0 0 1-1.47-1.8 16.1 16.1 0 0 1 14.25-12.7 1.5 1.5 0 0 1 .27 3 13.08 13.08 0 0 0-11.62 10.33A1.5 1.5 0 0 1 15 35z"/>
</svg>
