<svg viewBox="0 0 107 106" fill="none" xmlns="http://www.w3.org/2000/svg">
<g filter="url(#filter0_d)">
<circle cx="52" cy="51" r="50" fill="#74B1FF"/>
<circle cx="52" cy="51" r="50" stroke="white" stroke-width="1.5"/>
</g>
<circle cx="72" cy="28" r="7" stroke="white" stroke-width="1.5"/>
<circle cx="32" cy="28" r="7" stroke="white" stroke-width="1.5"/>
<path d="M82 37.8241C78.9556 39.2215 75.5685 40.0005 71.9994 40.0005C63.7653 40.0005 56.4981 35.8571 52.17 29.5254C51.8782 29.0986 51.5999 28.662 51.3357 28.2162C50.3503 26.5532 48.2033 26.0041 46.5404 26.9896C44.8775 27.9751 44.3283 30.122 45.3138 31.7849C45.6551 32.3609 46.0145 32.9247 46.3911 33.4757C50.1345 38.9519 55.5953 43.1702 62 45.3519V77.5005C62 79.4335 63.567 81.0005 65.5 81.0005C67.433 81.0005 69 79.4335 69 77.5005V62.0005H75V77.5005C75 79.4335 76.567 81.0005 78.5 81.0005C80.433 81.0005 82 79.4335 82 77.5005V45.3519" stroke="white" stroke-width="1.5" stroke-linecap="round" stroke-linejoin="round"/>
<path d="M22 37.8241C25.0444 39.2215 28.4315 40.0005 32.0006 40.0005C37.7609 40.0005 43.0481 37.9727 47.1868 34.5865C48.5941 36.4624 50.21 38.174 52 39.6868C49.0805 42.1541 45.6976 44.0924 42 45.3519V77.5005C42 79.4335 40.433 81.0005 38.5 81.0005C36.567 81.0005 35 79.4335 35 77.5005V62.0005H29V77.5005C29 79.4335 27.433 81.0005 25.5 81.0005C23.567 81.0005 22 79.4335 22 77.5005V45.3519M52 29.2733C52.2303 28.9271 52.4518 28.5746 52.6643 28.2162C53.6497 26.5532 55.7967 26.0041 57.4596 26.9896C59.1225 27.9751 59.6717 30.122 58.6862 31.7849C58.3449 32.3609 57.9855 32.9247 57.6089 33.4757C57.3517 33.852 57.0863 34.2223 56.8132 34.5865C55.0358 33.1323 53.4703 31.4276 52.17 29.5254C52.1128 29.4418 52.0561 29.3577 52 29.2733Z" stroke="white" stroke-width="1.5" stroke-linecap="round" stroke-linejoin="round"/>
<defs>
<filter id="filter0_d" x="0.75" y="0.25" width="105.5" height="105.5" filterUnits="userSpaceOnUse" color-interpolation-filters="sRGB">
<feFlood flood-opacity="0" result="BackgroundImageFix"/>
<feColorMatrix in="SourceAlpha" type="matrix" values="0 0 0 0 0 0 0 0 0 0 0 0 0 0 0 0 0 0 127 0" result="hardAlpha"/>
<feOffset dx="1.5" dy="2"/>
<feGaussianBlur stdDeviation="1"/>
<feColorMatrix type="matrix" values="0 0 0 0 0.129412 0 0 0 0 0.129412 0 0 0 0 0.129412 0 0 0 0.3 0"/>
<feBlend mode="normal" in2="BackgroundImageFix" result="effect1_dropShadow"/>
<feBlend mode="normal" in="SourceGraphic" in2="effect1_dropShadow" result="shape"/>
</filter>
</defs>
</svg>
