<svg id="Calque_1" data-name="Calque 1" xmlns="http://www.w3.org/2000/svg" viewBox="0 0 80 80"><defs><style>.cls-1{fill:none;stroke:currentColor;stroke-linecap:round;stroke-linejoin:round;stroke-width:3px;}</style></defs><title>JeuxEtLoisirs_S</title><rect class="cls-1" x="39.41" y="39.41" width="26.06" height="26.06" rx="2.08" ry="2.08" transform="translate(52.44 -21.72) rotate(45)"/><circle class="cls-1" cx="52.44" cy="52.44" r="1.14" transform="translate(-21.72 52.44) rotate(-45)"/><circle class="cls-1" cx="52.44" cy="44.4" r="1.14" transform="translate(-16.03 50.08) rotate(-45)"/><circle class="cls-1" cx="60.48" cy="52.44" r="1.14" transform="translate(-19.37 58.12) rotate(-45)"/><circle class="cls-1" cx="44.4" cy="52.44" r="1.14" transform="translate(-24.08 46.75) rotate(-45)"/><circle class="cls-1" cx="52.44" cy="60.48" r="1.14" transform="translate(-27.41 54.79) rotate(-45)"/><rect class="cls-1" x="14.01" y="14.01" width="26.06" height="26.06" rx="2.08" ry="2.08" transform="translate(-9.9 17.14) rotate(-30)"/><circle class="cls-1" cx="27.04" cy="27.04" r="1.14" transform="translate(-9.9 17.14) rotate(-30)"/><circle class="cls-1" cx="19.27" cy="24.95" r="1.14" transform="translate(-9.9 12.98) rotate(-30)"/><circle class="cls-1" cx="34.8" cy="29.12" r="1.14" transform="translate(-9.9 21.3) rotate(-30)"/></svg>