<svg viewBox="0 0 80 80" fill="none" xmlns="http://www.w3.org/2000/svg">
<path d="M35 28.4596C35 25.4444 37.4443 23 40.4596 23C43.5195 23 46 25.4805 46 28.5404V28.7553C46 31.6519 43.6519 34 40.7553 34H40.5C39.6716 34 39 33.3284 39 32.5C39 31.6715 39.6716 31 40.5 31H40.7553C41.995 31 43 29.995 43 28.7553V28.5404C43 27.1374 41.8626 26 40.4596 26C39.1012 26 38 27.1012 38 28.4596V28.5C38 29.3285 37.3284 30 36.5 30C35.6716 30 35 29.3285 35 28.5V28.4596Z" fill="currentColor"/>
<path d="M42 37C42 36.1716 41.3284 35.5 40.5 35.5C39.6716 35.5 39 36.1716 39 37V37.025C39 37.8534 39.6716 38.525 40.5 38.525C41.3284 38.525 42 37.8534 42 37.025V37Z" fill="currentColor"/>
<path fill-rule="evenodd" clip-rule="evenodd" d="M19 19.5C19 18.6716 19.6716 18 20.5 18H60.5C61.3284 18 62 18.6716 62 19.5V41.5C62 42.3284 61.3284 43 60.5 43H20.5C19.6716 43 19 42.3284 19 41.5V19.5ZM22 21V40H59V21H22Z" fill="currentColor"/>
<path fill-rule="evenodd" clip-rule="evenodd" d="M18 13C15.7909 13 14 14.7909 14 17V52C14 54.2091 15.7909 56 18 56H34V63H28.8337C28.0053 63 27.3337 63.6716 27.3337 64.5C27.3337 65.3284 28.0053 66 28.8337 66H52.1671C52.9955 66 53.6671 65.3284 53.6671 64.5C53.6671 63.6716 52.9955 63 52.1671 63H47V56H63C65.2091 56 67 54.2091 67 52V17C67 14.7909 65.2091 13 63 13H18ZM44 63V56H37V63H44ZM63 53H18C17.4477 53 17 52.5523 17 52V49.3333H64V52C64 52.5523 63.5523 53 63 53ZM64 46V17C64 16.4477 63.5523 16 63 16H18C17.4477 16 17 16.4477 17 17V46H64Z" fill="currentColor"/>
</svg>
