<svg id="Calque_1" data-name="Calque 1" xmlns="http://www.w3.org/2000/svg" viewBox="0 0 120 120"><defs><style>.cls-1{fill:none;stroke:#212121;stroke-linecap:round;stroke-linejoin:round;stroke-width:3px;}</style></defs><title>EnPleinAir_O</title><circle class="cls-1" cx="60" cy="60" r="50"/><polyline class="cls-1" points="49.36 42.94 54.68 46.87 60 42.94 65.32 46.87 70.64 42.94"/><polyline class="cls-1" points="71.32 43.45 60 35 35 53.67"/><line class="cls-1" x1="60.89" y1="60.33" x2="67.56" y2="78.5"/><circle class="cls-1" cx="67.56" cy="78.5" r="6.5"/><circle class="cls-1" cx="41.5" cy="78.5" r="6.5"/><line class="cls-1" x1="41.5" y1="78.5" x2="52.67" y2="78.5"/><line class="cls-1" x1="63.14" y1="66.45" x2="52.67" y2="78.5"/><line class="cls-1" x1="49.26" y1="69.88" x2="46.58" y2="63.51"/><line class="cls-1" x1="60.16" y1="69.88" x2="49.26" y2="69.88"/><line class="cls-1" x1="42.85" y1="63.51" x2="50.3" y2="63.51"/><line class="cls-1" x1="66.62" y1="60.33" x2="60.89" y2="60.33"/><path class="cls-1" d="M85,35a7.22,7.22,0,0,0-7.09,5.36l-.52,0a7.13,7.13,0,0,0-7.29,7,6.92,6.92,0,0,0,3.95,6.17,6.65,6.65,0,0,0-.57,2.69,7.13,7.13,0,0,0,7.29,7A7.48,7.48,0,0,0,85,61.81"/><path class="cls-1" d="M85,61.81v18A5.16,5.16,0,0,1,79.84,85h0"/></svg>