<svg id="Calque_1" data-name="Calque 1" xmlns="http://www.w3.org/2000/svg" viewBox="0 0 80 80"><defs><style>.cls-1{fill:none;stroke:currentColor;stroke-linecap:round;stroke-linejoin:round;stroke-width:3px;}</style></defs><title>BoireUnPot_S</title><path class="cls-1" d="M28,42H61a0,0,0,0,1,0,0V53.52A16.48,16.48,0,0,1,44.49,70h0A16.48,16.48,0,0,1,28,53.52V42A0,0,0,0,1,28,42Z"/><path class="cls-1" d="M61,45.78h3.28a5.76,5.76,0,1,1,0,11.51H60.51"/><line class="cls-1" x1="22.24" y1="70" x2="70" y2="70"/><path class="cls-1" d="M53.43,19.6a3.83,3.83,0,1,1,0,7.65,3.83,3.83,0,0,0,0,7.65"/><path class="cls-1" d="M42.5,19.6a3.83,3.83,0,1,1,0,7.65,3.83,3.83,0,0,0,0,7.65"/><polyline class="cls-1" points="32.35 41.85 34.07 19.6 10 19.6 12.45 52.94 28.02 52.94"/><path class="cls-1" d="M40,10H32.76a5.71,5.71,0,0,0-5.7,5.31l-.3,4.29"/></svg>