<svg id="Calque_1" data-name="Calque 1" xmlns="http://www.w3.org/2000/svg" viewBox="0 0 120 120"><defs><style>.cls-1{fill:currentColor;}</style></defs><title>Entraide</title><path class="cls-1" d="M60,111.5A51.5,51.5,0,1,1,111.5,60,51.56,51.56,0,0,1,60,111.5Zm0-100A48.5,48.5,0,1,0,108.5,60,48.55,48.55,0,0,0,60,11.5Z"/><circle class="cls-2" cx="60" cy="60" r="51.5"/><path class="cls-1" d="M57.16,86.5a5.69,5.69,0,0,1-5.52-4.34A5.7,5.7,0,0,1,47.46,78a5.7,5.7,0,0,1-4.18-4.18,5.68,5.68,0,1,1,6.86-6.86,5.7,5.7,0,0,1,4.18,4.18A5.7,5.7,0,0,1,58.5,75.3a5.68,5.68,0,0,1-1.34,11.2ZM44.62,65.59a2.68,2.68,0,1,0,0,5.36,1.5,1.5,0,0,1,1.5,1.5,2.68,2.68,0,0,0,2.68,2.68,1.5,1.5,0,0,1,1.5,1.5A2.68,2.68,0,0,0,53,79.32a1.5,1.5,0,0,1,1.5,1.5,2.68,2.68,0,1,0,2.68-2.68,1.5,1.5,0,0,1-1.5-1.5A2.68,2.68,0,0,0,53,74a1.5,1.5,0,0,1-1.5-1.5,2.68,2.68,0,0,0-2.68-2.68,1.5,1.5,0,0,1-1.5-1.5A2.68,2.68,0,0,0,44.62,65.59Zm14,11h0Z"/><path class="cls-1" d="M78.51,67.05a1.5,1.5,0,0,1-1.06-2.56L78,64a3.66,3.66,0,0,0,0-5.17,1.5,1.5,0,0,1,0-2.12l6-6a1.5,1.5,0,0,1,2.12,2.12l-5,5a6.66,6.66,0,0,1-.94,8.23l-.51.51A1.5,1.5,0,0,1,78.51,67.05Z"/><path class="cls-1" d="M62.84,86.5A5.66,5.66,0,0,1,59,85a1.5,1.5,0,1,1,2-2.2,2.68,2.68,0,0,0,4.5-2,1.5,1.5,0,0,1,1.5-1.5,2.68,2.68,0,0,0,2.68-2.68,1.5,1.5,0,0,1,1.5-1.5,2.68,2.68,0,0,0,2.68-2.68,1.5,1.5,0,0,1,1.5-1.5,2.68,2.68,0,0,0,1.83-4.64L67.8,56.91l-6.27,6.27a6.31,6.31,0,1,1-8.93-8.93L60,46.84a6.3,6.3,0,0,1,7.71-.93L79.56,34.06a1.5,1.5,0,0,1,2.12,2.12L68.91,49a1.5,1.5,0,0,1-1.06.44h0A1.5,1.5,0,0,1,66.79,49a3.37,3.37,0,0,0-4.65,0l-7.41,7.41a3.31,3.31,0,1,0,4.69,4.69l7.33-7.33a1.54,1.54,0,0,1,2.12,0L79.3,64.16a5.68,5.68,0,0,1-2.57,9.64A5.7,5.7,0,0,1,72.54,78a5.7,5.7,0,0,1-4.18,4.18A5.69,5.69,0,0,1,62.84,86.5Z"/><path class="cls-1" d="M41.46,67a1.5,1.5,0,0,1-1.06-.44l-.49-.49A6.66,6.66,0,0,1,39,57.87l-5-5a1.5,1.5,0,0,1,2.12-2.12l6,6a1.5,1.5,0,0,1,0,2.12A3.66,3.66,0,0,0,42,64l.49.49A1.5,1.5,0,0,1,41.46,67Z"/><path class="cls-1" d="M60,50.47A1.5,1.5,0,0,1,58.94,50L57.87,49a3.37,3.37,0,0,0-4.65,0,1.54,1.54,0,0,1-2.12,0l-12.9-12.9a1.5,1.5,0,0,1,2.12-2.12l12,12a6.3,6.3,0,0,1,7.71.93l1.07,1.07A1.5,1.5,0,0,1,60,50.47Z"/></svg>