<svg id="Calque_1" data-name="Calque 1" xmlns="http://www.w3.org/2000/svg" viewBox="0 0 80 80"><defs><style>.cls-1{fill:currentColor;}</style></defs><title>Cuisine_S</title><path class="cls-1" d="M47.12,59.91A9.15,9.15,0,0,1,38,50.77V43.14a5.28,5.28,0,0,1,1.5-3.7l4.85-5.9a3.51,3.51,0,0,1,.35-.42l0,0a3.45,3.45,0,0,1,3.71-.71l9.15,4.13A7.2,7.2,0,0,1,62,43.14a7.19,7.19,0,0,1-1.24,4L54.68,55.9A9.12,9.12,0,0,1,47.12,59.91Zm-.43-24.52-4.93,6-.1.11A2.3,2.3,0,0,0,41,43.14v7.64A6.14,6.14,0,0,0,52.21,54.2l6.06-8.72A4.18,4.18,0,0,0,58.89,44a4.24,4.24,0,0,0-2.5-4.75l-9.15-4.13a.63.63,0,0,0-.38.07l-.17.21Z"/><path class="cls-1" d="M30.5,39.7A7.55,7.55,0,0,1,23,32.13L23,20a1.5,1.5,0,0,1,1.5-1.5h0A1.5,1.5,0,0,1,26,20l0,12.13a4.55,4.55,0,1,0,9.09,0L35,20a1.5,1.5,0,0,1,1.5-1.5h0A1.5,1.5,0,0,1,38,20l0,12.13A7.55,7.55,0,0,1,30.5,39.7Z"/><path class="cls-1" d="M30.5,70a1.5,1.5,0,0,1-1.5-1.5V20a1.5,1.5,0,0,1,3,0V68.46A1.5,1.5,0,0,1,30.5,70Z"/><path class="cls-1" d="M15.33,47.5H10A1.5,1.5,0,0,1,8.5,46V20a1.5,1.5,0,0,1,2.89-.56L20,40.65a5,5,0,0,1-4.62,6.85Zm-3.83-3h3.83a2,2,0,0,0,1.84-2.73h0l-5.67-14Z"/><path class="cls-1" d="M10,66.5A1.5,1.5,0,0,1,8.5,65V46a1.5,1.5,0,0,1,3,0V65A1.5,1.5,0,0,1,10,66.5Z"/><path class="cls-1" d="M40,71.5A31.59,31.59,0,0,1,9.13,46.3a1.5,1.5,0,0,1,2.94-.6,28.56,28.56,0,1,0,2.19-17.87,1.5,1.5,0,0,1-2.71-1.28A31.49,31.49,0,1,1,40,71.5Z"/></svg>