<svg id="Calque_1" data-name="Calque 1" xmlns="http://www.w3.org/2000/svg" viewBox="0 0 120 120">
  <defs>
    <style>
      .cls-1{fill:currentColor}
    </style>
  </defs>
  <circle class="cls-2" cx="60" cy="60" r="51.5"/>
  <path fill="#fff" d="M60 111.5A51.5 51.5 0 1 1 111.5 60 51.56 51.56 0 0 1 60 111.5zm0-100A48.5 48.5 0 1 0 108.5 60 48.55 48.55 0 0 0 60 11.5z"/>
  <path class="cls-1" d="M63.74 86.5a15.25 15.25 0 0 1-15.23-15.23v-9.62a1.5 1.5 0 0 1 1.5-1.5h27.46a1.5 1.5 0 0 1 1.5 1.5v9.62A15.25 15.25 0 0 1 63.74 86.5zM51.51 63.15v8.12a12.23 12.23 0 0 0 24.46 0v-8.12z"/>
  <path class="cls-1" d="M80.2 75.91h-3.1a1.5 1.5 0 0 1 0-3h3.1a3.3 3.3 0 1 0 0-6.59h-2.73a1.5 1.5 0 0 1 0-3h2.73a6.3 6.3 0 1 1 0 12.59zM85 86.5H45.2a1.5 1.5 0 0 1 0-3H85a1.5 1.5 0 0 1 0 3zM71.19 57.26a4.69 4.69 0 0 1 0-9.38 1.69 1.69 0 0 0 0-3.38 1.5 1.5 0 0 1 0-3 4.69 4.69 0 0 1 0 9.38 1.69 1.69 0 0 0 0 3.38 1.5 1.5 0 0 1 0 3zM62.08 57.26a4.69 4.69 0 1 1 0-9.38 1.69 1.69 0 0 0 0-3.38 1.5 1.5 0 0 1 0-3 4.69 4.69 0 0 1 0 9.38 1.69 1.69 0 1 0 0 3.38 1.5 1.5 0 0 1 0 3zM50 72.28H37a1.5 1.5 0 0 1-1.5-1.39l-2-27.78A1.5 1.5 0 0 1 35 41.5h20.06a1.5 1.5 0 0 1 1.5 1.62l-1.43 18.54a1.5 1.5 0 0 1-3-.23l1.3-16.93H36.61l1.82 24.78H50a1.5 1.5 0 0 1 0 3z"/>
  <path class="cls-1" d="M49 44.5h-.11a1.5 1.5 0 0 1-1.39-1.6l.25-3.57A6.28 6.28 0 0 1 54 33.5h6a1.5 1.5 0 0 1 0 3h-6a3.27 3.27 0 0 0-3.25 3l-.25 3.57A1.5 1.5 0 0 1 49 44.5z"/>
</svg>
