<svg id="Calque_1" data-name="Calque 1" xmlns="http://www.w3.org/2000/svg" viewBox="0 0 140 140">
  <defs>
    <style>
      .cls-1{fill:currentColor}
    </style>
  </defs>
  <path class="cls-1" d="M120 121.5H20a1.5 1.5 0 0 1-1.5-1.5V70a1.5 1.5 0 0 1 1.5-1.5h35a1.5 1.5 0 0 1 0 3H21.5v47h97v-47H85a1.5 1.5 0 0 1 0-3h35a1.5 1.5 0 0 1 1.5 1.5v50a1.5 1.5 0 0 1-1.5 1.5z"/>
  <path class="cls-1" d="M70 103.5A16.52 16.52 0 0 1 53.5 87V70a1.5 1.5 0 0 1 3 0v17a13.5 13.5 0 0 0 27 0V70a1.5 1.5 0 0 1 3 0v17A16.52 16.52 0 0 1 70 103.5z"/>
  <path class="cls-1" d="M70 81.5a6.5 6.5 0 1 1 6.5-6.5 6.51 6.51 0 0 1-6.5 6.5zm0-10a3.5 3.5 0 1 0 3.5 3.5 3.5 3.5 0 0 0-3.5-3.5z"/>
  <path class="cls-1" d="M70 91a1.5 1.5 0 0 1-1.5-1.5V80a1.5 1.5 0 0 1 3 0v9.5A1.5 1.5 0 0 1 70 91zM130 47.5H10A1.5 1.5 0 0 1 8.5 46V30A21.52 21.52 0 0 1 30 8.5h80A21.52 21.52 0 0 1 131.5 30v16a1.5 1.5 0 0 1-1.5 1.5zm-118.5-3h117V30A18.52 18.52 0 0 0 110 11.5H30A18.52 18.52 0 0 0 11.5 30zM120 106.18H20a1.5 1.5 0 0 1 0-3h100a1.5 1.5 0 0 1 0 3z"/>
  <path class="cls-1" d="M120 37.5H20a1.5 1.5 0 0 1-1.5-1.5v-6.21A21.31 21.31 0 0 1 39.79 8.5h60.42a21.31 21.31 0 0 1 21.29 21.29V36a1.5 1.5 0 0 1-1.5 1.5zm-98.5-3h97v-4.71a18.31 18.31 0 0 0-18.29-18.29H39.79A18.31 18.31 0 0 0 21.5 29.79z"/>
  <path class="cls-1" d="M118.73 24.33H21.27a1.5 1.5 0 0 1 0-3h97.46a1.5 1.5 0 0 1 0 3zM55 89H20a1.5 1.5 0 0 1 0-3h35a1.5 1.5 0 0 1 0 3zM120 89H85a1.5 1.5 0 0 1 0-3h35a1.5 1.5 0 0 1 0 3z"/>
  <path class="cls-1" d="M130 131.5H10a1.5 1.5 0 0 1-1.5-1.5V60a1.5 1.5 0 0 1 1.5-1.5h120a1.5 1.5 0 0 1 1.5 1.5v70a1.5 1.5 0 0 1-1.5 1.5zm-118.5-3h117v-67h-117z"/>
  <path class="cls-1" d="M10 61.5a1.5 1.5 0 0 1-1-2.63l16-14a1.5 1.5 0 1 1 2 2.26l-16 14a1.49 1.49 0 0 1-1 .37zM130 61.5a1.49 1.49 0 0 1-1-.37l-16-14a1.5 1.5 0 1 1 2-2.26l16 14a1.5 1.5 0 0 1-1 2.63z"/>
</svg>
