<svg id="Calque_1" data-name="Calque 1" xmlns="http://www.w3.org/2000/svg" viewBox="0 0 140 140">
  <defs>
    <style>
      .cls-1{fill:currentColor}
    </style>
  </defs>
  <path class="cls-1" d="M50 121.5H40a1.5 1.5 0 0 1-1.5-1.5V85a1.5 1.5 0 0 1 1.5-1.5h10a1.5 1.5 0 0 1 1.5 1.5v35a1.5 1.5 0 0 1-1.5 1.5zm-8.5-3h7v-32h-7zM20 121.5H10a1.5 1.5 0 0 1-1.5-1.5V85a1.5 1.5 0 0 1 1.5-1.5h10a1.5 1.5 0 0 1 1.5 1.5v35a1.5 1.5 0 0 1-1.5 1.5zm-8.5-3h7v-32h-7z"/>
  <path class="cls-1" d="M50 86.5H40a1.5 1.5 0 0 1-1.5-1.5V61.33a6.51 6.51 0 0 1-5-6.33v-.15l2.5-25a1.5 1.5 0 0 1 1.5-1.35h15a1.5 1.5 0 0 1 1.5 1.35l2.5 25V55a6.51 6.51 0 0 1-5 6.33V85a1.5 1.5 0 0 1-1.5 1.5zm-8.5-3h7V60a1.5 1.5 0 0 1 1.5-1.5 3.5 3.5 0 0 0 3.5-3.43L51.14 31.5H38.86L36.5 55.07A3.5 3.5 0 0 0 40 58.5a1.5 1.5 0 0 1 1.5 1.5zM20 86.5H10A1.5 1.5 0 0 1 8.5 85V30a1.5 1.5 0 0 1 1.5-1.5h5a1.5 1.5 0 0 1 1.44 1.09l10 35a1.51 1.51 0 0 1 .06.41 6.51 6.51 0 0 1-5 6.33V85a1.5 1.5 0 0 1-1.5 1.5zm-8.5-3h7V70a1.5 1.5 0 0 1 1.5-1.5 3.5 3.5 0 0 0 3.49-3.31L13.87 31.5H11.5z"/>
  <path class="cls-1" d="M70 131.5A61.42 61.42 0 0 1 18.75 104a1.5 1.5 0 0 1 2.5-1.66 58.5 58.5 0 1 0-2-61.36 1.5 1.5 0 1 1-2.6-1.49A61.5 61.5 0 1 1 70 131.5z"/>
  <path class="cls-1" d="M47.5 51.5A1.5 1.5 0 0 1 46 50V30a1.5 1.5 0 0 1 3 0v20a1.5 1.5 0 0 1-1.5 1.5zM42.5 51.5A1.5 1.5 0 0 1 41 50V30a1.5 1.5 0 0 1 3 0v20a1.5 1.5 0 0 1-1.5 1.5zM82.46 104A21.52 21.52 0 0 1 61 82.5v-20a11.42 11.42 0 0 1 3.32-8.08l12.79-15.61a6.5 6.5 0 0 1 .74-.9 6.5 6.5 0 0 1 7.15-1.4l23.92 10.8a16.49 16.49 0 0 1 7.23 24.42l-15.87 22.81A21.48 21.48 0 0 1 82.46 104zm-3-63.33L66.55 56.38l-.1.11a8.45 8.45 0 0 0-2.49 6v20A18.5 18.5 0 0 0 97.8 92.84L113.67 70a13.42 13.42 0 0 0 2-4.81 13.52 13.52 0 0 0-8-15.16L83.79 39.26a3.44 3.44 0 0 0-1.33-.26A3.48 3.48 0 0 0 80 40l-.56.69z"/>
  <path class="cls-1" d="M104.12 79.49a1.5 1.5 0 0 1-1.3-.75l-15-26a1.5 1.5 0 0 1 2.6-1.5l15 26a1.5 1.5 0 0 1-1.3 2.25zM95.46 84.49a1.5 1.5 0 0 1-1.3-.75l-15-26a1.5 1.5 0 0 1 2.6-1.5l15 26a1.5 1.5 0 0 1-1.3 2.25zM86.8 89.49a1.5 1.5 0 0 1-1.3-.75l-15-26a1.5 1.5 0 0 1 2.6-1.5l15 26a1.5 1.5 0 0 1-1.3 2.25z"/>
</svg>
