<svg id="Calque_1" data-name="Calque 1" xmlns="http://www.w3.org/2000/svg" viewBox="0 0 120 120"><defs><style>.cls-1{fill:currentColor;}</style></defs><title>Langues</title><path class="cls-1" d="M60,111.5A51.5,51.5,0,1,1,111.5,60,51.56,51.56,0,0,1,60,111.5Zm0-100A48.5,48.5,0,1,0,108.5,60,48.55,48.55,0,0,0,60,11.5Z"/><circle class="cls-2" cx="60" cy="60" r="51.5"/><path class="cls-1" d="M35,86.5A1.5,1.5,0,0,1,33.5,85V51.67A18.19,18.19,0,0,1,51.67,33.5H68.33A18.19,18.19,0,0,1,86.5,51.67V60A18.19,18.19,0,0,1,68.33,78.17H44l-7.89,7.89A1.5,1.5,0,0,1,35,86.5Zm16.67-50A15.18,15.18,0,0,0,36.5,51.67V81.38l5.77-5.77a1.5,1.5,0,0,1,1.06-.44h25A15.18,15.18,0,0,0,83.5,60V51.67A15.18,15.18,0,0,0,68.33,36.5Z"/><path class="cls-1" d="M67.5,62.33h-15a1.5,1.5,0,0,1,0-3h15a1.5,1.5,0,0,1,0,3Z"/><path class="cls-1" d="M70,67.33a1.5,1.5,0,0,1-1.34-.83L60,49.19,51.34,66.5a1.5,1.5,0,0,1-2.68-1.34l10-20a1.5,1.5,0,0,1,2.68,0l10,20A1.5,1.5,0,0,1,70,67.33Z"/></svg>