<svg viewBox="0 0 107 106" fill="none" xmlns="http://www.w3.org/2000/svg">
  <g filter="url(#filter0_d)">
    <circle cx="52" cy="51" r="50" fill="currentColor"/>
    <circle cx="52" cy="51" r="50" stroke="white" stroke-width="1.5"/>
  </g>
  <path d="M33 56V29H63V45" stroke="white" stroke-width="1.5" stroke-linecap="round" stroke-linejoin="round"/>
  <path d="M33 29L41 21H71M71 21L63 29M71 21V45" stroke="white" stroke-width="1.5" stroke-linecap="round" stroke-linejoin="round"/>
  <rect x="44" y="29" width="8" height="8" stroke="white" stroke-width="1.5" stroke-linecap="round" stroke-linejoin="round"/>
  <path d="M48 25H56L52 29H44L48 25Z" stroke="white" stroke-width="1.5" stroke-linecap="round" stroke-linejoin="round"/>
  <path d="M81.9746 60L72.7246 69.25C71.7581 70.2165 70.1911 70.2165 69.2246 69.25C68.2654 68.2908 68.2582 66.74 69.203 65.7719L65.7249 69.25C64.7584 70.2165 63.1914 70.2165 62.2249 69.25C61.2588 68.2839 61.2584 66.7179 62.2236 65.7513L58.7249 69.25C57.7584 70.2165 56.1914 70.2165 55.2249 69.25C54.2586 68.2837 54.2584 66.7171 55.2243 65.7506L51.7249 69.25C50.7584 70.2165 49.1914 70.2165 48.2249 69.25C47.2584 68.2835 47.2584 66.7165 48.2249 65.75L63.4746 50.5H53.7246C52.2058 50.5 50.9746 49.2688 50.9746 47.75C50.9746 46.2312 52.2058 45 53.7246 45H73.9746L81.9746 37" stroke="white" stroke-width="1.5" stroke-linecap="round" stroke-linejoin="round"/>
  <path d="M68.4443 65.4697C68.1514 65.7626 68.1514 66.2374 68.4443 66.5303C68.7372 66.8232 69.212 66.8232 69.5049 66.5303L68.4443 65.4697ZM75.5049 60.5303C75.7978 60.2374 75.7978 59.7626 75.5049 59.4697C75.212 59.1768 74.7372 59.1768 74.4443 59.4697L75.5049 60.5303ZM69.5049 66.5303L75.5049 60.5303L74.4443 59.4697L68.4443 65.4697L69.5049 66.5303Z" fill="white"/>
  <path d="M61.4443 65.4697C61.1514 65.7626 61.1514 66.2374 61.4443 66.5303C61.7372 66.8232 62.212 66.8232 62.5049 66.5303L61.4443 65.4697ZM68.5049 60.5303C68.7978 60.2374 68.7978 59.7626 68.5049 59.4697C68.212 59.1768 67.7372 59.1768 67.4443 59.4697L68.5049 60.5303ZM62.5049 66.5303L68.5049 60.5303L67.4443 59.4697L61.4443 65.4697L62.5049 66.5303Z" fill="white"/>
  <path d="M54.4443 65.4697C54.1514 65.7626 54.1514 66.2374 54.4443 66.5303C54.7372 66.8232 55.212 66.8232 55.5049 66.5303L54.4443 65.4697ZM61.5049 60.5303C61.7978 60.2374 61.7978 59.7626 61.5049 59.4697C61.212 59.1768 60.7372 59.1768 60.4443 59.4697L61.5049 60.5303ZM55.5049 66.5303L61.5049 60.5303L60.4443 59.4697L54.4443 65.4697L55.5049 66.5303Z" fill="white"/>
  <path d="M22.0254 71L31.2754 80.25C32.2419 81.2165 33.8089 81.2165 34.7754 80.25C35.7346 79.2908 35.7418 77.74 34.797 76.7719L38.2751 80.25C39.2416 81.2165 40.8086 81.2165 41.7751 80.25C42.7412 79.2839 42.7416 77.7179 41.7764 76.7513L45.2751 80.25C46.2416 81.2165 47.8086 81.2165 48.7751 80.25C49.7414 79.2837 49.7416 77.7171 48.7757 76.7506L52.2751 80.25C53.2416 81.2165 54.8086 81.2165 55.7751 80.25C56.7416 79.2835 56.7416 77.7165 55.7751 76.75L40.5254 61.5H50.2754C51.7942 61.5 53.0254 60.2688 53.0254 58.75C53.0254 57.2312 51.7942 56 50.2754 56H30.0254L22.0254 48" stroke="white" stroke-width="1.5" stroke-linecap="round" stroke-linejoin="round"/>
  <path d="M35.5557 76.4697C35.8486 76.7626 35.8486 77.2374 35.5557 77.5303C35.2628 77.8232 34.788 77.8232 34.4951 77.5303L35.5557 76.4697ZM28.4951 71.5303C28.2022 71.2374 28.2022 70.7626 28.4951 70.4697C28.788 70.1768 29.2628 70.1768 29.5557 70.4697L28.4951 71.5303ZM34.4951 77.5303L28.4951 71.5303L29.5557 70.4697L35.5557 76.4697L34.4951 77.5303Z" fill="white"/>
  <path d="M42.5557 76.4697C42.8486 76.7626 42.8486 77.2374 42.5557 77.5303C42.2628 77.8232 41.788 77.8232 41.4951 77.5303L42.5557 76.4697ZM35.4951 71.5303C35.2022 71.2374 35.2022 70.7626 35.4951 70.4697C35.788 70.1768 36.2628 70.1768 36.5557 70.4697L35.4951 71.5303ZM41.4951 77.5303L35.4951 71.5303L36.5557 70.4697L42.5557 76.4697L41.4951 77.5303Z" fill="white"/>
  <path d="M49.5557 76.4697C49.8486 76.7626 49.8486 77.2374 49.5557 77.5303C49.2628 77.8232 48.788 77.8232 48.4951 77.5303L49.5557 76.4697ZM42.4951 71.5303C42.2022 71.2374 42.2022 70.7626 42.4951 70.4697C42.788 70.1768 43.2628 70.1768 43.5557 70.4697L42.4951 71.5303ZM48.4951 77.5303L42.4951 71.5303L43.5557 70.4697L49.5557 76.4697L48.4951 77.5303Z" fill="white"/>
  <defs>
    <filter id="filter0_d" x="0.75" y="0.25" width="105.5" height="105.5" filterUnits="userSpaceOnUse" color-interpolation-filters="sRGB">
      <feFlood flood-opacity="0" result="BackgroundImageFix"/>
      <feColorMatrix in="SourceAlpha" type="matrix" values="0 0 0 0 0 0 0 0 0 0 0 0 0 0 0 0 0 0 127 0" result="hardAlpha"/>
      <feOffset dx="1.5" dy="2"/>
      <feGaussianBlur stdDeviation="1"/>
      <feColorMatrix type="matrix" values="0 0 0 0 0.129412 0 0 0 0 0.129412 0 0 0 0 0.129412 0 0 0 0.3 0"/>
      <feBlend mode="normal" in2="BackgroundImageFix" result="effect1_dropShadow"/>
      <feBlend mode="normal" in="SourceGraphic" in2="effect1_dropShadow" result="shape"/>
    </filter>
  </defs>
</svg>
