<svg id="Calque_1" data-name="Calque 1" xmlns="http://www.w3.org/2000/svg" viewBox="0 0 120 120"><defs><style>.cls-1{fill:none;stroke:#212121;stroke-linecap:round;stroke-linejoin:round;stroke-width:3px;}</style></defs><title>BoireUnPot_O</title><circle class="cls-1" cx="60" cy="60" r="50"/><path class="cls-1" d="M50,61.65H77.47a0,0,0,0,1,0,0v9.62A13.73,13.73,0,0,1,63.74,85h0A13.73,13.73,0,0,1,50,71.27V61.65a0,0,0,0,1,0,0Z"/><path class="cls-1" d="M77.47,64.82H80.2a4.8,4.8,0,0,1,0,9.59H77.09"/><line class="cls-1" x1="45.2" y1="85" x2="85" y2="85"/><path class="cls-1" d="M71.19,43a3.19,3.19,0,1,1,0,6.38,3.19,3.19,0,0,0,0,6.38"/><path class="cls-1" d="M62.08,43a3.19,3.19,0,1,1,0,6.38,3.19,3.19,0,0,0,0,6.38"/><polyline class="cls-1" points="53.63 61.55 55.06 43 35 43 37.04 70.78 50.02 70.78"/><path class="cls-1" d="M60,35H54a4.76,4.76,0,0,0-4.75,4.43L49,43"/></svg>