<svg id="Calque_1" data-name="Calque 1" xmlns="http://www.w3.org/2000/svg" viewBox="0 0 80 80">
  <defs>
    <style>
      .cls-1{fill:currentColor}
    </style>
  </defs>
  <path class="cls-1" d="M33.77 71.5a1.5 1.5 0 0 1-1.36-2.13l5.08-11a1.5 1.5 0 0 1 2.72 1.26l-5.08 11a1.5 1.5 0 0 1-1.36.87z"/>
  <path class="cls-1" d="M33.77 71.5a1.5 1.5 0 0 1-.63-2.86l11-5.08a1.5 1.5 0 0 1 1.26 2.72l-11 5.08a1.49 1.49 0 0 1-.63.14z"/>
  <path class="cls-1" d="M44.79 66.42a1.5 1.5 0 0 1-1.06-2.56l24.15-24.15-3.81-3.81L39.91 60a1.5 1.5 0 0 1-2.12-2.12L63 32.71a1.54 1.54 0 0 1 2.12 0l5.94 5.94a1.5 1.5 0 0 1 0 2.12L45.85 66a1.5 1.5 0 0 1-1.06.42z"/>
  <path class="cls-1" d="M38.38 61.5H10A1.5 1.5 0 0 1 8.5 60V10A1.5 1.5 0 0 1 10 8.5h40a1.5 1.5 0 0 1 1.5 1.5v37.84a1.5 1.5 0 0 1-3 0V11.5h-37v47h26.88a1.5 1.5 0 0 1 0 3zM63.6 45.21a1.5 1.5 0 0 1-1.06-.44L59 41.23a1.5 1.5 0 0 1 2.12-2.12l3.54 3.54a1.5 1.5 0 0 1-1.06 2.56z"/>
  <path class="cls-1" d="M41.5 21.5H27.7a1.5 1.5 0 1 1 0-3h13.8a1.5 1.5 0 0 1 0 3zM41.5 31.5H27.7a1.5 1.5 0 1 1 0-3h13.8a1.5 1.5 0 0 1 0 3zM41.5 41.5H27.7a1.5 1.5 0 1 1 0-3h13.8a1.5 1.5 0 0 1 0 3zM19.93 22.64a2.64 2.64 0 1 1 2.28-4 2.64 2.64 0 0 1-2.28 4zm.31-2.82l-.63.36a.36.36 0 0 0 .63-.36zm-.31-.18a.37.37 0 0 0-.18 0 .36.36 0 0 0-.13.5l.63-.36a.37.37 0 0 0-.22-.17zM19.93 32.64a2.64 2.64 0 1 1 2.28-4 2.64 2.64 0 0 1-2.28 4zm.31-2.82l-.63.36a.36.36 0 0 0 .63-.36zm-.31-.18a.37.37 0 0 0-.18 0 .36.36 0 0 0-.13.5l.63-.36a.37.37 0 0 0-.22-.17zM19.93 42.64a2.64 2.64 0 1 1 2.28-4 2.64 2.64 0 0 1-2.28 4zm.31-2.82l-.63.36a.36.36 0 0 0 .63-.36zm-.31-.18a.37.37 0 0 0-.18 0 .36.36 0 0 0-.13.5l.63-.36a.37.37 0 0 0-.22-.17z"/>
</svg>
