<svg viewBox="0 0 120 120" fill="none" xmlns="http://www.w3.org/2000/svg">
  <defs>
    <style>
      .cls-1{fill:currentColor}
    </style>
  </defs>
  <circle class="cls-2" cx="60" cy="60" r="51.5"/>
  <path fill-rule="evenodd" clip-rule="evenodd" d="M8.5 60C8.5 31.5573 31.5573 8.5 60 8.5C88.4427 8.5 111.5 31.5573 111.5 60C111.5 88.4427 88.4427 111.5 60 111.5C31.5573 111.5 8.5 88.4427 8.5 60ZM60 11.5C33.2142 11.5 11.5 33.2142 11.5 60C11.5 86.7858 33.2142 108.5 60 108.5C86.7858 108.5 108.5 86.7858 108.5 60C108.5 33.2142 86.7858 11.5 60 11.5Z" fill="#fff"/>
  <path class="cls-1"  fill-rule="evenodd" clip-rule="evenodd" d="M42.6138 41.4258C42.5405 41.6027 42.5 41.7966 42.5 42V60.8523L36.0607 54.413C35.4749 53.8272 34.5251 53.8272 33.9393 54.413C33.3536 54.9988 33.3536 55.9485 33.9393 56.5343L41.4393 64.0342C41.7206 64.3156 42.1021 64.4736 42.5 64.4736H56.9999C57.8198 64.4736 58.4999 65.1498 58.4999 65.9868C58.4999 66.8238 57.8198 67.5 56.9999 67.5H50C49.396 67.5 48.8509 67.8623 48.617 68.4192C48.3831 68.976 48.5061 69.6189 48.929 70.0502L60.1892 81.5341C60.6389 81.9839 60.6389 82.7131 60.1892 83.1628C59.7394 83.6125 59.0103 83.6125 58.5605 83.1628L51.0607 75.6627C50.4749 75.0769 49.5251 75.0769 48.9393 75.6627C48.3536 76.2485 48.3536 77.1983 48.9393 77.784L52.6905 81.5354C53.139 81.9853 53.1385 82.7135 52.6892 83.1628C52.2395 83.6125 51.5103 83.6125 51.0606 83.1628L43.5607 75.6627C42.9749 75.0769 42.0251 75.0769 41.4393 75.6627C40.8536 76.2485 40.8536 77.1983 41.4393 77.784L45.1893 81.5341C45.639 81.9839 45.639 82.7131 45.1893 83.1628C44.7395 83.6125 44.0104 83.6125 43.5606 83.1628L36.0607 75.6627C35.4749 75.0769 34.5251 75.0769 33.9393 75.6627C33.3536 76.2485 33.3536 77.1983 33.9393 77.784L41.4393 85.2841C43.0606 86.9054 45.6893 86.9054 47.3106 85.2841C47.5931 85.0016 47.8264 84.6885 48.0105 84.3554L48.9393 85.2841C50.5606 86.9054 53.1892 86.9054 54.8106 85.2841C55.0931 85.0016 55.3264 84.6885 55.5105 84.3554L56.4392 85.2841C58.0605 86.9054 60.6892 86.9054 62.3105 85.2841C63.9299 83.6648 63.9318 81.0405 62.3164 79.4187L58.279 75.3011C59.8958 76.4108 62.1238 76.2473 63.5605 74.8105L64.4893 73.8818C64.6734 74.2148 64.9067 74.528 65.1892 74.8105C66.8105 76.4318 69.4392 76.4318 71.0605 74.8105L71.9892 73.8818C72.1733 74.2148 72.4066 74.528 72.6892 74.8105C74.3105 76.4318 76.9391 76.4318 78.5605 74.8105L82.3219 71.049L86.0604 67.3104C86.6462 66.7246 86.6462 65.7749 86.0604 65.1891C85.4746 64.6033 84.5249 64.6033 83.9391 65.1891L76.4391 72.6892C75.9894 73.1389 75.2602 73.1389 74.8105 72.6892C74.3607 72.2394 74.3607 71.5103 74.8105 71.0605L78.5604 67.3104C79.1462 66.7246 79.1462 65.7749 78.5604 65.1891C77.9746 64.6033 77.0249 64.6033 76.4391 65.1891L68.9392 72.6892C68.4894 73.1389 67.7603 73.1389 67.3105 72.6892C66.8612 72.2399 66.8608 71.5116 67.3093 71.0618L71.0604 67.3104C71.6462 66.7246 71.6462 65.7749 71.0604 65.1891C70.4746 64.6033 69.5249 64.6033 68.9391 65.1891L61.4392 72.6892C60.9895 73.1389 60.2603 73.1389 59.8106 72.6892C59.3608 72.2394 59.3608 71.5103 59.8106 71.0605L71.5718 59.0494C71.9942 58.618 72.1168 57.9753 71.8828 57.4187C71.6488 56.8621 71.1038 56.5 70.5 56.5H64C63.1716 56.5 62.5 55.8284 62.5 55C62.5 54.1716 63.1716 53.5 64 53.5H78C78.3978 53.5 78.7794 53.342 79.0607 53.0606L86.0604 46.0606C86.6462 45.4748 86.6462 44.5251 86.0604 43.9393C85.4746 43.3535 84.5249 43.3536 83.9391 43.9394L77.5 50.3787V35C77.5 34.1716 76.8284 33.5 76 33.5H51C50.6022 33.5 50.2206 33.658 49.9393 33.9393L42.9393 40.9393C42.7955 41.0832 42.687 41.2489 42.6138 41.4258ZM56.7065 70.5C56.2856 71.7024 56.4344 73.0598 57.1529 74.1525L53.5715 70.5H56.7065ZM66.9319 59.5L61.4185 65.1305C61.0194 63.0576 59.1993 61.4736 56.9999 61.4736H45.5V43.5H67.5V50.5H64C61.5147 50.5 59.5 52.5147 59.5 55C59.5 57.4853 61.5147 59.5 64 59.5H66.9319ZM74.5 50.5H70.5V42.6213L74.5 38.6213V50.5ZM68.3787 40.5H47.6213L51.6213 36.5H72.3787L68.3787 40.5Z" />
</svg>
