<svg fill="none" xmlns="http://www.w3.org/2000/svg" viewBox="0 0 62 62">
  <path fill-rule="evenodd" clip-rule="evenodd" d="M46 4.25c5.937 0 10.75 4.813 10.75 10.75v16.75H5.25V15C5.25 9.063 10.063 4.25 16 4.25h30zM55.25 15A9.25 9.25 0 0046 5.75H16A9.25 9.25 0 006.75 15v15.25h48.5V15z" fill="currentColor"/>
  <path fill-rule="evenodd" clip-rule="evenodd" d="M31 .25a.75.75 0 01.75.75v4a.75.75 0 01-1.5 0V1A.75.75 0 0131 .25zM.25 36A5.75 5.75 0 016 30.25h50A5.75 5.75 0 0161.75 36v10A5.75 5.75 0 0156 51.75H6A5.75 5.75 0 01.25 46V36zM6 31.75A4.25 4.25 0 001.75 36v10A4.25 4.25 0 006 50.25h50A4.25 4.25 0 0060.25 46V36A4.25 4.25 0 0056 31.75H6z" fill="currentColor"/>
  <path fill-rule="evenodd" clip-rule="evenodd" d="M18.25 37a.75.75 0 01.75-.75h24a.75.75 0 01.75.75v3A5.75 5.75 0 0138 45.75H24A5.75 5.75 0 0118.25 40v-3zm1.5.75V40A4.25 4.25 0 0024 44.25h14A4.25 4.25 0 0042.25 40v-2.25h-22.5zM47.25 57a4.75 4.75 0 109.5 0v-6.75h-9.5V57zM52 60.25A3.25 3.25 0 0148.75 57v-5.25h6.5V57A3.25 3.25 0 0152 60.25zM5.25 57a4.75 4.75 0 109.5 0v-6.75h-9.5V57zM10 60.25A3.25 3.25 0 016.75 57v-5.25h6.5V57A3.25 3.25 0 0110 60.25zM5 22.25a4.75 4.75 0 100 9.5h1.75v-9.5H5zM1.75 27A3.25 3.25 0 015 23.75h.25v6.5H5A3.25 3.25 0 011.75 27zM57 31.75a4.75 4.75 0 100-9.5h-1.75v9.5H57zM60.25 27A3.25 3.25 0 0157 30.25h-.25v-6.5H57A3.25 3.25 0 0160.25 27zM10 37.75a3.25 3.25 0 100 6.5 3.25 3.25 0 000-6.5zM5.25 41a4.75 4.75 0 119.5 0 4.75 4.75 0 01-9.5 0zM52 37.75a3.25 3.25 0 100 6.5 3.25 3.25 0 000-6.5zM47.25 41a4.75 4.75 0 119.5 0 4.75 4.75 0 01-9.5 0zM49 31.75a.75.75 0 01-.75-.75 5.25 5.25 0 10-10.5 0 .75.75 0 01-1.5 0 6.75 6.75 0 0113.5 0 .75.75 0 01-.75.75zM29 31.75a.75.75 0 01-.75-.75 9.25 9.25 0 00-18.5 0 .75.75 0 01-1.5 0c0-5.937 4.813-10.75 10.75-10.75S29.75 25.063 29.75 31a.75.75 0 01-.75.75z" fill="currentColor"/>
  <path fill-rule="evenodd" clip-rule="evenodd" d="M53 31.75a.75.75 0 01-.75-.75 9.25 9.25 0 00-18.5 0 .75.75 0 01-1.5 0c0-5.937 4.813-10.75 10.75-10.75S53.75 25.063 53.75 31a.75.75 0 01-.75.75zM43 10.75a3.25 3.25 0 100 6.5 3.25 3.25 0 000-6.5zM38.25 14a4.75 4.75 0 119.5 0 4.75 4.75 0 01-9.5 0zM19 10.75a3.25 3.25 0 100 6.5 3.25 3.25 0 000-6.5zM14.25 14a4.75 4.75 0 119.5 0 4.75 4.75 0 01-9.5 0z" fill="currentColor"/>
</svg>
