<svg id="Calque_1" data-name="Calque 1" xmlns="http://www.w3.org/2000/svg" viewBox="0 0 80 80"><defs><style>.cls-1{fill:currentColor;}</style></defs><title>MouvementsEtBienEtre_S</title><path class="cls-1" d="M16.4,41.5H10a1.5,1.5,0,0,1,0-3h6.4a1.5,1.5,0,0,1,0,3Z"/><path class="cls-1" d="M10,51.5A1.5,1.5,0,0,1,8.5,50V30a1.5,1.5,0,0,1,3,0V50A1.5,1.5,0,0,1,10,51.5Z"/><path class="cls-1" d="M70,51.5A1.5,1.5,0,0,1,68.5,50V30a1.5,1.5,0,0,1,3,0V50A1.5,1.5,0,0,1,70,51.5Z"/><path class="cls-1" d="M63.6,71.5H55.2A1.5,1.5,0,0,1,53.7,70V10a1.5,1.5,0,0,1,1.5-1.5h8.4A1.5,1.5,0,0,1,65.1,10V70A1.5,1.5,0,0,1,63.6,71.5Zm-6.9-3h5.4v-57H56.7Z"/><path class="cls-1" d="M24.8,71.5H16.4A1.5,1.5,0,0,1,14.9,70V10a1.5,1.5,0,0,1,1.5-1.5h8.4A1.5,1.5,0,0,1,26.3,10V70A1.5,1.5,0,0,1,24.8,71.5Zm-6.9-3h5.4v-57H17.9Z"/><path class="cls-1" d="M55.2,41.5H24.8a1.5,1.5,0,0,1,0-3H55.2a1.5,1.5,0,0,1,0,3Z"/><path class="cls-1" d="M70,41.5H63.6a1.5,1.5,0,0,1,0-3H70a1.5,1.5,0,0,1,0,3Z"/></svg>