<svg fill="none" xmlns="http://www.w3.org/2000/svg" viewBox="0 0 62 62">
  <path fill-rule="evenodd" clip-rule="evenodd" d="M51 1.75a6.25 6.25 0 100 12.5 6.25 6.25 0 000-12.5zM43.25 8a7.75 7.75 0 1115.5 0 7.75 7.75 0 01-15.5 0zM11 1.75a6.25 6.25 0 100 12.5 6.25 6.25 0 000-12.5zM3.25 8a7.75 7.75 0 1115.5 0 7.75 7.75 0 01-15.5 0z" fill="currentColor"/>
  <path fill-rule="evenodd" clip-rule="evenodd" d="M29.69 8.599a2.75 2.75 0 10-4.731 2.804 30.333 30.333 0 0016.283 13.24.75.75 0 01.508.709V57.5a2.75 2.75 0 105.5 0V42a.75.75 0 01.75-.75h6a.75.75 0 01.75.75v15.5a2.75 2.75 0 105.5 0V25.352a.75.75 0 011.5 0V57.5a4.25 4.25 0 01-8.5 0V42.75h-4.5V57.5a4.25 4.25 0 01-8.5 0V25.885a31.84 31.84 0 01-16.581-13.717 4.25 4.25 0 017.312-4.333c.256.432.525.855.808 1.268C35.983 15.238 43.023 19.25 51 19.25c3.46 0 6.74-.754 9.688-2.108a.75.75 0 01.626 1.364 24.662 24.662 0 01-10.314 2.244c-8.492 0-15.986-4.274-20.448-10.801-.301-.44-.588-.89-.86-1.35z" fill="currentColor"/>
  <path fill-rule="evenodd" clip-rule="evenodd" d="M36.842 6.344a4.25 4.25 0 00-5.823 1.49c-.206.347-.42.689-.643 1.024a.75.75 0 000 .83c.057.088.116.174.175.26a24.904 24.904 0 004.787 5.219.75.75 0 001.075-.13 31.894 31.894 0 001.918-2.87 4.25 4.25 0 00-1.489-5.823zM32.31 8.6a2.75 2.75 0 114.731 2.804 30.172 30.172 0 01-1.358 2.09A23.402 23.402 0 0131.9 9.264c.14-.22.276-.441.409-.665zm-6.033 5.243a.75.75 0 00-.565.164A23.146 23.146 0 0111 19.25c-3.46 0-6.74-.754-9.688-2.108a.75.75 0 10-.626 1.364 24.662 24.662 0 0010.314 2.244c5.662 0 10.883-1.9 15.055-5.103a31.917 31.917 0 003.782 4.023 30.199 30.199 0 01-9.08 4.972.75.75 0 00-.508.71V57.5a2.75 2.75 0 11-5.5 0V42a.75.75 0 00-.75-.75H8a.75.75 0 00-.75.75v15.5a2.75 2.75 0 11-5.5 0V25.352a.75.75 0 00-1.5 0V57.5a4.25 4.25 0 008.5 0V42.75h4.5V57.5a4.25 4.25 0 008.5 0V25.885a31.728 31.728 0 009.734-5.624.75.75 0 000-1.146 30.421 30.421 0 01-4.697-4.978.75.75 0 00-.51-.294z" fill="currentColor"/>
</svg>
