<svg id="Calque_1" data-name="Calque 1" xmlns="http://www.w3.org/2000/svg" viewBox="0 0 80 80"><defs><style>.cls-1{fill:none;stroke:currentColor;stroke-linecap:round;stroke-linejoin:round;stroke-width:3px;}</style></defs><title>ActivitesCreatrices_S</title><circle class="cls-1" cx="47" cy="20" r="10"/><path class="cls-1" d="M27,50a5,5,0,0,1,5-5,5,5,0,0,0,5-5A10,10,0,0,1,47,30"/><path class="cls-1" d="M31,69.62a11.16,11.16,0,0,1,13.7-13.7A11.16,11.16,0,0,1,31,69.62Z"/><line class="cls-1" x1="44.67" y1="55.92" x2="70" y2="30.58"/><line class="cls-1" x1="64.18" y1="55.23" x2="24.94" y2="32.57"/><path class="cls-1" d="M17.5,19.62a14.94,14.94,0,0,1,7.44,13,14.94,14.94,0,0,1-14.94,0Z"/></svg>
