<svg id="Calque_1" data-name="Calque 1" xmlns="http://www.w3.org/2000/svg" viewBox="0 0 80 80"><defs><style>.cls-1{fill:currentColor;}</style></defs><title>Entraide_S</title><path class="cls-1" d="M36.59,71.5a6.53,6.53,0,0,1-6.37-5.16,6.54,6.54,0,0,1-5-5,6.54,6.54,0,0,1-5-5,6.52,6.52,0,1,1,7.73-7.73,6.54,6.54,0,0,1,5,5,6.54,6.54,0,0,1,5,5A6.52,6.52,0,0,1,36.59,71.5ZM21.54,46.41a3.52,3.52,0,0,0,0,7,1.5,1.5,0,0,1,1.5,1.5,3.52,3.52,0,0,0,3.52,3.52,1.5,1.5,0,0,1,1.5,1.5,3.52,3.52,0,0,0,3.52,3.52,1.5,1.5,0,0,1,1.5,1.5,3.52,3.52,0,1,0,3.52-3.52,1.5,1.5,0,0,1-1.5-1.5,3.52,3.52,0,0,0-3.52-3.52,1.5,1.5,0,0,1-1.5-1.5,3.52,3.52,0,0,0-3.52-3.52,1.5,1.5,0,0,1-1.5-1.5A3.52,3.52,0,0,0,21.54,46.41ZM38.09,60h0Z"/><path class="cls-1" d="M62.21,48.16a1.5,1.5,0,0,1-1.06-2.56l.61-.61a4.69,4.69,0,0,0,0-6.63,1.5,1.5,0,0,1,0-2.12l7.17-7.17a1.5,1.5,0,0,1,2.12,2.12L64.84,37.4a7.69,7.69,0,0,1-1,9.71l-.61.61A1.5,1.5,0,0,1,62.21,48.16Z"/><path class="cls-1" d="M43.41,71.5A6.49,6.49,0,0,1,39,69.76a1.5,1.5,0,0,1,2-2.2A3.52,3.52,0,0,0,46.92,65a1.5,1.5,0,0,1,1.5-1.5A3.52,3.52,0,0,0,51.94,60a1.5,1.5,0,0,1,1.5-1.5A3.52,3.52,0,0,0,57,54.95a1.5,1.5,0,0,1,1.5-1.5A3.52,3.52,0,0,0,62,49.93a3.48,3.48,0,0,0-1.12-2.57l-11.5-11.5L41.63,43.6A7.28,7.28,0,1,1,31.34,33.31l8.89-8.89a7.26,7.26,0,0,1,9.08-1L63.69,9.09a1.5,1.5,0,0,1,2.12,2.12L50.48,26.54a1.5,1.5,0,0,1-2.12,0,4.25,4.25,0,0,0-6,0l-8.89,8.89a4.28,4.28,0,1,0,6,6l8.79-8.8a1.54,1.54,0,0,1,2.12,0L62.94,45.2a6.52,6.52,0,0,1-3.13,11.1,6.54,6.54,0,0,1-5,5,6.54,6.54,0,0,1-5,5A6.53,6.53,0,0,1,43.41,71.5Z"/><path class="cls-1" d="M17.76,48.13a1.5,1.5,0,0,1-1.06-.44l-.58-.58a7.69,7.69,0,0,1-1-9.71L8.94,31.19a1.5,1.5,0,1,1,2.12-2.12l7.17,7.17a1.5,1.5,0,0,1,0,2.12,4.69,4.69,0,0,0,0,6.63l.58.58a1.5,1.5,0,0,1-1.06,2.56Z"/><path class="cls-1" d="M40,28.27a1.5,1.5,0,0,1-1.06-.44l-1.29-1.29a4.26,4.26,0,0,0-6,0,1.5,1.5,0,0,1-2.12,0L14,11.06a1.5,1.5,0,0,1,2.12-2.12L30.69,23.47a7.26,7.26,0,0,1,9.08,1l1.29,1.29A1.5,1.5,0,0,1,40,28.27Z"/></svg>