<svg id="Calque_1" data-name="Calque 1" xmlns="http://www.w3.org/2000/svg" viewBox="0 0 140 140">
  <defs>
    <style>
      .cls-1{fill:currentColor}
    </style>
  </defs>
  <path class="cls-1" d="M100 71.5a1.5 1.5 0 0 1-1.06-.44l-30-30A1.5 1.5 0 0 1 68.5 40 31.5 31.5 0 1 1 100 71.5zM71.51 39.39l29.11 29.11a28.5 28.5 0 1 0-29.11-29.11z"/>
  <path class="cls-1" d="M100.13 71.63a1.5 1.5 0 0 1-1.5-1.5v-60a1.5 1.5 0 1 1 3 0v60a1.5 1.5 0 0 1-1.5 1.5zM85.13 56.37a1.5 1.5 0 0 1-1.5-1.5V14a1.5 1.5 0 0 1 1.5-1.5 1.5 1.5 0 0 1 1.5 1.5v40.87a1.5 1.5 0 0 1-1.5 1.5zM115.13 67.43a1.5 1.5 0 0 1-1.5-1.5V14.36a1.5 1.5 0 0 1 3 0v51.57a1.5 1.5 0 0 1-1.5 1.5z"/>
  <path class="cls-1" d="M100.13 41.37H69.87a1.5 1.5 0 0 1 0-3h60a1.5 1.5 0 0 1 0 3zM85.13 56.37a1.5 1.5 0 0 1 0-3H126a1.5 1.5 0 0 1 0 3zM100.13 26.37H74.07a1.5 1.5 0 0 1 0-3h51.57a1.5 1.5 0 0 1 0 3zM32 130.75a1.5 1.5 0 0 1-1.06-.44L9.69 109.09a1.5 1.5 0 0 1-.08-2l52.17-61a1.5 1.5 0 0 1 1.08-.52A1.52 1.52 0 0 1 64 46l30 30a1.5 1.5 0 0 1-.09 2.2l-61 52.17a1.49 1.49 0 0 1-.91.38zM12.8 108L32 127.2 90.72 77 63 49.28z"/>
  <path class="cls-1" d="M92.93 78.57a1.5 1.5 0 0 1-1.06-.44l-30-30a1.5 1.5 0 0 1 0-2.12l7.07-7.07a1.5 1.5 0 0 1 2.12 2.12l-6 6L92.93 75l6-6a1.5 1.5 0 1 1 2.12 2.12L94 78.13a1.5 1.5 0 0 1-1.07.44zM10 131.5a1.5 1.5 0 0 1-1.06-2.56l11.36-11.36a1.5 1.5 0 0 1 2.12 2.12l-11.36 11.36a1.5 1.5 0 0 1-1.06.44zM60.25 88.32a1.5 1.5 0 0 1-1.06-.44l-7.07-7.07a1.5 1.5 0 0 1 0-2.12l14.14-14.14a1.5 1.5 0 0 1 2.12 0l7.07 7.07a1.5 1.5 0 0 1 0 2.12L61.31 87.88a1.5 1.5 0 0 1-1.06.44zm-5-8.57l5 5 12-12-5-5z"/>
  <path class="cls-1" d="M65.91 82.66a1.5 1.5 0 0 1-1.06-.44l-7.07-7.07A1.5 1.5 0 0 1 59.9 73l7.1 7.1a1.5 1.5 0 0 1-1.06 2.56z"/>
</svg>
