<svg id="Calque_1" data-name="Calque 1" xmlns="http://www.w3.org/2000/svg" viewBox="0 0 120 120"><defs><style>.cls-1{fill:none;stroke:#212121;stroke-linecap:round;stroke-linejoin:round;stroke-width:3px;}</style></defs><title>Entraide_O</title><circle class="cls-1" cx="60" cy="60" r="50"/><path class="cls-1" d="M57.16,76.64A4.18,4.18,0,0,0,53,72.46a4.18,4.18,0,0,0-4.18-4.18,4.18,4.18,0,1,0-4.18,4.18,4.18,4.18,0,0,0,4.18,4.18A4.18,4.18,0,0,0,53,80.82a4.18,4.18,0,1,0,4.18-4.18Z"/><path class="cls-1" d="M85,51.77l-6,6h0A5.16,5.16,0,0,1,79,65l-.51.51"/><path class="cls-1" d="M60,83.88a4.18,4.18,0,0,0,7-3.07,4.18,4.18,0,0,0,4.18-4.18,4.18,4.18,0,0,0,4.18-4.18,4.18,4.18,0,0,0,2.85-7.24L67.8,54.78h0l-7.33,7.33a4.81,4.81,0,0,1-6.81,0h0a4.81,4.81,0,0,1,0-6.81l7.41-7.41a4.79,4.79,0,0,1,6.77,0h0L80.62,35.12"/><path class="cls-1" d="M35,51.77l6,6h0A5.16,5.16,0,0,0,41,65l.49.49"/><path class="cls-1" d="M60,49,58.93,47.9a4.79,4.79,0,0,0-6.77,0h0L39.25,35"/></svg>