<svg id="Calque_1" data-name="Calque 1" xmlns="http://www.w3.org/2000/svg" viewBox="0 0 120 120">
  <defs>
    <style>
      .cls-1{fill:currentColor}
    </style>
  </defs>
  <circle class="cls-2" cx="60" cy="60" r="51.5"/>
  <path fill="#fff" d="M60 111.5A51.5 51.5 0 1 1 111.5 60 51.56 51.56 0 0 1 60 111.5zm0-100A48.5 48.5 0 1 0 108.5 60 48.55 48.55 0 0 0 60 11.5z"/>
  <path class="cls-1" d="M65.32 48.37a1.5 1.5 0 0 1-.89-.29L60 44.81l-4.43 3.27a1.5 1.5 0 0 1-1.78 0l-5.32-3.92a1.5 1.5 0 1 1 1.78-2.42L54.68 45l4.43-3.27a1.5 1.5 0 0 1 1.78 0L65.32 45l4.43-3.27a1.5 1.5 0 1 1 1.78 2.42l-5.32 3.92a1.5 1.5 0 0 1-.89.3z"/>
  <path class="cls-1" d="M35 55.17a1.5 1.5 0 0 1-.9-2.7l25-18.67a1.5 1.5 0 0 1 1.79 0l11.32 8.45a1.5 1.5 0 0 1-1.79 2.4L60 36.87l-24.1 18a1.5 1.5 0 0 1-.9.3zM67.56 80a1.5 1.5 0 0 1-1.41-1l-6.67-18.15a1.5 1.5 0 1 1 2.82-1L69 78a1.5 1.5 0 0 1-1.41 2z"/>
  <path class="cls-1" d="M67.56 86.5a8 8 0 1 1 8-8 8 8 0 0 1-8 8zm0-13a5 5 0 1 0 5 5 5 5 0 0 0-5-5zM41.5 86.5a8 8 0 1 1 8-8 8 8 0 0 1-8 8zm0-13a5 5 0 1 0 5 5 5 5 0 0 0-5-5z"/>
  <path class="cls-1" d="M52.67 80H41.5a1.5 1.5 0 0 1 0-3h11.17a1.5 1.5 0 1 1 0 3z"/>
  <path class="cls-1" d="M52.67 80a1.5 1.5 0 0 1-1.13-2.48L62 65.46a1.5 1.5 0 0 1 2.26 2L53.8 79.48a1.5 1.5 0 0 1-1.13.52zM49.26 71.38a1.5 1.5 0 0 1-1.38-.92l-2.68-6.37a1.5 1.5 0 1 1 2.8-1.17l2.68 6.37a1.5 1.5 0 0 1-1.38 2.08z"/>
  <path class="cls-1" d="M60.16 71.38h-10.9a1.5 1.5 0 0 1 0-3h10.9a1.5 1.5 0 0 1 0 3zM50.3 65h-7.45a1.5 1.5 0 0 1 0-3h7.45a1.5 1.5 0 0 1 0 3zM66.62 61.83h-5.73a1.5 1.5 0 0 1 0-3h5.72a1.5 1.5 0 0 1 0 3zM80.78 64.61A8.63 8.63 0 0 1 72 56.16a8.14 8.14 0 0 1 .25-2 8.32 8.32 0 0 1-3.63-6.84 8.61 8.61 0 0 1 8.22-8.43A8.75 8.75 0 0 1 85 33.5a1.5 1.5 0 0 1 0 3 5.69 5.69 0 0 0-5.63 4.22 1.49 1.49 0 0 1-1.56 1.14h-.42a5.63 5.63 0 0 0-5.79 5.45 5.41 5.41 0 0 0 3.11 4.83 1.5 1.5 0 0 1 .71 2 5.13 5.13 0 0 0-.42 2.02 5.63 5.63 0 0 0 5.79 5.45 6 6 0 0 0 3.38-1 1.5 1.5 0 1 1 1.69 2.48 9 9 0 0 1-5.08 1.52z"/>
  <path class="cls-1" d="M79.84 86.5a1.5 1.5 0 0 1 0-3 3.66 3.66 0 0 0 3.66-3.66v-18a1.5 1.5 0 1 1 3 0v18a6.67 6.67 0 0 1-6.66 6.66z"/>
</svg>
