<svg id="Calque_1" data-name="Calque 1" xmlns="http://www.w3.org/2000/svg" viewBox="0 0 80 80">
  <defs>
    <style>
      .cls-1{fill:currentColor}
    </style>
  </defs>
  <path class="cls-1" d="M60 71.5A11.51 11.51 0 0 1 48.5 60V40a11.5 11.5 0 0 1 23 0v20A11.51 11.51 0 0 1 60 71.5zm0-40a8.51 8.51 0 0 0-8.5 8.5v20a8.5 8.5 0 0 0 17 0V40a8.51 8.51 0 0 0-8.5-8.5z"/>
  <path class="cls-1" d="M70 47.65H50a1.5 1.5 0 0 1 0-3h20a1.5 1.5 0 0 1 0 3z"/>
  <path class="cls-1" d="M21.25 51.5A12.77 12.77 0 0 1 8.5 38.75V22.5a1.5 1.5 0 0 1 3 0v16.25a9.75 9.75 0 0 0 19.5 0v-15a15.25 15.25 0 1 1 30.5 0v22.4a1.5 1.5 0 0 1-3 0v-22.4a12.25 12.25 0 0 0-24.5 0v15A12.77 12.77 0 0 1 21.25 51.5zM10 16.3a1.5 1.5 0 0 1-1.5-1.5V10a1.5 1.5 0 0 1 3 0v4.8a1.5 1.5 0 0 1-1.5 1.5z"/>
</svg>
