<svg viewBox="0 0 80 80" fill="none" xmlns="http://www.w3.org/2000/svg">
<path fill-rule="evenodd" clip-rule="evenodd" d="M24.5 42C21.4624 42 19 44.4624 19 47.5C19 50.5376 21.4624 53 24.5 53C27.5376 53 30 50.5376 30 47.5C30 44.4624 27.5376 42 24.5 42ZM22 47.5C22 46.1193 23.1193 45 24.5 45C25.8807 45 27 46.1193 27 47.5C27 48.8807 25.8807 50 24.5 50C23.1193 50 22 48.8807 22 47.5Z" fill="currentColor"/>
<path fill-rule="evenodd" clip-rule="evenodd" d="M51 47.5C51 44.4624 53.4624 42 56.5 42C59.5376 42 62 44.4624 62 47.5C62 50.5376 59.5376 53 56.5 53C53.4624 53 51 50.5376 51 47.5ZM56.5 45C55.1193 45 54 46.1193 54 47.5C54 48.8807 55.1193 50 56.5 50C57.8807 50 59 48.8807 59 47.5C59 46.1193 57.8807 45 56.5 45Z" fill="currentColor"/>
<path d="M38.25 47.25C38.25 46.4216 37.5784 45.75 36.75 45.75C35.9216 45.75 35.25 46.4216 35.25 47.25C35.25 50.1495 37.6005 52.5 40.5 52.5C43.3995 52.5 45.75 50.1495 45.75 47.25C45.75 46.4216 45.0784 45.75 44.25 45.75C43.4216 45.75 42.75 46.4216 42.75 47.25C42.75 48.4926 41.7426 49.5 40.5 49.5C39.2574 49.5 38.25 48.4926 38.25 47.25Z" fill="currentColor"/>
<path fill-rule="evenodd" clip-rule="evenodd" d="M62 24.5C62 18.1487 56.8513 13 50.5 13L30.5 13C24.1487 13 19 18.1487 19 24.5L19 32H15.5C14.6716 32 14 32.6716 14 33.5C14 34.3284 14.6716 35 15.5 35H19V38.554C15.9999 40.4024 14 43.7176 14 47.5C14 51.2824 15.9999 54.5976 19 56.446V60.75C19 63.6495 21.3505 66 24.25 66C27.1495 66 29.5 63.6495 29.5 60.75V58H51.5V60.75C51.5 63.6495 53.8505 66 56.75 66C59.6495 66 62 63.6495 62 60.75V56.446C65.0001 54.5976 67 51.2824 67 47.5C67 43.7176 65.0001 40.4024 62 38.554V35H65.5C66.3284 35 67 34.3284 67 33.5C67 32.6716 66.3284 32 65.5 32H62V24.5ZM59 24.5V37H58.1256C57.5959 33.843 55.4227 31.2433 52.5158 30.1108C53.7249 29.149 54.5 27.665 54.5 26C54.5 23.1005 52.1495 20.75 49.25 20.75C46.3505 20.75 44 23.1005 44 26C44 27.665 44.7751 29.149 45.9842 30.1108C43.2685 31.1688 41.1931 33.5074 40.5 36.3846C39.8069 33.5074 37.7315 31.1688 35.0158 30.1108C36.2249 29.149 37 27.665 37 26C37 23.1005 34.6495 20.75 31.75 20.75C28.8505 20.75 26.5 23.1005 26.5 26C26.5 27.665 27.2751 29.149 28.4842 30.1108C25.5773 31.2433 23.4041 33.843 22.8744 37H22V24.5C22 19.8056 25.8056 16 30.5 16L50.5 16C55.1944 16 59 19.8056 59 24.5ZM43.439 37C44.1051 34.4122 46.4542 32.5 49.25 32.5C52.0458 32.5 54.3949 34.4122 55.061 37H43.439ZM24.5 40C20.3579 40 17 43.3579 17 47.5C17 51.6421 20.3579 55 24.5 55H56.5C60.6421 55 64 51.6421 64 47.5C64 43.3579 60.6421 40 56.5 40H24.5ZM31.75 32.5C34.5458 32.5 36.8949 34.4122 37.561 37H25.939C26.6051 34.4122 28.9542 32.5 31.75 32.5ZM54.5 60.75C54.5 61.9926 55.5074 63 56.75 63C57.9926 63 59 61.9926 59 60.75V58.5H54.5V60.75ZM24.25 63C23.0074 63 22 61.9926 22 60.75V58.5H26.5V60.75C26.5 61.9926 25.4926 63 24.25 63ZM49.25 23.75C48.0074 23.75 47 24.7574 47 26C47 27.2426 48.0074 28.25 49.25 28.25C50.4926 28.25 51.5 27.2426 51.5 26C51.5 24.7574 50.4926 23.75 49.25 23.75ZM29.5 26C29.5 24.7574 30.5074 23.75 31.75 23.75C32.9926 23.75 34 24.7574 34 26C34 27.2426 32.9926 28.25 31.75 28.25C30.5074 28.25 29.5 27.2426 29.5 26Z" fill="currentColor"/>
</svg>
