<svg id="Calque_1" data-name="Calque 1" xmlns="http://www.w3.org/2000/svg" viewBox="0 0 120 120"><defs><style>.cls-1{fill:currentColor;}</style></defs><title>Intergenerationnel</title><circle class="cls-2" cx="60" cy="60" r="51.5"/><path fill="#fff" d="M60,111.5A51.5,51.5,0,1,1,111.5,60,51.56,51.56,0,0,1,60,111.5Zm0-100A48.5,48.5,0,1,0,108.5,60,48.55,48.55,0,0,0,60,11.5Z"/><path class="cls-1" d="M79.45,86.5a1.5,1.5,0,0,1-.39-.05L34.61,74.54a1.5,1.5,0,1,1,.78-2.9L79.84,83.55a1.5,1.5,0,0,1-.39,2.95Z"/><path class="cls-1" d="M79.45,86.5A1.5,1.5,0,0,1,78,84.61a13.84,13.84,0,1,0-26.73-7.16,1.5,1.5,0,0,1-2.9-.78A16.84,16.84,0,0,1,80.9,85.39,1.5,1.5,0,0,1,79.45,86.5Z"/><path class="cls-1" d="M68.6,67.71a1.5,1.5,0,0,1-1.45-1.89l1.45-5.39a1.5,1.5,0,0,1,2.9.78L70.05,66.6A1.5,1.5,0,0,1,68.6,67.71Z"/><path class="cls-1" d="M73.78,63.86a2.52,2.52,0,0,1-.65-.09,14.21,14.21,0,0,1-3.48-1.44,15.28,15.28,0,0,1-3.74-.49h0a2.13,2.13,0,0,1-1.64-2.56,2,2,0,0,1,.92-1.19A2.36,2.36,0,0,1,67,57.88a14.23,14.23,0,0,1,3.48,1.44,14.58,14.58,0,0,1,3.74.49,2.13,2.13,0,0,1,1.64,2.56A2.06,2.06,0,0,1,73.78,63.86Zm-7.09-4.92h0Z"/><path class="cls-1" d="M41.79,59.15a1.5,1.5,0,0,1-.39-2.95L84.61,44.62a1.5,1.5,0,1,1,.78,2.9L42.18,59.1A1.5,1.5,0,0,1,41.79,59.15Z"/><path class="cls-1" d="M47,57.74h-.13a1.5,1.5,0,0,1-1.36-1.62l1.05-12a7.56,7.56,0,0,1,8.18-6.86l4.8.42,4-2.77A7.56,7.56,0,0,1,74,36.71L81,46.62a1.5,1.5,0,1,1-2.46,1.72l-6.94-9.91a4.55,4.55,0,0,0-6.33-1.12l-4.4,3.08a1.49,1.49,0,0,1-1,.27l-5.35-.47a4.56,4.56,0,0,0-4.93,4.13l-1.05,12A1.5,1.5,0,0,1,47,57.74Z"/><path class="cls-1" d="M45.38,51.63A11.66,11.66,0,0,1,33.74,40a1.5,1.5,0,0,1,1.5-1.5A14.09,14.09,0,0,1,49.07,49.55a1.5,1.5,0,0,1-1.14,1.79A11.7,11.7,0,0,1,45.38,51.63Zm-8.49-10a8.6,8.6,0,0,0,8.77,7A11.08,11.08,0,0,0,36.89,41.61Z"/></svg>
