<svg id="Calque_1" data-name="Calque 1" xmlns="http://www.w3.org/2000/svg" viewBox="0 0 80 80">
  <defs>
    <style>
      .cls-1{fill:currentColor}
    </style>
  </defs>
  <path class="cls-1" d="M69.6 71.5H10.12a1.5 1.5 0 0 1 0-3H69.6a1.5 1.5 0 0 1 0 3zM64.92 43.1H15.08a1.5 1.5 0 1 1 0-3h49.84a1.5 1.5 0 0 1 0 3zM63.9 31.85H15.82a1.5 1.5 0 1 1 0-3H63.9a1.5 1.5 0 0 1 0 3z"/>
  <path class="cls-1" d="M63.9 31.85a1.5 1.5 0 0 1-1-.35l-24-20.35a1.5 1.5 0 0 1 1.94-2.29l24 20.35a1.5 1.5 0 0 1-1 2.65z"/>
  <path class="cls-1" d="M15.82 31.85a1.5 1.5 0 0 1-1-2.65l24-20.35a1.5 1.5 0 0 1 1.94 2.29l-24 20.35a1.49 1.49 0 0 1-.94.36zM39.86 71.5a1.5 1.5 0 0 1-1.5-1.5V41.6a1.5 1.5 0 0 1 3 0V70a1.5 1.5 0 0 1-1.5 1.5zM24 71.5a1.5 1.5 0 0 1-1.5-1.5V41.6a1.5 1.5 0 0 1 3 0V70a1.5 1.5 0 0 1-1.5 1.5zM55.69 71.5a1.5 1.5 0 0 1-1.5-1.5V41.6a1.5 1.5 0 0 1 3 0V70a1.5 1.5 0 0 1-1.5 1.5zM70 48.18a1.5 1.5 0 0 1-1.5-1.5 3.58 3.58 0 0 0-3.58-3.58 1.5 1.5 0 0 1 0-3 6.58 6.58 0 0 1 6.58 6.58 1.5 1.5 0 0 1-1.5 1.5zM10 48.18a1.5 1.5 0 0 1-1.5-1.5 6.58 6.58 0 0 1 6.58-6.58 1.5 1.5 0 0 1 0 3 3.58 3.58 0 0 0-3.58 3.58 1.5 1.5 0 0 1-1.5 1.5z"/>
</svg>
