<svg viewBox="0 0 120 120" fill="none" xmlns="http://www.w3.org/2000/svg">
  <defs>
    <style>
      .cls-1{fill:currentColor}
    </style>
  </defs>
  <circle class="cls-2" cx="60" cy="60" r="51.5"/>
  <path fill-rule="evenodd" clip-rule="evenodd" d="M60 8.5C31.5573 8.5 8.5 31.5573 8.5 60C8.5 88.4427 31.5573 111.5 60 111.5C88.4427 111.5 111.5 88.4427 111.5 60C111.5 31.5573 88.4427 8.5 60 8.5ZM11.5 60C11.5 33.2142 33.2142 11.5 60 11.5C86.7858 11.5 108.5 33.2142 108.5 60C108.5 86.7858 86.7858 108.5 60 108.5C33.2142 108.5 11.5 86.7858 11.5 60Z" fill="#fff"/>
  <path class="cls-1" fill-rule="evenodd" clip-rule="evenodd" d="M76 33.5C72.4102 33.5 69.5 36.4102 69.5 40C69.5 43.5899 72.4102 46.5001 76 46.5001C79.5899 46.5001 82.5001 43.5899 82.5001 40C82.5001 36.4102 79.5899 33.5 76 33.5ZM72.5 40C72.5 38.067 74.067 36.5 76 36.5C77.9331 36.5 79.5001 38.067 79.5001 40C79.5001 41.9331 77.9331 43.5001 76 43.5001C74.067 43.5001 72.5 41.9331 72.5 40Z" />
  <path class="cls-1" fill-rule="evenodd" clip-rule="evenodd" d="M37.5 40C37.5 36.4102 40.4102 33.5 44 33.5C47.5899 33.5 50.5001 36.4102 50.5001 40C50.5001 43.5899 47.5899 46.5001 44 46.5001C40.4102 46.5001 37.5 43.5899 37.5 40ZM44 36.5C42.067 36.5 40.5 38.067 40.5 40C40.5 41.9331 42.067 43.5001 44 43.5001C45.9331 43.5001 47.5001 41.9331 47.5001 40C47.5001 38.067 45.9331 36.5 44 36.5Z" />
  <path class="cls-1" fill-rule="evenodd" clip-rule="evenodd" d="M56.212 41.2809C56.8851 40.882 57.7541 41.1043 58.153 41.7774C58.3897 42.1768 58.6389 42.5679 58.9003 42.9502C62.7748 48.6183 69.2856 52.3331 76.6632 52.3331C79.8578 52.3331 82.8935 51.6354 85.6229 50.3826C86.3758 50.037 86.706 49.1465 86.3604 48.3936C86.0148 47.6407 85.1243 47.3105 84.3714 47.6561C82.0267 48.7323 79.4172 49.3331 76.6632 49.3331C72.7256 49.3331 69.0746 48.1044 66.0729 46.0049C66.347 45.5948 66.6103 45.1769 66.8624 44.7514C68.106 42.6529 67.413 39.9437 65.3146 38.7001C63.5663 37.664 61.394 37.9721 59.9985 39.3174C58.6031 37.9721 56.4308 37.664 54.6825 38.7001C52.584 39.9437 51.891 42.6529 53.1346 44.7514C53.3868 45.1768 53.65 45.5947 53.924 46.0047C50.923 48.104 47.2735 49.333 43.3337 49.333C40.5798 49.333 37.9702 48.7323 35.6255 47.6561C34.8726 47.3105 33.9821 47.6407 33.6365 48.3936C33.291 49.1465 33.6212 50.037 34.3741 50.3826C37.1034 51.6353 40.1391 52.333 43.3337 52.333C47.9457 52.333 52.2222 50.8804 55.726 48.405C56.3389 49.1345 56.9893 49.8316 57.6744 50.4933C55.8 51.8628 53.7228 52.9707 51.4967 53.7634C50.899 53.9762 50.4999 54.542 50.4999 55.1765V81.9999C50.4999 82.8284 49.8283 83.4999 48.9999 83.4999C48.1715 83.4999 47.4999 82.8284 47.4999 81.9999V69C47.4999 68.1716 46.8283 67.5 45.9999 67.5H40.9999C40.1715 67.5 39.4999 68.1716 39.4999 69V82.0413C39.4999 82.8616 38.8409 83.5298 38.0207 83.5411C37.1841 83.5528 36.4998 82.8778 36.4998 82.0413V56C36.4998 55.1716 35.8282 54.5 34.9998 54.5C34.1714 54.5 33.4998 55.1716 33.4998 56V82.0413C33.4998 84.551 35.5529 86.5757 38.0623 86.5409C40.523 86.5067 42.4999 84.5023 42.4999 82.0413V70.5H44.4999V81.9999C44.4999 84.4852 46.5146 86.4999 48.9999 86.4999C51.4852 86.4999 53.4999 84.4852 53.4999 81.9999V56.2124C55.845 55.2721 58.0286 54.0168 59.9985 52.4998C61.9694 54.0177 64.154 55.2733 66.5 56.2136V82.0018C66.5 84.4883 68.5159 86.5 71 86.5C73.4853 86.5 75.5 84.4853 75.5 82V70.5H77.5V82.0014C77.5 84.4859 79.5141 86.5 81.9986 86.5C84.4831 86.5 86.4971 84.4859 86.4971 82.0014V56C86.4971 55.1716 85.8256 54.5 84.9971 54.5C84.1687 54.5 83.4971 55.1716 83.4971 56V82.0014C83.4971 82.8291 82.8262 83.5 81.9986 83.5C81.1709 83.5 80.5 82.8291 80.5 82.0014V69C80.5 68.1716 79.8284 67.5 79 67.5H74C73.1716 67.5 72.5 68.1716 72.5 69V82C72.5 82.8284 71.8284 83.5 71 83.5C70.1704 83.5 69.5 82.8291 69.5 82.0018V55.1775C69.5 54.543 69.1008 53.9771 68.503 53.7644C65.7475 52.7836 63.2204 51.3198 61.0241 49.4755C61.0059 49.4586 60.9873 49.442 60.9682 49.4259C59.5626 48.238 58.2938 46.894 57.1889 45.4212C57.1889 45.4212 57.1549 45.3771 57.1371 45.3559C56.9398 45.0911 56.7478 44.8221 56.5612 44.5491C56.2655 44.1166 55.9834 43.674 55.7155 43.2219C55.3166 42.5488 55.5389 41.6798 56.212 41.2809ZM61.7988 41.8492C62.3893 42.6445 63.0416 43.3905 63.7487 44.08C63.9321 43.798 64.1097 43.5119 64.2816 43.2219C64.6805 42.5488 64.4582 41.6798 63.7851 41.2809C63.112 40.882 62.243 41.1043 61.8441 41.7774C61.8296 41.8019 61.8145 41.8258 61.7988 41.8492Z" />
</svg>
