<svg id="Calque_1" data-name="Calque 1" xmlns="http://www.w3.org/2000/svg" viewBox="0 0 80 80"><defs><style>.cls-1{fill:none;stroke:currentColor;stroke-linecap:round;stroke-linejoin:round;stroke-width:3px;}</style></defs><title>Intergenerationnel_S</title><line class="cls-1" x1="15" y1="53.09" x2="59.45" y2="65"/><path class="cls-1" d="M29.82,57.06A15.34,15.34,0,1,1,59.45,65"/><line class="cls-1" x1="50.05" y1="40.82" x2="48.6" y2="46.21"/><path class="cls-1" d="M46.3,40.39c-.4-.11-.66-.43-.58-.73h0a.67.67,0,0,1,.86-.34A12.68,12.68,0,0,1,50,40.82a12.68,12.68,0,0,1,3.75.43c.4.11.66.43.58.73h0a.67.67,0,0,1-.86.34A12.68,12.68,0,0,1,50,40.82,12.68,12.68,0,0,1,46.3,40.39Z"/><line class="cls-1" x1="21.79" y1="37.65" x2="65" y2="26.07"/><path class="cls-1" d="M59.75,27.48l-6.94-9.91a6.06,6.06,0,0,0-8.42-1.48L40,19.17l-5.35-.47a6.06,6.06,0,0,0-6.55,5.5L27,36.24"/><path class="cls-1" d="M27.6,29.88A10.12,10.12,0,0,1,15.24,20,12.68,12.68,0,0,1,27.6,29.88Z"/></svg>