<svg viewBox="0 0 140 140" fill="none" xmlns="http://www.w3.org/2000/svg">
<path fill-rule="evenodd" clip-rule="evenodd" d="M64.5 66C64.5 62.9624 66.9624 60.5 70 60.5C73.0376 60.5 75.5 62.9624 75.5 66C75.5 69.0376 73.0376 71.5 70 71.5C66.9624 71.5 64.5 69.0376 64.5 66ZM70 63.5C68.6193 63.5 67.5 64.6193 67.5 66C67.5 67.3807 68.6193 68.5 70 68.5C71.3807 68.5 72.5 67.3807 72.5 66C72.5 64.6193 71.3807 63.5 70 63.5Z" fill="currentColor"/>
<path d="M69.899 30.5C63.6778 30.5 58.5 35.5397 58.5 41.8V42C58.5 42.8284 59.1716 43.5 60 43.5C60.8284 43.5 61.5 42.8284 61.5 42V41.8C61.5 37.2356 65.2954 33.5 69.899 33.5C74.6131 33.5 78.5 37.3251 78.5 42V42.9091C78.5 47.1014 75.1014 50.5 70.9091 50.5C69.5786 50.5 68.5 51.5786 68.5 52.9091V56C68.5 56.8284 69.1716 57.5 70 57.5C70.8284 57.5 71.5 56.8284 71.5 56V53.4838C77.0743 53.1772 81.5 48.56 81.5 42.9091V42C81.5 35.6292 76.2306 30.5 69.899 30.5Z" fill="currentColor"/>
<path fill-rule="evenodd" clip-rule="evenodd" d="M16.5 16.5H123.5V83.5H16.5V16.5ZM19.5 19.5V80.5H120.5V19.5H19.5Z" fill="currentColor"/>
<path fill-rule="evenodd" clip-rule="evenodd" d="M8.5 16C8.5 11.8579 11.8579 8.5 16 8.5H124C128.142 8.5 131.5 11.8579 131.5 16V100C131.5 104.142 128.142 107.5 124 107.5H87.5V120.5H94C97.0376 120.5 99.5 122.962 99.5 126C99.5 129.038 97.0376 131.5 94 131.5H46C42.9624 131.5 40.5 129.038 40.5 126C40.5 122.962 42.9624 120.5 46 120.5H52.5V107.5H16C11.8579 107.5 8.5 104.142 8.5 100V16ZM84.5 120.5V107.5H55.5V120.5H84.5ZM46 123.5C44.6193 123.5 43.5 124.619 43.5 126C43.5 127.381 44.6193 128.5 46 128.5H94C95.3807 128.5 96.5 127.381 96.5 126C96.5 124.619 95.3807 123.5 94 123.5H46ZM124 104.5H16C13.5147 104.5 11.5 102.485 11.5 100V91.5H128.5V100C128.5 102.485 126.485 104.5 124 104.5ZM11.5 88.5H128.5V16C128.5 13.5147 126.485 11.5 124 11.5H16C13.5147 11.5 11.5 13.5147 11.5 16V88.5Z" fill="currentColor"/>
</svg>
