<svg viewBox="0 0 120 120" fill="none" xmlns="http://www.w3.org/2000/svg">
  <defs>
    <style>
      .cls-1{fill:currentColor}
    </style>
  </defs>
  <circle class="cls-2" cx="60" cy="60" r="51.5"/>
  <path fill-rule="evenodd" clip-rule="evenodd" d="M60 8.5C31.5573 8.5 8.5 31.5573 8.5 60C8.5 88.4427 31.5573 111.5 60 111.5C88.4427 111.5 111.5 88.4427 111.5 60C111.5 31.5573 88.4427 8.5 60 8.5ZM11.5 60C11.5 33.2142 33.2142 11.5 60 11.5C86.7858 11.5 108.5 33.2142 108.5 60C108.5 86.7858 86.7858 108.5 60 108.5C33.2142 108.5 11.5 86.7858 11.5 60Z" fill="#fff"/>
  <path class="cls-1" d="M54.5 48.9596C54.5 45.9444 56.9443 43.5 59.9596 43.5C63.0195 43.5 65.5 45.9805 65.5 49.0404V49.2553C65.5 52.1519 63.1519 54.5 60.2553 54.5H60C59.1716 54.5 58.5 53.8284 58.5 53C58.5 52.1715 59.1716 51.5 60 51.5H60.2553C61.495 51.5 62.5 50.495 62.5 49.2553V49.0404C62.5 47.6374 61.3626 46.5 59.9596 46.5C58.6012 46.5 57.5 47.6012 57.5 48.9596V49C57.5 49.8285 56.8284 50.5 56 50.5C55.1716 50.5 54.5 49.8285 54.5 49V48.9596Z" />
  <path class="cls-1" d="M61.5 57.5C61.5 56.6716 60.8284 56 60 56C59.1716 56 58.5 56.6716 58.5 57.5V57.525C58.5 58.3534 59.1716 59.025 60 59.025C60.8284 59.025 61.5 58.3534 61.5 57.525V57.5Z" />
  <path class="cls-1" fill-rule="evenodd" clip-rule="evenodd" d="M38.5 40C38.5 39.1716 39.1716 38.5 40 38.5H80C80.8284 38.5 81.5 39.1716 81.5 40V62C81.5 62.8284 80.8284 63.5 80 63.5H40C39.1716 63.5 38.5 62.8284 38.5 62V40ZM41.5 41.5V60.5H78.5V41.5H41.5Z" />
  <path class="cls-1" fill-rule="evenodd" clip-rule="evenodd" d="M37.5 33.5C35.2909 33.5 33.5 35.2909 33.5 37.5V72.5C33.5 74.7091 35.2909 76.5 37.5 76.5H53.5V83.5H48.3337C47.5053 83.5 46.8337 84.1716 46.8337 85C46.8337 85.8284 47.5053 86.5 48.3337 86.5H71.6671C72.4955 86.5 73.1671 85.8284 73.1671 85C73.1671 84.1716 72.4955 83.5 71.6671 83.5H66.5V76.5H82.5C84.7091 76.5 86.5 74.7091 86.5 72.5V37.5C86.5 35.2909 84.7091 33.5 82.5 33.5H37.5ZM63.5 83.5V76.5H56.5V83.5H63.5ZM82.5 73.5H37.5C36.9477 73.5 36.5 73.0523 36.5 72.5V69.8333H83.5V72.5C83.5 73.0523 83.0523 73.5 82.5 73.5ZM83.5 66.5V37.5C83.5 36.9477 83.0523 36.5 82.5 36.5H37.5C36.9477 36.5 36.5 36.9477 36.5 37.5V66.5H83.5Z" />
</svg>
