<svg id="Calque_1" data-name="Calque 1" xmlns="http://www.w3.org/2000/svg" viewBox="0 0 120 120">
  <defs>
    <style>
      .cls-1{fill:currentColor}
    </style>
  </defs>
  <circle class="cls-2" cx="60" cy="60" r="51.5"/>
  <path fill="#fff" d="M60 111.5A51.5 51.5 0 1 1 111.5 60 51.56 51.56 0 0 1 60 111.5zm0-100A48.5 48.5 0 1 0 108.5 60 48.55 48.55 0 0 0 60 11.5z"/>
  <path class="cls-1" d="M70.39 86.52a3.23 3.23 0 0 1-2.29-.95l-12.9-12.9a3.24 3.24 0 0 1 0-4.58L68.1 55.2a3.24 3.24 0 0 1 4.58 0l12.9 12.9a3.24 3.24 0 0 1 0 4.58l-12.9 12.9a3.23 3.23 0 0 1-2.29.94zm0-29.27a.24.24 0 0 0-.17.07l-12.9 12.9a.24.24 0 0 0 0 .34l12.9 12.9a.24.24 0 0 0 .34 0l12.9-12.9a.24.24 0 0 0 0-.34l-12.9-12.9a.24.24 0 0 0-.17-.07z"/>
  <path class="cls-1" d="M70.39 72.83a2.45 2.45 0 1 1 1.73-.72 2.44 2.44 0 0 1-1.73.72zm0-3A.55.55 0 0 0 70 70a.55.55 0 1 0 .78 0 .55.55 0 0 0-.39-.17zM70.39 66.13a2.45 2.45 0 1 1 1.73-.72 2.44 2.44 0 0 1-1.73.72zm.67-1.78zM70 63.29a.55.55 0 0 0 .78.78zm.39-.16a.55.55 0 0 0-.39.16l.78.78a.55.55 0 0 0-.39-.94zM77.09 72.83a2.45 2.45 0 1 1 1.73-.72 2.44 2.44 0 0 1-1.73.72zm0-3a.55.55 0 0 0-.39.16.55.55 0 1 0 .78 0 .55.55 0 0 0-.39-.16zM63.69 72.83a2.47 2.47 0 0 1-1.69-.72 2.45 2.45 0 0 1 1.73-4.18 2.45 2.45 0 0 1 0 4.9zm0-3a.55.55 0 1 0 0 1.1.55.55 0 1 0 0-1.1zM70.39 79.53a2.45 2.45 0 1 1 1.73-.72 2.44 2.44 0 0 1-1.73.72zM70 76.7a.55.55 0 0 0 0 .78.55.55 0 0 0 .94-.39.55.55 0 0 0-.94-.39zM45.88 64.91a3.26 3.26 0 0 1-.88-.11 3.21 3.21 0 0 1-2-1.51L34 47.5a3.24 3.24 0 0 1 1.18-4.42L50.94 34a3.24 3.24 0 0 1 4.42 1.18l9.12 15.8a3.24 3.24 0 0 1-1.18 4.42l-15.8 9.08a3.22 3.22 0 0 1-1.62.43zm6.67-28.39a.24.24 0 0 0-.12 0l-15.8 9.12a.24.24 0 0 0-.09.32l9.12 15.8a.24.24 0 0 0 .32.09l15.8-9.12a.24.24 0 0 0 .09-.32l-9.12-15.8a.24.24 0 0 0-.2-.09zm10 17.54z"/>
  <path class="cls-1" d="M49.22 51.66a2.45 2.45 0 1 1 1.22-.33 2.45 2.45 0 0 1-1.22.33zm0-3a.55.55 0 1 0 .14 0zM42.75 49.93a2.46 2.46 0 0 1-.64-.08 2.43 2.43 0 1 1 .64.08zm0-3a.55.55 0 0 0-.28.07.55.55 0 1 0 .28-.07zM55.69 53.4a2.46 2.46 0 0 1-.64-.08 2.43 2.43 0 1 1 .64.08zm-.48-2.17a.55.55 0 1 0-.06-.42.55.55 0 0 0 .06.42zm0 0z"/>
</svg>
