<svg id="Calque_1" data-name="Calque 1" xmlns="http://www.w3.org/2000/svg" viewBox="0 0 120 120"><defs><style>.cls-1{fill:currentColor;}</style></defs><title>MouvementsEtBienEtre</title><circle cx="60" cy="60" r="51.5" /><path fill="#fff" d="M60,111.5A51.5,51.5,0,1,1,111.5,60,51.56,51.56,0,0,1,60,111.5Zm0-100A48.5,48.5,0,1,0,108.5,60,48.55,48.55,0,0,0,60,11.5Z"/><path class="cls-1" d="M40.33,61.5H35a1.5,1.5,0,0,1,0-3h5.33a1.5,1.5,0,0,1,0,3Z"/><path class="cls-1" d="M35,69.83a1.5,1.5,0,0,1-1.5-1.5V51.67a1.5,1.5,0,0,1,3,0V68.33A1.5,1.5,0,0,1,35,69.83Z"/><path class="cls-1" d="M85,69.83a1.5,1.5,0,0,1-1.5-1.5V51.67a1.5,1.5,0,0,1,3,0V68.33A1.5,1.5,0,0,1,85,69.83Z"/><path class="cls-1" d="M79.67,86.5h-7a1.5,1.5,0,0,1-1.5-1.5V35a1.5,1.5,0,0,1,1.5-1.5h7a1.5,1.5,0,0,1,1.5,1.5V85A1.5,1.5,0,0,1,79.67,86.5Zm-5.5-3h4v-47h-4Z"/><path class="cls-1" d="M47.33,86.5h-7a1.5,1.5,0,0,1-1.5-1.5V35a1.5,1.5,0,0,1,1.5-1.5h7a1.5,1.5,0,0,1,1.5,1.5V85A1.5,1.5,0,0,1,47.33,86.5Zm-5.5-3h4v-47h-4Z"/><path class="cls-1" d="M72.67,61.5H47.33a1.5,1.5,0,0,1,0-3H72.67a1.5,1.5,0,0,1,0,3Z"/><path class="cls-1" d="M85,61.5H79.67a1.5,1.5,0,0,1,0-3H85a1.5,1.5,0,0,1,0,3Z"/></svg>
