<svg id="Calque_1" data-name="Calque 1" xmlns="http://www.w3.org/2000/svg" viewBox="0 0 80 80">
  <defs>
    <style>
      .cls-1{fill:currentColor}
    </style>
  </defs>
  <path class="cls-1" d="M40 59.9a9 9 0 0 1-9-9V40a1.5 1.5 0 0 1 3 0v10.9a6 6 0 0 0 12 0V40a1.5 1.5 0 0 1 3 0v10.9a9 9 0 0 1-9 9z"/>
  <path class="cls-1" d="M40 53.65a1.5 1.5 0 0 1-1.5-1.5v-3.61a1.5 1.5 0 0 1 3 0v3.61a1.5 1.5 0 0 1-1.5 1.5zM70 29.5H10A1.5 1.5 0 0 1 8.5 28v-6A13.52 13.52 0 0 1 22 8.5h36A13.52 13.52 0 0 1 71.5 22v6a1.5 1.5 0 0 1-1.5 1.5zm-58.5-3h57V22A10.51 10.51 0 0 0 58 11.5H22A10.51 10.51 0 0 0 11.5 22z"/>
  <path class="cls-1" d="M40 50a2.64 2.64 0 0 1-1.32-4.92A2.64 2.64 0 1 1 40 50zm-.32-2.46a.37.37 0 0 0 .22.17.37.37 0 0 0 .28 0 .36.36 0 0 0-.09-.67.37.37 0 0 0-.28 0 .36.36 0 0 0-.13.5zm0 0z"/>
  <path class="cls-1" d="M70 71.5H10A1.5 1.5 0 0 1 8.5 70V40a1.5 1.5 0 0 1 1.5-1.5h60a1.5 1.5 0 0 1 1.5 1.5v30a1.5 1.5 0 0 1-1.5 1.5zm-58.5-3h57v-27h-57z"/>
  <path class="cls-1" d="M10 41.5A1.5 1.5 0 0 1 8.87 39l10.4-12a1.5 1.5 0 0 1 2.27 2L11.13 41a1.5 1.5 0 0 1-1.13.5zM70 41.5a1.5 1.5 0 0 1-1.13-.5l-10.4-12a1.5 1.5 0 0 1 2.27-2l10.4 12A1.5 1.5 0 0 1 70 41.5z"/>
</svg>
