<svg id="Calque_1" data-name="Calque 1" xmlns="http://www.w3.org/2000/svg" viewBox="0 0 120 120">
  <defs>
    <style>
      .cls-1{fill:currentColor}
    </style>
  </defs>
  <circle cx="60" cy="60" r="51.5"/>
  <path fill="#fff" d="M60 111.5A51.5 51.5 0 1 1 111.5 60 51.56 51.56 0 0 1 60 111.5zm0-100A48.5 48.5 0 1 0 108.5 60 48.55 48.55 0 0 0 60 11.5z"/>
  <path class="cls-1" d="M40.33 61.5H35a1.5 1.5 0 0 1 0-3h5.33a1.5 1.5 0 0 1 0 3z"/>
  <path class="cls-1" d="M35 69.83a1.5 1.5 0 0 1-1.5-1.5V51.67a1.5 1.5 0 0 1 3 0v16.66a1.5 1.5 0 0 1-1.5 1.5zM85 69.83a1.5 1.5 0 0 1-1.5-1.5V51.67a1.5 1.5 0 0 1 3 0v16.66a1.5 1.5 0 0 1-1.5 1.5zM79.67 86.5h-7a1.5 1.5 0 0 1-1.5-1.5V35a1.5 1.5 0 0 1 1.5-1.5h7a1.5 1.5 0 0 1 1.5 1.5v50a1.5 1.5 0 0 1-1.5 1.5zm-5.5-3h4v-47h-4zM47.33 86.5h-7a1.5 1.5 0 0 1-1.5-1.5V35a1.5 1.5 0 0 1 1.5-1.5h7a1.5 1.5 0 0 1 1.5 1.5v50a1.5 1.5 0 0 1-1.5 1.5zm-5.5-3h4v-47h-4z"/>
  <path class="cls-1" d="M72.67 61.5H47.33a1.5 1.5 0 0 1 0-3h25.34a1.5 1.5 0 0 1 0 3zM85 61.5h-5.33a1.5 1.5 0 0 1 0-3H85a1.5 1.5 0 0 1 0 3z"/>
</svg>
