<svg fill="none" xmlns="http://www.w3.org/2000/svg" viewBox="0 0 62 62">
  <path fill-rule="evenodd" clip-rule="evenodd" d="M11.25 9a.75.75 0 01.75-.75h30a.75.75 0 01.75.75v16a.75.75 0 01-1.5 0V9.75h-28.5V36a.75.75 0 01-1.5 0V9z" fill="currentColor"/>
  <path fill-rule="evenodd" clip-rule="evenodd" d="M19.47.47A.75.75 0 0120 .25h30a.75.75 0 01.75.75v24a.75.75 0 01-1.5 0V2.81l-6.72 6.72a.75.75 0 11-1.06-1.06l6.72-6.72H20.31l-7.78 7.78a.75.75 0 11-1.06-1.06l8-8z" fill="currentColor"/>
  <path fill-rule="evenodd" clip-rule="evenodd" d="M22.25 9a.75.75 0 01.75-.75h8a.75.75 0 01.75.75v8a.75.75 0 01-.75.75h-8a.75.75 0 01-.75-.75V9zm1.5.75v6.5h6.5v-6.5h-6.5z" fill="currentColor"/>
  <path fill-rule="evenodd" clip-rule="evenodd" d="M26.47 4.47a.75.75 0 01.53-.22h8a.75.75 0 01.53 1.28l-4 4a.75.75 0 01-.53.22h-8a.75.75 0 01-.53-1.28l4-4zm.84 1.28l-2.5 2.5h5.88l2.5-2.5h-5.88zM61.505 16.47a.75.75 0 010 1.06l-8 8a.75.75 0 01-.53.22h-20.25a2 2 0 100 4h9.75a.75.75 0 01.53 1.28l-15.25 15.25a1.725 1.725 0 002.44 2.44l3.499-3.5a.75.75 0 011.06 1.06m-1.926 1.927l-1.573 1.573a3.225 3.225 0 01-4.56-4.56l13.969-13.97h-7.94a3.5 3.5 0 110-7h19.94l7.78-7.78a.75.75 0 011.06 0M32.829 48.207a3.225 3.225 0 005.427 1.573l1.573-1.573a3.225 3.225 0 005.427 1.573l1.573-1.572a3.225 3.225 0 005.427 1.573l9.25-9.25a.75.75 0 10-1.06-1.061l-9.25 9.25a1.725 1.725 0 01-2.455-2.424.75.75 0 00-1.067-1.054l-3.479 3.478a1.725 1.725 0 01-2.44-2.438l-.53-.53" fill="currentColor"/>
  <path fill-rule="evenodd" clip-rule="evenodd" d="M54.505 39.47a.75.75 0 010 1.06l-6 6a.75.75 0 11-1.06-1.06l6-6a.75.75 0 011.06 0zM47.505 39.47a.75.75 0 010 1.06l-6 6a.75.75 0 11-1.06-1.06l6-6a.75.75 0 011.06 0zM40.505 39.47a.75.75 0 010 1.06l-6 6a.75.75 0 11-1.06-1.06l6-6a.75.75 0 011.06 0z" fill="currentColor"/>
  <path fill-rule="evenodd" clip-rule="evenodd" d="M.495 27.47a.75.75 0 000 1.06l8 8c.14.141.331.22.53.22h20.25a2 2 0 110 4h-9.75a.75.75 0 00-.53 1.28l15.25 15.25a1.725 1.725 0 01-2.44 2.44l-3.499-3.5a.75.75 0 00-1.06 1.06m1.926 1.927l1.573 1.573a3.225 3.225 0 004.56-4.56L21.337 42.25h7.94a3.5 3.5 0 100-7H9.335l-7.78-7.78a.75.75 0 00-1.06 0m28.676 31.737a3.225 3.225 0 01-5.427 1.573l-1.573-1.573a3.225 3.225 0 01-5.427 1.573l-1.573-1.572a3.225 3.225 0 01-5.427 1.573l-9.25-9.25a.75.75 0 111.06-1.061l9.25 9.25a1.725 1.725 0 002.455-2.424.75.75 0 011.067-1.054l3.478 3.478a1.725 1.725 0 002.441-2.438l.53-.53" fill="currentColor"/>
  <path fill-rule="evenodd" clip-rule="evenodd" d="M7.495 50.47a.75.75 0 000 1.06l6 6a.75.75 0 101.06-1.06l-6-6a.75.75 0 00-1.06 0zM14.495 50.47a.75.75 0 000 1.06l6 6a.75.75 0 101.06-1.06l-6-6a.75.75 0 00-1.06 0zM21.495 50.47a.75.75 0 000 1.06l6 6a.75.75 0 101.06-1.06l-6-6a.75.75 0 00-1.06 0z" fill="currentColor"/>
</svg>
