<svg id="Calque_1" data-name="Calque 1" xmlns="http://www.w3.org/2000/svg" viewBox="0 0 80 80"><defs><style>.cls-1{fill:currentColor;}</style></defs><title>Manifestations_S</title><path class="cls-1" d="M51.25,61.5C39.75,61.5,31,39.67,31,28.75a20.25,20.25,0,0,1,40.5,0C71.5,39.67,62.75,61.5,51.25,61.5Zm0-50A17.27,17.27,0,0,0,34,28.75c0,5.14,2.14,12.7,5.32,18.82,3.62,6.95,8,10.93,11.93,10.93s8.31-4,11.93-10.93c3.18-6.12,5.32-13.68,5.32-18.82A17.27,17.27,0,0,0,51.25,11.5Z"/><path class="cls-1" d="M51.25,71.5a1.5,1.5,0,0,1-1.5-1.5V60a1.5,1.5,0,0,1,3,0V70A1.5,1.5,0,0,1,51.25,71.5Z"/><path class="cls-1" d="M22.5,54.83c-3.66,0-7.27-3.07-10.17-8.64C10,41.8,8.5,36.29,8.5,32.5A14,14,0,0,1,34,24.59a1.5,1.5,0,1,1-2.47,1.7A11,11,0,0,0,11.5,32.5c0,6.93,5.54,19.33,11,19.33,4.17,0,8.34-7.13,10.14-13.84a1.5,1.5,0,1,1,2.9.78C33.46,46.51,28.5,54.83,22.5,54.83Z"/><path class="cls-1" d="M22.5,61.5A1.5,1.5,0,0,1,21,60V53.33a1.5,1.5,0,0,1,3,0V60A1.5,1.5,0,0,1,22.5,61.5Z"/></svg>