<svg id="Calque_1" data-name="Calque 1" xmlns="http://www.w3.org/2000/svg" viewBox="0 0 140 140"><defs><style>.cls-1{fill:currentColor;}</style></defs><title>Cuisine_L</title><path class="cls-1" d="M50,121.5H40a1.5,1.5,0,0,1-1.5-1.5V85A1.5,1.5,0,0,1,40,83.5H50A1.5,1.5,0,0,1,51.5,85v35A1.5,1.5,0,0,1,50,121.5Zm-8.5-3h7v-32h-7Z"/><path class="cls-1" d="M20,121.5H10A1.5,1.5,0,0,1,8.5,120V85A1.5,1.5,0,0,1,10,83.5H20A1.5,1.5,0,0,1,21.5,85v35A1.5,1.5,0,0,1,20,121.5Zm-8.5-3h7v-32h-7Z"/><path class="cls-1" d="M50,86.5H40A1.5,1.5,0,0,1,38.5,85V61.33a6.51,6.51,0,0,1-5-6.33s0-.1,0-.15l2.5-25A1.5,1.5,0,0,1,37.5,28.5h15A1.5,1.5,0,0,1,54,29.85l2.5,25s0,.1,0,.15a6.51,6.51,0,0,1-5,6.33V85A1.5,1.5,0,0,1,50,86.5Zm-8.5-3h7V60A1.5,1.5,0,0,1,50,58.5a3.5,3.5,0,0,0,3.5-3.43L51.14,31.5H38.86L36.5,55.07A3.5,3.5,0,0,0,40,58.5,1.5,1.5,0,0,1,41.5,60Z"/><path class="cls-1" d="M20,86.5H10A1.5,1.5,0,0,1,8.5,85V30A1.5,1.5,0,0,1,10,28.5h5a1.5,1.5,0,0,1,1.44,1.09l10,35a1.51,1.51,0,0,1,.06.41,6.51,6.51,0,0,1-5,6.33V85A1.5,1.5,0,0,1,20,86.5Zm-8.5-3h7V70A1.5,1.5,0,0,1,20,68.5a3.5,3.5,0,0,0,3.49-3.31L13.87,31.5H11.5Z"/><path class="cls-1" d="M70,131.5A61.42,61.42,0,0,1,18.75,104a1.5,1.5,0,0,1,2.5-1.66,58.5,58.5,0,1,0-2-61.36,1.5,1.5,0,1,1-2.6-1.49A61.5,61.5,0,1,1,70,131.5Z"/><path class="cls-1" d="M47.5,51.5A1.5,1.5,0,0,1,46,50V30a1.5,1.5,0,0,1,3,0V50A1.5,1.5,0,0,1,47.5,51.5Z"/><path class="cls-1" d="M42.5,51.5A1.5,1.5,0,0,1,41,50V30a1.5,1.5,0,0,1,3,0V50A1.5,1.5,0,0,1,42.5,51.5Z"/><path class="cls-1" d="M82.46,104A21.52,21.52,0,0,1,61,82.5v-20a11.42,11.42,0,0,1,3.32-8.08L77.11,38.81a6.5,6.5,0,0,1,.74-.9l0,0A6.5,6.5,0,0,1,85,36.51l23.92,10.8a16.49,16.49,0,0,1,7.23,24.42L100.28,94.54A21.48,21.48,0,0,1,82.46,104Zm-3-63.33L66.55,56.38l-.1.11a8.45,8.45,0,0,0-2.49,6v20A18.5,18.5,0,0,0,97.8,92.84L113.67,70a13.42,13.42,0,0,0,2-4.81,13.52,13.52,0,0,0-8-15.16L83.79,39.26A3.44,3.44,0,0,0,82.46,39,3.48,3.48,0,0,0,80,40l-.56.69Z"/><path class="cls-1" d="M104.12,79.49a1.5,1.5,0,0,1-1.3-.75l-15-26a1.5,1.5,0,0,1,2.6-1.5l15,26a1.5,1.5,0,0,1-1.3,2.25Z"/><path class="cls-1" d="M95.46,84.49a1.5,1.5,0,0,1-1.3-.75l-15-26a1.5,1.5,0,0,1,2.6-1.5l15,26a1.5,1.5,0,0,1-1.3,2.25Z"/><path class="cls-1" d="M86.8,89.49a1.5,1.5,0,0,1-1.3-.75l-15-26a1.5,1.5,0,0,1,2.6-1.5l15,26a1.5,1.5,0,0,1-1.3,2.25Z"/></svg>