<svg viewBox="0 0 140 140" fill="none" xmlns="http://www.w3.org/2000/svg">
<path fill-rule="evenodd" clip-rule="evenodd" d="M30.0001 8.5C21.4397 8.5 14.5001 15.4396 14.5001 24C14.5001 32.5604 21.4397 39.5 30.0001 39.5C38.5605 39.5 45.5001 32.5604 45.5001 24C45.5001 15.4396 38.5605 8.5 30.0001 8.5ZM17.5001 24C17.5001 17.0964 23.0966 11.5 30.0001 11.5C36.9037 11.5 42.5001 17.0964 42.5001 24C42.5001 30.9036 36.9037 36.5 30.0001 36.5C23.0966 36.5 17.5001 30.9036 17.5001 24Z" fill="currentColor"/>
<path fill-rule="evenodd" clip-rule="evenodd" d="M110 8.5C101.44 8.5 94.5001 15.4396 94.5001 24C94.5001 32.5604 101.44 39.5 110 39.5C118.561 39.5 125.5 32.5604 125.5 24C125.5 15.4396 118.561 8.5 110 8.5ZM97.5001 24C97.5001 17.0964 103.097 11.5 110 11.5C116.904 11.5 122.5 17.0964 122.5 24C122.5 30.9036 116.904 36.5 110 36.5C103.097 36.5 97.5001 30.9036 97.5001 24Z" fill="currentColor"/>
<path fill-rule="evenodd" clip-rule="evenodd" d="M67.3812 25.1961C65.8325 22.5829 62.4588 21.7199 59.8456 23.2686C57.2324 24.8172 56.3695 28.191 57.9181 30.8041C58.5842 31.9281 59.2856 33.0285 60.0206 34.1039C67.3276 44.7932 77.9864 53.0258 90.4838 57.283C91.0915 57.49 91.5001 58.0608 91.5001 58.7029V123C91.5001 126.038 93.9625 128.5 97.0001 128.5C100.038 128.5 102.5 126.038 102.5 123V92C102.5 91.1716 103.172 90.5 104 90.5H116C116.829 90.5 117.5 91.1716 117.5 92V123C117.5 126.038 119.963 128.5 123 128.5C126.038 128.5 128.5 126.038 128.5 123V58.7029C128.5 57.8744 129.172 57.2029 130 57.2029C130.829 57.2029 131.5 57.8744 131.5 58.7029V123C131.5 127.694 127.695 131.5 123 131.5C118.306 131.5 114.5 127.694 114.5 123V93.5H105.5V123C105.5 127.694 101.695 131.5 97.0001 131.5C92.3057 131.5 88.5001 127.694 88.5001 123V59.7668C81.7232 57.3284 75.4822 53.7712 70 49.3202C64.5181 53.7708 58.2771 57.3282 51.4999 59.7668V123C51.4999 127.694 47.6943 131.5 42.9999 131.5C38.3055 131.5 34.4999 127.694 34.4999 123V93.5H25.4999V123C25.4999 127.694 21.6943 131.5 16.9999 131.5C12.3055 131.5 8.49988 127.694 8.49988 123V58.7029C8.49988 57.8744 9.17145 57.2029 9.99988 57.2029C10.8283 57.2029 11.4999 57.8744 11.4999 58.7029V123C11.4999 126.038 13.9623 128.5 16.9999 128.5C20.0374 128.5 22.4999 126.038 22.4999 123V92C22.4999 91.1716 23.1715 90.5 23.9999 90.5H35.9999C36.8283 90.5 37.4999 91.1716 37.4999 92V123C37.4999 126.038 39.9623 128.5 42.9999 128.5C46.0374 128.5 48.4999 126.038 48.4999 123V58.7029C48.4999 58.0608 48.9085 57.49 49.5162 57.283C56.1657 55.0179 62.2949 51.6273 67.676 47.3395C64.9285 44.8818 62.3967 42.1888 60.1125 39.2926C51.767 45.6983 41.3256 49.5001 30.0011 49.5001C22.6426 49.5001 15.6552 47.8935 9.37414 45.0104C8.62124 44.6649 8.29104 43.7744 8.63663 43.0215C8.98221 42.2686 9.87271 41.9384 10.6256 42.2839C16.5221 44.9904 23.0832 46.5001 30.0011 46.5001C40.6534 46.5001 50.4669 42.9228 58.3108 36.8937C58.0514 36.5309 57.7958 36.1653 57.544 35.7969C56.7725 34.6683 56.0364 33.5134 55.3373 32.3336C52.9439 28.2951 54.2776 23.0811 58.3161 20.6877C62.3546 18.2944 67.5687 19.6281 69.962 23.6666C69.9747 23.6879 69.9873 23.7093 70 23.7306C70.0127 23.7093 70.0253 23.6879 70.038 23.6666C72.4313 19.6281 77.6453 18.2944 81.6839 20.6877C85.7224 23.0811 87.056 28.2951 84.6627 32.3336C83.9636 33.5134 83.2275 34.6683 82.456 35.7969C82.2041 36.1653 81.9485 36.531 81.6891 36.8938C89.5336 42.9232 99.3489 46.5001 109.999 46.5001C116.917 46.5001 123.478 44.9904 129.374 42.2839C130.127 41.9384 131.018 42.2686 131.363 43.0215C131.709 43.7744 131.379 44.6649 130.626 45.0104C124.345 47.8935 117.357 49.5001 109.999 49.5001C98.1283 49.5001 87.2322 45.3241 78.7003 38.3521L78.6763 38.3329C75.0112 35.3342 71.7829 31.819 69.1015 27.8963C68.979 27.7172 68.8548 27.5385 68.7377 27.3562C68.2676 26.6487 67.8152 25.9284 67.3812 25.1961ZM79.3651 34.9855C79.5724 34.6935 79.7772 34.3997 79.9793 34.1039C80.7144 33.0285 81.4158 31.9281 82.0819 30.8041C83.6305 28.191 82.7675 24.8172 80.1544 23.2686C77.5412 21.7199 74.1674 22.5829 72.6188 25.1961C72.3532 25.6442 72.0807 26.0879 71.8015 26.5268C73.3183 28.7062 75.0157 30.7489 76.872 32.6334C77.674 33.4475 78.5056 34.2322 79.3651 34.9855Z" fill="currentColor"/>
</svg>
