<svg id="Calque_1" data-name="Calque 1" xmlns="http://www.w3.org/2000/svg" viewBox="0 0 140 140">
  <defs>
    <style>
      .cls-1{fill:currentColor}
    </style>
  </defs>
  <path class="cls-1" d="M110 131.5A21.52 21.52 0 0 1 88.5 110V70a21.5 21.5 0 0 1 43 0v40a21.52 21.52 0 0 1-21.5 21.5zm0-80A18.52 18.52 0 0 0 91.5 70v40a18.5 18.5 0 0 0 37 0V70A18.52 18.52 0 0 0 110 51.5z"/>
  <path class="cls-1" d="M110 81.5a1.5 1.5 0 0 1-1.5-1.5V37.5a1.5 1.5 0 0 1 3 0V80a1.5 1.5 0 0 1-1.5 1.5z"/>
  <path class="cls-1" d="M130 81.5H90a1.5 1.5 0 0 1 0-3h40a1.5 1.5 0 0 1 0 3zM20 51.5H10A1.5 1.5 0 0 1 8.5 50V35a1.5 1.5 0 0 1 1.5-1.5h10a1.5 1.5 0 0 1 1.5 1.5v15a1.5 1.5 0 0 1-1.5 1.5zm-8.5-3h7v-12h-7z"/>
  <path class="cls-1" d="M18 36.5h-6a1.5 1.5 0 0 1-1.5-1.5v-6a1.5 1.5 0 0 1 1.5-1.5h6a1.5 1.5 0 0 1 1.5 1.5v6a1.5 1.5 0 0 1-1.5 1.5zm-4.5-3h3v-3h-3zM35 91.5A21.52 21.52 0 0 1 13.5 70V50a1.5 1.5 0 0 1 3 0v20a18.5 18.5 0 0 0 37 0V37.5a1.5 1.5 0 0 1 3 0V70A21.52 21.52 0 0 1 35 91.5z"/>
  <path class="cls-1" d="M110 39a1.5 1.5 0 0 1-1.5-1.5 26 26 0 0 0-52 0 1.5 1.5 0 0 1-3 0 29 29 0 0 1 58 0A1.5 1.5 0 0 1 110 39z"/>
</svg>
