<svg id="Calque_1" data-name="Calque 1" xmlns="http://www.w3.org/2000/svg" viewBox="0 0 80 80"><defs><style>.cls-1{fill:currentColor;}</style></defs><title>RencontresThematiques_S</title><path class="cls-1" d="M33.77,71.5a1.5,1.5,0,0,1-1.36-2.13l5.08-11a1.5,1.5,0,0,1,2.72,1.26l-5.08,11A1.5,1.5,0,0,1,33.77,71.5Z"/><path class="cls-1" d="M33.77,71.5a1.5,1.5,0,0,1-.63-2.86l11-5.08a1.5,1.5,0,0,1,1.26,2.72l-11,5.08A1.49,1.49,0,0,1,33.77,71.5Z"/><path class="cls-1" d="M44.79,66.42a1.5,1.5,0,0,1-1.06-2.56L67.88,39.71l-3.81-3.81L39.91,60a1.5,1.5,0,0,1-2.12-2.12L63,32.71a1.54,1.54,0,0,1,2.12,0l5.94,5.94a1.5,1.5,0,0,1,0,2.12L45.85,66A1.5,1.5,0,0,1,44.79,66.42Z"/><path class="cls-1" d="M38.38,61.5H10A1.5,1.5,0,0,1,8.5,60V10A1.5,1.5,0,0,1,10,8.5H50A1.5,1.5,0,0,1,51.5,10V47.84a1.5,1.5,0,0,1-3,0V11.5h-37v47H38.38a1.5,1.5,0,0,1,0,3Z"/><path class="cls-1" d="M63.6,45.21a1.5,1.5,0,0,1-1.06-.44L59,41.23a1.5,1.5,0,0,1,2.12-2.12l3.54,3.54a1.5,1.5,0,0,1-1.06,2.56Z"/><path class="cls-1" d="M41.5,21.5H27.7a1.5,1.5,0,1,1,0-3H41.5a1.5,1.5,0,0,1,0,3Z"/><path class="cls-1" d="M41.5,31.5H27.7a1.5,1.5,0,1,1,0-3H41.5a1.5,1.5,0,0,1,0,3Z"/><path class="cls-1" d="M41.5,41.5H27.7a1.5,1.5,0,1,1,0-3H41.5a1.5,1.5,0,0,1,0,3Z"/><path class="cls-1" d="M19.93,22.64a2.64,2.64,0,1,1,2.28-4h0a2.64,2.64,0,0,1-2.28,4Zm.31-2.82-.63.36a.36.36,0,0,0,.63-.36Zm-.31-.18a.37.37,0,0,0-.18,0,.36.36,0,0,0-.13.5l.63-.36a.37.37,0,0,0-.22-.17Z"/><path class="cls-1" d="M19.93,32.64a2.64,2.64,0,1,1,2.28-4h0a2.64,2.64,0,0,1-2.28,4Zm.31-2.82-.63.36a.36.36,0,0,0,.63-.36Zm-.31-.18a.37.37,0,0,0-.18,0,.36.36,0,0,0-.13.5l.63-.36a.37.37,0,0,0-.22-.17Z"/><path class="cls-1" d="M19.93,42.64a2.64,2.64,0,1,1,2.28-4h0a2.64,2.64,0,0,1-2.28,4Zm.31-2.82-.63.36a.36.36,0,0,0,.63-.36Zm-.31-.18a.37.37,0,0,0-.18,0,.36.36,0,0,0-.13.5l.63-.36a.37.37,0,0,0-.22-.17Z"/></svg>