<svg id="Calque_1" data-name="Calque 1" xmlns="http://www.w3.org/2000/svg" viewBox="0 0 140 140"><defs><style>.cls-1{fill:currentColor;}</style></defs><title>JeuxEtLoisirs_L</title><path class="cls-1" d="M96.3,131.5a5.48,5.48,0,0,1-3.89-1.61h0l-29.7-29.7a5.51,5.51,0,0,1,0-7.78l29.7-29.7a5.51,5.51,0,0,1,7.78,0l29.7,29.7a5.5,5.5,0,0,1,0,7.78l-29.7,29.7A5.48,5.48,0,0,1,96.3,131.5Zm-1.77-3.73a2.5,2.5,0,0,0,3.54,0l29.7-29.7a2.5,2.5,0,0,0,0-3.54l-29.7-29.7a2.5,2.5,0,0,0-3.54,0l-29.7,29.7a2.5,2.5,0,0,0,0,3.54l29.7,29.7Z"/><path class="cls-1" d="M96.3,102.8a6.5,6.5,0,1,1,4.6-1.9h0A6.46,6.46,0,0,1,96.3,102.8Zm0-10a3.5,3.5,0,0,0-2.48,6,3.58,3.58,0,0,0,5,0h0a3.5,3.5,0,0,0-2.47-6Z"/><path class="cls-1" d="M96.3,85.83a6.5,6.5,0,1,1,4.6-1.9h0A6.46,6.46,0,0,1,96.3,85.83Zm0-10a3.5,3.5,0,0,0-2.48,6,3.58,3.58,0,0,0,5,0h0a3.5,3.5,0,0,0-2.47-6Z"/><path class="cls-1" d="M113.27,102.8a6.5,6.5,0,1,1,4.6-1.9A6.46,6.46,0,0,1,113.27,102.8Zm0-10a3.5,3.5,0,0,0-2.48,6,3.58,3.58,0,0,0,5,0,3.5,3.5,0,0,0-2.47-6Z"/><path class="cls-1" d="M79.33,102.8a6.5,6.5,0,1,1,4.6-1.9h0A6.46,6.46,0,0,1,79.33,102.8Zm0-10a3.5,3.5,0,0,0-2.47,6,3.58,3.58,0,0,0,4.95,0h0a3.5,3.5,0,0,0-2.47-6Z"/><path class="cls-1" d="M96.3,119.77a6.5,6.5,0,1,1,4.6-1.9h0A6.46,6.46,0,0,1,96.3,119.77Zm0-10a3.5,3.5,0,0,0-2.48,6,3.58,3.58,0,0,0,5,0h0a3.5,3.5,0,0,0-2.47-6Z"/><path class="cls-1" d="M35,76.87a5.51,5.51,0,0,1-4.77-2.75l-21-36.37a5.51,5.51,0,0,1,2-7.51l36.37-21a5.51,5.51,0,0,1,7.51,2l21,36.37a5.51,5.51,0,0,1-2,7.51l-36.37,21A5.46,5.46,0,0,1,35,76.87ZM50.37,11.5a2.49,2.49,0,0,0-1.25.33l-36.37,21a2.5,2.5,0,0,0-.92,3.42l21,36.37a2.51,2.51,0,0,0,3.42.92l36.37-21h0a2.5,2.5,0,0,0,.92-3.42l-21-36.37A2.5,2.5,0,0,0,50.37,11.5Z"/><path class="cls-1" d="M42.7,49.19A6.54,6.54,0,0,1,41,49a6.5,6.5,0,1,1,7.31-9.53h0a6.5,6.5,0,0,1-5.62,9.75Zm0-10a3.5,3.5,0,1,0,3,1.75h0A3.5,3.5,0,0,0,42.68,39.19Z"/><path class="cls-1" d="M26.31,44.79a6.5,6.5,0,1,1,3.24-.87A6.5,6.5,0,0,1,26.31,44.79Zm0-10a3.51,3.51,0,1,0,.91.12A3.53,3.53,0,0,0,26.29,34.79Z"/><path class="cls-1" d="M59.09,53.58a6.54,6.54,0,0,1-1.69-.22,6.5,6.5,0,1,1,7.31-9.53h0a6.5,6.5,0,0,1-5.62,9.75Zm0-10a3.5,3.5,0,1,0,3,1.75h0A3.48,3.48,0,0,0,60,43.7,3.53,3.53,0,0,0,59.07,43.58Z"/></svg>