<svg  viewBox="0 0 80 80" fill="none" xmlns="http://www.w3.org/2000/svg">
<path fill-rule="evenodd" clip-rule="evenodd" d="M52.4846 16.3941C48.6464 14.2328 44.2153 13 39.5 13C24.8645 13 13 24.8645 13 39.5C13 54.1355 24.8645 66 39.5 66C54.1355 66 66 54.1355 66 39.5C66 34.7846 64.7672 30.3536 62.606 26.5154L65.5607 23.5607C65.9897 23.1317 66.118 22.4865 65.8858 21.926C65.6536 21.3655 65.1067 21 64.5 21H58V14.5C58 13.8934 57.6345 13.3464 57.074 13.1142C56.5135 12.8821 55.8683 13.0104 55.4393 13.4394L52.4846 16.3941ZM39.5 16C26.5213 16 16 26.5213 16 39.5C16 52.4787 26.5213 63 39.5 63C52.4787 63 63 52.4787 63 39.5C63 35.6159 62.0588 31.9548 60.3922 28.7291L57.5607 31.5607C57.2794 31.842 56.8978 32 56.5 32H50.7267C52.1626 34.1452 53 36.7248 53 39.5C53 46.9558 46.9558 53 39.5 53C32.0442 53 26 46.9558 26 39.5C26 32.0442 32.0442 26 39.5 26C42.2752 26 44.8549 26.8374 47 28.2733V22.5C47 22.1022 47.158 21.7207 47.4393 21.4394L50.2709 18.6078C47.0453 16.9413 43.3842 16 39.5 16ZM29 39.5C29 33.701 33.701 29 39.5 29C41.8585 29 44.0354 29.7776 45.7883 31.0904L39 37.8787V33.5C39 32.6716 38.3284 32 37.5 32C36.6716 32 36 32.6716 36 33.5V41.5C36 41.7034 36.0405 41.8973 36.1138 42.0742C36.187 42.2511 36.2955 42.4168 36.4393 42.5607C36.5832 42.7045 36.7489 42.813 36.9258 42.8862C37.0802 42.9502 37.2475 42.9892 37.4228 42.998C37.4484 42.9993 37.4741 43 37.5 43H45.5C46.3284 43 47 42.3284 47 41.5C47 40.6716 46.3284 40 45.5 40H41.1213L47.9096 33.2117C49.2224 34.9646 50 37.1415 50 39.5C50 45.299 45.299 50 39.5 50C33.701 50 29 45.299 29 39.5ZM50 29V23.1214L55 18.1214V22.5C55 23.3285 55.6716 24 56.5 24H60.8787L55.8787 29H50Z" fill="currentColor"/>
</svg>
