<svg id="Calque_1" data-name="Calque 1" xmlns="http://www.w3.org/2000/svg" viewBox="0 0 80 80"><defs><style>.cls-1{fill:none;stroke:currentColor;stroke-linecap:round;stroke-linejoin:round;stroke-width:3px;}</style></defs><title>Cuisine_S</title><path class="cls-1" d="M45.77,34.15l-.23.29a1.91,1.91,0,0,1,2.33-.69L57,37.86h0a5.72,5.72,0,0,1,2.52,8.48L53.45,55a7.64,7.64,0,0,1-14-4.27V43.14a3.81,3.81,0,0,1,1.12-2.7l4.93-6"/><path class="cls-1" d="M36.51,20l0,12.13a6,6,0,0,1-6,6.07h0a6,6,0,0,1-6-6.07l0-12.13"/><line class="cls-1" x1="30.5" y1="20" x2="30.5" y2="68.46"/><path class="cls-1" d="M18.56,41.21,10,20V46h5.33A3.49,3.49,0,0,0,18.56,41.21Z"/><line class="cls-1" x1="10" y1="46" x2="10" y2="65"/><path class="cls-1" d="M12.9,27.19A30,30,0,1,1,10.6,46"/></svg>