<svg id="Calque_1" data-name="Calque 1" xmlns="http://www.w3.org/2000/svg" viewBox="0 0 120 120"><defs><style>.cls-1{fill:none;stroke:#212121;stroke-linecap:round;stroke-linejoin:round;stroke-width:3px;}</style></defs><title>JeuxEtLoisirs_O</title><circle class="cls-1" cx="60" cy="60" r="50"/><rect class="cls-1" x="59.53" y="59.53" width="21.72" height="21.72" rx="1.74" ry="1.74" transform="translate(70.39 -29.15) rotate(45)"/><circle class="cls-1" cx="70.39" cy="70.39" r="0.95" transform="translate(-29.15 70.39) rotate(-45)"/><circle class="cls-1" cx="70.39" cy="63.69" r="0.95" transform="translate(-24.42 68.42) rotate(-45)"/><circle class="cls-1" cx="77.09" cy="70.39" r="0.95" transform="translate(-27.19 75.12) rotate(-45)"/><circle class="cls-1" cx="63.69" cy="70.39" r="0.95" transform="translate(-31.12 65.65) rotate(-45)"/><circle class="cls-1" cx="70.39" cy="77.09" r="0.95" transform="translate(-33.89 72.35) rotate(-45)"/><rect class="cls-1" x="38.36" y="38.36" width="21.72" height="21.72" rx="1.74" ry="1.74" transform="translate(-18.01 31.2) rotate(-30)"/><circle class="cls-1" cx="49.22" cy="49.22" r="0.95" transform="translate(-18.01 31.2) rotate(-30)"/><circle class="cls-1" cx="42.75" cy="47.48" r="0.95" transform="translate(-18.01 27.73) rotate(-30)"/><circle class="cls-1" cx="55.69" cy="50.95" r="0.95" transform="translate(-18.01 34.67) rotate(-30)"/></svg>