<svg id="Calque_1" data-name="Calque 1" xmlns="http://www.w3.org/2000/svg" viewBox="0 0 140 140">
  <defs>
    <style>
      .cls-1{fill:currentColor}
    </style>
  </defs>
  <path class="cls-1" d="M82.24 131.5a37.74 37.74 0 0 1-37.7-37.7V73.71a1.5 1.5 0 0 1 1.5-1.5h72.4a1.5 1.5 0 0 1 1.5 1.5V93.8a37.74 37.74 0 0 1-37.7 37.7zm-34.7-56.29V93.8a34.7 34.7 0 0 0 69.4 0V75.21z"/>
  <path class="cls-1" d="M118.49 108.48H116a1.5 1.5 0 0 1 0-3h2.53a10 10 0 1 0 0-20 1.5 1.5 0 1 1 0-3 13 13 0 1 1 0 26zM130 131.5H34.47a1.5 1.5 0 1 1 0-3H130a1.5 1.5 0 0 1 0 3zM95.55 62.84a9.91 9.91 0 0 1 0-19.83 6.91 6.91 0 1 0 0-13.83 1.5 1.5 0 0 1 0-3 9.91 9.91 0 1 1 0 19.83 6.91 6.91 0 0 0 0 13.83 1.5 1.5 0 0 1 0 3zM78.72 62.84a9.91 9.91 0 0 1 0-19.83 6.91 6.91 0 1 0 0-13.83 1.5 1.5 0 0 1 0-3 9.91 9.91 0 1 1 0 19.83 6.91 6.91 0 0 0 0 13.83 1.5 1.5 0 1 1 0 3zM46.1 97.38H14.9A1.5 1.5 0 0 1 13.4 96L8.5 22.1a1.5 1.5 0 0 1 1.5-1.6h48.14a1.5 1.5 0 0 1 1.5 1.6l-3.43 51.7a1.5 1.5 0 1 1-3-.2l3.32-50.1H11.6l4.7 70.87h29.8a1.5 1.5 0 0 1 0 3z"/>
  <path class="cls-1" d="M56.87 42.07H11.26a1.5 1.5 0 1 1 0-3h45.61a1.5 1.5 0 0 1 0 3z"/>
  <path class="cls-1" d="M42.74 42.07h-.11a1.5 1.5 0 0 1-1.39-1.6l1.39-19.94a13 13 0 0 1 12.9-12H70a1.5 1.5 0 0 1 0 3H55.53a10 10 0 0 0-9.9 9.23l-1.4 19.92a1.5 1.5 0 0 1-1.49 1.39z"/>
</svg>
