<svg viewBox="0 0 140 140" fill="none" xmlns="http://www.w3.org/2000/svg">
  <defs>
    <style>
      .cls-1{fill:currentColor}
    </style>
  </defs>
  <path class="cls-1" fill-rule="evenodd" clip-rule="evenodd" d="M18.4999 70C18.4999 69.1716 19.1715 68.5 19.9999 68.5H54.9999C55.8284 68.5 56.4999 69.1716 56.4999 70V87C56.4999 94.4716 62.5284 100.5 69.9999 100.5C77.4715 100.5 83.4999 94.4716 83.4999 87V70C83.4999 69.1716 84.1715 68.5 84.9999 68.5H120C120.828 68.5 121.5 69.1716 121.5 70V120C121.5 120.828 120.828 121.5 120 121.5H19.9999C19.1715 121.5 18.4999 120.828 18.4999 120V70ZM118.5 71.5V86H86.4999V71.5H118.5ZM118.5 89H86.3806C85.5224 96.1363 80.1285 101.855 73.1558 103.2H118.5V89ZM21.4999 89V103.2H66.8441C59.8714 101.855 54.4775 96.1363 53.6193 89H21.4999ZM53.4999 86H21.4999V71.5H53.4999V86ZM118.5 118.5V106.2H21.4999V118.5H118.5Z" fill="black"/>
  <path class="cls-1" fill-rule="evenodd" clip-rule="evenodd" d="M76.4999 75C76.4999 78.0736 74.3666 80.6489 71.4999 81.3261V89.5C71.4999 90.3284 70.8284 91 69.9999 91C69.1715 91 68.4999 90.3284 68.4999 89.5V81.3261C65.6332 80.6489 63.4999 78.0736 63.4999 75C63.4999 71.4101 66.4101 68.5 69.9999 68.5C73.5898 68.5 76.4999 71.4101 76.4999 75ZM66.4999 75C66.4999 73.067 68.0669 71.5 69.9999 71.5C71.9329 71.5 73.4999 73.067 73.4999 75C73.4999 76.933 71.9329 78.5 69.9999 78.5C68.0669 78.5 66.4999 76.933 66.4999 75Z" fill="black"/>
  <path class="cls-1" fill-rule="evenodd" clip-rule="evenodd" d="M117.992 47.5H130C130.828 47.5 131.5 46.8284 131.5 46V30C131.5 18.1716 121.828 8.5 110 8.5H29.9999C18.1715 8.5 8.49994 18.1716 8.49994 30V46C8.49994 46.8284 9.17151 47.5 9.99994 47.5H22.0078L9.02064 58.8638C8.86132 59.0012 8.73122 59.1716 8.64091 59.3643C8.55047 59.5573 8.49994 59.7728 8.49994 60V130C8.49994 130.828 9.17151 131.5 9.99994 131.5H130C130.828 131.5 131.5 130.828 131.5 130V60.0119V60C131.5 59.9796 131.5 59.9593 131.499 59.9391C131.5 59.9633 131.5 59.9876 131.5 60.0119M39.8 11.5C32.7922 11.5 26.6767 15.4837 23.6045 21.3H116.395C113.323 15.4837 107.208 11.5 100.2 11.5H39.8ZM21.4999 29.8C21.4999 27.8855 21.7973 26.0375 22.3481 24.3H117.652C118.203 26.0375 118.5 27.8855 118.5 29.8V34.5H21.4999V29.8ZM111.135 11.5347C117.336 15.2661 121.5 22.0639 121.5 29.8V36C121.5 36.8284 120.828 37.5 120 37.5H19.9999C19.1715 37.5 18.4999 36.8284 18.4999 36V29.8C18.4999 22.0639 22.6643 15.2661 28.8652 11.5347C19.2162 12.1264 11.4999 20.2094 11.4999 30V44.5H113.994C113.998 44.5 114.003 44.5 114.007 44.5H128.5V30C128.5 20.2094 120.784 12.1264 111.135 11.5347ZM126.008 58.5L113.436 47.5H26.5636L13.9921 58.5H126.008ZM11.4999 128.5V61.5H128.5V128.5H11.4999Z" fill="black"/>
  <path class="cls-1" d="M131.005 58.8868C130.998 58.8801 130.99 58.8735 130.983 58.8669L130.988 58.8711C130.994 58.8763 131 58.8816 131.005 58.8868Z" fill="black"/>
</svg>
