<svg id="Calque_1" data-name="Calque 1" xmlns="http://www.w3.org/2000/svg" viewBox="0 0 120 120"><defs><style>.cls-1{fill:none;stroke:#212121;stroke-linecap:round;stroke-linejoin:round;stroke-width:3px;}</style></defs><title>ActivitesCreatrices_O</title><circle class="cls-1" cx="60" cy="60" r="50"/><circle class="cls-1" cx="65.83" cy="43.33" r="8.33"/><path class="cls-1" d="M49.17,68.33a4.17,4.17,0,0,1,4.17-4.17A4.17,4.17,0,0,0,57.5,60a8.33,8.33,0,0,1,8.33-8.33"/><path class="cls-1" d="M52.47,84.68A9.3,9.3,0,0,1,63.89,73.26,9.3,9.3,0,0,1,52.47,84.68Z"/><line class="cls-1" x1="63.89" y1="73.26" x2="85" y2="52.15"/><line class="cls-1" x1="80.15" y1="72.69" x2="47.45" y2="53.81"/><path class="cls-1" d="M41.25,43a12.45,12.45,0,0,1,6.2,10.8,12.45,12.45,0,0,1-12.45,0Z"/></svg>