<svg fill="none" xmlns="http://www.w3.org/2000/svg" viewBox="0 0 62 62">
  <path fill-rule="evenodd" clip-rule="evenodd" d="M13.5 10.243a.75.75 0 01.75.75v47.47c0 .984.764 1.748 1.75 1.748s1.75-.764 1.75-1.749V10.993a.75.75 0 111.5 0v47.47A3.225 3.225 0 0116 61.71a3.225 3.225 0 01-3.25-3.249V10.993a.75.75 0 01.75-.75z" fill="currentColor"/>
  <path fill-rule="evenodd" clip-rule="evenodd" d="M1 .25a.75.75 0 01.75.75v7.495c0 .985.764 1.748 1.75 1.748h25c.986 0 1.75-.763 1.75-1.748V1a.75.75 0 011.5 0v7.495a3.225 3.225 0 01-3.25 3.248h-25A3.225 3.225 0 01.25 8.495V1A.75.75 0 011 .25z" fill="currentColor"/>
  <path fill-rule="evenodd" clip-rule="evenodd" d="M16 .25a.75.75 0 01.75.75v9.993a.75.75 0 01-1.5 0V1A.75.75 0 0116 .25zM26 .25a.75.75 0 01.75.75v9.993a.75.75 0 01-1.5 0V1A.75.75 0 0126 .25zM21 .25a.75.75 0 01.75.75v9.993a.75.75 0 01-1.5 0V1A.75.75 0 0121 .25zM11 .25a.75.75 0 01.75.75v9.993a.75.75 0 01-1.5 0V1A.75.75 0 0111 .25zM6 .25a.75.75 0 01.75.75v9.993a.75.75 0 01-1.5 0V1A.75.75 0 016 .25zM35.25 30.98a.75.75 0 01.75-.75h25a.75.75 0 010 1.5c-2.386 0-4.25 1.864-4.25 4.247v24.984a.75.75 0 01-.75.75H36a.75.75 0 01-.75-.75V30.98zm21.846.75H36.75v28.48h18.5V35.978a5.72 5.72 0 011.846-4.246z" fill="currentColor"/>
  <path fill-rule="evenodd" clip-rule="evenodd" d="M30.25 35.977a.75.75 0 01.75-.75h5a.75.75 0 010 1.5h-4.25v14.24a.75.75 0 01-1.5 0v-14.99zM41.23 12.262a.75.75 0 010 1.06l-8.8 8.795c-.723.723-.68 1.823-.028 2.41.77.692 1.884.674 2.441.055a.732.732 0 01.027-.029l8.8-8.794a.75.75 0 011.06 1.061l-8.786 8.782c-1.245 1.362-3.32 1.141-4.545.04-1.348-1.212-1.306-3.31-.029-4.586l8.8-8.795a.75.75 0 011.06 0zM56.23.77a.75.75 0 010 1.06l-7.1 7.096a.75.75 0 01-1.06-1.061l7.1-7.096a.75.75 0 011.06 0z" fill="currentColor"/>
  <path fill-rule="evenodd" clip-rule="evenodd" d="M45.48 3.358C48.366.58 52.337-.394 55.897.576a.75.75 0 01.528.532c.966 3.647 0 7.622-2.795 10.416l-7.1 7.095a.75.75 0 01-1.06 0l-7.1-7.095a.75.75 0 010-1.061l7.1-7.095.01-.01zm1.045 1.076l-6.564 6.56L46 17.029l6.57-6.566a9.273 9.273 0 002.507-8.544c-2.928-.644-6.155.211-8.552 2.515z" fill="currentColor"/>
</svg>
