<svg id="Calque_1" data-name="Calque 1" xmlns="http://www.w3.org/2000/svg" viewBox="0 0 140 140"><defs><style>.cls-1{fill:currentColor;}</style></defs><title>Intergenerationnel_L</title><path class="cls-1" d="M119.82,131.5a1.5,1.5,0,0,1-.39-.05l-84.1-22.54a1.5,1.5,0,1,1,.78-2.9l84.1,22.54a1.5,1.5,0,0,1-.39,2.95Z"/><path class="cls-1" d="M119.82,131.5a1.5,1.5,0,0,1-1.45-1.89A27.52,27.52,0,1,0,65.2,115.36a1.5,1.5,0,0,1-2.9-.78,30.52,30.52,0,1,1,59,15.8A1.5,1.5,0,0,1,119.82,131.5Z"/><path class="cls-1" d="M99.3,96a1.5,1.5,0,0,1-1.45-1.89l2.5-9.35a1.5,1.5,0,0,1,2.9.78l-2.5,9.35A1.5,1.5,0,0,1,99.3,96Z"/><path class="cls-1" d="M110.48,129a1.5,1.5,0,0,1-1.45-1.89c3.93-14.66-.61-28.66-10.12-31.21-4.49-1.2-9.48.34-14,4.35-4.73,4.16-8.4,10.41-10.33,17.62a1.5,1.5,0,0,1-2.9-.78c2.08-7.77,6.08-14.55,11.25-19.1,5.34-4.69,11.3-6.46,16.79-5,11.1,3,16.59,18.62,12.24,34.88A1.5,1.5,0,0,1,110.48,129Z"/><path class="cls-1" d="M101.13,126.49a1.5,1.5,0,0,1-1.45-1.89c4.41-16.47,2.53-27.82-.77-28.7s-10.61,8-15,24.47a1.5,1.5,0,0,1-2.9-.78C84.82,105.3,92.68,91.13,99.69,93s6.72,18.08,2.89,32.38A1.5,1.5,0,0,1,101.13,126.49Z"/><path class="cls-1" d="M125.16,97.71a6.33,6.33,0,0,1-1.64-.22,63.75,63.75,0,0,1-22.14-10.82A63.78,63.78,0,0,1,76.8,85h0a6.34,6.34,0,0,1,3.28-12.24,63.75,63.75,0,0,1,22.14,10.82,63.75,63.75,0,0,1,24.58,1.7,6.34,6.34,0,0,1-1.64,12.46ZM105.88,86.21A60.83,60.83,0,0,0,124.3,94.6,3.34,3.34,0,0,0,126,88.15,60.84,60.84,0,0,0,105.88,86.21Zm-28.3-4.13A60.83,60.83,0,0,0,97.72,84,60.83,60.83,0,0,0,79.3,75.63a3.34,3.34,0,0,0-1.73,6.45Z"/><path class="cls-1" d="M45.37,47.1A1.5,1.5,0,0,1,45,44.15l68.29-18.3a1.5,1.5,0,1,1,.78,2.9L45.76,47A1.5,1.5,0,0,1,45.37,47.1Z"/><path class="cls-1" d="M36.55,64.49a1.5,1.5,0,0,1-.39-2.95l93.45-25a1.5,1.5,0,1,1,.78,2.9l-93.45,25A1.5,1.5,0,0,1,36.55,64.49Z"/><path class="cls-1" d="M44,62.48H43.9a1.5,1.5,0,0,1-1.36-1.62l2.53-28.91A16,16,0,0,1,62.41,17.38L74.7,18.46l10.11-7.08a16,16,0,0,1,22.3,3.93l16.65,23.78a1.5,1.5,0,0,1-2.46,1.72L104.65,17a13,13,0,0,0-18.12-3.19L76,21.23a1.48,1.48,0,0,1-1,.27L62.15,20.37A13,13,0,0,0,48.05,32.2L45.52,61.11A1.5,1.5,0,0,1,44,62.48Z"/><path class="cls-1" d="M39,47.82A30.56,30.56,0,0,1,8.5,17.29a1.5,1.5,0,0,1,1.5-1.5A37.55,37.55,0,0,1,46.84,45.27a1.5,1.5,0,0,1-1.14,1.79A30.68,30.68,0,0,1,39,47.82Zm-27.48-29A27.56,27.56,0,0,0,39,44.82a27.08,27.08,0,0,0,4.51-.39A34.53,34.53,0,0,0,11.54,18.83Z"/><path class="cls-1" d="M29.43,46.16A1.5,1.5,0,0,1,28,44.09a15.94,15.94,0,0,1,13.38-9.88,1.5,1.5,0,0,1,.27,3,13,13,0,0,0-10.87,8A1.5,1.5,0,0,1,29.43,46.16Z"/><path class="cls-1" d="M21.77,42.09l-.28,0a1.5,1.5,0,0,1-1.19-1.75A16,16,0,0,1,36,27.3l.36,0h.14a1.5,1.5,0,0,1-.09,3H36A13,13,0,0,0,23.24,40.87,1.5,1.5,0,0,1,21.77,42.09Z"/><path class="cls-1" d="M15,35a1.5,1.5,0,0,1-1.47-1.8,16.1,16.1,0,0,1,14.25-12.7,1.5,1.5,0,0,1,.27,3A13.08,13.08,0,0,0,16.43,33.83,1.5,1.5,0,0,1,15,35Z"/></svg>