<svg id="Calque_1" data-name="Calque 1" xmlns="http://www.w3.org/2000/svg" viewBox="0 0 80 80"><defs><style>.cls-1{fill:currentColor;}</style></defs><title>Conferences_S</title><path class="cls-1" d="M55,41.5a1.5,1.5,0,0,1-1.06-.44l-15-15A1.5,1.5,0,0,1,38.5,25,16.5,16.5,0,1,1,55,41.5ZM41.51,24.39,55.61,38.49A13.5,13.5,0,1,0,41.51,24.39Z"/><path class="cls-1" d="M25,67.12a1.5,1.5,0,0,1-1.06-.44L13.32,56.08a1.5,1.5,0,0,1-.09-2L35.31,27.57l.09-.1,3.54-3.54a1.5,1.5,0,0,1,2.12,2.12l-3.49,3.49L16.41,54.92l8.67,8.67L50.45,42.43l3.49-3.49a1.5,1.5,0,0,1,2.12,2.12L52.52,44.6l-.1.09L25.94,66.77A1.5,1.5,0,0,1,25,67.12Z"/><path class="cls-1" d="M10,71.5a1.5,1.5,0,0,1-1.06-2.56l9.68-9.68a1.5,1.5,0,0,1,2.12,2.12l-9.68,9.68A1.5,1.5,0,0,1,10,71.5Z"/><path class="cls-1" d="M36,45.5a1.5,1.5,0,0,1-1.06-2.56l3.68-3.68a1.5,1.5,0,0,1,2.12,2.12l-3.68,3.68A1.5,1.5,0,0,1,36,45.5Z"/></svg>