<svg viewBox="0 0 140 140" fill="none" xmlns="http://www.w3.org/2000/svg">
<path fill-rule="evenodd" clip-rule="evenodd" d="M84.5 36C84.5 30.7533 88.7533 26.5 94 26.5C99.2467 26.5 103.5 30.7533 103.5 36C103.5 41.2467 99.2467 45.5 94 45.5C88.7533 45.5 84.5 41.2467 84.5 36ZM94 29.5C90.4101 29.5 87.5 32.4101 87.5 36C87.5 39.5899 90.4101 42.5 94 42.5C97.5899 42.5 100.5 39.5899 100.5 36C100.5 32.4101 97.5899 29.5 94 29.5Z" fill="currentColor"/>
<path fill-rule="evenodd" clip-rule="evenodd" d="M46 26.5C40.7533 26.5 36.5 30.7533 36.5 36C36.5 41.2467 40.7533 45.5 46 45.5C51.2467 45.5 55.5 41.2467 55.5 36C55.5 30.7533 51.2467 26.5 46 26.5ZM39.5 36C39.5 32.4101 42.4101 29.5 46 29.5C49.5899 29.5 52.5 32.4101 52.5 36C52.5 39.5899 49.5899 42.5 46 42.5C42.4101 42.5 39.5 39.5899 39.5 36Z" fill="currentColor"/>
<path fill-rule="evenodd" clip-rule="evenodd" d="M44.5 82C44.5 81.1716 45.1716 80.5 46 80.5H94C94.8284 80.5 95.5 81.1716 95.5 82V88C95.5 94.3513 90.3513 99.5 84 99.5H56C49.6487 99.5 44.5 94.3513 44.5 88V82ZM47.5 83.5V88C47.5 92.6944 51.3056 96.5 56 96.5H84C88.6944 96.5 92.5 92.6944 92.5 88V83.5H47.5Z" fill="currentColor"/>
<path fill-rule="evenodd" clip-rule="evenodd" d="M28 80.5C22.7533 80.5 18.5 84.7533 18.5 90C18.5 95.2467 22.7533 99.5 28 99.5C33.2467 99.5 37.5 95.2467 37.5 90C37.5 84.7533 33.2467 80.5 28 80.5ZM21.5 90C21.5 86.4101 24.4101 83.5 28 83.5C31.5899 83.5 34.5 86.4101 34.5 90C34.5 93.5899 31.5899 96.5 28 96.5C24.4101 96.5 21.5 93.5899 21.5 90Z" fill="currentColor"/>
<path fill-rule="evenodd" clip-rule="evenodd" d="M102.5 90C102.5 84.7533 106.753 80.5 112 80.5C117.247 80.5 121.5 84.7533 121.5 90C121.5 95.2467 117.247 99.5 112 99.5C106.753 99.5 102.5 95.2467 102.5 90ZM112 83.5C108.41 83.5 105.5 86.4101 105.5 90C105.5 93.5899 108.41 96.5 112 96.5C115.59 96.5 118.5 93.5899 118.5 90C118.5 86.4101 115.59 83.5 112 83.5Z" fill="currentColor"/>
<path fill-rule="evenodd" clip-rule="evenodd" d="M70 8.5C70.8284 8.5 71.5 9.17157 71.5 10V16.5L100 16.5C111.874 16.5 121.5 26.1259 121.5 38V52.5H122C127.247 52.5 131.5 56.7533 131.5 62C131.5 65.6664 129.423 68.8477 126.381 70.4315C129.468 72.4938 131.5 76.0096 131.5 80V100C131.5 105.843 127.143 110.668 121.5 111.403V122C121.5 127.247 117.247 131.5 112 131.5C106.753 131.5 102.5 127.247 102.5 122V111.5H37.5V122C37.5 127.247 33.2467 131.5 28 131.5C22.7533 131.5 18.5 127.247 18.5 122V111.403C12.8575 110.668 8.5 105.843 8.5 100V80C8.5 76.0096 10.5324 72.4938 13.6186 70.4315C10.577 68.8477 8.5 65.6664 8.5 62C8.5 56.7533 12.7533 52.5 18 52.5H18.5L18.5 38C18.5 26.1259 28.1259 16.5 40 16.5L68.5 16.5V10C68.5 9.17157 69.1716 8.5 70 8.5ZM122 68.5H121.5V55.5H122C125.59 55.5 128.5 58.4101 128.5 62C128.5 65.5899 125.59 68.5 122 68.5ZM118.5 38V68.5H115.448C114.678 57.3257 105.37 48.5 94 48.5C82.6301 48.5 73.3216 57.3257 72.5515 68.5H67.4485C66.6784 57.3257 57.3699 48.5 46 48.5C34.6301 48.5 25.3216 57.3257 24.5515 68.5H21.5L21.5 38C21.5 27.7827 29.7827 19.5 40 19.5L100 19.5C110.217 19.5 118.5 27.7827 118.5 38ZM19.9918 71.5C15.3012 71.5044 11.5 75.3083 11.5 80V100C11.5 104.694 15.3056 108.5 20 108.5H120C124.694 108.5 128.5 104.694 128.5 100V80C128.5 75.3094 124.701 71.5062 120.011 71.5L19.9918 71.5ZM112.44 68.5H107.418C106.671 61.7501 100.949 56.5 94 56.5C87.0512 56.5 81.3286 61.7501 80.5824 68.5H75.5599C76.3234 58.9842 84.2877 51.5 94 51.5C103.712 51.5 111.677 58.9842 112.44 68.5ZM46 51.5C55.7123 51.5 63.6765 58.9842 64.4401 68.5L27.5599 68.5C28.3235 58.9842 36.2877 51.5 46 51.5ZM83.6063 68.5C84.3342 63.4116 88.7103 59.5 94 59.5C99.2897 59.5 103.666 63.4116 104.394 68.5H83.6063ZM18.5 55.5H18C14.4101 55.5 11.5 58.4101 11.5 62C11.5 65.5899 14.4101 68.5 18 68.5H18.5L18.5 55.5ZM21.5 122V111.5H34.5V122C34.5 125.59 31.5899 128.5 28 128.5C24.4101 128.5 21.5 125.59 21.5 122ZM105.5 111.5V122C105.5 125.59 108.41 128.5 112 128.5C115.59 128.5 118.5 125.59 118.5 122V111.5H105.5Z" fill="currentColor"/>
</svg>
