<svg id="Calque_1" data-name="Calque 1" xmlns="http://www.w3.org/2000/svg" viewBox="0 0 80 80"><defs><style>.cls-1{fill:currentColor;}</style></defs><title>JeuxEtLoisirs_S</title><path class="cls-1" d="M52.44,71.5a3.56,3.56,0,0,1-2.54-1h0L34.42,55a3.58,3.58,0,0,1,0-5.07L49.9,34.42a3.67,3.67,0,0,1,5.07,0L70.45,49.9a3.59,3.59,0,0,1,0,5.07L55,70.45A3.56,3.56,0,0,1,52.44,71.5ZM52,68.33a.59.59,0,0,0,.83,0L68.33,52.85a.59.59,0,0,0,0-.83L52.85,36.55a.59.59,0,0,0-.83,0L36.55,52a.58.58,0,0,0,0,.83Z"/><path class="cls-1" d="M52.44,55.07a2.64,2.64,0,0,1-1.86-4.5,2.7,2.7,0,0,1,3.73,0,2.64,2.64,0,0,1,0,3.73h0A2.62,2.62,0,0,1,52.44,55.07Zm-.26-2.89a.36.36,0,0,0,0,.51.38.38,0,0,0,.51,0,.36.36,0,0,0,0-.51A.38.38,0,0,0,52.18,52.18Z"/><path class="cls-1" d="M52.44,47a2.64,2.64,0,0,1-1.86-4.5,2.7,2.7,0,0,1,3.73,0,2.64,2.64,0,0,1,0,3.73h0A2.62,2.62,0,0,1,52.44,47Zm-.26-2.89a.36.36,0,0,0,0,.51.38.38,0,0,0,.51,0,.36.36,0,0,0,0-.51A.38.38,0,0,0,52.18,44.14Z"/><path class="cls-1" d="M60.48,55.07a2.64,2.64,0,1,1,1.87-.77h0A2.63,2.63,0,0,1,60.48,55.07Zm.8-1.83h0Zm-1.06-1.06a.36.36,0,0,0,.51.51h0Zm.26-.11a.36.36,0,0,0-.26.11l.51.51a.36.36,0,0,0,0-.51A.36.36,0,0,0,60.48,52.07Z"/><path class="cls-1" d="M44.4,55.07a2.64,2.64,0,1,1,1.87-.77h0A2.63,2.63,0,0,1,44.4,55.07Zm.8-1.83h0Zm-1.06-1.06a.36.36,0,0,0,.51.51h0Zm.26-.11a.36.36,0,0,0-.26.11l.51.51a.36.36,0,0,0,0-.51A.36.36,0,0,0,44.4,52.07Z"/><path class="cls-1" d="M52.44,63.11a2.64,2.64,0,0,1-1.86-4.5,2.7,2.7,0,0,1,3.73,0,2.64,2.64,0,0,1,0,3.73h0A2.62,2.62,0,0,1,52.44,63.11Zm-.26-2.89a.36.36,0,0,0,0,.51.38.38,0,0,0,.51,0,.36.36,0,0,0,0-.51A.38.38,0,0,0,52.18,60.22Z"/><path class="cls-1" d="M23,45.57a3.59,3.59,0,0,1-3.11-1.79L9,24.82a3.59,3.59,0,0,1,1.31-4.9L29.25,9a3.58,3.58,0,0,1,4.9,1.31l10.94,19a3.58,3.58,0,0,1-1.31,4.9h0l-19,10.94A3.56,3.56,0,0,1,23,45.57ZM31,11.5a.58.58,0,0,0-.29.08l-19,10.94a.59.59,0,0,0-.21.8l10.94,19a.59.59,0,0,0,.8.21l19-10.94a.58.58,0,0,0,.21-.8l-10.94-19a.58.58,0,0,0-.35-.27ZM43,32.85h0Z"/><path class="cls-1" d="M27,29.67a2.64,2.64,0,0,1-1.32-4.92,2.64,2.64,0,0,1,3.6,1h0a2.64,2.64,0,0,1-2.28,4Zm-.32-2.46a.36.36,0,1,0,.13-.49.36.36,0,0,0-.17.22A.37.37,0,0,0,26.72,27.22Zm0,0h0Z"/><path class="cls-1" d="M19.27,27.59a2.64,2.64,0,1,1,2.28-4h0a2.64,2.64,0,0,1-2.28,4Zm.31-2.82-.63.36a.36.36,0,0,0,.63-.36Zm-.32-.18a.36.36,0,0,0-.31.54l.63-.36A.37.37,0,0,0,19.27,24.59Z"/><path class="cls-1" d="M34.81,31.75a2.64,2.64,0,0,1-2.29-1.32,2.64,2.64,0,0,1,4.57-2.64h0a2.64,2.64,0,0,1-2.28,4Zm-.32-2.46a.36.36,0,1,0,0-.27A.37.37,0,0,0,34.49,29.3Zm0,0h0Z"/></svg>