<svg id="Calque_1" data-name="Calque 1" xmlns="http://www.w3.org/2000/svg" viewBox="0 0 80 80">
  <defs>
    <style>
      .cls-1{fill:currentColor}
    </style>
  </defs>
  <path class="cls-1" d="M16.4 41.5H10a1.5 1.5 0 0 1 0-3h6.4a1.5 1.5 0 0 1 0 3z"/>
  <path class="cls-1" d="M10 51.5A1.5 1.5 0 0 1 8.5 50V30a1.5 1.5 0 0 1 3 0v20a1.5 1.5 0 0 1-1.5 1.5zM70 51.5a1.5 1.5 0 0 1-1.5-1.5V30a1.5 1.5 0 0 1 3 0v20a1.5 1.5 0 0 1-1.5 1.5zM63.6 71.5h-8.4a1.5 1.5 0 0 1-1.5-1.5V10a1.5 1.5 0 0 1 1.5-1.5h8.4a1.5 1.5 0 0 1 1.5 1.5v60a1.5 1.5 0 0 1-1.5 1.5zm-6.9-3h5.4v-57h-5.4zM24.8 71.5h-8.4a1.5 1.5 0 0 1-1.5-1.5V10a1.5 1.5 0 0 1 1.5-1.5h8.4a1.5 1.5 0 0 1 1.5 1.5v60a1.5 1.5 0 0 1-1.5 1.5zm-6.9-3h5.4v-57h-5.4z"/>
  <path class="cls-1" d="M55.2 41.5H24.8a1.5 1.5 0 0 1 0-3h30.4a1.5 1.5 0 0 1 0 3zM70 41.5h-6.4a1.5 1.5 0 0 1 0-3H70a1.5 1.5 0 0 1 0 3z"/>
</svg>
