<svg id="Calque_1" data-name="Calque 1" xmlns="http://www.w3.org/2000/svg" viewBox="0 0 80 80">
  <defs>
    <style>
      .cls-1{fill:currentColor}
    </style>
  </defs>
  <path class="cls-1" d="M44.49 71.5a18 18 0 0 1-18-18V42a1.5 1.5 0 0 1 1.5-1.5H61a1.5 1.5 0 0 1 1.5 1.5v11.52A18 18 0 0 1 44.49 71.5zm-15-28v10a15 15 0 1 0 30 0v-10z"/>
  <path class="cls-1" d="M64.24 58.79h-3.73a1.5 1.5 0 0 1 0-3h3.73a4.26 4.26 0 0 0 0-8.51H61a1.5 1.5 0 0 1 0-3h3.28a7.26 7.26 0 0 1 0 14.51zM70 71.5H22.24a1.5 1.5 0 0 1 0-3H70a1.5 1.5 0 0 1 0 3zM53.43 36.41a5.33 5.33 0 1 1 0-10.65 2.33 2.33 0 1 0 0-4.65 1.5 1.5 0 0 1 0-3 5.33 5.33 0 1 1 0 10.65 2.33 2.33 0 1 0 0 4.65 1.5 1.5 0 0 1 0 3zM42.5 36.41a5.33 5.33 0 0 1 0-10.65 2.33 2.33 0 0 0 0-4.65 1.5 1.5 0 0 1 0-3 5.33 5.33 0 0 1 0 10.65 2.33 2.33 0 0 0 0 4.65 1.5 1.5 0 0 1 0 3zM28 54.44H12.45A1.5 1.5 0 0 1 11 53L8.5 19.71A1.5 1.5 0 0 1 10 18.1h24.07a1.5 1.5 0 0 1 1.5 1.62L33.85 42a1.5 1.5 0 1 1-3-.23l1.6-20.67H11.61l2.23 30.33H28a1.5 1.5 0 1 1 0 3z"/>
  <path class="cls-1" d="M26.77 21.1h-.11a1.5 1.5 0 0 1-1.39-1.6l.3-4.29a7.24 7.24 0 0 1 7.19-6.71H40a1.5 1.5 0 0 1 0 3h-7.24a4.23 4.23 0 0 0-4.2 3.92l-.3 4.29a1.5 1.5 0 0 1-1.49 1.39z"/>
</svg>
