<svg fill="none" xmlns="http://www.w3.org/2000/svg" viewBox="0 0 62 62">
  <path fill-rule="evenodd" clip-rule="evenodd" d="M31 1.75C14.846 1.75 1.75 14.846 1.75 31S14.846 60.25 31 60.25 60.25 47.154 60.25 31a29.111 29.111 0 00-5.008-16.373l1.242-.84A30.61 30.61 0 0161.75 31c0 16.983-13.767 30.75-30.75 30.75S.25 47.983.25 31 14.017.25 31 .25a30.61 30.61 0 0117.225 5.274l-.841 1.242A29.11 29.11 0 0031 1.75z" fill="currentColor"/>
  <path fill-rule="evenodd" clip-rule="evenodd" d="M31 11.75c-10.631 0-19.25 8.619-19.25 19.25 0 10.632 8.619 19.25 19.25 19.25 10.632 0 19.25-8.618 19.25-19.25 0-10.631-8.618-19.25-19.25-19.25zM10.25 31c0-11.46 9.29-20.75 20.75-20.75S51.75 19.54 51.75 31 42.46 51.75 31 51.75 10.25 42.46 10.25 31z" fill="currentColor"/>
  <path fill-rule="evenodd" clip-rule="evenodd" d="M31 21.75a9.25 9.25 0 100 18.5 9.25 9.25 0 000-18.5zM20.25 31c0-5.937 4.813-10.75 10.75-10.75S41.75 25.063 41.75 31 36.937 41.75 31 41.75 20.25 36.937 20.25 31z" fill="currentColor"/>
  <path fill-rule="evenodd" clip-rule="evenodd" d="M31 25.25a.75.75 0 01.75.75v5a.75.75 0 01-1.5 0v-5a.75.75 0 01.75-.75z" fill="currentColor"/>
  <path fill-rule="evenodd" clip-rule="evenodd" d="M36.75 31a.75.75 0 01-.75.75h-5a.75.75 0 010-1.5h5a.75.75 0 01.75.75zM53.287.307A.75.75 0 0153.75 1v7.25H61a.75.75 0 01.53 1.28l-8 8a.75.75 0 01-.53.22h-8a.75.75 0 01-.75-.75V9a.75.75 0 01.22-.53l8-8a.75.75 0 01.817-.163zM45.75 9.311v6.939h6.94l6.5-6.5H53a.75.75 0 01-.75-.75V2.81l-6.5 6.5z" fill="currentColor"/>
  <path fill-rule="evenodd" clip-rule="evenodd" d="M53.53 8.47a.75.75 0 010 1.06l-22 22a.75.75 0 11-1.06-1.06l22-22a.75.75 0 011.06 0z" fill="currentColor"/>
</svg>
