<svg id="Calque_1" data-name="Calque 1" xmlns="http://www.w3.org/2000/svg" viewBox="0 0 120 120">
  <defs>
    <style>
      .cls-1{fill:currentColor}
    </style>
  </defs>
  <circle class="cls-2" cx="60" cy="60" r="51.5"/>
  <path fill="#fff" d="M60 111.5A51.5 51.5 0 1 1 111.5 60 51.56 51.56 0 0 1 60 111.5zm0-100A48.5 48.5 0 1 0 108.5 60 48.55 48.55 0 0 0 60 11.5z"/>
  <path class="cls-1" d="M35 86.5a1.5 1.5 0 0 1-1.5-1.5V51.67A18.19 18.19 0 0 1 51.67 33.5h16.66A18.19 18.19 0 0 1 86.5 51.67V60a18.19 18.19 0 0 1-18.17 18.17H44l-7.89 7.89a1.5 1.5 0 0 1-1.11.44zm16.67-50A15.18 15.18 0 0 0 36.5 51.67v29.71l5.77-5.77a1.5 1.5 0 0 1 1.06-.44h25A15.18 15.18 0 0 0 83.5 60v-8.33A15.18 15.18 0 0 0 68.33 36.5z"/>
  <path class="cls-1" d="M67.5 62.33h-15a1.5 1.5 0 0 1 0-3h15a1.5 1.5 0 0 1 0 3z"/>
  <path class="cls-1" d="M70 67.33a1.5 1.5 0 0 1-1.34-.83L60 49.19 51.34 66.5a1.5 1.5 0 0 1-2.68-1.34l10-20a1.5 1.5 0 0 1 2.68 0l10 20A1.5 1.5 0 0 1 70 67.33z"/>
</svg>
