<svg viewBox="0 0 50 50" xmlns="http://www.w3.org/2000/svg">
  <g fill="currentColor">
    <path d="M11.65 21.625c0-7.608 6.167-13.775 13.775-13.775 7.607 0 13.775 6.167 13.775 13.775a1.425 1.425 0 1 0 2.85 0C42.05 12.443 34.606 5 25.425 5 16.243 5 8.8 12.443 8.8 21.625a1.425 1.425 0 1 0 2.85 0z"/>
    <path d="M7.85 23.05v11.875A8.075 8.075 0 0 0 15.925 43h19A8.075 8.075 0 0 0 43 34.925V23.05H7.85zm38-1.425v13.3c0 6.034-4.891 10.925-10.925 10.925h-19C9.89 45.85 5 40.958 5 34.925v-13.3c0-.787.638-1.425 1.425-1.425h38c.787 0 1.425.638 1.425 1.425z"/>
    <path d="M5.417 26.433l7.6 7.6a1.425 1.425 0 0 0 2.016-2.016l-7.6-7.6a1.425 1.425 0 1 0-2.016 2.016z"/>
    <path d="M26.432 43.417l-11.4-11.4a1.425 1.425 0 0 0-2.015 2.015l11.4 11.4a1.425 1.425 0 0 0 2.015-2.015zM44.244 38.429l-6.411-6.412a1.425 1.425 0 1 0-2.016 2.015l6.411 6.412a1.425 1.425 0 1 0 2.016-2.015z"/>
    <path d="M24.417 22.632l11.4 11.4a1.425 1.425 0 0 0 2.015-2.015l-11.4-11.4a1.425 1.425 0 0 0-2.015 2.015zM8.621 40.444l6.411-6.412a1.425 1.425 0 1 0-2.015-2.015l-6.411 6.412a1.425 1.425 0 0 0 2.015 2.015z"/>
    <path d="M15.033 34.032l11.4-11.4a1.425 1.425 0 0 0-2.016-2.015l-11.4 11.4a1.425 1.425 0 0 0 2.016 2.015zM26.432 45.432l11.4-11.4a1.425 1.425 0 0 0-2.015-2.015l-11.4 11.4a1.425 1.425 0 0 0 2.015 2.015z"/>
    <path d="M37.832 34.032l7.6-7.6a1.425 1.425 0 0 0-2.015-2.015l-7.6 7.6a1.425 1.425 0 0 0 2.015 2.015z"/>
  </g>
</svg>
