<svg id="Calque_1" data-name="Calque 1" xmlns="http://www.w3.org/2000/svg" viewBox="0 0 120 120">
  <defs>
    <style>
      .cls-1{fill:currentColor}
    </style>
  </defs>
  <circle class="cls-2" cx="60" cy="60" r="51.5"/>
  <path fill="#fff" d="M60 111.5A51.5 51.5 0 1 1 111.5 60 51.56 51.56 0 0 1 60 111.5zm0-100A48.5 48.5 0 1 0 108.5 60 48.55 48.55 0 0 0 60 11.5z"/>
  <path class="cls-1" d="M84.67 83.17H35.1a1.5 1.5 0 0 1 0-3h49.57a1.5 1.5 0 0 1 0 3zM80.77 59.5H39.23a1.5 1.5 0 0 1 0-3h41.54a1.5 1.5 0 0 1 0 3zM79.92 50.12H39.85a1.5 1.5 0 0 1 0-3h40.07a1.5 1.5 0 0 1 0 3z"/>
  <path class="cls-1" d="M79.91 50.12a1.49 1.49 0 0 1-1-.35l-20-17a1.5 1.5 0 0 1 1.94-2.29l20 17a1.5 1.5 0 0 1-1 2.65z"/>
  <path class="cls-1" d="M39.85 50.12a1.5 1.5 0 0 1-1-2.65l20-17a1.5 1.5 0 1 1 1.94 2.29l-20 17a1.49 1.49 0 0 1-.94.36zM59.88 83.17a1.5 1.5 0 0 1-1.5-1.5V58a1.5 1.5 0 0 1 3 0v23.67a1.5 1.5 0 0 1-1.5 1.5zM46.69 83.17a1.5 1.5 0 0 1-1.5-1.5V58a1.5 1.5 0 0 1 3 0v23.67a1.5 1.5 0 0 1-1.5 1.5zM73.07 83.17a1.5 1.5 0 0 1-1.5-1.5V58a1.5 1.5 0 0 1 3 0v23.67a1.5 1.5 0 0 1-1.5 1.5zM85 63.73a1.5 1.5 0 0 1-1.5-1.5 2.73 2.73 0 0 0-2.73-2.73 1.5 1.5 0 0 1 0-3 5.74 5.74 0 0 1 5.73 5.73 1.5 1.5 0 0 1-1.5 1.5zM35 63.73a1.5 1.5 0 0 1-1.5-1.5 5.74 5.74 0 0 1 5.73-5.73 1.5 1.5 0 0 1 0 3 2.73 2.73 0 0 0-2.73 2.73 1.5 1.5 0 0 1-1.5 1.5z"/>
</svg>
