<svg viewBox="0 0 80 80" fill="none" xmlns="http://www.w3.org/2000/svg">
  <defs>
    <style>
      .cls-1{fill:currentColor}
    </style>
  </defs>
  <path class="cls-1" d="M37.5836 46.1667C37.5836 46.9346 37.9417 47.6188 38.5 48.0614V50.1666C38.5 50.9951 39.1716 51.6666 40 51.6666C40.8284 51.6666 41.5 50.9951 41.5 50.1666V48.0619C42.0586 47.6193 42.4171 46.9349 42.4171 46.1667C42.4171 44.8319 41.3348 43.7501 40.0003 43.7501C38.6658 43.7501 37.5836 44.8319 37.5836 46.1667Z" fill="black"/>
  <path class="cls-1" fill-rule="evenodd" clip-rule="evenodd" d="M66.1138 38.9953C66.3538 39.2612 66.5 39.6135 66.5 40V65C66.5 65.8284 65.8284 66.5 65 66.5H15C14.1716 66.5 13.5 65.8284 13.5 65V40C13.5 39.9616 13.5014 39.9229 13.5044 39.8846C13.5171 39.7179 13.557 39.5588 13.6197 39.4118C13.6827 39.2642 13.7686 39.1289 13.873 39.0101L20.3817 31.5H15C14.1716 31.5 13.5 30.8284 13.5 30V25C13.5 18.6716 18.6716 13.5 25 13.5H55C61.3284 13.5 66.5 18.6716 66.5 25V30C66.5 30.8284 65.8284 31.5 65 31.5H59.618L66.1138 38.9953ZM16.5 25C16.5 20.3284 20.3284 16.5 25 16.5H55C59.6716 16.5 63.5 20.3284 63.5 25V28.5H56.342C56.3356 28.5 56.3292 28.5 56.3228 28.5H16.5V25ZM55.6481 31.5H24.3516L18.2849 38.5H61.7147L55.6481 31.5ZM47.75 41.5H63.5V63.5H16.5V41.5H32.25V49.0833C32.25 53.3284 35.7549 56.8333 40 56.8333C44.2451 56.8333 47.75 53.3284 47.75 49.0833V41.5ZM44.75 41.5V49.0833C44.75 51.6716 42.5882 53.8333 40 53.8333C37.4118 53.8333 35.25 51.6716 35.25 49.0833V41.5H44.75Z" fill="black"/>
</svg>
