<svg id="Calque_1" data-name="Calque 1" xmlns="http://www.w3.org/2000/svg" viewBox="0 0 140 140"><defs><style>.cls-1{fill:currentColor;}</style></defs><title>ActivitesCreatrices_L</title><path class="cls-1" d="M20,131.5a1.5,1.5,0,0,1-.75-.2,21.4,21.4,0,0,1-5.37-32.74,1.5,1.5,0,0,1,2.25,2A18.39,18.39,0,0,0,20,128.24a18.57,18.57,0,0,0,8.5-15.54,18.42,18.42,0,0,0-4.63-12.16,1.5,1.5,0,1,1,2.25-2A21.42,21.42,0,0,1,31.5,112.7a21.57,21.57,0,0,1-10.75,18.6A1.5,1.5,0,0,1,20,131.5Z"/><path class="cls-1" d="M20,131.5a1.5,1.5,0,0,1-1.5-1.5V110a1.5,1.5,0,0,1,3,0v20A1.5,1.5,0,0,1,20,131.5Z"/><path class="cls-1" d="M25,101.05H15a1.5,1.5,0,0,1-1.47-1.2,102.29,102.29,0,0,1,0-40.45c0-.05,0-.1,0-.14a99.26,99.26,0,0,0,2-19.68,99.17,99.17,0,0,0-2-19.68A1.5,1.5,0,0,1,15,18.09H25a1.5,1.5,0,0,1,1.47,1.8,99.27,99.27,0,0,0,0,39.36,1.46,1.46,0,0,1,0,.16,102.2,102.2,0,0,1,2,20.16,102.31,102.31,0,0,1-2,20.28A1.5,1.5,0,0,1,25,101.05Zm-8.77-3h7.53A99.33,99.33,0,0,0,25.5,79.57a99.17,99.17,0,0,0-2-19.68,1.49,1.49,0,0,1,0-.16,102.29,102.29,0,0,1-.32-38.64H16.82A102.32,102.32,0,0,1,18.5,39.57a102.32,102.32,0,0,1-2,20.18c0,.05,0,.1,0,.14a99.29,99.29,0,0,0-.24,38.16Z"/><path class="cls-1" d="M122.93,111.67a1.5,1.5,0,0,1-1.06-.44L57.78,47.14a1.5,1.5,0,0,1,0-2.12L64.85,38A1.5,1.5,0,0,1,67,38L131.06,102a1.5,1.5,0,0,1,0,2.12L124,111.23A1.5,1.5,0,0,1,122.93,111.67ZM61,46.08l62,62,5-5-62-62Z"/><path class="cls-1" d="M110,51.5A21.5,21.5,0,1,1,131.5,30,21.52,21.52,0,0,1,110,51.5Zm0-40A18.5,18.5,0,1,0,128.5,30,18.52,18.52,0,0,0,110,11.5Z"/><path class="cls-1" d="M114,47.5A21.52,21.52,0,0,1,92.5,26a21.3,21.3,0,0,1,4.32-12.89,1.5,1.5,0,1,1,2.4,1.8A18.33,18.33,0,0,0,95.5,26,18.52,18.52,0,0,0,114,44.5a18.33,18.33,0,0,0,11.08-3.72,1.5,1.5,0,0,1,1.8,2.4A21.31,21.31,0,0,1,114,47.5Z"/><path class="cls-1" d="M118,41.5A21.45,21.45,0,0,1,97.81,12.66a1.5,1.5,0,1,1,2.82,1A18.47,18.47,0,0,0,128,35.57a1.5,1.5,0,0,1,1.62,2.52A21.42,21.42,0,0,1,118,41.5Z"/><path class="cls-1" d="M120,33.5A21.4,21.4,0,0,1,98.54,12.73a1.5,1.5,0,1,1,3-.1A18.46,18.46,0,0,0,129.22,28a1.5,1.5,0,0,1,1.5,2.6A21.5,21.5,0,0,1,120,33.5Z"/><path class="cls-1" d="M122,23.5a21.38,21.38,0,0,1-19.24-11.95,1.5,1.5,0,0,1,2.69-1.34A18.4,18.4,0,0,0,122,20.5a18.49,18.49,0,0,0,5.46-.82,1.5,1.5,0,0,1,.88,2.87A21.48,21.48,0,0,1,122,23.5Z"/><path class="cls-1" d="M58.84,47.58h0a41.12,41.12,0,0,1-30.1-13,1.5,1.5,0,0,1,0-2.09L52.33,8.94a1.5,1.5,0,0,1,2.09,0,41.11,41.11,0,0,1,13,30.1,1.5,1.5,0,0,1-3,0,38.09,38.09,0,0,0-11-26.9L31.94,33.58a38.1,38.1,0,0,0,26.9,11,1.5,1.5,0,0,1,0,3Z"/><path class="cls-1" d="M62.37,44a1.5,1.5,0,0,1-1.06-.44L40.55,22.84a1.5,1.5,0,0,1,2.12-2.12L63.44,41.49A1.5,1.5,0,0,1,62.37,44Z"/><path class="cls-1" d="M54.33,47.32a1.5,1.5,0,0,1-1.06-.44L34.89,28.5A1.5,1.5,0,0,1,37,26.38L55.39,44.75a1.5,1.5,0,0,1-1.06,2.56Z"/><path class="cls-1" d="M65.64,36a1.5,1.5,0,0,1-1.06-.44L46.21,17.19a1.5,1.5,0,1,1,2.12-2.12L66.7,33.44A1.5,1.5,0,0,1,65.64,36Z"/><path class="cls-1" d="M70,91.5A1.5,1.5,0,0,1,68.5,90,11.51,11.51,0,0,1,80,78.5,8.51,8.51,0,0,0,88.5,70,21.52,21.52,0,0,1,110,48.5a1.5,1.5,0,0,1,0,3A18.52,18.52,0,0,0,91.5,70,11.51,11.51,0,0,1,80,81.5,8.51,8.51,0,0,0,71.5,90,1.5,1.5,0,0,1,70,91.5Z"/><path class="cls-1" d="M80,101.5A11.51,11.51,0,0,1,68.5,90a1.5,1.5,0,1,1,3,0A8.51,8.51,0,0,0,80,98.5a1.5,1.5,0,1,1,0,3Z"/><path class="cls-1" d="M90,111.5a1.5,1.5,0,0,1-1.5-1.5,8.51,8.51,0,0,0-8.5-8.5,1.5,1.5,0,1,1,0-3A11.51,11.51,0,0,1,91.5,110,1.5,1.5,0,0,1,90,111.5Z"/><path class="cls-1" d="M80,121.5a1.5,1.5,0,0,1,0-3,8.51,8.51,0,0,0,8.5-8.5,1.5,1.5,0,0,1,3,0A11.51,11.51,0,0,1,80,121.5Z"/><path class="cls-1" d="M76.46,130a6.5,6.5,0,1,1,4.6-1.9A6.46,6.46,0,0,1,76.46,130Zm0-10A3.5,3.5,0,0,0,74,126a3.58,3.58,0,0,0,5,0,3.5,3.5,0,0,0-2.48-6Z"/><path class="cls-1" d="M72.93,121.5a1.5,1.5,0,0,1-1.06-.44L42.79,92a1.5,1.5,0,0,1,2.12-2.12L74,118.94a1.5,1.5,0,0,1-1.06,2.56Z"/></svg>
