<svg id="Calque_1" data-name="Calque 1" xmlns="http://www.w3.org/2000/svg" viewBox="0 0 80 80"><defs><style>.cls-1{fill:currentColor;}</style></defs><title>EnPleinAir_S</title><path class="cls-1" d="M46.39,25.74a1.5,1.5,0,0,1-.89-.29L40,21.4l-5.5,4.05a1.5,1.5,0,0,1-1.78,0l-6.39-4.71a1.5,1.5,0,0,1,1.78-2.42l5.5,4.05,5.5-4.05a1.5,1.5,0,0,1,1.78,0l5.5,4.05,5.5-4.05a1.5,1.5,0,0,1,1.78,2.42l-6.39,4.71A1.5,1.5,0,0,1,46.39,25.74Z"/><path class="cls-1" d="M10,33.9a1.5,1.5,0,0,1-.9-2.7l30-22.4a1.5,1.5,0,0,1,1.79,0L54.48,18.94a1.5,1.5,0,0,1-1.79,2.4L40,11.87,10.9,33.6A1.5,1.5,0,0,1,10,33.9Z"/><path class="cls-1" d="M49.07,63.7a1.5,1.5,0,0,1-1.41-1l-8-21.8a1.5,1.5,0,0,1,2.82-1l8,21.8a1.5,1.5,0,0,1-1.41,2Z"/><path class="cls-1" d="M49.07,71.5a9.3,9.3,0,1,1,9.3-9.3A9.31,9.31,0,0,1,49.07,71.5Zm0-15.6a6.3,6.3,0,1,0,6.3,6.3A6.31,6.31,0,0,0,49.07,55.9Z"/><path class="cls-1" d="M17.8,71.5a9.3,9.3,0,1,1,9.3-9.3A9.31,9.31,0,0,1,17.8,71.5Zm0-15.6a6.3,6.3,0,1,0,6.3,6.3A6.31,6.31,0,0,0,17.8,55.9Z"/><path class="cls-1" d="M31.2,63.7H17.8a1.5,1.5,0,0,1,0-3H31.2a1.5,1.5,0,1,1,0,3Z"/><path class="cls-1" d="M31.2,63.7a1.5,1.5,0,0,1-1.13-2.48L42.63,46.75a1.5,1.5,0,1,1,2.26,2L32.33,63.18A1.5,1.5,0,0,1,31.2,63.7Z"/><path class="cls-1" d="M27.11,53.35a1.5,1.5,0,0,1-1.38-.92l-3.22-7.64a1.5,1.5,0,1,1,2.76-1.16l3.22,7.64a1.5,1.5,0,0,1-1.38,2.08Z"/><path class="cls-1" d="M40.19,53.35H27.11a1.5,1.5,0,0,1,0-3H40.19a1.5,1.5,0,0,1,0,3Z"/><path class="cls-1" d="M28.36,45.71H19.42a1.5,1.5,0,1,1,0-3h8.94a1.5,1.5,0,1,1,0,3Z"/><path class="cls-1" d="M47.94,41.9H41.07a1.5,1.5,0,0,1,0-3h6.87a1.5,1.5,0,0,1,0,3Z"/><path class="cls-1" d="M64.93,45.23a10.06,10.06,0,0,1-10.24-9.84A9.45,9.45,0,0,1,55,32.83a9.69,9.69,0,0,1-4.41-8.08,10,10,0,0,1,9.77-9.83A10.18,10.18,0,0,1,70,8.5a1.5,1.5,0,0,1,0,3,7.13,7.13,0,0,0-7,5.29,1.5,1.5,0,0,1-1.56,1.14l-.52,0a7.06,7.06,0,0,0-7.24,6.84,6.79,6.79,0,0,0,3.9,6.06,1.5,1.5,0,0,1,.71,2,6.47,6.47,0,0,0-.55,2.63,7.06,7.06,0,0,0,7.24,6.84,7.47,7.47,0,0,0,4.23-1.29,1.5,1.5,0,0,1,1.69,2.48A10.46,10.46,0,0,1,64.93,45.23Z"/><path class="cls-1" d="M63.81,71.5a1.5,1.5,0,0,1,0-3,4.69,4.69,0,0,0,4.69-4.69V42.18a1.5,1.5,0,0,1,3,0V63.81A7.7,7.7,0,0,1,63.81,71.5Z"/></svg>