<svg viewBox="0 0 140 140" fill="none" xmlns="http://www.w3.org/2000/svg">
<path fill-rule="evenodd" clip-rule="evenodd" d="M10 8.5C10.8284 8.5 11.5 9.17157 11.5 10V25C11.5 26.9716 13.0284 28.5 15 28.5H18.5V10C18.5 9.17157 19.1716 8.5 20 8.5C20.8284 8.5 21.5 9.17157 21.5 10V28.5H28.5V10C28.5 9.17157 29.1716 8.5 30 8.5C30.8284 8.5 31.5 9.17157 31.5 10V28.5H38.5V10C38.5 9.17157 39.1716 8.5 40 8.5C40.8284 8.5 41.5 9.17157 41.5 10V28.5H48.5V10C48.5 9.17157 49.1716 8.5 50 8.5C50.8284 8.5 51.5 9.17157 51.5 10V28.5H58.5V10C58.5 9.17157 59.1716 8.5 60 8.5C60.8284 8.5 61.5 9.17157 61.5 10V28.5H65C66.9716 28.5 68.5 26.9716 68.5 25V10C68.5 9.17157 69.1716 8.5 70 8.5C70.8284 8.5 71.5 9.17157 71.5 10V25C71.5 28.6284 68.6284 31.5 65 31.5H46.5V125C46.5 128.628 43.6284 131.5 40 131.5C36.3716 131.5 33.5 128.628 33.5 125V31.5H15C11.3716 31.5 8.5 28.6284 8.5 25V10C8.5 9.17157 9.17157 8.5 10 8.5ZM36.5 31.5V125C36.5 126.971 38.0284 128.5 40 128.5C41.9716 128.5 43.5 126.971 43.5 125V31.5H36.5Z" fill="currentColor"/>
<path fill-rule="evenodd" clip-rule="evenodd" d="M78.5 74.0027C78.5 73.1743 79.1716 72.5027 80 72.5027H130C130.828 72.5027 131.5 73.1743 131.5 74.0027C131.5 74.8311 130.828 75.5027 130 75.5027C125.228 75.5027 121.5 79.2311 121.5 84.0027V130C121.5 130.829 120.828 131.5 120 131.5H80C79.1716 131.5 78.5 130.829 78.5 130V85.5029H71.5V110C71.5 110.829 70.8284 111.5 70 111.5C69.1716 111.5 68.5 110.829 68.5 110V84.0029C68.5 83.1745 69.1716 82.5029 70 82.5029H78.5V74.0027ZM81.5 128.5H118.5V84.0027C118.5 80.609 119.913 77.5935 122.194 75.5027H81.5V128.5Z" fill="currentColor"/>
<path fill-rule="evenodd" clip-rule="evenodd" d="M78.5 35.0163C78.5 20.3727 90.3635 8.5 105 8.5C119.636 8.5 131.5 20.3727 131.5 35.0163C131.5 49.6599 119.636 61.5326 105 61.5326C90.3635 61.5326 78.5 49.6599 78.5 35.0163ZM81.5444 33.5587C81.5149 34.0408 81.5 34.5268 81.5 35.0163C81.5 48.0049 92.0222 58.5326 105 58.5326C105.489 58.5326 105.974 58.5177 106.456 58.4882C106.485 58.0063 106.5 57.5203 106.5 57.0306C106.5 44.042 95.9778 33.5143 83.0001 33.5143C82.511 33.5143 82.0257 33.5292 81.5444 33.5587ZM81.926 30.5357C82.2823 30.5215 82.6404 30.5143 83.0001 30.5143C97.6365 30.5143 109.5 42.387 109.5 57.0306C109.5 57.3907 109.493 57.7493 109.479 58.106C118.865 56.2935 126.263 48.8912 128.074 39.4968C127.718 39.5111 127.36 39.5182 127 39.5182C112.364 39.5182 100.5 27.6456 100.5 13.0019C100.5 12.6418 100.507 12.2833 100.521 11.9266C91.1347 13.7391 83.737 21.1414 81.926 30.5357ZM103.544 11.5444C103.515 12.0263 103.5 12.5123 103.5 13.0019C103.5 25.9905 114.022 36.5182 127 36.5182C127.489 36.5182 127.974 36.5033 128.456 36.4739C128.485 35.9918 128.5 35.5058 128.5 35.0163C128.5 22.0277 117.978 11.5 105 11.5C104.511 11.5 104.026 11.5149 103.544 11.5444Z" fill="currentColor"/>
</svg>
