<svg id="Calque_1" data-name="Calque 1" xmlns="http://www.w3.org/2000/svg" viewBox="0 0 120 120">
  <defs>
    <style>
      .cls-1{fill:currentColor}
    </style>
  </defs>
  <circle class="cls-2" cx="60" cy="60" r="51.5"/>
  <path fill="#fff" d="M60 111.5A51.5 51.5 0 1 1 111.5 60 51.56 51.56 0 0 1 60 111.5zm0-100A48.5 48.5 0 1 0 108.5 60 48.55 48.55 0 0 0 60 11.5z"/>
  <path class="cls-1" d="M57.16 86.5a5.69 5.69 0 0 1-5.52-4.34A5.7 5.7 0 0 1 47.46 78a5.7 5.7 0 0 1-4.18-4.18 5.68 5.68 0 1 1 6.86-6.86 5.7 5.7 0 0 1 4.18 4.18 5.7 5.7 0 0 1 4.18 4.16 5.68 5.68 0 0 1-1.34 11.2zM44.62 65.59a2.68 2.68 0 1 0 0 5.36 1.5 1.5 0 0 1 1.5 1.5 2.68 2.68 0 0 0 2.68 2.68 1.5 1.5 0 0 1 1.5 1.5 2.68 2.68 0 0 0 2.7 2.69 1.5 1.5 0 0 1 1.5 1.5 2.68 2.68 0 1 0 2.68-2.68 1.5 1.5 0 0 1-1.5-1.5A2.68 2.68 0 0 0 53 74a1.5 1.5 0 0 1-1.5-1.5 2.68 2.68 0 0 0-2.68-2.68 1.5 1.5 0 0 1-1.5-1.5 2.68 2.68 0 0 0-2.7-2.73zm14 11zM78.51 67.05a1.5 1.5 0 0 1-1.06-2.56L78 64a3.66 3.66 0 0 0 0-5.17 1.5 1.5 0 0 1 0-2.12l6-6a1.5 1.5 0 0 1 2.12 2.12l-5 5a6.66 6.66 0 0 1-.94 8.23l-.51.51a1.5 1.5 0 0 1-1.16.48z"/>
  <path class="cls-1" d="M62.84 86.5A5.66 5.66 0 0 1 59 85a1.5 1.5 0 1 1 2-2.2 2.68 2.68 0 0 0 4.5-2 1.5 1.5 0 0 1 1.5-1.5 2.68 2.68 0 0 0 2.68-2.68 1.5 1.5 0 0 1 1.5-1.5 2.68 2.68 0 0 0 2.68-2.68 1.5 1.5 0 0 1 1.5-1.5 2.68 2.68 0 0 0 1.83-4.64l-9.39-9.39-6.27 6.27a6.31 6.31 0 1 1-8.93-8.93l7.4-7.41a6.3 6.3 0 0 1 7.71-.93l11.85-11.85a1.5 1.5 0 0 1 2.12 2.12L68.91 49a1.5 1.5 0 0 1-1.06.44 1.5 1.5 0 0 1-1.06-.44 3.37 3.37 0 0 0-4.65 0l-7.41 7.41a3.31 3.31 0 1 0 4.69 4.69l7.33-7.33a1.54 1.54 0 0 1 2.12 0L79.3 64.16a5.68 5.68 0 0 1-2.57 9.64 5.7 5.7 0 0 1-4.19 4.2 5.7 5.7 0 0 1-4.18 4.18 5.69 5.69 0 0 1-5.52 4.32zM41.46 67a1.5 1.5 0 0 1-1.06-.44l-.49-.49a6.66 6.66 0 0 1-.91-8.2l-5-5a1.5 1.5 0 0 1 2.12-2.12l6 6a1.5 1.5 0 0 1 0 2.12A3.66 3.66 0 0 0 42 64l.49.49A1.5 1.5 0 0 1 41.46 67z"/>
  <path class="cls-1" d="M60 50.47a1.5 1.5 0 0 1-1.06-.47l-1.07-1a3.37 3.37 0 0 0-4.65 0 1.54 1.54 0 0 1-2.12 0L38.2 36.1a1.5 1.5 0 0 1 2.12-2.12l12 12a6.3 6.3 0 0 1 7.71.93l1.07 1.07a1.5 1.5 0 0 1-1.1 2.49z"/>
</svg>
