<svg id="Calque_1" data-name="Calque 1" xmlns="http://www.w3.org/2000/svg" viewBox="0 0 80 80"><defs><style>.cls-1{fill:none;stroke:currentColor;stroke-linecap:round;stroke-linejoin:round;stroke-width:3px;}</style></defs><title>EnPleinAir_S</title><polyline class="cls-1" points="27.23 19.53 33.62 24.24 40 19.53 46.38 24.24 52.77 19.53"/><polyline class="cls-1" points="53.59 20.14 40 10 10 32.4"/><line class="cls-1" x1="41.07" y1="40.4" x2="49.07" y2="62.2"/><circle class="cls-1" cx="49.07" cy="62.2" r="7.8"/><circle class="cls-1" cx="17.8" cy="62.2" r="7.8"/><line class="cls-1" x1="17.8" y1="62.2" x2="31.2" y2="62.2"/><line class="cls-1" x1="43.76" y1="47.74" x2="31.2" y2="62.2"/><line class="cls-1" x1="27.11" y1="51.85" x2="23.89" y2="44.21"/><line class="cls-1" x1="40.19" y1="51.85" x2="27.11" y2="51.85"/><line class="cls-1" x1="19.42" y1="44.21" x2="28.36" y2="44.21"/><line class="cls-1" x1="47.94" y1="40.4" x2="41.07" y2="40.4"/><path class="cls-1" d="M70,10a8.66,8.66,0,0,0-8.51,6.44c-.21,0-.41,0-.62,0a8.55,8.55,0,0,0-8.74,8.34,8.3,8.3,0,0,0,4.74,7.41,8,8,0,0,0-.68,3.23,8.55,8.55,0,0,0,8.74,8.34A9,9,0,0,0,70,42.18"/><path class="cls-1" d="M70,42.18V63.81A6.19,6.19,0,0,1,63.81,70h0"/></svg>