<svg id="Calque_1" data-name="Calque 1" xmlns="http://www.w3.org/2000/svg" viewBox="0 0 120 120"><defs><style>.cls-1{fill:currentColor;}</style></defs><title>All</title><circle class="cls-2" cx="60" cy="60" r="51.5"/><path fill="#fff" d="M60,111.5A51.5,51.5,0,1,1,111.5,60,51.56,51.56,0,0,1,60,111.5Zm0-100A48.5,48.5,0,1,0,108.5,60,48.55,48.55,0,0,0,60,11.5Z"/><path class="st0" d="M60,60h12.5C79.4,60,85,54.4,85,47.5S79.4,35,72.5,35C65.6,35,60,40.6,60,47.5V60z"/><path class="st0" d="M60,60H47.5C40.6,60,35,65.6,35,72.5S40.6,85,47.5,85S60,79.4,60,72.5V60z"/></svg>
