<svg id="Calque_1" data-name="Calque 1" xmlns="http://www.w3.org/2000/svg" viewBox="0 0 120 120"><defs><style>.cls-1{fill:none;stroke:#212121;stroke-linecap:round;stroke-linejoin:round;stroke-width:3px;}</style></defs><title>Intergenerationnel_O</title><circle class="cls-1" cx="60" cy="60" r="50"/><line class="cls-1" x1="35" y1="73.09" x2="79.45" y2="85"/><path class="cls-1" d="M49.82,77.06A15.34,15.34,0,0,1,79.45,85"/><line class="cls-1" x1="70.05" y1="60.82" x2="68.6" y2="66.21"/><path class="cls-1" d="M66.3,60.39c-.4-.11-.66-.43-.58-.73h0a.67.67,0,0,1,.86-.34A12.68,12.68,0,0,1,70,60.82a12.68,12.68,0,0,1,3.75.43c.4.11.66.43.58.73h0a.67.67,0,0,1-.86.34A12.68,12.68,0,0,1,70,60.82,12.68,12.68,0,0,1,66.3,60.39Z"/><line class="cls-1" x1="41.79" y1="57.65" x2="85" y2="46.07"/><path class="cls-1" d="M79.75,47.48l-6.94-9.91a6.06,6.06,0,0,0-8.42-1.48L60,39.17l-5.35-.47a6.06,6.06,0,0,0-6.55,5.5L47,56.24"/><path class="cls-1" d="M47.6,49.88A10.12,10.12,0,0,1,35.24,40,12.68,12.68,0,0,1,47.6,49.88Z"/></svg>