<svg id="Calque_1" data-name="Calque 1" xmlns="http://www.w3.org/2000/svg" viewBox="0 0 140 140">
  <defs>
    <style>
      .cls-1{fill:currentColor}
    </style>
  </defs>
  <path class="cls-1" d="M10 131.5a1.5 1.5 0 0 1-1.5-1.5V50A41.55 41.55 0 0 1 50 8.5h40A41.55 41.55 0 0 1 131.5 50v20A41.55 41.55 0 0 1 90 111.5H30.62l-19.56 19.56a1.5 1.5 0 0 1-1.06.44zm40-120A38.54 38.54 0 0 0 11.5 50v76.38l17.44-17.44a1.5 1.5 0 0 1 1.06-.44h60A38.54 38.54 0 0 0 128.5 70V50A38.54 38.54 0 0 0 90 11.5z"/>
  <path class="cls-1" d="M80 71.5a21.24 21.24 0 0 1-8.35-1.7A21.7 21.7 0 0 1 60.2 58.35a1.5 1.5 0 0 1 2.8-1.17A18.69 18.69 0 0 0 72.82 67 18.26 18.26 0 0 0 80 68.5a1.5 1.5 0 0 1 0 3z"/>
  <path class="cls-1" d="M60 71.5a1.5 1.5 0 1 1 0-3A18.56 18.56 0 0 0 78.5 50a1.5 1.5 0 0 1 3 0A21.56 21.56 0 0 1 60 71.5z"/>
  <path class="cls-1" d="M80 51.5H70a1.5 1.5 0 0 1 0-3h10a1.5 1.5 0 0 1 0 3zM110 71.5H90a1.5 1.5 0 0 1-1.06-2.56L97.88 60l-8.94-8.94A1.5 1.5 0 0 1 90 48.5h20a1.5 1.5 0 0 1 0 3H93.62l7.44 7.44a1.5 1.5 0 0 1 0 2.12l-7.44 7.44H110a1.5 1.5 0 0 1 0 3zM47.5 66.5h-15a1.5 1.5 0 1 1 0-3h15a1.5 1.5 0 0 1 0 3z"/>
  <path class="cls-1" d="M50 71.5a1.5 1.5 0 0 1-1.34-.83L40 53.35l-8.66 17.32a1.5 1.5 0 1 1-2.68-1.34l10-20a1.5 1.5 0 0 1 2.68 0l10 20A1.5 1.5 0 0 1 50 71.5z"/>
</svg>
