<svg viewBox="0 0 140 140" fill="none" xmlns="http://www.w3.org/2000/svg">
<path fill-rule="evenodd" clip-rule="evenodd" d="M114.574 8.61422C115.135 8.8464 115.5 9.39335 115.5 10V24.5H130C130.607 24.5 131.154 24.8655 131.386 25.426C131.618 25.9865 131.49 26.6317 131.061 27.0607L121.598 36.5229C127.862 46.157 131.5 57.6557 131.5 70C131.5 103.966 103.966 131.5 70 131.5C36.0345 131.5 8.5 103.966 8.5 70C8.5 36.0345 36.0345 8.5 70 8.5C82.3443 8.5 93.843 12.1384 103.477 18.4016L112.939 8.93938C113.368 8.51039 114.014 8.38205 114.574 8.61422ZM115.061 43.0607L119.427 38.6939C125.173 47.7455 128.5 58.4822 128.5 70C128.5 102.309 102.309 128.5 70 128.5C37.6913 128.5 11.5 102.309 11.5 70C11.5 37.6913 37.6913 11.5 70 11.5C81.5178 11.5 92.2545 14.8271 101.306 20.5726L96.9393 24.9394C96.658 25.2207 96.5 25.6022 96.5 26V38.0612C89.3116 32.0902 80.0751 28.5 70 28.5C47.0802 28.5 28.5 47.0802 28.5 70C28.5 92.9198 47.0802 111.5 70 111.5C92.9198 111.5 111.5 92.9198 111.5 70C111.5 59.9249 107.91 50.6884 101.939 43.5H114C114.398 43.5 114.779 43.342 115.061 43.0607ZM98.2637 43.8576L86.2266 55.8947C89.5113 59.6701 91.5 64.6028 91.5 70C91.5 81.8741 81.8741 91.5 70 91.5C58.1259 91.5 48.5 81.8741 48.5 70C48.5 58.1259 58.1259 48.5 70 48.5C75.3972 48.5 80.3299 50.4887 84.1053 53.7734L96.1424 41.7363C89.2768 35.3829 80.0919 31.5 70 31.5C48.737 31.5 31.5 48.737 31.5 70C31.5 91.263 48.737 108.5 70 108.5C91.263 108.5 108.5 91.263 108.5 70C108.5 59.9081 104.617 50.7232 98.2637 43.8576ZM81.978 55.9007C78.7505 53.1561 74.5687 51.5 70 51.5C59.7827 51.5 51.5 59.7827 51.5 70C51.5 80.2173 59.7827 88.5 70 88.5C80.2173 88.5 88.5 80.2173 88.5 70C88.5 65.4313 86.8439 61.2495 84.0993 58.022L73.6213 68.5H80C80.8284 68.5 81.5 69.1716 81.5 70C81.5 70.8284 80.8284 71.5 80 71.5H70C69.7966 71.5 69.6027 71.4595 69.4258 71.3862C69.2489 71.313 69.0832 71.2045 68.9393 71.0607C68.7955 70.9168 68.687 70.7511 68.6138 70.5742C68.5498 70.4198 68.5108 70.2525 68.502 70.0772C68.5007 70.0516 68.5 70.0259 68.5 70V60C68.5 59.1716 69.1716 58.5 70 58.5C70.8284 58.5 71.5 59.1716 71.5 60V66.3787L81.978 55.9007ZM101.621 40.5H113.379L126.379 27.5H114.621L101.621 40.5ZM112.5 25.3787V13.6214L99.5 26.6214V38.3787L112.5 25.3787Z" fill="currentColor"/>
</svg>
