<svg id="Calque_1" data-name="Calque 1" xmlns="http://www.w3.org/2000/svg" viewBox="0 0 120 120"><defs><style>.cls-1{fill:none;stroke:#212121;stroke-linecap:round;stroke-linejoin:round;stroke-width:3px;}</style></defs><title>Cuisine_O</title><circle class="cls-1" cx="60" cy="60" r="50"/><path class="cls-1" d="M64.81,55.13l-.2.24a1.59,1.59,0,0,1,1.94-.58l7.6,3.43h0a4.77,4.77,0,0,1,2.1,7.07l-5,7.25A6.36,6.36,0,0,1,59.57,69V62.61a3.17,3.17,0,0,1,.93-2.25l4.11-5"/><path class="cls-1" d="M57.09,43.33l0,10.11a5,5,0,0,1-5,5.06h0a5,5,0,0,1-5-5.06l0-10.11"/><line class="cls-1" x1="52.08" y1="43.33" x2="52.08" y2="83.72"/><path class="cls-1" d="M42.14,61,35,43.33V65h4.44A2.91,2.91,0,0,0,42.14,61Z"/><line class="cls-1" x1="35" y1="65" x2="35" y2="80.83"/><path class="cls-1" d="M37.42,49.32A25,25,0,1,1,35.5,65"/></svg>