<svg viewBox="0 0 120 120" fill="none" xmlns="http://www.w3.org/2000/svg">
  <defs>
    <style>
      .cls-1{fill:currentColor}
    </style>
  </defs>
  <circle class="cls-2" cx="60" cy="60" r="51.5"/>
  <path fill-rule="evenodd" clip-rule="evenodd" d="M8.5 60C8.5 31.5573 31.5573 8.5 60 8.5C88.4427 8.5 111.5 31.5573 111.5 60C111.5 88.4427 88.4427 111.5 60 111.5C31.5573 111.5 8.5 88.4427 8.5 60ZM60 11.5C33.2142 11.5 11.5 33.2142 11.5 60C11.5 86.7858 33.2142 108.5 60 108.5C86.7858 108.5 108.5 86.7858 108.5 60C108.5 33.2142 86.7858 11.5 60 11.5Z" fill="#fff"/>
  <path class="cls-1" d="M35 33.5C35.8284 33.5 36.5 34.1716 36.5 35V41.8182C36.5 42.1339 36.6045 42.3009 36.6821 42.3817C36.7713 42.4745 36.8655 42.5 36.92 42.5H41.5V35C41.5 34.1716 42.1716 33.5 43 33.5C43.8284 33.5 44.5 34.1716 44.5 35V42.5H49.5V35C49.5 34.1716 50.1716 33.5 51 33.5C51.8284 33.5 52.5 34.1716 52.5 35V42.5H57.08C57.1345 42.5 57.2287 42.4745 57.3179 42.3817C57.3955 42.3009 57.5 42.1339 57.5 41.8182V35C57.5 34.1716 58.1716 33.5 59 33.5C59.8284 33.5 60.5 34.1716 60.5 35V41.8182C60.5 43.9519 58.9256 45.5 57.08 45.5H48.5V85C48.5 85.8284 47.8284 86.5 47 86.5C46.1716 86.5 45.5 85.8284 45.5 85V45.5H36.92C35.0744 45.5 33.5 43.9519 33.5 41.8182V35C33.5 34.1716 34.1716 33.5 35 33.5Z" />
  <path class="cls-1" fill-rule="evenodd" clip-rule="evenodd" d="M64.5 61C64.5 60.1716 65.1716 59.5 66 59.5H85C85.8284 59.5 86.5 60.1716 86.5 61C86.5 61.8284 85.8284 62.5 85 62.5H83.502V85C83.502 85.8284 82.8304 86.5 82.002 86.5H66C65.1716 86.5 64.5 85.8284 64.5 85V66.5H58.5V77C58.5 77.8284 57.8284 78.5 57 78.5C56.1716 78.5 55.5 77.8284 55.5 77V65C55.5 64.1716 56.1716 63.5 57 63.5H64.5V61ZM67.5 83.5H80.502V62.5H67.5V83.5Z" />
  <path class="cls-1" fill-rule="evenodd" clip-rule="evenodd" d="M64.5 44.5C64.5 38.4249 69.4249 33.5 75.5 33.5C81.5751 33.5 86.5 38.4249 86.5 44.5C86.5 50.5751 81.5751 55.5 75.5 55.5C69.4249 55.5 64.5 50.5751 64.5 44.5ZM67.9371 41.885C73.3676 42.2981 77.702 46.6324 78.1152 52.0628C80.4297 51.2626 82.2626 49.4297 83.0628 47.1152C77.6324 46.702 73.2981 42.3676 72.885 36.9371C70.5703 37.7374 68.7374 39.5703 67.9371 41.885ZM75.8636 36.5081C76.0758 40.6243 79.3757 43.9243 83.4919 44.1366C83.3073 40.0075 79.9927 36.6928 75.8636 36.5081ZM75.1366 52.4919C74.9243 48.3757 71.6244 45.0758 67.5081 44.8636C67.6928 48.9927 71.0075 52.3073 75.1366 52.4919Z" />
</svg>
