<svg id="Calque_1" data-name="Calque 1" xmlns="http://www.w3.org/2000/svg" viewBox="0 0 140 140">
  <defs>
    <style>
      .cls-1{fill:currentColor}
    </style>
  </defs>
  <path class="cls-1" d="M62.12 131.51a9.15 9.15 0 1 1 6.47-2.68 9.12 9.12 0 0 1-6.47 2.68zm0-15.3a6.13 6.13 0 0 0-4.35 1.8 6.16 6.16 0 1 0 4.35-1.8zm-5.41.74z"/>
  <path class="cls-1" d="M51.3 120.68a9.15 9.15 0 1 1 6.47-2.68 9.12 9.12 0 0 1-6.47 2.68zm0-15.3a6.13 6.13 0 0 0-4.35 1.8 6.16 6.16 0 1 0 4.35-1.8zm-5.41.74z"/>
  <path class="cls-1" d="M40.48 109.86a9.15 9.15 0 1 1 6.47-2.68 9.12 9.12 0 0 1-6.47 2.68zm0-15.3a6.15 6.15 0 1 0 4.35 1.8 6.13 6.13 0 0 0-4.35-1.79z"/>
  <path class="cls-1" d="M29.65 99a9.15 9.15 0 0 1-6.47-15.62A9.15 9.15 0 1 1 29.65 99zM25.3 85.54a6.15 6.15 0 1 0 8.7 0 6.16 6.16 0 0 0-8.7 0zM114.43 84.83a1.5 1.5 0 0 1-1.06-2.56l1.22-1.27a10.87 10.87 0 0 0 0-15.38 1.5 1.5 0 0 1 0-2.12l14.35-14.35a1.5 1.5 0 0 1 2.12 2.12l-13.34 13.39a13.88 13.88 0 0 1-1 18.51l-1.23 1.23a1.5 1.5 0 0 1-1.06.43z"/>
  <path class="cls-1" d="M76.81 131.49a11.5 11.5 0 0 1-7.81-3.08 1.5 1.5 0 0 1 2-2.2A8.54 8.54 0 0 0 85.35 120a1.5 1.5 0 0 1 1.5-1.5 8.54 8.54 0 0 0 8.54-8.53 1.5 1.5 0 0 1 1.5-1.5 8.54 8.54 0 0 0 8.54-8.53 1.5 1.5 0 0 1 1.5-1.5 8.54 8.54 0 0 0 8.54-8.53 8.46 8.46 0 0 0-2.71-6.24l-27-27-18 18a10.93 10.93 0 1 1-15.52-15.49L71.51 39.9a13 13 0 0 1 17.26-1l29.66-29.66a1.5 1.5 0 1 1 2.12 2.12L89.89 42a1.5 1.5 0 0 1-2.12 0 10 10 0 0 0-14.14 0L54.36 61.3a7.93 7.93 0 0 0 11.22 11.21l19.09-19.09a1.5 1.5 0 0 1 2.12 0l28 28a11.53 11.53 0 0 1-6.49 19.84 11.56 11.56 0 0 1-10 10 11.56 11.56 0 0 1-10 10 11.55 11.55 0 0 1-11.49 10.23zM25.64 84.88a1.49 1.49 0 0 1-1.06-.44l-1.29-1.28a13.88 13.88 0 0 1-1-18.51L8.94 51.31a1.5 1.5 0 1 1 2.12-2.12l14.35 14.35a1.5 1.5 0 0 1 0 2.12 10.87 10.87 0 0 0 0 15.38l1.28 1.28a1.5 1.5 0 0 1-1.06 2.56z"/>
  <path class="cls-1" d="M70 45a1.5 1.5 0 0 1-1.06-.44L66.36 42a10 10 0 0 0-14.14 0 1.5 1.5 0 0 1-2.12 0l-31-31a1.5 1.5 0 0 1 2.12-2.12l30 30a13 13 0 0 1 17.26 1l2.58 2.57A1.5 1.5 0 0 1 70 45z"/>
</svg>
