<svg viewBox="0 0 107 106" fill="none" xmlns="http://www.w3.org/2000/svg">
  <g filter="url(#filter0_d)">
    <circle cx="52" cy="51" r="50" fill="#74B1FF"/>
    <circle cx="52" cy="51" r="50" stroke="white" stroke-width="1.5"/>
  </g>
  <path d="M22 24C22 22.3431 23.3431 21 25 21H79C80.6569 21 82 22.3431 82 24V61H22V24Z" stroke="white" stroke-width="1.5"/>
  <rect x="26" y="25" width="52" height="32" stroke="white" stroke-width="1.5"/>
  <path d="M22 66C22 67.6569 23.3431 69 25 69H79C80.6569 69 82 67.6569 82 66V61H22V66Z" stroke="white" stroke-width="1.5"/>
  <rect x="44" y="69" width="16" height="8" stroke="white" stroke-width="1.5"/>
  <rect width="28" height="4" rx="2" transform="matrix(1 0 0 -1 38 81)" stroke="white" stroke-width="1.5"/>
  <circle cx="52" cy="49" r="2" stroke="white" stroke-width="1.5"/>
  <path d="M52 44V42.8333C52 42.3731 52.3731 42 52.8333 42V42C55.1345 42 57 40.1345 57 37.8333V37C57 34.2386 54.7109 32 51.9495 32V32C49.2433 32 47 34.1938 47 36.9V37" stroke="white" stroke-width="1.5" stroke-linecap="round" stroke-linejoin="round"/>
  <defs>
    <filter id="filter0_d" x="0.75" y="0.25" width="105.5" height="105.5" filterUnits="userSpaceOnUse" color-interpolation-filters="sRGB">
      <feFlood flood-opacity="0" result="BackgroundImageFix"/>
      <feColorMatrix in="SourceAlpha" type="matrix" values="0 0 0 0 0 0 0 0 0 0 0 0 0 0 0 0 0 0 127 0" result="hardAlpha"/>
      <feOffset dx="1.5" dy="2"/>
      <feGaussianBlur stdDeviation="1"/>
      <feColorMatrix type="matrix" values="0 0 0 0 0.129412 0 0 0 0 0.129412 0 0 0 0 0.129412 0 0 0 0.3 0"/>
      <feBlend mode="normal" in2="BackgroundImageFix" result="effect1_dropShadow"/>
      <feBlend mode="normal" in="SourceGraphic" in2="effect1_dropShadow" result="shape"/>
    </filter>
  </defs>
</svg>
