<svg id="Calque_1" data-name="Calque 1" xmlns="http://www.w3.org/2000/svg" viewBox="0 0 120 120"><defs><style>.cls-1{fill:none;stroke:#212121;stroke-linecap:round;stroke-linejoin:round;stroke-width:3px;}</style></defs><title>RencontresThematiques_O</title><circle class="cls-1" cx="60" cy="60" r="50"/><line class="cls-1" x1="59.04" y1="75.82" x2="54.81" y2="85"/><line class="cls-1" x1="63.99" y1="80.77" x2="54.81" y2="85"/><polyline class="cls-1" points="59.04 75.82 80.05 54.81 85 59.76 63.99 80.77"/><polyline class="cls-1" points="68.33 66.53 68.33 35 35 35 35 76.67 58.65 76.67"/><line class="cls-1" x1="76.72" y1="60.14" x2="79.67" y2="63.09"/><line class="cls-1" x1="49.75" y1="43.33" x2="61.25" y2="43.33"/><line class="cls-1" x1="49.75" y1="51.67" x2="61.25" y2="51.67"/><line class="cls-1" x1="49.75" y1="60" x2="61.25" y2="60"/><circle class="cls-1" cx="43.27" cy="43.33" r="0.95" transform="translate(-15.87 27.44) rotate(-30)"/><circle class="cls-1" cx="43.27" cy="51.67" r="0.95" transform="translate(-20.04 28.56) rotate(-30)"/><circle class="cls-1" cx="43.27" cy="60" r="0.95" transform="translate(-24.2 29.67) rotate(-30)"/></svg>