<svg id="Calque_1" data-name="Calque 1" xmlns="http://www.w3.org/2000/svg" viewBox="0 0 140 140"><defs><style>.cls-1{fill:currentColor;}</style></defs><title>Manifestations_L</title><path class="cls-1" d="M80,111.5c-13.23,0-23.12-15.22-27.85-24.29C45.48,74.39,41,58.44,41,47.5a39,39,0,0,1,78,0C119,68.85,102.14,111.5,80,111.5Zm0-100a36,36,0,0,0-36,36c0,20.09,16.66,61,36,61s36-40.91,36-61A36,36,0,0,0,80,11.5Z"/><path class="cls-1" d="M80,131.5a6.5,6.5,0,0,1,0-13,3.5,3.5,0,0,0,0-7,1.5,1.5,0,0,1,0-3,6.5,6.5,0,0,1,0,13,3.5,3.5,0,0,0,0,7,1.5,1.5,0,0,1,0,3Z"/><path class="cls-1" d="M30,101.5a6.5,6.5,0,0,1,0-13,3.5,3.5,0,0,0,0-7,1.5,1.5,0,0,1,0-3,6.5,6.5,0,0,1,0,13,3.5,3.5,0,0,0,0,7,1.5,1.5,0,0,1,0,3Z"/><path class="cls-1" d="M110,121.29a6.5,6.5,0,0,1,0-13,3.5,3.5,0,0,0,0-7,1.5,1.5,0,1,1,0-3,6.5,6.5,0,1,1,0,13,3.5,3.5,0,0,0,0,7,1.5,1.5,0,0,1,0,3Z"/><path class="cls-1" d="M110,101.29c-3.41,0-6.77-1.56-10-4.62a1.5,1.5,0,1,1,2.07-2.17c2.65,2.52,5.32,3.8,7.93,3.8,4.36,0,9-3.69,12.85-10.12,3.43-5.8,5.65-13,5.65-18.38a18.4,18.4,0,0,0-11.72-17.2,1.5,1.5,0,1,1,1.1-2.79,21.38,21.38,0,0,1,13.61,20c0,5.86-2.38,13.67-6.07,19.91C121,97.18,115.53,101.29,110,101.29Z"/><path class="cls-1" d="M30,81.5c-5.53,0-11-4.12-15.43-11.59C10.88,63.67,8.5,55.86,8.5,50A21.49,21.49,0,0,1,45.38,35a1.5,1.5,0,0,1-2.15,2.1A18.49,18.49,0,0,0,11.5,50c0,10.74,8.65,28.5,18.5,28.5,5,0,10.28-4.75,14.24-12.7a1.5,1.5,0,0,1,2.69,1.34C42.38,76.27,36.21,81.5,30,81.5Z"/></svg>