<svg id="Calque_1" data-name="Calque 1" xmlns="http://www.w3.org/2000/svg" viewBox="0 0 120 120">
  <defs>
    <style>
      .cls-1{fill:currentColor}
    </style>
  </defs>
  <circle class="cls-2" cx="60" cy="60" r="51.5"/>
  <path fill="#fff" d="M60 111.5A51.5 51.5 0 1 1 111.5 60 51.56 51.56 0 0 1 60 111.5zm0-100A48.5 48.5 0 1 0 108.5 60 48.55 48.55 0 0 0 60 11.5z"/>
  <path class="cls-1" d="M72.5 61.5a1.5 1.5 0 0 1-1.06-.44l-12.5-12.5a1.5 1.5 0 0 1-.44-1.06 14 14 0 1 1 14 14zm-11-14.6l11.6 11.58A11 11 0 1 0 61.52 46.9z"/>
  <path class="cls-1" d="M47.49 82.85a1.5 1.5 0 0 1-1.06-.44l-8.84-8.84a1.5 1.5 0 0 1-.09-2l18.4-22.08.09-.1 2.95-2.95a1.5 1.5 0 0 1 2.12 2.12l-2.9 2.9-17.48 21 6.9 6.9 21-17.48 2.9-2.9a1.5 1.5 0 0 1 2.12 2.12L70.61 64l-.1.09L48.45 82.5a1.5 1.5 0 0 1-.96.35z"/>
  <path class="cls-1" d="M35 86.5a1.5 1.5 0 0 1-1.06-2.56L42 75.87A1.5 1.5 0 0 1 44.13 78l-8.07 8.07a1.5 1.5 0 0 1-1.06.43zM56.67 64.83a1.5 1.5 0 0 1-1.06-2.56l3.07-3.07a1.5 1.5 0 0 1 2.12 2.12l-3.07 3.07a1.5 1.5 0 0 1-1.06.44z"/>
</svg>
