<svg viewBox="0 0 120 120" fill="none" xmlns="http://www.w3.org/2000/svg">
  <defs>
    <style>
      .cls-1{fill:currentColor}
    </style>
  </defs>
  <circle class="cls-2" cx="60" cy="60" r="51.5"/>
  <path fill-rule="evenodd" clip-rule="evenodd" d="M60 8.5C31.5573 8.5 8.5 31.5573 8.5 60C8.5 88.4427 31.5573 111.5 60 111.5C88.4427 111.5 111.5 88.4427 111.5 60C111.5 31.5573 88.4427 8.5 60 8.5ZM11.5 60C11.5 33.2142 33.2142 11.5 60 11.5C86.7858 11.5 108.5 33.2142 108.5 60C108.5 86.7858 86.7858 108.5 60 108.5C33.2142 108.5 11.5 86.7858 11.5 60Z" fill="#fff"/>
  <path class="cls-1" fill-rule="evenodd" clip-rule="evenodd" d="M44 62.5C40.9624 62.5 38.5 64.9624 38.5 68C38.5 71.0376 40.9624 73.5 44 73.5C47.0376 73.5 49.5 71.0376 49.5 68C49.5 64.9624 47.0376 62.5 44 62.5ZM41.5 68C41.5 66.6193 42.6193 65.5 44 65.5C45.3807 65.5 46.5 66.6193 46.5 68C46.5 69.3807 45.3807 70.5 44 70.5C42.6193 70.5 41.5 69.3807 41.5 68Z" />
  <path class="cls-1" fill-rule="evenodd" clip-rule="evenodd" d="M70.5 68C70.5 64.9624 72.9624 62.5 76 62.5C79.0376 62.5 81.5 64.9624 81.5 68C81.5 71.0376 79.0376 73.5 76 73.5C72.9624 73.5 70.5 71.0376 70.5 68ZM76 65.5C74.6193 65.5 73.5 66.6193 73.5 68C73.5 69.3807 74.6193 70.5 76 70.5C77.3807 70.5 78.5 69.3807 78.5 68C78.5 66.6193 77.3807 65.5 76 65.5Z" />
  <path class="cls-1" d="M57.75 67.75C57.75 66.9216 57.0784 66.25 56.25 66.25C55.4216 66.25 54.75 66.9216 54.75 67.75C54.75 70.6495 57.1005 73 60 73C62.8995 73 65.25 70.6495 65.25 67.75C65.25 66.9216 64.5784 66.25 63.75 66.25C62.9216 66.25 62.25 66.9216 62.25 67.75C62.25 68.9926 61.2426 70 60 70C58.7574 70 57.75 68.9926 57.75 67.75Z"/>
  <path class="cls-1" fill-rule="evenodd" clip-rule="evenodd" d="M81.5 45C81.5 38.6487 76.3513 33.5 70 33.5L50 33.5C43.6487 33.5 38.5 38.6487 38.5 45L38.5 52.5H35C34.1716 52.5 33.5 53.1716 33.5 54C33.5 54.8284 34.1716 55.5 35 55.5H38.5V59.054C35.4999 60.9024 33.5 64.2176 33.5 68C33.5 71.7824 35.4999 75.0976 38.5 76.946V81.25C38.5 84.1495 40.8505 86.5 43.75 86.5C46.6495 86.5 49 84.1495 49 81.25V78.5H71V81.25C71 84.1495 73.3505 86.5 76.25 86.5C79.1495 86.5 81.5 84.1495 81.5 81.25V76.946C84.5001 75.0976 86.5 71.7824 86.5 68C86.5 64.2176 84.5001 60.9024 81.5 59.054V55.5H85C85.8284 55.5 86.5 54.8284 86.5 54C86.5 53.1716 85.8284 52.5 85 52.5H81.5V45ZM78.5 45V57.5H77.6256C77.0959 54.343 74.9227 51.7433 72.0158 50.6108C73.2249 49.649 74 48.165 74 46.5C74 43.6005 71.6495 41.25 68.75 41.25C65.8505 41.25 63.5 43.6005 63.5 46.5C63.5 48.165 64.2751 49.649 65.4842 50.6108C62.7685 51.6688 60.6931 54.0074 60 56.8846C59.3069 54.0074 57.2315 51.6688 54.5158 50.6108C55.7249 49.649 56.5 48.165 56.5 46.5C56.5 43.6005 54.1495 41.25 51.25 41.25C48.3505 41.25 46 43.6005 46 46.5C46 48.165 46.7751 49.649 47.9842 50.6108C45.0773 51.7433 42.9041 54.343 42.3744 57.5H41.5V45C41.5 40.3056 45.3056 36.5 50 36.5L70 36.5C74.6944 36.5 78.5 40.3056 78.5 45ZM62.939 57.5C63.6051 54.9122 65.9542 53 68.75 53C71.5458 53 73.8949 54.9122 74.561 57.5H62.939ZM44 60.5C39.8579 60.5 36.5 63.8579 36.5 68C36.5 72.1421 39.8579 75.5 44 75.5H76C80.1421 75.5 83.5 72.1421 83.5 68C83.5 63.8579 80.1421 60.5 76 60.5H44ZM51.25 53C54.0458 53 56.3949 54.9122 57.061 57.5H45.439C46.1051 54.9122 48.4542 53 51.25 53ZM74 81.25C74 82.4926 75.0074 83.5 76.25 83.5C77.4926 83.5 78.5 82.4926 78.5 81.25V79H74V81.25ZM43.75 83.5C42.5074 83.5 41.5 82.4926 41.5 81.25V79H46V81.25C46 82.4926 44.9926 83.5 43.75 83.5ZM68.75 44.25C67.5074 44.25 66.5 45.2574 66.5 46.5C66.5 47.7426 67.5074 48.75 68.75 48.75C69.9926 48.75 71 47.7426 71 46.5C71 45.2574 69.9926 44.25 68.75 44.25ZM49 46.5C49 45.2574 50.0074 44.25 51.25 44.25C52.4926 44.25 53.5 45.2574 53.5 46.5C53.5 47.7426 52.4926 48.75 51.25 48.75C50.0074 48.75 49 47.7426 49 46.5Z"/>
</svg>
