<?xml version="1.0" encoding="UTF-8"?>
<svg width="50px" height="50px" viewBox="0 0 50 50" version="1.1" xmlns="http://www.w3.org/2000/svg" xmlns:xlink="http://www.w3.org/1999/xlink">
      <g id="themes" transform="translate(5.000000, 5.000000)" fill-rule="nonzero" fill="currentColor">
          <path d="M6.6501,16.6246 C6.6501,9.01660577 12.8171058,2.8496 20.4251,2.8496 C28.0324541,2.8496 34.2001,9.01696563 34.2001,16.6246 C34.2001,17.4116058 34.8380942,18.0496 35.6251,18.0496 C36.4121058,18.0496 37.0501,17.4116058 37.0501,16.6246 C37.0501,7.4429251 29.6064366,-0.0004 20.4251,-0.0004 C11.2430942,-0.0004 3.8001,7.44259423 3.8001,16.6246 C3.8001,17.4116058 4.43809423,18.0496 5.2251,18.0496 C6.01210577,18.0496 6.6501,17.4116058 6.6501,16.6246 Z" id="Stroke-1"></path>
          <path d="M2.8498,18.0496 L2.8498,29.9246 C2.8498,34.3842257 6.4654372,37.9996 10.9248,37.9996 L29.9248,37.9996 C34.3847942,37.9996 37.9998,34.3845942 37.9998,29.9246 L37.9998,18.0496 L2.8498,18.0496 Z M40.8498,16.6246 L40.8498,29.9246 C40.8498,35.9586058 35.9588058,40.8496 29.9248,40.8496 L10.9248,40.8496 C4.89147205,40.8496 -0.0002,35.9582836 -0.0002,29.9246 L-0.0002,16.6246 C-0.0002,15.8375942 0.637794231,15.1996 1.4248,15.1996 L39.4248,15.1996 C40.2118058,15.1996 40.8498,15.8375942 40.8498,16.6246 Z" id="Stroke-3"></path>
          <path d="M0.417372837,21.4325272 L8.01737284,29.0325272 C8.57386995,29.5890243 9.47613005,29.5890243 10.0326272,29.0325272 C10.5891243,28.47603 10.5891243,27.57377 10.0326272,27.0172728 L2.43262716,19.4172728 C1.87613005,18.8607757 0.973869953,18.8607757 0.417372837,19.4172728 C-0.139124279,19.97377 -0.139124279,20.87603 0.417372837,21.4325272 Z" id="Stroke-5"></path>
          <path d="M21.4324272,38.4167728 L10.0324272,27.0167728 C9.47593005,26.4602757 8.57366995,26.4602757 8.01717284,27.0167728 C7.46067572,27.57327 7.46067572,28.47553 8.01717284,29.0320272 L19.4171728,40.4320272 C19.97367,40.9885243 20.87593,40.9885243 21.4324272,40.4320272 C21.9889243,39.87553 21.9889243,38.97327 21.4324272,38.4167728 Z" id="Stroke-7"></path>
          <path d="M39.2438057,33.4285514 L32.8328057,27.0165514 C32.276352,26.4600109 31.3740919,26.4599405 30.8175514,27.0163943 C30.2610109,27.572848 30.2609405,28.4751081 30.8173943,29.0316486 L37.2283943,35.4436486 C37.784848,36.0001891 38.6871081,36.0002595 39.2436486,35.4438057 C39.8001891,34.887352 39.8002595,33.9850919 39.2438057,33.4285514 Z" id="Stroke-9"></path>
          <path d="M19.4171728,17.6322272 L30.8171728,29.0322272 C31.37367,29.5887243 32.27593,29.5887243 32.8324272,29.0322272 C33.3889243,28.47573 33.3889243,27.57347 32.8324272,27.0169728 L21.4324272,15.6169728 C20.87593,15.0604757 19.97367,15.0604757 19.4171728,15.6169728 C18.8606757,16.17347 18.8606757,17.07573 19.4171728,17.6322272 Z" id="Stroke-11"></path>
          <path d="M3.62120574,35.4436486 L10.0322057,29.0316486 C10.5886595,28.4751081 10.5885891,27.572848 10.0320486,27.0163943 C9.47550807,26.4599405 8.57324798,26.4600109 8.01679426,27.0165514 L1.60579426,33.4285514 C1.04934054,33.9850919 1.04941091,34.887352 1.60595142,35.4438057 C2.16249193,36.0002595 3.06475202,36.0001891 3.62120574,35.4436486 Z" id="Stroke-13"></path>
          <path d="M10.0325272,29.0321272 L21.4325272,17.6321272 C21.9890243,17.07563 21.9890243,16.17337 21.4325272,15.6168728 C20.87603,15.0603757 19.97377,15.0603757 19.4172728,15.6168728 L8.01727284,27.0168728 C7.46077572,27.57337 7.46077572,28.47563 8.01727284,29.0321272 C8.57376995,29.5886243 9.47603005,29.5886243 10.0325272,29.0321272 Z" id="Stroke-15"></path>
          <path d="M21.4324272,40.4320272 L32.8324272,29.0320272 C33.3889243,28.47553 33.3889243,27.57327 32.8324272,27.0167728 C32.27593,26.4602757 31.37367,26.4602757 30.8171728,27.0167728 L19.4171728,38.4167728 C18.8606757,38.97327 18.8606757,39.87553 19.4171728,40.4320272 C19.97367,40.9885243 20.87593,40.9885243 21.4324272,40.4320272 Z" id="Stroke-17"></path>
          <path d="M32.8323272,29.0321272 L40.4323272,21.4321272 C40.9888243,20.87563 40.9888243,19.97337 40.4323272,19.4168728 C39.87583,18.8603757 38.97357,18.8603757 38.4170728,19.4168728 L30.8170728,27.0168728 C30.2605757,27.57337 30.2605757,28.47563 30.8170728,29.0321272 C31.37357,29.5886243 32.27583,29.5886243 32.8323272,29.0321272 Z" id="Stroke-19"></path>
      </g>

</svg>
