<svg viewBox="0 0 80 80" fill="none" xmlns="http://www.w3.org/2000/svg">
<path fill-rule="evenodd" clip-rule="evenodd" d="M23.1138 20.9258C23.0405 21.1027 23 21.2966 23 21.5V40.3523L16.5607 33.913C15.9749 33.3272 15.0251 33.3272 14.4393 33.913C13.8536 34.4988 13.8536 35.4485 14.4393 36.0343L21.9393 43.5342C22.2206 43.8156 22.6021 43.9736 23 43.9736H37.4999C38.3198 43.9736 38.9999 44.6498 38.9999 45.4868C38.9999 46.3238 38.3198 47 37.4999 47H30.5C29.896 47 29.3509 47.3623 29.117 47.9192C28.8831 48.476 29.0061 49.1189 29.429 49.5502L40.6892 61.0341C41.1389 61.4839 41.1389 62.2131 40.6892 62.6628C40.2394 63.1125 39.5103 63.1125 39.0605 62.6628L31.5607 55.1627C30.9749 54.5769 30.0251 54.5769 29.4393 55.1627C28.8536 55.7485 28.8536 56.6983 29.4393 57.284L33.1905 61.0354C33.639 61.4853 33.6385 62.2135 33.1892 62.6628C32.7395 63.1125 32.0103 63.1125 31.5606 62.6628L24.0607 55.1627C23.4749 54.5769 22.5251 54.5769 21.9393 55.1627C21.3536 55.7485 21.3536 56.6983 21.9393 57.284L25.6893 61.0341C26.139 61.4839 26.139 62.2131 25.6893 62.6628C25.2395 63.1125 24.5104 63.1125 24.0606 62.6628L16.5607 55.1627C15.9749 54.5769 15.0251 54.5769 14.4393 55.1627C13.8536 55.7485 13.8536 56.6983 14.4393 57.284L21.9393 64.7841C23.5606 66.4054 26.1893 66.4054 27.8106 64.7841C28.0931 64.5016 28.3264 64.1885 28.5105 63.8554L29.4393 64.7841C31.0606 66.4054 33.6892 66.4054 35.3106 64.7841C35.5931 64.5016 35.8264 64.1885 36.0105 63.8554L36.9392 64.7841C38.5605 66.4054 41.1892 66.4054 42.8105 64.7841C44.4299 63.1648 44.4318 60.5405 42.8164 58.9187L38.779 54.8011C40.3958 55.9108 42.6238 55.7473 44.0605 54.3105L44.9893 53.3818C45.1734 53.7148 45.4067 54.028 45.6892 54.3105C47.3105 55.9318 49.9392 55.9318 51.5605 54.3105L52.4892 53.3818C52.6733 53.7148 52.9066 54.028 53.1892 54.3105C54.8105 55.9318 57.4391 55.9318 59.0605 54.3105L62.8219 50.549L66.5604 46.8104C67.1462 46.2246 67.1462 45.2749 66.5604 44.6891C65.9746 44.1033 65.0249 44.1033 64.4391 44.6891L56.9391 52.1892C56.4894 52.6389 55.7602 52.6389 55.3105 52.1892C54.8607 51.7394 54.8607 51.0103 55.3105 50.5605L59.0604 46.8104C59.6462 46.2246 59.6462 45.2749 59.0604 44.6891C58.4746 44.1033 57.5249 44.1033 56.9391 44.6891L49.4392 52.1892C48.9894 52.6389 48.2603 52.6389 47.8105 52.1892C47.3612 51.7399 47.3608 51.0116 47.8093 50.5618L51.5604 46.8104C52.1462 46.2246 52.1462 45.2749 51.5604 44.6891C50.9746 44.1033 50.0249 44.1033 49.4391 44.6891L41.9392 52.1892C41.4895 52.6389 40.7603 52.6389 40.3106 52.1892C39.8608 51.7394 39.8608 51.0103 40.3106 50.5605L52.0718 38.5494C52.4942 38.118 52.6168 37.4753 52.3828 36.9187C52.1488 36.3621 51.6038 36 51 36H44.5C43.6716 36 43 35.3284 43 34.5C43 33.6716 43.6716 33 44.5 33H58.5C58.8978 33 59.2794 32.842 59.5607 32.5606L66.5604 25.5606C67.1462 24.9748 67.1462 24.0251 66.5604 23.4393C65.9746 22.8535 65.0249 22.8536 64.4391 23.4394L58 29.8787V14.5C58 13.6716 57.3284 13 56.5 13H31.5C31.1022 13 30.7206 13.158 30.4393 13.4393L23.4393 20.4393C23.2955 20.5832 23.187 20.7489 23.1138 20.9258ZM37.2065 50C36.7856 51.2024 36.9344 52.5598 37.6529 53.6525L34.0715 50H37.2065ZM47.4319 39L41.9185 44.6305C41.5194 42.5576 39.6993 40.9736 37.4999 40.9736H26V23H48V30H44.5C42.0147 30 40 32.0147 40 34.5C40 36.9853 42.0147 39 44.5 39H47.4319ZM55 30H51V22.1213L55 18.1213V30ZM48.8787 20H28.1213L32.1213 16H52.8787L48.8787 20Z" fill="currentColor"/>
</svg>
