<svg id="Calque_1" data-name="Calque 1" xmlns="http://www.w3.org/2000/svg" viewBox="0 0 140 140"><defs><style>.cls-1{fill:currentColor;}</style></defs><title>Divers_L</title><path class="cls-1" d="M120,121.5H20a1.5,1.5,0,0,1-1.5-1.5V70A1.5,1.5,0,0,1,20,68.5H55a1.5,1.5,0,0,1,0,3H21.5v47h97v-47H85a1.5,1.5,0,0,1,0-3h35a1.5,1.5,0,0,1,1.5,1.5v50A1.5,1.5,0,0,1,120,121.5Z"/><path class="cls-1" d="M70,103.5A16.52,16.52,0,0,1,53.5,87V70a1.5,1.5,0,0,1,3,0V87a13.5,13.5,0,0,0,27,0V70a1.5,1.5,0,0,1,3,0V87A16.52,16.52,0,0,1,70,103.5Z"/><path class="cls-1" d="M70,81.5A6.5,6.5,0,1,1,76.5,75,6.51,6.51,0,0,1,70,81.5Zm0-10A3.5,3.5,0,1,0,73.5,75,3.5,3.5,0,0,0,70,71.5Z"/><path class="cls-1" d="M70,91a1.5,1.5,0,0,1-1.5-1.5V80a1.5,1.5,0,0,1,3,0v9.5A1.5,1.5,0,0,1,70,91Z"/><path class="cls-1" d="M130,47.5H10A1.5,1.5,0,0,1,8.5,46V30A21.52,21.52,0,0,1,30,8.5h80A21.52,21.52,0,0,1,131.5,30V46A1.5,1.5,0,0,1,130,47.5Zm-118.5-3h117V30A18.52,18.52,0,0,0,110,11.5H30A18.52,18.52,0,0,0,11.5,30Z"/><path class="cls-1" d="M120,106.18H20a1.5,1.5,0,0,1,0-3H120a1.5,1.5,0,0,1,0,3Z"/><path class="cls-1" d="M120,37.5H20A1.5,1.5,0,0,1,18.5,36V29.79A21.31,21.31,0,0,1,39.79,8.5h60.42A21.31,21.31,0,0,1,121.5,29.79V36A1.5,1.5,0,0,1,120,37.5Zm-98.5-3h97V29.79A18.31,18.31,0,0,0,100.21,11.5H39.79A18.31,18.31,0,0,0,21.5,29.79Z"/><path class="cls-1" d="M118.73,24.33H21.27a1.5,1.5,0,0,1,0-3h97.46a1.5,1.5,0,0,1,0,3Z"/><path class="cls-1" d="M55,89H20a1.5,1.5,0,0,1,0-3H55a1.5,1.5,0,0,1,0,3Z"/><path class="cls-1" d="M120,89H85a1.5,1.5,0,0,1,0-3h35a1.5,1.5,0,0,1,0,3Z"/><path class="cls-1" d="M130,131.5H10A1.5,1.5,0,0,1,8.5,130V60A1.5,1.5,0,0,1,10,58.5H130a1.5,1.5,0,0,1,1.5,1.5v70A1.5,1.5,0,0,1,130,131.5Zm-118.5-3h117v-67H11.5Z"/><path class="cls-1" d="M10,61.5a1.5,1.5,0,0,1-1-2.63l16-14a1.5,1.5,0,1,1,2,2.26l-16,14A1.49,1.49,0,0,1,10,61.5Z"/><path class="cls-1" d="M130,61.5a1.49,1.49,0,0,1-1-.37l-16-14a1.5,1.5,0,1,1,2-2.26l16,14a1.5,1.5,0,0,1-1,2.63Z"/></svg>