<svg id="Calque_1" data-name="Calque 1" xmlns="http://www.w3.org/2000/svg" viewBox="0 0 140 140">
  <defs>
    <style>
      .cls-1{fill:currentColor}
    </style>
  </defs>
  <path class="cls-1" d="M130 131.5H10a1.5 1.5 0 0 1 0-3h120a1.5 1.5 0 0 1 0 3zM130 121.5H10a1.5 1.5 0 0 1 0-3h120a1.5 1.5 0 0 1 0 3zM119.52 61.5H21a1.5 1.5 0 1 1 0-3h98.47a1.5 1.5 0 0 1 0 3zM126.57 51.5H13.43a1.5 1.5 0 1 1 0-3h113.14a1.5 1.5 0 0 1 0 3z"/>
  <path class="cls-1" d="M126.57 51.5a1.49 1.49 0 0 1-.86-.28l-56.57-40a1.5 1.5 0 1 1 1.73-2.45l56.57 40a1.5 1.5 0 0 1-.87 2.72z"/>
  <path class="cls-1" d="M13.43 51.5a1.5 1.5 0 0 1-.87-2.72l56.57-40a1.5 1.5 0 1 1 1.73 2.45l-56.57 40a1.49 1.49 0 0 1-.86.27zM70 121.5a1.5 1.5 0 0 1-1.5-1.5V60a1.5 1.5 0 0 1 3 0v60a1.5 1.5 0 0 1-1.5 1.5zM52 121.5a1.5 1.5 0 0 1-1.5-1.5V60a1.5 1.5 0 0 1 3 0v60a1.5 1.5 0 0 1-1.5 1.5zM34 121.5a1.5 1.5 0 0 1-1.5-1.5V60a1.5 1.5 0 0 1 3 0v60a1.5 1.5 0 0 1-1.5 1.5zM88 121.5a1.5 1.5 0 0 1-1.5-1.5V60a1.5 1.5 0 0 1 3 0v60a1.5 1.5 0 0 1-1.5 1.5zM106 121.5a1.5 1.5 0 0 1-1.5-1.5V60a1.5 1.5 0 0 1 3 0v60a1.5 1.5 0 0 1-1.5 1.5zM130 131.5a1.5 1.5 0 0 1-1.5-1.5v-10a1.5 1.5 0 0 1 3 0v10a1.5 1.5 0 0 1-1.5 1.5zM10 131.5a1.5 1.5 0 0 1-1.5-1.5v-10a1.5 1.5 0 1 1 3 0v10a1.5 1.5 0 0 1-1.5 1.5zM121.57 79.93a8.06 8.06 0 0 1-8.05-8.05 6.75 6.75 0 0 1 6.74-6.74 5.7 5.7 0 0 1 5.74 5.69 1.5 1.5 0 0 1-3 0 2.7 2.7 0 0 0-2.69-2.69 3.75 3.75 0 0 0-3.74 3.74 5.06 5.06 0 0 0 5.05 5.05 6.7 6.7 0 0 0 6.69-6.69 8.75 8.75 0 0 0-8.74-8.74 1.5 1.5 0 0 1 0-3 11.75 11.75 0 0 1 11.74 11.74 9.7 9.7 0 0 1-9.74 9.69zM19 79.93a9.7 9.7 0 0 1-9.69-9.69A11.75 11.75 0 0 1 21 58.5a1.5 1.5 0 0 1 0 3 8.75 8.75 0 0 0-8.74 8.74A6.7 6.7 0 0 0 19 76.93a5.06 5.06 0 0 0 5.05-5.05 3.75 3.75 0 0 0-3.74-3.74 2.7 2.7 0 0 0-2.69 2.69 1.5 1.5 0 0 1-3 0 5.7 5.7 0 0 1 5.69-5.69 6.75 6.75 0 0 1 6.74 6.74A8.06 8.06 0 0 1 19 79.93z"/>
</svg>
