<svg id="Calque_1" data-name="Calque 1" xmlns="http://www.w3.org/2000/svg" viewBox="0 0 80 80">
  <defs>
    <style>
      .cls-1{fill:currentColor}
    </style>
  </defs>
  <path class="cls-1" d="M10 71.5A1.5 1.5 0 0 1 8.5 70V30A21.52 21.52 0 0 1 30 8.5h20A21.52 21.52 0 0 1 71.5 30v10A21.52 21.52 0 0 1 50 61.5H20.62l-9.56 9.56a1.5 1.5 0 0 1-1.06.44zm20-60A18.52 18.52 0 0 0 11.5 30v36.38l7.44-7.44A1.5 1.5 0 0 1 20 58.5h30A18.52 18.52 0 0 0 68.5 40V30A18.52 18.52 0 0 0 50 11.5z"/>
  <path class="cls-1" d="M49 42.5H31a1.5 1.5 0 1 1 0-3h18a1.5 1.5 0 0 1 0 3z"/>
  <path class="cls-1" d="M52 48.5a1.5 1.5 0 0 1-1.34-.83L40 26.35 29.34 47.67a1.5 1.5 0 0 1-2.68-1.34l12-24a1.5 1.5 0 0 1 2.68 0l12 24A1.5 1.5 0 0 1 52 48.5z"/>
</svg>
