<svg id="Calque_1" data-name="Calque 1" xmlns="http://www.w3.org/2000/svg" viewBox="0 0 80 80">
  <defs>
    <style>
      .cls-1{fill:currentColor}
    </style>
  </defs>
  <path class="cls-1" d="M47.12 59.91A9.15 9.15 0 0 1 38 50.77v-7.63a5.28 5.28 0 0 1 1.5-3.7l4.85-5.9a3.51 3.51 0 0 1 .35-.42 3.45 3.45 0 0 1 3.71-.71l9.15 4.13a7.2 7.2 0 0 1 4.44 6.6 7.19 7.19 0 0 1-1.24 4l-6.08 8.76a9.12 9.12 0 0 1-7.56 4.01zm-.43-24.52l-4.93 6-.1.11a2.3 2.3 0 0 0-.66 1.64v7.64a6.14 6.14 0 0 0 11.21 3.42l6.06-8.72a4.18 4.18 0 0 0 .62-1.48 4.24 4.24 0 0 0-2.5-4.75l-9.15-4.13a.63.63 0 0 0-.38.07l-.17.21zM30.5 39.7a7.55 7.55 0 0 1-7.5-7.57V20a1.5 1.5 0 0 1 1.5-1.5A1.5 1.5 0 0 1 26 20v12.13a4.55 4.55 0 1 0 9.09 0L35 20a1.5 1.5 0 0 1 1.5-1.5A1.5 1.5 0 0 1 38 20v12.13a7.55 7.55 0 0 1-7.5 7.57z"/>
  <path class="cls-1" d="M30.5 70a1.5 1.5 0 0 1-1.5-1.5V20a1.5 1.5 0 0 1 3 0v48.46A1.5 1.5 0 0 1 30.5 70zM15.33 47.5H10A1.5 1.5 0 0 1 8.5 46V20a1.5 1.5 0 0 1 2.89-.56L20 40.65a5 5 0 0 1-4.62 6.85zm-3.83-3h3.83a2 2 0 0 0 1.84-2.73l-5.67-14z"/>
  <path class="cls-1" d="M10 66.5A1.5 1.5 0 0 1 8.5 65V46a1.5 1.5 0 0 1 3 0v19a1.5 1.5 0 0 1-1.5 1.5z"/>
  <path class="cls-1" d="M40 71.5A31.59 31.59 0 0 1 9.13 46.3a1.5 1.5 0 0 1 2.94-.6 28.56 28.56 0 1 0 2.19-17.87 1.5 1.5 0 0 1-2.71-1.28A31.49 31.49 0 1 1 40 71.5z"/>
</svg>
