<svg id="Calque_1" data-name="Calque 1" xmlns="http://www.w3.org/2000/svg" viewBox="0 0 120 120"><defs><style>.cls-1{fill:currentColor;}</style></defs><title>Divers</title><path class="cls-1" d="M60,111.5A51.5,51.5,0,1,1,111.5,60,51.56,51.56,0,0,1,60,111.5Zm0-100A48.5,48.5,0,1,0,108.5,60,48.55,48.55,0,0,0,60,11.5Z"/><circle class="cls-2" cx="60" cy="60" r="51.5"/><path class="cls-1" d="M60,76.83a7.76,7.76,0,0,1-7.75-7.75V60a1.5,1.5,0,0,1,3,0v9.08a4.75,4.75,0,0,0,9.5,0V60a1.5,1.5,0,0,1,3,0v9.08A7.76,7.76,0,0,1,60,76.83Z"/><path class="cls-1" d="M60,71.63a1.5,1.5,0,0,1-1.5-1.5v-3a1.5,1.5,0,0,1,3,0v3A1.5,1.5,0,0,1,60,71.63Z"/><path class="cls-1" d="M85,51.5H35A1.5,1.5,0,0,1,33.5,50V45A11.51,11.51,0,0,1,45,33.5H75A11.51,11.51,0,0,1,86.5,45v5A1.5,1.5,0,0,1,85,51.5Zm-48.5-3h47V45A8.51,8.51,0,0,0,75,36.5H45A8.51,8.51,0,0,0,36.5,45Z"/><path class="cls-1" d="M60,68.62a2.46,2.46,0,0,1-.64-.08,2.43,2.43,0,1,1,.64.08Zm0-3a.55.55,0,1,0,.14,0Z"/><path class="cls-1" d="M85,86.5H35A1.5,1.5,0,0,1,33.5,85V60A1.5,1.5,0,0,1,35,58.5H85A1.5,1.5,0,0,1,86.5,60V85A1.5,1.5,0,0,1,85,86.5Zm-48.5-3h47v-22h-47Z"/><path class="cls-1" d="M35,61.5A1.5,1.5,0,0,1,33.87,59l8.67-10a1.5,1.5,0,0,1,2.27,2L36.13,61A1.5,1.5,0,0,1,35,61.5Z"/><path class="cls-1" d="M85,61.5A1.5,1.5,0,0,1,83.87,61L75.2,51a1.5,1.5,0,0,1,2.27-2l8.67,10A1.5,1.5,0,0,1,85,61.5Z"/></svg>