<svg viewBox="0 0 50 50" xmlns="http://www.w3.org/2000/svg">
  <path d="M7 14.672h37v-2.836H7v2.836zM37.277 43h-3.632l1.304-25.328h4.937L37.277 43zM24 43h-3.641l-1.304-25.328H24V43zm7.945-25.328L30.641 43H27V17.672h4.945zm-20.831 0h4.937L17.355 43h-3.632l-2.609-25.328zM21.59 8.836h7.82V6h-7.82v2.836zm23.91 0H32.41V4.5a1.5 1.5 0 0 0-1.5-1.5H20.09a1.5 1.5 0 0 0-1.5 1.5v4.336H5.5a1.5 1.5 0 0 0-1.5 1.5v5.836a1.5 1.5 0 0 0 1.5 1.5h2.598l2.779 26.982A1.501 1.501 0 0 0 12.369 46h26.262c.768 0 1.413-.582 1.492-1.346l2.779-26.982H45.5a1.5 1.5 0 0 0 1.5-1.5v-5.836a1.5 1.5 0 0 0-1.5-1.5z" fill="currentColor" fill-rule="evenodd"/>
</svg>
