<?xml version="1.0" encoding="UTF-8"?>
<svg width="50px" height="50px" viewBox="0 0 50 50" version="1.1" xmlns="http://www.w3.org/2000/svg" xmlns:xlink="http://www.w3.org/1999/xlink">
      <g id="user" transform="translate(1.000000, 3.000000)" fill-rule="nonzero" fill="currentColor">
          <path d="M24.5638,39.0819 C28.5076132,39.0819 32.1966773,37.3239911 34.6277343,34.3659168 C37.2170483,35.6477218 40.2281167,36.7260845 43.8813433,37.617175 C45.398095,37.9672734 46.1258,39.7461284 46.1258,42.4999 C46.1258,43.3283271 46.7973729,43.9999 47.6258,43.9999 C48.4542271,43.9999 49.1258,43.3283271 49.1258,42.4999 C49.1258,38.4993537 47.8832057,35.4618659 44.5740517,34.6983045 C40.6252631,33.7350008 37.5094574,32.5505516 34.9001549,31.1270985 C34.2140264,30.7527947 33.3554713,30.968076 32.9271271,31.621832 C31.1129182,34.3907498 27.9655129,36.0819 24.5638,36.0819 C21.1606523,36.0819 18.0138524,34.3912029 16.1982915,31.6215551 C15.7698175,30.9679157 14.9112547,30.752813 14.2252148,31.1272241 C11.618401,32.5499112 8.50128007,33.7347707 4.53334327,34.702625 C1.24312851,35.4619651 -0.0002,38.5004755 -0.0002,42.4999 C-0.0002,43.3283271 0.671372875,43.9999 1.4998,43.9999 C2.32822712,43.9999 2.9998,43.3283271 2.9998,42.4999 C2.9998,39.7471113 3.72809841,37.9672581 5.22616438,37.6214695 C8.89565547,36.7265145 11.9098385,35.6473843 14.4981337,34.3659332 C16.9300331,37.3243475 20.618685,39.0819 24.5638,39.0819 Z" id="Stroke-1"></path>
          <path d="M32.9347382,17.8078318 C33.0489691,16.6431676 33.0768939,15.4912097 33.0381444,14.4579975 C33.0237425,14.073985 33.000627,13.7318731 32.9740972,13.4721111 C32.9641103,13.3743266 32.9545175,13.2977011 32.947568,13.2542833 C33.024458,13.7346627 32.9951299,13.6111081 33.3352077,13.954306 C33.0568608,13.6734054 32.9007,13.2939519 32.9007,12.8985 C32.7290387,8.83792606 31.3460532,6.40487851 29.1269664,5.08979454 C27.652875,4.2162126 25.9264675,3.92139497 24.6712655,4.01163825 L24.5637,4.0155 L24.1257,4.0155 C22.6392427,4.0155 20.9923482,4.3955194 19.5899897,5.3334555 C17.5533206,6.69563605 16.2885155,9.07219618 16.1157,12.7895 L16.1157,12.8985 C16.1157,12.9576244 16.0765985,13.4299406 16.062168,13.6660196 C15.9260863,15.8922648 16.0425333,18.3586225 16.6002946,20.671708 C17.0764592,22.6464051 17.8358627,24.2719694 18.8799083,25.4264843 C20.2828104,26.9226281 22.0985881,27.6845 24.4537,27.6845 L24.6727,27.6845 C27.1187218,27.6845 28.8798127,26.9686556 30.2088575,25.4669527 C31.7410932,23.6816651 32.623398,20.9821638 32.9347382,17.8078318 Z M35.9204118,18.1006682 C35.5539062,21.83745 34.4889336,25.0922325 32.4767386,27.430837 C30.5362353,29.6294664 27.9463413,30.6845 24.6727,30.6845 L24.4537,30.6845 C21.2816065,30.6845 18.6702911,29.5888329 16.6733045,27.4587685 C15.2353928,25.8692061 14.2685447,23.7995901 13.6838842,21.3749508 C13.044536,18.7235173 12.9150559,15.9811153 13.0677569,13.482983 C13.0893153,13.1302959 13.1157,12.8115884 13.1157,12.8985 L13.1172887,12.7204807 C13.3343344,8.00841021 15.069759,4.74755932 17.9221603,2.8397945 C19.8879939,1.52499072 22.0959797,1.0155 24.1257,1.0155 L24.5123356,1.0155 C26.3198857,0.897026385 28.6118728,1.29729976 30.6564336,2.50895546 C33.7703482,4.35433592 35.6836687,7.72038689 35.9007,12.7895 L35.9007,12.8985 C36.1175249,14.1204074 36.1144464,16.122349 35.9204118,18.1006682 Z" id="Stroke-3"></path>
          <path d="M17.6732022,26.9475235 C17.1189932,28.1938349 15.9399979,29.6151377 13.9678255,31.304933 C13.3387361,31.8439488 13.2657171,32.7908852 13.804733,33.4199745 C14.3437488,34.0490639 15.2906852,34.1220829 15.9197745,33.583067 C18.2020576,31.6275631 19.6532819,29.8780827 20.4143978,28.1664765 C20.7510024,27.4095163 20.4102368,26.5230068 19.6532765,26.1864022 C18.8963163,25.8497976 18.0098068,26.1905632 17.6732022,26.9475235 Z" id="Stroke-5"></path>
          <path d="M35.1579439,31.3053353 C33.2011431,29.6273116 32.0259462,28.2139943 31.4658374,26.9722436 C31.1252122,26.217084 30.2369031,25.8810375 29.4817436,26.2216626 C28.726584,26.5622878 28.3905375,27.4505969 28.7311626,28.2057564 C29.4975754,29.9048791 30.9421191,31.6421188 33.2050561,33.5826647 C33.8339232,34.1219398 34.7808896,34.0493111 35.3201647,33.4204439 C35.8594398,32.7915768 35.7868111,31.8446104 35.1579439,31.3053353 Z" id="Stroke-7"></path>
      </g>

</svg>
