<svg viewBox="0 0 50 50" xmlns="http://www.w3.org/2000/svg">
  <g fill="currentColor">
    <path d="M25.564 42.082c3.944 0 7.633-1.758 10.064-4.716 2.589 1.282 5.6 2.36 9.253 3.251 1.517.35 2.245 2.13 2.245 4.883a1.5 1.5 0 0 0 3 0c0-4-1.243-7.038-4.552-7.802-3.949-.963-7.065-2.147-9.674-3.57a1.5 1.5 0 0 0-1.973.494c-1.814 2.769-4.961 4.46-8.363 4.46-3.403 0-6.55-1.69-8.366-4.46a1.5 1.5 0 0 0-1.973-.495c-2.607 1.423-5.724 2.608-9.692 3.576C2.243 38.462 1 41.5 1 45.5a1.5 1.5 0 0 0 3 0c0-2.753.728-4.533 2.226-4.879 3.67-.894 6.684-1.974 9.272-3.255 2.432 2.958 6.12 4.716 10.066 4.716zM33.935 20.808c.114-1.165.142-2.317.103-3.35a16.004 16.004 0 0 0-.064-.986 4.357 4.357 0 0 0-.026-.218c.076.48.047.357.387.7a1.5 1.5 0 0 1-.434-1.055c-.172-4.061-1.555-6.494-3.774-7.81-1.474-.873-3.2-1.168-4.456-1.077l-.107.004h-.438c-1.487 0-3.134.38-4.536 1.317-2.037 1.363-3.301 3.74-3.474 7.457v.109c0 .059-.04.53-.054.767-.136 2.226-.02 4.693.538 7.006.476 1.974 1.236 3.6 2.28 4.754 1.403 1.497 3.219 2.259 5.574 2.259h.219c2.446 0 4.207-.716 5.536-2.218 1.532-1.785 2.414-4.485 2.726-7.66zm2.985.293c-.366 3.736-1.431 6.991-3.443 9.33-1.94 2.198-4.53 3.253-7.804 3.253h-.22c-3.171 0-5.783-1.095-7.78-3.225-1.438-1.59-2.404-3.66-2.99-6.084-.638-2.651-.768-5.394-.615-7.892.021-.353.048-.671.048-.585l.001-.178c.217-4.712 1.953-7.972 4.805-9.88 1.966-1.315 4.174-1.824 6.204-1.824h.386c1.808-.119 4.1.281 6.144 1.493 3.114 1.845 5.028 5.211 5.245 10.28v.11c.217 1.221.213 3.223.02 5.202z"/>
    <path d="M18.673 29.948c-.554 1.246-1.733 2.667-3.705 4.357a1.5 1.5 0 1 0 1.952 2.278c2.282-1.955 3.733-3.705 4.494-5.417a1.5 1.5 0 1 0-2.74-1.218zM36.158 34.305c-1.957-1.678-3.132-3.091-3.692-4.333a1.5 1.5 0 0 0-2.735 1.234c.767 1.699 2.211 3.436 4.474 5.377a1.5 1.5 0 1 0 1.953-2.278z"/>
  </g>
</svg>
