<?xml version="1.0" encoding="UTF-8"?>
<svg width="50px" height="50px" viewBox="0 0 50 50" version="1.1" xmlns="http://www.w3.org/2000/svg" xmlns:xlink="http://www.w3.org/1999/xlink">
      <g id="wait" transform="translate(4.000000, 3.000000)" fill-rule="nonzero" fill="currentColor">
          <path d="M37.4756,2.9999 L5.5244,2.9999 L5.5244,4.8329 C5.5244,5.31844615 5.71151562,5.77976806 6.06210454,6.1292842 L13.333,13.4007881 L13.333,9.8749 C13.333,9.04647288 14.0045729,8.3749 14.833,8.3749 C15.6614271,8.3749 16.333,9.04647288 16.333,9.8749 L16.333,16.4010391 L18.0144676,18.0826474 C19.9007108,19.9703405 19.9007108,23.0294595 18.0141045,24.9175158 L6.06124585,36.8713739 C5.71169597,37.2203876 5.5244,37.6821542 5.5244,38.1669 L5.5244,39.9999 L37.4756,39.9999 L37.4756,38.1669 C37.4756,37.6821542 37.288304,37.2203876 36.9378955,36.8705158 L24.9855324,24.9171526 C23.0992892,23.0294595 23.0992892,19.9703405 24.9858955,18.0822842 L26.667,16.4010394 L26.667,9.8747 C26.667,9.04627288 27.3385729,8.3747 28.167,8.3747 C28.9954271,8.3747 29.667,9.04627288 29.667,9.8747 L29.667,13.400789 L36.9395704,6.1276118 C37.2884844,5.77976806 37.4756,5.31844615 37.4756,4.8329 L37.4756,2.9999 L37.4756,2.9999 Z M40.4756,2.9999 L40.4756,4.8329 C40.4756,6.10708657 39.9774875,7.33515202 39.0593045,8.2505158 L27.1076676,20.2031526 C26.3919108,20.9194595 26.3919108,22.0803405 27.1073045,22.7962842 L39.0584458,34.7484261 C39.977631,35.6662015 40.4756,36.8939131 40.4756,38.1669 L40.4756,39.9999 L41.5,39.9999 C42.3284271,39.9999 43,40.6714729 43,41.4999 C43,42.3283271 42.3284271,42.9999 41.5,42.9999 L1.5,42.9999 C0.671572875,42.9999 0,42.3283271 0,41.4999 C0,40.6714729 0.671572875,39.9999 1.5,39.9999 L2.5244,39.9999 L2.5244,38.1669 C2.5244,36.8939131 3.02236901,35.6662015 3.94069546,34.7492842 L15.8923324,22.7966474 C16.6080892,22.0803405 16.6080892,20.9194595 15.8926955,20.2035158 L3.94237036,8.2521882 C3.02251253,7.33515202 2.5244,6.10708657 2.5244,4.8329 L2.5244,2.9999 L1.5,2.9999 C0.671572875,2.9999 0,2.32832712 0,1.4999 C0,0.671472875 0.671572875,-0.0001 1.5,-0.0001 L41.5,-0.0001 C42.3284271,-0.0001 43,0.671472875 43,1.4999 C43,2.32832712 42.3284271,2.9999 41.5,2.9999 L40.4756,2.9999 L40.4756,2.9999 Z" id="Combined-Shape"></path>
          <path d="M20,9.8749 L20,15.8749 C20,16.7033271 20.6715729,17.3749 21.5,17.3749 C22.3284271,17.3749 23,16.7033271 23,15.8749 L23,9.8749 C23,9.04647288 22.3284271,8.3749 21.5,8.3749 C20.6715729,8.3749 20,9.04647288 20,9.8749 Z" id="Stroke-9"></path>
      </g>

</svg>
