<svg viewBox="0 0 50 50" xmlns="http://www.w3.org/2000/svg">
  <g fill="currentColor">
    <path d="M41.476 6H9.524v1.833c0 .485.188.947.538 1.296l7.271 7.272v-3.526a1.5 1.5 0 0 1 3 0V19.4l1.681 1.682a4.835 4.835 0 0 1 0 6.835L10.061 39.87c-.35.35-.537.811-.537 1.296V43h31.952v-1.833a1.82 1.82 0 0 0-.538-1.296L28.986 27.917a4.835 4.835 0 0 1 0-6.835l1.681-1.681v-6.526a1.5 1.5 0 0 1 3 0V16.4l7.273-7.273c.348-.348.536-.81.536-1.295V6zm3 0v1.833a4.813 4.813 0 0 1-1.417 3.418L31.108 23.203a1.835 1.835 0 0 0 0 2.593l11.95 11.952a4.818 4.818 0 0 1 1.418 3.419V43H45.5a1.5 1.5 0 0 1 0 3h-40a1.5 1.5 0 0 1 0-3h1.024v-1.833c0-1.273.498-2.5 1.417-3.418l11.951-11.952a1.835 1.835 0 0 0 0-2.593L7.943 11.252a4.815 4.815 0 0 1-1.418-3.42V6H5.5a1.5 1.5 0 0 1 0-3h40a1.5 1.5 0 0 1 0 3h-1.024z"/>
    <path d="M24 12.875v6a1.5 1.5 0 0 0 3 0v-6a1.5 1.5 0 0 0-3 0z"/>
  </g>
</svg>
