<svg viewBox="0 0 143 143" xmlns="http://www.w3.org/2000/svg">
  <path d="M7.333 140A4.338 4.338 0 0 1 3 135.667a4.338 4.338 0 0 1 4.333-4.334h128.333a4.339 4.339 0 0 1 4.334 4.334 4.338 4.338 0 0 1-4.334 4.333H7.333zm49.314-59.19a13.077 13.077 0 0 0 3.858-9.31l-.001-23.333a1.5 1.5 0 1 0-3 0v14.967c-.27-.326-.554-.642-.857-.945L14.812 20.355a10.085 10.085 0 0 1-2.855-5.688h119.084a10.062 10.062 0 0 1-2.854 5.688L86.353 62.189c-.303.303-.587.619-.857.945V48.167a1.5 1.5 0 1 0-3 0V71.48a13.084 13.084 0 0 0 3.857 9.33l41.834 41.835a10.06 10.06 0 0 1 2.854 5.688H96.333v-10.166a1.5 1.5 0 1 0-3 0v10.166h-8.666V106.5a1.5 1.5 0 0 0-3 0v21.833H73V36.5a1.5 1.5 0 0 0-3 0v91.833h-8.667V106.5a1.5 1.5 0 0 0-3 0v21.833h-8.666v-10.166a1.5 1.5 0 1 0-3 0v10.166h-34.71a10.085 10.085 0 0 1 2.855-5.688L56.647 80.81zM7.333 3h128.333A4.338 4.338 0 0 1 140 7.333a4.339 4.339 0 0 1-4.334 4.334H7.333A4.338 4.338 0 0 1 3 7.333 4.338 4.338 0 0 1 7.333 3zm126.738 125.333a13.059 13.059 0 0 0-3.763-7.81L88.474 78.688a10.093 10.093 0 0 1-2.978-7.182 10.12 10.12 0 0 1 2.978-7.195l41.834-41.834a13.062 13.062 0 0 0 3.763-7.81h1.595c4.044 0 7.334-3.29 7.334-7.334C143 3.29 139.71 0 135.666 0H7.333C3.29 0 0 3.29 0 7.333c0 4.044 3.29 7.334 7.333 7.334h1.595a13.067 13.067 0 0 0 3.763 7.81l41.835 41.834a10.105 10.105 0 0 1 2.978 7.169 10.112 10.112 0 0 1-2.978 7.209l-41.835 41.834a13.064 13.064 0 0 0-3.763 7.81H7.333c-4.043 0-7.333 3.29-7.333 7.334C0 139.71 3.29 143 7.333 143h128.333c4.044 0 7.334-3.29 7.334-7.333 0-4.044-3.29-7.334-7.334-7.334h-1.595z" fill="currentColor"/>
</svg>
