<?xml version="1.0" encoding="UTF-8"?>
<svg width="58px" height="58px" viewBox="0 0 58 58" version="1.1" xmlns="http://www.w3.org/2000/svg" xmlns:xlink="http://www.w3.org/1999/xlink">
      <g id="wheel" fill-rule="nonzero" fill="currentColor">
          <path d="M50.6474,28.6619 C50.6474,16.5194193 40.8045853,6.6769 28.6624,6.6769 C16.5193623,6.6769 6.6764,16.5192717 6.6764,28.6619 C6.6764,40.8038807 16.5197147,50.6469 28.6624,50.6469 C40.804233,50.6469 50.6474,40.803733 50.6474,28.6619 Z M52.7194,28.6619 C52.7194,41.948067 41.948567,52.7189 28.6624,52.7189 C15.3753946,52.7189 4.6044,41.9482286 4.6044,28.6619 C4.6044,15.3749098 15.3750562,4.6049 28.6624,4.6049 C41.9489054,4.6049 52.7194,15.3750714 52.7194,28.6619 Z" id="Stroke-1"></path>
          <path d="M46.0429,28.6619 C46.0429,19.0624211 38.2610871,11.2809 28.6619,11.2809 C19.062067,11.2809 11.2809,19.062067 11.2809,28.6619 C11.2809,38.2610871 19.0624211,46.0429 28.6619,46.0429 C38.260733,46.0429 46.0429,38.260733 46.0429,28.6619 Z M48.1149,28.6619 C48.1149,39.405067 39.405067,48.1149 28.6619,48.1149 C17.9180697,48.1149 9.2089,39.4054037 9.2089,28.6619 C9.2089,17.917733 17.917733,9.2089 28.6619,9.2089 C39.4054037,9.2089 48.1149,17.9180697 48.1149,28.6619 Z" id="Stroke-3"></path>
          <path d="M32.2299,28.6619 C32.2299,26.691067 30.632733,25.0939 28.6619,25.0939 C26.691067,25.0939 25.0939,26.691067 25.0939,28.6619 C25.0939,30.6321132 26.6914471,32.2299 28.6619,32.2299 C30.6323529,32.2299 32.2299,30.6321132 32.2299,28.6619 Z M34.3019,28.6619 C34.3019,31.7763776 31.7767565,34.3019 28.6619,34.3019 C25.5470435,34.3019 23.0219,31.7763776 23.0219,28.6619 C23.0219,25.546733 25.546733,23.0219 28.6619,23.0219 C31.777067,23.0219 34.3019,25.546733 34.3019,28.6619 Z" id="Stroke-5"></path>
          <path d="M27.3957,46.9197 L27.3957,34.2197 C27.3957,33.647533 26.931867,33.1837 26.3597,33.1837 C25.787533,33.1837 25.3237,33.647533 25.3237,34.2197 L25.3237,46.9197 C25.3237,47.491867 25.787533,47.9557 26.3597,47.9557 C26.931867,47.9557 27.3957,47.491867 27.3957,46.9197 Z" id="Stroke-7"></path>
          <path d="M27.3957,23.1038 L27.3957,10.4038 C27.3957,9.831633 26.931867,9.3678 26.3597,9.3678 C25.787533,9.3678 25.3237,9.831633 25.3237,10.4038 L25.3237,23.1038 C25.3237,23.675967 25.787533,24.1398 26.3597,24.1398 C26.931867,24.1398 27.3957,23.675967 27.3957,23.1038 Z" id="Stroke-9"></path>
          <path d="M27.3957,55.2511 L27.3957,51.5681 C27.3957,50.995933 26.931867,50.5321 26.3597,50.5321 C25.787533,50.5321 25.3237,50.995933 25.3237,51.5681 L25.3237,56.2871 C25.3237,56.859267 25.787533,57.3231 26.3597,57.3231 L30.9637,57.3231 C31.535867,57.3231 31.9997,56.859267 31.9997,56.2871 L31.9997,51.5681 C31.9997,50.995933 31.535867,50.5321 30.9637,50.5321 C30.391533,50.5321 29.9277,50.995933 29.9277,51.5681 L29.9277,55.2511 L27.3957,55.2511 Z" id="Stroke-11"></path>
          <path d="M29.9282,2.0721 L29.9282,5.7551 C29.9282,6.327267 30.392033,6.7911 30.9642,6.7911 C31.536367,6.7911 32.0002,6.327267 32.0002,5.7551 L32.0002,1.0361 C32.0002,0.463932999 31.536367,0.0001 30.9642,0.0001 L26.3602,0.0001 C25.788033,0.0001 25.3242,0.463932999 25.3242,1.0361 L25.3242,5.7551 C25.3242,6.327267 25.788033,6.7911 26.3602,6.7911 C26.932367,6.7911 27.3962,6.327267 27.3962,5.7551 L27.3962,2.0721 L29.9282,2.0721 Z" id="Stroke-13"></path>
          <path d="M29.9282,10.4036 L29.9282,23.1036 C29.9282,23.675767 30.392033,24.1396 30.9642,24.1396 C31.536367,24.1396 32.0002,23.675767 32.0002,23.1036 L32.0002,10.4036 C32.0002,9.831433 31.536367,9.3676 30.9642,9.3676 C30.392033,9.3676 29.9282,9.831433 29.9282,10.4036 Z" id="Stroke-15"></path>
          <path d="M29.9282,34.2195 L29.9282,46.9195 C29.9282,47.491667 30.392033,47.9555 30.9642,47.9555 C31.536367,47.9555 32.0002,47.491667 32.0002,46.9195 L32.0002,34.2195 C32.0002,33.647333 31.536367,33.1835 30.9642,33.1835 C30.392033,33.1835 29.9282,33.647333 29.9282,34.2195 Z" id="Stroke-17"></path>
          <path d="M34.9520626,27.0921626 L43.9310626,18.1131626 C44.3356458,17.7085795 44.3356458,17.0526205 43.9310626,16.6480374 C43.5264795,16.2434542 42.8705205,16.2434542 42.4659374,16.6480374 L33.4869374,25.6270374 C33.0823542,26.0316205 33.0823542,26.6875795 33.4869374,27.0921626 C33.8915205,27.4967458 34.5474795,27.4967458 34.9520626,27.0921626 Z" id="Stroke-19"></path>
          <path d="M39.2095966,13.3927782 L30.2315966,22.3717782 C29.8270359,22.7763839 29.8270725,23.4323428 30.2316782,23.8369034 C30.6362839,24.2414641 31.2922428,24.2414275 31.6968034,23.8368218 L40.6748034,14.8578218 C41.0793641,14.4532161 41.0793275,13.7972572 40.6747218,13.3926966 C40.2701161,12.9881359 39.6141572,12.9881725 39.2095966,13.3927782 Z" id="Stroke-21"></path>
          <path d="M46.5685875,8.96473777 L48.3586873,10.7553875 L45.7531374,13.3609374 C45.3485542,13.7655205 45.3485542,14.4214795 45.7531374,14.8260626 C46.1577205,15.2306458 46.8136795,15.2306458 47.2182626,14.8260626 L50.5562626,11.4880626 C50.9608019,11.0835234 50.9608522,10.4276513 50.5563751,10.0230499 L47.3013751,6.76704989 C46.8968102,6.36236065 46.2407645,6.36231027 45.8361374,6.76693737 L42.4981374,10.1049374 C42.0935542,10.5095205 42.0935542,11.1654795 42.4981374,11.5700626 C42.9027205,11.9746458 43.5586795,11.9746458 43.9632626,11.5700626 L46.5685875,8.96473777 Z" id="Stroke-23"></path>
          <path d="M8.96443497,46.5679097 L11.5706529,43.9624723 C11.9752967,43.5579498 11.9753949,42.9019909 11.5708723,42.4973471 C11.1663498,42.0927033 10.5103909,42.0926051 10.1057471,42.4971277 L6.7667471,45.8351277 C6.36206049,46.2396931 6.36201136,46.8957366 6.76663737,47.3003626 L10.0226374,50.5563626 C10.4272205,50.9609458 11.0831795,50.9609458 11.4877626,50.5563626 L14.8257626,47.2183626 C15.2303458,46.8137795 15.2303458,46.1578205 14.8257626,45.7532374 C14.4211795,45.3486542 13.7652205,45.3486542 13.3606374,45.7532374 L10.7552,48.3586747 L8.96443497,46.5679097 Z" id="Stroke-25"></path>
          <path d="M14.8578626,40.6751626 L23.8368626,31.6961626 C24.2414458,31.2915795 24.2414458,30.6356205 23.8368626,30.2310374 C23.4322795,29.8264542 22.7763205,29.8264542 22.3717374,30.2310374 L13.3927374,39.2100374 C12.9881542,39.6146205 12.9881542,40.2705795 13.3927374,40.6751626 C13.7973205,41.0797458 14.4532795,41.0797458 14.8578626,40.6751626 Z" id="Stroke-27"></path>
          <path d="M18.1137626,43.9305626 L27.0927626,34.9515626 C27.4973458,34.5469795 27.4973458,33.8910205 27.0927626,33.4864374 C26.6881795,33.0818542 26.0322205,33.0818542 25.6276374,33.4864374 L16.6486374,42.4654374 C16.2440542,42.8700205 16.2440542,43.5259795 16.6486374,43.9305626 C17.0532205,44.3351458 17.7091795,44.3351458 18.1137626,43.9305626 Z" id="Stroke-29"></path>
          <path d="M55.2512,29.9276 L51.5682,29.9276 C50.996033,29.9276 50.5322,30.391433 50.5322,30.9636 C50.5322,31.535767 50.996033,31.9996 51.5682,31.9996 L56.2872,31.9996 C56.859367,31.9996 57.3232,31.535767 57.3232,30.9636 L57.3232,26.3596 C57.3232,25.787433 56.859367,25.3236 56.2872,25.3236 L51.5682,25.3236 C50.996033,25.3236 50.5322,25.787433 50.5322,26.3596 C50.5322,26.931767 50.996033,27.3956 51.5682,27.3956 L55.2512,27.3956 L55.2512,29.9276 Z" id="Stroke-31"></path>
          <path d="M2.0722,27.3956 L5.7552,27.3956 C6.327367,27.3956 6.7912,26.931767 6.7912,26.3596 C6.7912,25.787433 6.327367,25.3236 5.7552,25.3236 L1.0362,25.3236 C0.464032999,25.3236 0.0002,25.787433 0.0002,26.3596 L0.0002,30.9636 C0.0002,31.535767 0.464032999,31.9996 1.0362,31.9996 L5.7552,31.9996 C6.327367,31.9996 6.7912,31.535767 6.7912,30.9636 C6.7912,30.391433 6.327367,29.9276 5.7552,29.9276 L2.0722,29.9276 L2.0722,27.3956 Z" id="Stroke-33"></path>
          <path d="M34.2195,27.3956 L46.9195,27.3956 C47.491667,27.3956 47.9555,26.931767 47.9555,26.3596 C47.9555,25.787433 47.491667,25.3236 46.9195,25.3236 L34.2195,25.3236 C33.647333,25.3236 33.1835,25.787433 33.1835,26.3596 C33.1835,26.931767 33.647333,27.3956 34.2195,27.3956 Z" id="Stroke-35"></path>
          <path d="M10.4036,31.9996 L23.1036,31.9996 C23.675767,31.9996 24.1396,31.535767 24.1396,30.9636 C24.1396,30.391433 23.675767,29.9276 23.1036,29.9276 L10.4036,29.9276 C9.831433,29.9276 9.3676,30.391433 9.3676,30.9636 C9.3676,31.535767 9.831433,31.9996 10.4036,31.9996 Z" id="Stroke-37"></path>
          <path d="M34.2195,31.9996 L46.9195,31.9996 C47.491667,31.9996 47.9555,31.535767 47.9555,30.9636 C47.9555,30.391433 47.491667,29.9276 46.9195,29.9276 L34.2195,29.9276 C33.647333,29.9276 33.1835,30.391433 33.1835,30.9636 C33.1835,31.535767 33.647333,31.9996 34.2195,31.9996 Z" id="Stroke-39"></path>
          <path d="M10.4036,27.3956 L23.1036,27.3956 C23.675767,27.3956 24.1396,26.931767 24.1396,26.3596 C24.1396,25.787433 23.675767,25.3236 23.1036,25.3236 L10.4036,25.3236 C9.831433,25.3236 9.3676,25.787433 9.3676,26.3596 C9.3676,26.931767 9.831433,27.3956 10.4036,27.3956 Z" id="Stroke-41"></path>
          <path d="M10.7552,8.96462525 L13.3606374,11.5700626 C13.7652205,11.9746458 14.4211795,11.9746458 14.8257626,11.5700626 C15.2303458,11.1654795 15.2303458,10.5095205 14.8257626,10.1049374 L11.4877626,6.76693737 C11.0831795,6.36235421 10.4272205,6.36235421 10.0226374,6.76693737 L6.76663737,10.0229374 C6.36201136,10.4275634 6.36206049,11.0836069 6.7667471,11.4881723 L10.1057471,14.8261723 C10.5103909,15.2306949 11.1663498,15.2305967 11.5708723,14.8259529 C11.9753949,14.4213091 11.9752967,13.7653502 11.5706529,13.3608277 L8.96443497,10.7553903 L10.7552,8.96462525 Z" id="Stroke-43"></path>
          <path d="M46.5684125,48.3585873 L43.9628626,45.7530374 C43.5582795,45.3484542 42.9023205,45.3484542 42.4977374,45.7530374 C42.0931542,46.1576205 42.0931542,46.8135795 42.4977374,47.2181626 L45.8357374,50.5561626 C46.2402766,50.9607019 46.8961487,50.9607522 47.3007501,50.5562751 L50.5567501,47.3012751 C50.9614394,46.8967102 50.9614897,46.2406645 50.5568626,45.8360374 L47.2178626,42.4970374 C46.8132795,42.0924542 46.1573205,42.0924542 45.7527374,42.4970374 C45.3481542,42.9016205 45.3481542,43.5575795 45.7527374,43.9621626 L48.3590622,46.5684875 L46.5684125,48.3585873 Z" id="Stroke-45"></path>
          <path d="M13.3927374,18.1136626 L22.3717374,27.0926626 C22.7763205,27.4972458 23.4322795,27.4972458 23.8368626,27.0926626 C24.2414458,26.6880795 24.2414458,26.0321205 23.8368626,25.6275374 L14.8578626,16.6485374 C14.4532795,16.2439542 13.7973205,16.2439542 13.3927374,16.6485374 C12.9881542,17.0531205 12.9881542,17.7090795 13.3927374,18.1136626 Z" id="Stroke-47"></path>
          <path d="M27.0922626,22.3712374 L18.1132626,13.3922374 C17.7086795,12.9876542 17.0527205,12.9876542 16.6481374,13.3922374 C16.2435542,13.7968205 16.2435542,14.4527795 16.6481374,14.8573626 L25.6271374,23.8363626 C26.0317205,24.2409458 26.6876795,24.2409458 27.0922626,23.8363626 C27.4968458,23.4317795 27.4968458,22.7758205 27.0922626,22.3712374 Z" id="Stroke-49"></path>
          <path d="M33.4869374,31.6961626 L42.4659374,40.6751626 C42.8705205,41.0797458 43.5264795,41.0797458 43.9310626,40.6751626 C44.3356458,40.2705795 44.3356458,39.6146205 43.9310626,39.2100374 L34.9520626,30.2310374 C34.5474795,29.8264542 33.8915205,29.8264542 33.4869374,30.2310374 C33.0823542,30.6356205 33.0823542,31.2915795 33.4869374,31.6961626 Z" id="Stroke-51"></path>
          <path d="M40.6748034,42.4654782 L31.6968034,33.4864782 C31.2922428,33.0818725 30.6362839,33.0818359 30.2316782,33.4863966 C29.8270725,33.8909572 29.8270359,34.5469161 30.2315966,34.9515218 L39.2095966,43.9305218 C39.6141572,44.3351275 40.2701161,44.3351641 40.6747218,43.9306034 C41.0793275,43.5260428 41.0793641,42.8700839 40.6748034,42.4654782 Z" id="Stroke-53"></path>
      </g>

</svg>
