<svg xmlns="http://www.w3.org/2000/svg" viewBox="0 0 90 90">
  <path d="M88.4 39.8h-6c-.9-6.5-3.5-12.5-7.3-17.5l4.2-4.2c.3-.3.5-.7.5-1.2 0-.4-.2-.8-.5-1.1l-5.1-5.1c-.6-.6-1.7-.6-2.3 0l-4.2 4.2c-5-3.8-11-6.3-17.5-7.3v-6c0-.9-.7-1.6-1.6-1.6h-7.2c-.9 0-1.6.7-1.6 1.6v6c-6.5.9-12.5 3.5-17.5 7.3L18 10.6c-.3-.3-.7-.5-1.1-.5-.4 0-.8.2-1.2.5l-5.1 5.1c-.6.6-.6 1.7 0 2.3l4.2 4.2c-3.8 5-6.3 11-7.3 17.5h-6c-.9 0-1.6.7-1.6 1.6v7.2c0 .9.7 1.6 1.6 1.6h6c.9 6.5 3.5 12.5 7.3 17.5L10.6 72c-.6.6-.6 1.7 0 2.3l5.1 5.1c.3.3.7.5 1.2.5.4 0 .8-.2 1.1-.5l4.2-4.2c5 3.8 11 6.4 17.5 7.3v6c0 .9.7 1.6 1.6 1.6h7.2c.9 0 1.6-.7 1.6-1.6v-6c6.5-.9 12.5-3.5 17.5-7.3l4.2 4.2c.3.3.7.5 1.2.5s.8-.2 1.2-.5l5.1-5.1c.3-.3.5-.7.5-1.2 0-.4-.2-.8-.5-1.1l-4.2-4.2c3.8-5 6.3-11 7.3-17.5h6c.9 0 1.6-.7 1.6-1.6v-7.2c0-1-.7-1.7-1.6-1.7zM7.3 47h-4v-4h4c0 .7-.1 1.3-.1 2s0 1.3.1 2zm65.8-32.9l2.8 2.8-2.9 2.9c-.9-1-1.8-1.9-2.8-2.8l2.9-2.9zM43 3.3h4v4c-.7 0-1.3-.1-2-.1s-1.3 0-2 .1v-4zM14.1 16.9l2.8-2.8 2.9 2.9c-1 .9-1.9 1.8-2.8 2.8l-2.9-2.9zm2.8 59l-2.8-2.8 2.9-2.9c.9 1 1.8 1.9 2.8 2.8l-2.9 2.9zM47 86.7h-4v-4c.7 0 1.3.1 2 .1s1.3 0 2-.1v4zm28.9-13.6l-2.8 2.8-2.9-2.9c1-.9 1.9-1.8 2.8-2.8l2.9 2.9zM45 79.5C26 79.5 10.5 64 10.5 45S26 10.5 45 10.5 79.5 26 79.5 45 64 79.5 45 79.5zM86.7 47h-4c0-.7.1-1.3.1-2s0-1.3-.1-2h4v4z"/>
  <path d="M45 14.5c-16.8 0-30.5 13.7-30.5 30.5S28.2 75.5 45 75.5 75.5 61.8 75.5 45 61.8 14.5 45 14.5zm5.2 3.7c3.6.7 7 2.1 10 4.1l-10 10V18.2zm-.4 19.2l13.1-13.1c1 .9 1.9 1.8 2.8 2.8L52.6 40.2s0 .1-.1.1c-.7-1.1-1.7-2.1-2.7-2.9-.1.1-.1 0 0 0zM43 36.3V17.8c.7 0 1.3-.1 2-.1s1.3 0 2 .1v18.6c-.6-.1-1.3-.2-2-.2s-1.4.1-2 .2v-.1zm-3.2-18.1v14.1l-10-10c2.9-1.9 6.3-3.4 10-4.1zm-12.6 6.2l13.1 13.1s.1 0 .1.1c-1.1.7-2.1 1.7-2.8 2.8 0 0 0-.1-.1-.1L24.4 27.2c.8-1 1.8-2 2.8-2.8zm-4.8 5.4l10 10H18.2c.7-3.7 2.2-7.1 4.2-10zM17.7 45c0-.7 0-1.3.1-2h18.6c-.1.6-.2 1.3-.2 2s.1 1.4.2 2H17.8c-.1-.7-.1-1.3-.1-2zm4.7 15.2c-2-3-3.4-6.3-4.1-10h14.1l-10 10zm17.4 11.6c-3.6-.7-7-2.1-10-4.1l10-10v14.1zm.4-19.2l-13 13c-1-.9-1.9-1.8-2.8-2.8l13.1-13.1s0-.1.1-.1c.6 1.2 1.6 2.2 2.6 3 .1-.1.1 0 0 0zm6.8 1.1v18.5c-.7 0-1.3.1-2 .1s-1.3 0-2-.1V53.7v-.1c.6.1 1.3.2 2 .2s1.4-.1 2-.2v.1zm-2-3.1c-3.1 0-5.6-2.5-5.6-5.6 0-3.1 2.5-5.6 5.6-5.6s5.6 2.5 5.6 5.6c0 3.1-2.5 5.6-5.6 5.6zm5.2 21.2V57.7l10 10c-2.9 1.9-6.3 3.4-10 4.1zm12.6-6.2l-13-13s-.1 0-.1-.1c1.1-.7 2.1-1.7 2.8-2.8 0 0 0 .1.1.1l13.1 13.1c-.9.9-1.9 1.9-2.9 2.7zm4.8-5.4l-10-10h14.1c-.6 3.7-2.1 7.1-4.1 10zM72.3 45c0 .7 0 1.3-.1 2H53.7h-.1c.1-.6.2-1.3.2-2s-.1-1.4-.2-2h18.6c.1.7.1 1.3.1 2zm-.5-5.2H57.7l10-10c1.9 2.9 3.4 6.3 4.1 10z"/>
</svg>
