<svg viewBox="0 0 90 90" xmlns="http://www.w3.org/2000/svg" xmlns:xlink="http://www.w3.org/1999/xlink">
  <defs>
    <path id="a" d="M0 90h90V0H0z"/>
  </defs>
  <g fill="none" fill-rule="evenodd">
    <path d="M43.012 72.209V53.727c0-.037-.008-.072-.011-.107a8.847 8.847 0 0 0 1.999.235c.688 0 1.355-.086 1.999-.235-.003.036-.011.07-.011.107v18.482c-.657.048-1.32.081-1.988.081-.67 0-1.33-.033-1.988-.081zm3.976-54.418v18.482c0 .037.008.071.01.107A8.847 8.847 0 0 0 45 36.145c-.688 0-1.355.086-2 .235.004-.036.012-.07.012-.107V17.791A27.268 27.268 0 0 1 45 17.71c.669 0 1.33.033 1.988.081zm6.739 29.197c-.037 0-.071.009-.107.011A8.848 8.848 0 0 0 53.856 45c0-.688-.087-1.355-.236-1.999.036.003.07.011.107.011H72.21c.047.657.08 1.319.08 1.988s-.033 1.331-.081 1.988H53.727zM50.24 57.653l9.984 9.984a27.134 27.134 0 0 1-9.984 4.142V57.653zm0-25.306V18.221c3.636.71 7.017 2.14 9.984 4.142l-9.984 9.984zm21.539 7.412H57.653l9.984-9.984a27.152 27.152 0 0 1 4.143 9.984zm-6.143-12.584l-13.06 13.059c-.026.027-.046.059-.071.088a8.906 8.906 0 0 0-2.827-2.827c.028-.025.06-.046.086-.072l13.06-13.06a27.344 27.344 0 0 1 2.812 2.812zM39.397 45A5.61 5.61 0 0 1 45 39.397 5.61 5.61 0 0 1 50.603 45 5.61 5.61 0 0 1 45 50.603 5.61 5.61 0 0 1 39.398 45zm.362 12.653v14.126a27.122 27.122 0 0 1-9.983-4.142l9.983-9.984zm-3.485-14.641c.037 0 .07-.008.107-.011A8.848 8.848 0 0 0 36.145 45c0 .688.087 1.355.236 1.999-.036-.002-.07-.011-.107-.011H17.792A27.245 27.245 0 0 1 17.71 45c0-.669.033-1.331.08-1.988h18.483zm3.485-10.665l-9.984-9.984a27.134 27.134 0 0 1 9.984-4.142v14.126zm-12.584-7.984l13.059 13.058c.027.028.059.049.088.074a8.916 8.916 0 0 0-2.827 2.827c-.025-.029-.045-.061-.073-.089L24.364 27.174a27.526 27.526 0 0 1 2.81-2.811zm-4.811 5.412l9.984 9.984H18.22a27.152 27.152 0 0 1 4.143-9.984zm-4.142 20.466h14.126l-9.984 9.984a27.134 27.134 0 0 1-4.142-9.984zm6.142 12.584l13.059-13.059c.027-.027.048-.059.073-.088a8.913 8.913 0 0 0 2.826 2.827c-.028.025-.06.046-.087.073l-13.06 13.059a27.536 27.536 0 0 1-2.811-2.812zm38.46 2.812l-13.06-13.061c-.026-.026-.058-.046-.086-.071a8.906 8.906 0 0 0 2.827-2.827c.025.029.046.06.072.087l13.06 13.06a27.445 27.445 0 0 1-2.812 2.812zm4.813-5.412l-9.984-9.984h14.126a27.134 27.134 0 0 1-4.142 9.984zM45 14.458c-16.841 0-30.542 13.701-30.542 30.542S28.158 75.542 45 75.542c16.842 0 30.543-13.701 30.543-30.542S61.842 14.458 45 14.458z" fill="currentColor"/>
    <mask id="b" fill="#fff">
      <use xlink:href="#a"/>
    </mask>
    <path d="M86.747 46.988h-4.029a38.564 38.564 0 0 0 0-3.976h4.03v3.976zm-10.82 26.126l-2.814 2.811-2.862-2.863a38.049 38.049 0 0 0 2.811-2.812l2.864 2.864zM46.987 86.747h-3.976v-4.029a37.43 37.43 0 0 0 3.976 0v4.03zM16.886 75.925l-2.81-2.81 2.862-2.864a38.23 38.23 0 0 0 2.811 2.811l-2.863 2.863zM3.253 46.988v-3.976h4.03a37.417 37.417 0 0 0 0 3.976h-4.03zm10.822-30.103l2.811-2.81 2.863 2.863a38.035 38.035 0 0 0-2.81 2.811l-2.864-2.864zM43.012 3.253h3.976v4.028a38.555 38.555 0 0 0-3.976 0V3.253zm30.101 10.821l2.813 2.811-2.864 2.864a38.049 38.049 0 0 0-2.812-2.81l2.863-2.865zM45 79.518c-19.034 0-34.518-15.484-34.518-34.519 0-19.033 15.484-34.517 34.518-34.517 19.033 0 34.518 15.484 34.518 34.517 0 19.035-15.485 34.52-34.518 34.52zM88.373 39.76H82.4a37.584 37.584 0 0 0-7.256-17.49l4.233-4.234a1.623 1.623 0 0 0 0-2.299l-5.113-5.112a1.625 1.625 0 0 0-2.3 0l-4.232 4.233A37.596 37.596 0 0 0 50.241 7.6V1.626C50.241.728 49.512 0 48.614 0h-7.229c-.898 0-1.626.728-1.626 1.626V7.6a37.596 37.596 0 0 0-17.49 7.257l-4.233-4.233a1.625 1.625 0 0 0-2.3 0l-5.112 5.112a1.625 1.625 0 0 0 0 2.3l4.233 4.232A37.588 37.588 0 0 0 7.601 39.76H1.626C.728 39.76 0 40.487 0 41.385v7.23c0 .897.728 1.626 1.626 1.626h5.975a37.584 37.584 0 0 0 7.256 17.49l-4.233 4.233a1.627 1.627 0 0 0 0 2.3l5.112 5.112a1.63 1.63 0 0 0 2.3 0l4.232-4.233A37.577 37.577 0 0 0 39.76 82.4v5.974c0 .898.728 1.627 1.626 1.627h7.23c.897 0 1.626-.729 1.626-1.627V82.4a37.576 37.576 0 0 0 17.49-7.258l4.232 4.234a1.624 1.624 0 0 0 2.3 0l5.113-5.112a1.627 1.627 0 0 0 0-2.3l-4.233-4.233a37.584 37.584 0 0 0 7.256-17.49h5.974c.898 0 1.627-.729 1.627-1.627v-7.229c0-.898-.729-1.626-1.627-1.626z" fill="currentColor" mask="url(#b)"/>
  </g>
</svg>
