<?xml version="1.0" standalone="no"?>
<!DOCTYPE svg PUBLIC "-//W3C//DTD SVG 20010904//EN"
 "http://www.w3.org/TR/2001/REC-SVG-20010904/DTD/svg10.dtd">
<svg version="1.0" xmlns="http://www.w3.org/2000/svg"
 width="261.000000pt" height="261.000000pt" viewBox="0 0 261.000000 261.000000"
 preserveAspectRatio="xMidYMid meet">
<metadata>
Created by potrace 1.11, written by Peter Selinger 2001-2013
</metadata>
<g transform="translate(0.000000,261.000000) scale(0.100000,-0.100000)"
fill="#000000" stroke="none">
<path d="M85 2179 c-42 -7 -65 -30 -66 -66 0 -30 0 -1588 0 -1608 1 -8 10 -24
21 -35 18 -18 33 -20 144 -20 177 0 165 -24 164 331 0 154 2 282 5 285 10 10
267 8 276 -2 10 -10 33 -51 94 -164 22 -41 45 -84 52 -95 6 -11 38 -69 70
-130 32 -60 66 -122 77 -137 10 -14 18 -31 18 -37 0 -5 10 -19 22 -31 20 -18
35 -20 170 -20 135 0 150 2 168 20 23 23 25 54 7 90 -22 41 -77 139 -108 192
-16 27 -29 50 -29 52 0 1 -42 78 -94 171 l-95 167 60 40 c146 98 229 263 230
458 0 302 -213 523 -521 539 -116 6 -629 6 -665 0z m600 -320 c116 -4 184 -42
223 -127 47 -104 16 -253 -66 -308 -51 -35 -118 -44 -312 -44 l-180 0 -1 148
c-1 150 -1 312 0 324 2 13 87 15 336 7z"/>
<path d="M1820 2116 c-105 -30 -175 -71 -245 -141 -97 -96 -139 -207 -129
-343 9 -133 96 -248 236 -315 92 -44 133 -58 310 -102 223 -56 316 -95 372
-153 54 -58 64 -178 21 -262 -107 -207 -506 -244 -705 -64 -38 35 -76 99 -85
145 -3 13 -8 38 -11 56 -8 45 -26 56 -90 58 -44 1 -58 -3 -75 -21 -19 -20 -21
-31 -15 -81 7 -68 38 -151 77 -209 79 -117 248 -215 413 -239 49 -7 223 -8
234 -2 4 3 27 8 52 12 188 28 359 177 404 351 53 204 -26 379 -212 477 -59 31
-194 81 -248 91 -103 21 -279 72 -338 99 -122 57 -162 112 -153 213 13 171
174 280 394 270 193 -10 332 -108 356 -251 11 -66 37 -85 110 -80 56 4 79 29
76 85 -9 187 -184 362 -412 413 -102 23 -246 20 -337 -7z"/>
</g>
</svg>
